<svg width="24" height="24" viewBox="0 0 24 24" fill="none" xmlns="http://www.w3.org/2000/svg">
<path fill-rule="evenodd" clip-rule="evenodd" d="M6.5 16C7.32843 16 8 16.6716 8 17.5C8 18.3284 7.32843 19 6.5 19C5.67157 19 5 18.3284 5 17.5C5 16.6716 5.67157 16 6.5 16ZM18.5 16C19.3284 16 20 16.6716 20 17.5C20 18.3284 19.3284 19 18.5 19C17.6716 19 17 18.3284 17 17.5C17 16.6716 17.6716 16 18.5 16ZM14 7V14H15V8H20L22 12V17L20.9501 17.0006C20.7187 15.8592 19.7097 15 18.5 15C17.2903 15 16.2813 15.8592 16.0499 17.0006H8.95011C8.71869 15.8592 7.70968 15 6.5 15C5.29032 15 4.28131 15.8592 4.04989 17.0006L2 17V7H14ZM12 9H4V14H12V9ZM18.764 10H17V12H19.764L18.764 10Z" fill="#00BEDC"/>
</svg>
