<svg width="24" height="24" viewBox="0 0 24 24" fill="none" xmlns="http://www.w3.org/2000/svg">
<path fill-rule="evenodd" clip-rule="evenodd" d="M13.4142 2.11167L21.8883 10.5858C22.6693 11.3668 22.6693 12.6331 21.8883 13.4142L13.4142 21.8883C12.6331 22.6693 11.3668 22.6693 10.5858 21.8883L2.11167 13.4142C1.33062 12.6331 1.33062 11.3668 2.11167 10.5858L10.5858 2.11167C11.3668 1.33062 12.6331 1.33062 13.4142 2.11167ZM12 3.52588L3.52588 12L12 20.4741L20.4741 12L12 3.52588ZM12 14.75C12.7143 14.75 13.25 15.278 13.25 15.998C13.25 16.718 12.7143 17.246 12 17.246C11.2695 17.246 10.75 16.718 10.75 15.982C10.75 15.278 11.2857 14.75 12 14.75ZM13 6.99998V13H11V6.99998H13Z" fill="#FFD732"/>
</svg>
