<svg width="32" height="32" viewBox="0 0 32 32" fill="none" xmlns="http://www.w3.org/2000/svg">
<g clip-path="url(#clip0_194_10507)">
<path d="M31.9734 15.9999C31.9734 24.822 24.822 31.9734 16 31.9734C7.17795 31.9734 0.0264893 24.822 0.0264893 15.9999C0.0264893 7.17789 7.17795 0.0264378 16 0.0264378C24.822 0.0264378 31.9734 7.17789 31.9734 15.9999Z" fill="white"/>
<path d="M16.0002 0.558739C7.49768 0.558739 0.559204 7.49722 0.559204 15.9998C0.559204 24.5023 7.49768 31.4408 16.0002 31.4408C24.5025 31.4408 31.4413 24.5023 31.4413 15.9998C31.4413 7.49722 24.5025 0.558739 16.0002 0.558739ZM2.15655 13.6037H29.8439V18.3958H2.15655V13.6037Z" fill="#A60F18"/>
<path d="M1.58463 1.61627H1.58616V1.6178H1.58463V1.61627Z" fill="black"/>
<path d="M1.58463 1.61792V1.61632L1.58616 1.61792H1.58463ZM1.58616 1.61792L1.58463 1.61632V1.61792H1.58616Z" fill="black"/>
<path d="M1.58795 1.61792H1.58463H1.58616V1.61632L1.58795 1.61792Z" fill="black"/>
<path d="M1.58463 1.61626H1.58616V1.61779H1.58463V1.61626ZM1.58795 1.61626V1.61938H1.58463L1.58795 1.61626Z" fill="black"/>
<path d="M1.58463 1.61626H1.58802V1.61938H1.58463V1.61626Z" fill="black"/>
<path d="M1.58463 1.61938V1.61626L1.58795 1.61938H1.58463ZM1.58795 1.61938L1.58463 1.61626V1.61938H1.58795Z" fill="black"/>
<path d="M1.58795 1.61938H1.58463H1.58616V1.61626L1.58795 1.61938Z" fill="black"/>
<path d="M1.58463 1.61938V1.61626V1.61938L1.58795 1.61626L1.58463 1.61938Z" fill="black"/>
<path d="M1.58463 1.61626H1.58802V1.61938H1.58463V1.61626Z" fill="black"/>
<path d="M1.58795 1.61626V1.61938H1.58463L1.58795 1.61626Z" fill="black"/>
<path d="M1.58463 1.61626H1.58802V1.61938H1.58463V1.61626Z" fill="black"/>
<path d="M1.58463 1.61938V1.61626L1.58795 1.61938H1.58463ZM1.58795 1.61938L1.58463 1.61626V1.61938H1.58795Z" fill="black"/>
<path d="M1.58795 1.61938H1.58463H1.58616V1.61626L1.58795 1.61938Z" fill="black"/>
<path d="M1.58463 1.61938V1.61626V1.61938L1.58795 1.61626L1.58463 1.61938Z" fill="black"/>
<path d="M1.58463 1.61626H1.58802V1.61938H1.58463V1.61626Z" fill="black"/>
<path d="M1.58795 1.61626V1.61938H1.58463L1.58795 1.61626Z" fill="black"/>
<path d="M1.58463 1.61626H1.58802V1.61938H1.58463V1.61626Z" fill="black"/>
<path d="M1.58463 1.61938V1.61626L1.58795 1.61938H1.58463ZM1.58795 1.61938L1.58463 1.61626V1.61938H1.58795Z" fill="black"/>
<path d="M1.58795 1.61938H1.58463H1.58616V1.61626L1.58795 1.61938Z" fill="black"/>
<path d="M1.58463 1.61938V1.61626V1.61938L1.58795 1.61626L1.58463 1.61938Z" fill="black"/>
<path d="M1.58463 1.61626H1.58802V1.61938H1.58463V1.61626Z" fill="black"/>
</g>
<defs>
<clipPath id="clip0_194_10507">
<rect width="32" height="32" fill="white"/>
</clipPath>
</defs>
</svg>
