<?xml version="1.0" encoding="UTF-8" standalone="no"?>
<!-- Generator: Adobe Illustrator 24.3.0, SVG Export Plug-In . SVG Version: 6.00 Build 0)  -->

<svg
   version="1.1"
   id="Ebene_1"
   x="0px"
   y="0px"
   viewBox="0 0 40 40"
   style="enable-background:new 0 0 40 40;"
   xml:space="preserve"
   sodipodi:docname="point-up.svg"
   inkscape:version="1.3.2 (091e20e, 2023-11-25, custom)"
   xmlns:inkscape="http://www.inkscape.org/namespaces/inkscape"
   xmlns:sodipodi="http://sodipodi.sourceforge.net/DTD/sodipodi-0.dtd"
   xmlns="http://www.w3.org/2000/svg"
   xmlns:svg="http://www.w3.org/2000/svg"><defs
   id="defs1" /><sodipodi:namedview
   id="namedview1"
   pagecolor="#ffffff"
   bordercolor="#000000"
   borderopacity="0.25"
   inkscape:showpageshadow="2"
   inkscape:pageopacity="0.0"
   inkscape:pagecheckerboard="0"
   inkscape:deskcolor="#d1d1d1"
   inkscape:zoom="11.313709"
   inkscape:cx="31.598834"
   inkscape:cy="21.699339"
   inkscape:window-width="2560"
   inkscape:window-height="1369"
   inkscape:window-x="1672"
   inkscape:window-y="-8"
   inkscape:window-maximized="1"
   inkscape:current-layer="g1" />
<style
   type="text/css"
   id="style1">
	.st0{fill:#FFD732;}
</style>
<g
   id="g1"
   transform="matrix(1.21,0,0,1.21,-2.869,-4.2605)">
	<path
   id="path1"
   class="st0"
   d="m 18.777441,5.1 c 0.9,0 1.7,0.6 1.7,1.5 v 10.9 h 0.2 0.7 V 7.6 c 0,-0.8 0.7,-1.5 1.7,-1.5 1,0 1.7,0.6 1.7,1.5 v 10.9 l 0.1,0.1 c 0.5,0.3 0.8,0.6 1.2,0.8 h 0.1 V 11 c 0,-0.8 0.6,-1.5 1.5,-1.5 0.8,0 1.5,0.6 1.5,1.5 v 13.5 0.1 0.1 c 0.1,0.5 0.1,1 0.1,1.6 0,4.8 -3.9,8.7 -8.7,8.7 -1,0 -2.112991,-0.245197 -3,-0.6 -2.097232,-1.221147 -0.552444,-0.309136 -0.668337,-0.380862 -0.329132,-0.187164 -0.07694,-0.0256 -0.741348,-0.438508 L 15.96445,33.454804 15.877441,33.4 c -0.09,-0.06756 -0.9,-0.6 -1.3,-1 l -0.1,-0.1 c -1.4,-1.4 -3.1,-3.7 -4.3,-7.5 L 5.4774414,18.6 c 0,0 0.8,-1.3 2.3,-1.3 1.1,0 2.4999996,0.7 4.2999996,3.2 l 0.5,0.2 V 8.6 c 0,-0.8 0.7,-1.5 1.7,-1.5 0.9,0 1.7,0.6 1.7,1.5 v 10.3 l 0.2,-0.1 c 0.2,-0.1 0.5,-0.3 0.6,-0.4 l 0.2,-0.1 V 6.6 c 0,-0.8 0.8,-1.5 1.8,-1.5 z"
   sodipodi:nodetypes="sscccsssccccssscccsscccccssccsccssscsccss"
   style="fill:none;stroke:#FFD732;stroke-width:2.47934;stroke-dasharray:none;stroke-opacity:1" />
</g>
</svg>
