<svg width="24" height="24" viewBox="0 0 24 24" fill="none" xmlns="http://www.w3.org/2000/svg">
<path fill-rule="evenodd" clip-rule="evenodd" d="M11 3L10.8238 3.00509C9.24895 3.09634 8.00003 4.40232 8.00003 6V12.739L7.86834 12.6387C6.64665 11.7666 4.95684 11.8497 3.8243 12.8878C2.67201 13.9441 2.55119 15.7052 3.51682 16.9063L3.69852 17.1121L8.58582 22H20V12.7792L14 10.779V6C14 4.34315 12.6569 3 11 3ZM11 5C11.5523 5 12 5.44772 12 6V12.2208L18 14.22V20H9.41503L5.1175 15.702C4.7636 15.3159 4.78968 14.7161 5.17575 14.3622C5.64212 13.9346 6.35793 13.9346 6.8243 14.3622L10 17.2732V6C10 5.44772 10.4477 5 11 5Z" fill="#FFD732"/>
</svg>
