<svg width="24" height="24" viewBox="0 0 24 24" fill="none" xmlns="http://www.w3.org/2000/svg">
<path fill-rule="evenodd" clip-rule="evenodd" d="M6 14C7.10457 14 8 14.8954 8 16C8 17.1046 7.10457 18 6 18C4.89543 18 4 17.1046 4 16C4 14.8954 4.89543 14 6 14ZM17.5 14C18.6046 14 19.5 14.8954 19.5 16C19.5 17.1046 18.6046 18 17.5 18C16.3954 18 15.5 17.1046 15.5 16C15.5 14.8954 16.3954 14 17.5 14ZM14.5 16C14.5 16.351 14.5603 16.6879 14.671 17.0009H8.82898C8.93973 16.6879 9 16.351 9 16C9 15.6494 8.93986 15.3128 8.82933 15.0001H14.6707C14.5601 15.3128 14.5 15.6494 14.5 16ZM13.3333 7L13.6 7.2L17.437 10.078L20.4851 10.8405C21.323 11.05 21.9256 11.7709 21.9936 12.6201L22 12.7808V16.2808L21.2425 16.4701L20.4235 16.676C20.4736 16.4587 20.5 16.2324 20.5 16C20.5 15.3875 20.3165 14.8179 20.0014 14.3432L20 12.7808L16.7575 11.9701L16.5616 11.9212L16.522 11.892L16 12.4142C15.6249 12.7893 15.1162 13 14.5858 13L4 12.999L4.0001 13.7638C3.38629 14.3131 3 15.1115 3 16C3 16.153 3.01145 16.3032 3.03353 16.45L2.29289 15.7071L2 15.4142V10.6379L2.23178 10.3598L4.73178 7.35982L5.03163 7H13.3333ZM12.667 9H5.968L4.302 10.999L14.5858 11L14.905 10.679L12.667 9Z" fill="black"/>
</svg>
