<?xml version="1.0" encoding="UTF-8"?>
<!DOCTYPE svg PUBLIC "-//W3C//DTD SVG 1.1//EN" "http://www.w3.org/Graphics/SVG/1.1/DTD/svg11.dtd">
<svg xmlns="http://www.w3.org/2000/svg" version="1.1" width="30px" height="29px" style="shape-rendering:geometricPrecision; text-rendering:geometricPrecision; image-rendering:optimizeQuality; fill-rule:evenodd; clip-rule:evenodd" xmlns:xlink="http://www.w3.org/1999/xlink">
<g><path style="opacity:0.964" fill="#000000" d="M 13.5,1.5 C 16.0692,2.39564 18.0692,4.0623 19.5,6.5C 20.3857,5.67504 20.719,4.67504 20.5,3.5C 21.5,3.5 22.5,3.5 23.5,3.5C 23.1866,6.24688 23.52,8.91355 24.5,11.5C 26.1667,12.5 27.5,13.8333 28.5,15.5C 27.675,16.3857 26.675,16.719 25.5,16.5C 25.5,19.8333 25.5,23.1667 25.5,26.5C 22.8333,26.5 20.1667,26.5 17.5,26.5C 17.5,23.8333 17.5,21.1667 17.5,18.5C 15.5,18.5 13.5,18.5 11.5,18.5C 11.5,21.1667 11.5,23.8333 11.5,26.5C 8.83333,26.5 6.16667,26.5 3.5,26.5C 3.5,23.1667 3.5,19.8333 3.5,16.5C 1.64527,16.728 0.811935,16.0613 1,14.5C 5.37016,10.2978 9.53682,5.96447 13.5,1.5 Z"/></g>
</svg>
