<?xml version="1.0" encoding="utf-8"?>
<!-- Generator: Adobe Illustrator 24.3.0, SVG Export Plug-In . SVG Version: 6.00 Build 0)  -->
<svg version="1.1" id="Ebene_1" xmlns="http://www.w3.org/2000/svg" xmlns:xlink="http://www.w3.org/1999/xlink" x="0px" y="0px"
	 viewBox="0 0 40 40" style="enable-background:new 0 0 40 40;" xml:space="preserve">
<style type="text/css">
	.st0{fill:#797979;}
	.st1{fill:#FFFFFF;}
	.st2{fill:#41AAAA;}
	.st3{fill:#EF0137;}
	.st4{fill:#787878;}
	.st5{fill:#FFD732;}
</style>
<g>
	<path class="st0" d="M23.7,33.6l-2-0.9v-3.3l1.9-0.8c0.1-0.3,0.2-0.5,0.3-0.8l-0.9-2l2.5-2.5l2.3,0.9c0.1,0,0.2-0.1,0.3-0.1l0,0
		L29,22h3.5l0.9,2.1l0,0c0.2,0.1,0.4,0.2,0.6,0.3l1.8-0.9v-6.2c0-1.7-1.4-3.1-3.1-3.1H7.4c-1.7,0-3.1,1.4-3.1,3.1v15.1
		c0,1.7,1.4,3.1,3.1,3.1h16.2l0.4-0.7C23.9,34.3,23.8,33.9,23.7,33.6z"/>
	<g>
		<rect x="8.4" y="25.3" class="st1" width="7.2" height="1.2"/>
		<rect x="8.4" y="22.8" class="st1" width="10" height="1.2"/>
		<rect x="8.4" y="27.7" class="st1" width="6.2" height="1.2"/>
		<rect x="8.2" y="30.2" class="st1" width="11.1" height="1.2"/>
	</g>
	<g>
		<path class="st2" d="M38.6,32.6v-2.4l-1.9-0.6c-0.2-0.4-0.3-0.7-0.5-1l0.9-1.7l-1.6-1.7l-1.7,0.9c-0.4-0.3-0.6-0.4-1-0.5l-0.6-1.9
			h-2.3l-0.6,1.9c-0.4,0.2-0.7,0.3-1,0.5l-1.7-0.9L25,26.9l0.9,1.8c-0.3,0.4-0.4,0.6-0.5,1l-1.9,0.6v2.3l1.9,0.6
			c0.2,0.4,0.3,0.7,0.5,1L25,36.1l1.7,1.7l1.7-0.9c0.4,0.3,0.6,0.4,1,0.5l0.6,1.9h2.3l0.6-1.9c0.4-0.2,0.7-0.3,1-0.5l1.7,0.9
			l1.7-1.7l-0.9-1.7c0.3-0.4,0.4-0.6,0.5-1L38.6,32.6z M30.9,34.1c-1.5,0-2.6-1.1-2.6-2.6c0-1.5,1.1-2.6,2.6-2.6
			c1.5,0,2.6,1.1,2.6,2.6C33.5,32.9,32.4,34.1,30.9,34.1z"/>
	</g>
	<g>
		<g>
			<ellipse class="st3" cx="10.5" cy="10.4" rx="6.6" ry="6.6"/>
			<path class="st4" d="M10.5,3.1c-4.2,0-7.4,3.3-7.4,7.4s3.3,7.4,7.4,7.4s7.4-3.3,7.4-7.4C17.9,6.2,14.6,3.1,10.5,3.1z M10.5,16.9
				C7,16.9,4,14,4,10.4c0-3.5,2.9-6.5,6.5-6.5c3.5,0,6.5,2.9,6.5,6.5S14,16.9,10.5,16.9z"/>
			<path class="st1" d="M7.1,12.5c-0.1,0.3,0.1,0.6,0.5,0.6h1.7c0,0.7,0.6,1.4,1.3,1.4s1.3-0.6,1.3-1.3h1.7c0.3,0,0.6-0.3,0.5-0.6
				c0,0-0.7-0.7-0.7-1.7V9.3l0,0c0-0.2-0.2-1.6-2-2V7.1c0-0.5-0.1-0.8-0.7-0.8S9.6,6.8,9.6,7.1v0.1c-1.6,0.4-2,1.9-2,2l0,0
				c0,0,0,0.6,0,1.6C7.8,11.9,7.1,12.5,7.1,12.5z"/>
			<path class="st1" d="M12.2,5.9c0.7,0.3,1.3,0.7,1.7,1.4c0.6,0.7,0.8,1.4,1,2.2l0.7-0.2c-0.2-0.8-0.5-1.7-1.2-2.5
				c-0.6-0.7-1.3-1.2-2-1.5L12.2,5.9z"/>
			<path class="st1" d="M8.8,5.9C8.1,6.2,7.5,6.8,7.1,7.3C6.5,7.9,6.2,8.6,6,9.6L5.3,9.3c0.2-0.8,0.6-1.8,1.2-2.6s1.2-1.2,1.8-1.6
				L8.8,5.9z"/>
		</g>
		<g>
			<ellipse class="st5" cx="29" cy="10.4" rx="6.7" ry="6.5"/>
			<path class="st4" d="M28.9,3c-4.2,0-7.4,3.3-7.4,7.4s3.3,7.4,7.4,7.4s7.4-3.3,7.4-7.4S33,3,28.9,3z M28.9,16.9
				c-3.5,0-6.5-2.9-6.5-6.5c0-3.5,2.9-6.5,6.5-6.5c3.5,0,6.5,2.9,6.5,6.5C35.3,13.9,32.5,16.9,28.9,16.9z"/>
			<g>
				<path class="st2" d="M28.9,6.3L28.9,6.3L28.9,6.3L28.9,6.3L28.9,6.3c-2,0-1.5,2-1.5,2l0.9,3.7h0.6l0,0h0.6l0.9-3.7
					C30.5,8.4,30.8,6.3,28.9,6.3z"/>
				<ellipse class="st2" cx="28.9" cy="13.7" rx="1" ry="1"/>
			</g>
		</g>
	</g>
</g>
</svg>
