<?xml version="1.0" encoding="utf-8"?>
<!-- Generator: Adobe Illustrator 24.3.0, SVG Export Plug-In . SVG Version: 6.00 Build 0)  -->
<svg version="1.1" id="Ebene_1" xmlns="http://www.w3.org/2000/svg" xmlns:xlink="http://www.w3.org/1999/xlink" x="0px" y="0px"
	 viewBox="0 0 40 40" style="enable-background:new 0 0 40 40;" xml:space="preserve">
<style type="text/css">
	.st0{fill:#FFFFFF;}
	.st1{fill:#787878;}
	.st2{fill:#797979;}
	.st3{fill:#41AAAA;}
	.st4{fill:#EF0137;}
	.st5{fill:#FFD732;}
</style>
<g>
	<g>
		<polygon class="st0" points="11.2,6.7 24,6.8 32.2,15.4 32.2,35.9 11.1,35.9 		"/>
		<path class="st1" d="M32.3,14.4l-7.2-7.6C24.5,6.3,23.9,6,23.2,6H12.9c-1.5,0-2.5,1.2-2.5,2.6V34c0,1.5,1.1,2.6,2.5,2.6h17.5
			c1.5,0,2.5-1.2,2.5-2.6V16.2C32.9,15.7,32.7,15,32.3,14.4z M30.6,35.7H12.7c-0.9,0-1.5-0.6-1.5-1.5V8.4c0-0.7,0.6-1.5,1.5-1.5
			h10.4c0.3,0,1,0.1,1.2,0.4l7.4,7.8c0.3,0.3,0.3,1,0.3,1.4v17.8C32,35.2,31.4,35.7,30.6,35.7z"/>
		<path class="st2" d="M23.6,6.9l-0.1,8.3c0,0.3,0.2,0.5,0.5,0.5h8c0,0,0-0.5-0.3-0.7l-7.4-7.8C24.2,7,23.6,6.9,23.6,6.9z"/>
		<path class="st0" d="M24.6,8.1l-0.1,6.2c0,0.2,0.2,0.4,0.4,0.4h6c0,0,0-0.4-0.2-0.5l-5.6-5.9C25,8.1,24.6,8.1,24.6,8.1z"/>
	</g>
	<g>
		<rect x="15.3" y="23.4" class="st2" width="12.7" height="4.6"/>
		<path class="st0" d="M23.9,25.1v0.5c0,0.5-0.4,0.9-0.9,0.9h-2.7c-0.5,0-0.9-0.4-0.9-0.9l0,0v-0.5h0.9l0,0c0,0.4,0.1,0.5,0.7,0.5
			h1.8c0.1,0,0.2-0.1,0.2-0.5l0,0H23.9z"/>
	</g>
	<g>
		<rect x="15.3" y="17.9" class="st2" width="12.7" height="4.6"/>
		<path class="st0" d="M23.9,19.7v0.5c0,0.5-0.4,0.9-0.9,0.9h-2.7c-0.5,0-0.9-0.4-0.9-0.9l0,0v-0.5h0.9l0,0c0,0.4,0.1,0.5,0.7,0.5
			h1.8c0.1,0,0.2-0.1,0.2-0.5l0,0H23.9z"/>
	</g>
	<g>
		<rect x="15.3" y="28.9" class="st2" width="12.7" height="4.6"/>
		<path class="st0" d="M23.9,30.6v0.5c0,0.5-0.4,0.9-0.9,0.9h-2.7c-0.5,0-0.9-0.4-0.9-0.9l0,0v-0.5h0.9l0,0c0,0.4,0.1,0.5,0.7,0.5
			h1.8c0.1,0,0.2-0.1,0.2-0.5l0,0C23.1,30.6,23.9,30.6,23.9,30.6z"/>
	</g>
	<path class="st3" d="M34.9,32.2v1.9c-0.6,0.1-1.6-0.1-3-0.7c-2.1-1.1-2.8-3.6-2.8-3.6s-0.7,4,1.9,6.1c1.7,1.3,3.1,1.4,3.8,1.3v1.6
		l4-3.2L34.9,32.2z"/>
	<g>
		<g>
			<ellipse class="st4" cx="8.7" cy="8.7" rx="6.6" ry="6.6"/>
			<path class="st1" d="M8.7,1.4c-4.2,0-7.4,3.3-7.4,7.4s3.3,7.4,7.4,7.4s7.4-3.3,7.4-7.4C16.1,4.5,12.8,1.4,8.7,1.4z M8.7,15.2
				c-3.5,0-6.5-2.9-6.5-6.5c0-3.5,2.9-6.5,6.5-6.5c3.5,0,6.5,2.9,6.5,6.5S12.2,15.2,8.7,15.2z"/>
			<path class="st0" d="M5.3,10.8c-0.1,0.3,0.1,0.6,0.5,0.6h1.7c0,0.7,0.6,1.4,1.3,1.4s1.3-0.6,1.3-1.3h1.7c0.3,0,0.6-0.3,0.5-0.6
				c0,0-0.7-0.7-0.7-1.7V7.6l0,0c0-0.2-0.2-1.6-2-2V5.4c0-0.5-0.1-0.8-0.7-0.8S7.8,5.1,7.8,5.4v0.1c-1.6,0.4-2,1.9-2,2l0,0
				c0,0,0,0.6,0,1.6C6,10.2,5.3,10.8,5.3,10.8z"/>
			<path class="st0" d="M10.4,4.2c0.7,0.3,1.3,0.7,1.7,1.4c0.6,0.7,0.8,1.4,1,2.2l0.7-0.2c-0.2-0.8-0.5-1.7-1.2-2.5
				c-0.6-0.7-1.3-1.2-2-1.5L10.4,4.2z"/>
			<path class="st0" d="M7,4.2C6.3,4.5,5.7,5.1,5.3,5.6C4.7,6.2,4.4,6.9,4.2,7.9L3.5,7.6C3.7,6.8,4.1,5.8,4.7,5s1.2-1.2,1.8-1.6
				L7,4.2z"/>
		</g>
		<g>
			<ellipse class="st5" cx="24.7" cy="8.7" rx="6.7" ry="6.5"/>
			<path class="st1" d="M24.6,1.3c-4.2,0-7.4,3.3-7.4,7.4s3.3,7.4,7.4,7.4S32,12.8,32,8.7S28.7,1.3,24.6,1.3z M24.6,15.2
				c-3.5,0-6.5-2.9-6.5-6.5c0-3.5,2.9-6.5,6.5-6.5c3.5,0,6.5,2.9,6.5,6.5C31,12.2,28.2,15.2,24.6,15.2z"/>
			<g>
				<path class="st3" d="M24.6,4.6L24.6,4.6L24.6,4.6L24.6,4.6L24.6,4.6c-2,0-1.5,2-1.5,2l0.9,3.7h0.6l0,0h0.6l0.9-3.7
					C26.2,6.7,26.5,4.6,24.6,4.6z"/>
				<ellipse class="st3" cx="24.6" cy="12" rx="1" ry="1"/>
			</g>
		</g>
	</g>
</g>
</svg>
