<?xml version="1.0" encoding="utf-8"?>
<!-- Generator: Adobe Illustrator 24.3.0, SVG Export Plug-In . SVG Version: 6.00 Build 0)  -->
<svg version="1.1" id="Ebene_1" xmlns="http://www.w3.org/2000/svg" xmlns:xlink="http://www.w3.org/1999/xlink" x="0px" y="0px"
	 viewBox="0 0 40 40" style="enable-background:new 0 0 40 40;" xml:space="preserve">
<style type="text/css">
	.st0{fill:#41AAAA;}
	.st1{fill:#797979;}
</style>
<g>
	<rect x="13.6" y="11.7" class="st0" width="13.3" height="4.8"/>
	<path class="st1" d="M22.6,13.5V14c0,0.4-0.4,1-1,1h-2.8c-0.4-0.1-0.9-0.4-0.9-1l0,0v-0.4h1l0,0c0,0.4,0.1,0.4,0.4,0.4h1.9
		c0.4,0,0.4-0.1,0.4-0.4l0,0h1V13.5z"/>
	<rect x="13.6" y="17.3" class="st0" width="13.3" height="4.8"/>
	<path class="st1" d="M22.6,19.2v0.4c0,0.4-0.4,1-1,1h-2.8c-0.4,0-1-0.4-1-1l0,0v-0.4h1l0,0c0,0.4,0.1,0.4,0.4,0.4h1.9
		c0.4,0,0.4-0.1,0.4-0.4l0,0H22.6z"/>
	<rect x="13.6" y="23.1" class="st0" width="13.3" height="4.8"/>
	<path class="st1" d="M22.6,25.5c0,0.4-0.4,1-1,1h-2.8c-0.4,0-1-0.4-1-1V25h1c0,0.4,0.1,0.4,0.4,0.4h1.9c0.4,0,0.4,0,0.4-0.3V25h1
		v0.5H22.6z"/>
</g>
<polygon class="st0" points="22.6,4.1 21,5.8 21,1.7 19.8,1.7 19.8,5.8 18.2,4.1 17.3,5 19.6,7.2 20.4,8 21.2,7.2 23.4,5 "/>
<polygon class="st0" points="18.2,35.5 19.8,33.8 19.8,37.9 21,37.9 21,33.8 22.6,35.5 23.4,34.6 21.2,32.4 20.4,31.6 19.6,32.4 
	17.3,34.6 "/>
<polygon class="st1" points="28.3,27.9 28.3,29.6 12,29.6 12,27.9 10.9,27.9 10.9,29.6 10.9,30.7 10.9,30.7 29.4,30.7 29.4,30.7 
	29.4,29.6 29.4,27.9 "/>
<polygon class="st1" points="12,11.8 12,10 28.3,10 28.3,11.8 29.4,11.8 29.4,8.9 29.4,8.9 10.9,8.9 10.9,8.9 10.9,11.8 "/>
</svg>
