<?xml version="1.0" encoding="utf-8"?>
<!-- Generator: Adobe Illustrator 24.3.0, SVG Export Plug-In . SVG Version: 6.00 Build 0)  -->
<svg version="1.1" id="Ebene_1" xmlns="http://www.w3.org/2000/svg" xmlns:xlink="http://www.w3.org/1999/xlink" x="0px" y="0px"
	 viewBox="0 0 40 40" style="enable-background:new 0 0 40 40;" xml:space="preserve">
<style type="text/css">
	.st0{fill:#787879;}
	.st1{fill:#FFFFFF;}
	.st2{fill:#41AAAA;}
	.st3{fill:#787878;}
</style>
<g>
	<path class="st0" d="M33.9,35.9H6.3c-1.7,0-3.1-1.4-3.1-3.1V7.3c0-1.7,1.4-3.1,3.1-3.1h27.6c1.7,0,3.1,1.4,3.1,3.1v25.4
		C37,34.4,35.6,35.9,33.9,35.9z"/>
	<path class="st1" d="M33.9,34.2H6.4c-0.8,0-1.4-0.7-1.4-1.4V10.5h30.4v22.2C35.4,33.5,34.7,34.2,33.9,34.2z"/>
</g>
<g>
	<g>
		<polygon class="st2" points="24.7,31.3 32,31.3 32,23.9 29.6,23.8 29.6,27.3 22.2,20.4 20.5,22.2 27.9,28.9 24.7,28.8 		"/>
		<polygon class="st3" points="24.9,12.4 17.7,12.4 17.7,19.9 20.1,19.9 20.1,16.4 27.5,23.3 29.2,21.5 21.8,14.9 25,14.9 		"/>
	</g>
	<g>
		<path class="st2" d="M19.3,26.5v-1.4l-1.2-0.7c-0.1-0.3-0.2-0.5-0.3-0.8l0.4-1.3l-1-1l-1.3,0.4c-0.3-0.2-0.5-0.3-0.8-0.3l-0.7-1.2
			H13l-0.7,1.2c-0.3,0.1-0.5,0.2-0.8,0.3l-1.3-0.4l-1,1l0.4,1.3c-0.2,0.3-0.3,0.5-0.3,0.8L8,25.1v1.4l1.2,0.7
			c0.1,0.3,0.2,0.5,0.3,0.8l-0.4,1.3l1,1l1.3-0.4c0.3,0.1,0.5,0.2,0.8,0.3l0.7,1.2h1.4l0.7-1.2c0.3-0.1,0.5-0.2,0.8-0.3l1.3,0.4l1-1
			L17.9,28c0.1-0.3,0.3-0.5,0.3-0.8L19.3,26.5z M13.6,28.4c-1.4,0-2.6-1.2-2.6-2.6s1.2-2.6,2.6-2.6s2.6,1.2,2.6,2.6
			C16.3,27.3,15.1,28.4,13.6,28.4z"/>
		<circle class="st3" cx="13.6" cy="25.8" r="2"/>
	</g>
</g>
</svg>
