<?xml version="1.0" encoding="utf-8"?>
<!-- Generator: Adobe Illustrator 24.3.0, SVG Export Plug-In . SVG Version: 6.00 Build 0)  -->
<svg version="1.1" id="Ebene_1" xmlns="http://www.w3.org/2000/svg" xmlns:xlink="http://www.w3.org/1999/xlink" x="0px" y="0px"
	 viewBox="0 0 40 40" style="enable-background:new 0 0 40 40;" xml:space="preserve">
<style type="text/css">
	.st0{fill:#797979;}
	.st1{fill:#FFFFFF;}
	.st2{fill:#41AAAA;}
	.st3{font-family:'NotoSans-Regular';}
	.st4{font-size:6.8611px;}
</style>
<g>
	<path class="st0" d="M31.6,9.6V5.3C31.6,4.6,31,4,30.2,4h-6.1c-0.7,0-1.3,0.6-1.3,1.3v4.3H17V5.4C17,4.6,16.3,4,15.6,4H9.8
		C9,4.1,8.4,4.6,8.4,5.4v4.2H3V36h34V9.6H31.6z"/>
	<path class="st1" d="M29.7,11V6.6c0-0.4-0.3-0.6-0.6-0.6h-3.7c-0.3,0-0.5,0.2-0.5,0.5V11c0,0.3-0.2,0.5-0.5,0.5h-8.8
		c-0.3,0-0.5-0.2-0.5-0.5V6.5c0-0.3-0.3-0.6-0.6-0.6h-3.8c-0.3,0.1-0.5,0.3-0.5,0.6V11c0,0.3-0.2,0.5-0.5,0.5H4.9v22.6H35V11.5h-4.9
		C29.9,11.5,29.7,11.3,29.7,11z"/>
	<path class="st2" d="M21.4,17.5c0.8-0.5,1.3-1.3,1.3-2.2c0-1.4-1.2-2.6-2.6-2.6s-2.6,1.2-2.6,2.6c0,1,0.5,1.7,1.3,2.2
		c-2,0.9-3.5,3.4-3.5,6.4H25C24.8,20.9,23.4,18.4,21.4,17.5z"/>
	<g>
		<rect x="6.7" y="25.5" class="st0" width="25.7" height="7.2"/>
		<rect x="8.2" y="27" class="st1" width="22.6" height="4.4"/>
		<text transform="matrix(1 0 0 1 10.0522 32.7256)" class="st2 st3 st4">*****</text>
	</g>
</g>
</svg>
