<?xml version="1.0" encoding="utf-8"?>
<!-- Generator: Adobe Illustrator 24.3.0, SVG Export Plug-In . SVG Version: 6.00 Build 0)  -->
<svg version="1.1" id="Ebene_1" xmlns="http://www.w3.org/2000/svg" xmlns:xlink="http://www.w3.org/1999/xlink" x="0px" y="0px"
	 viewBox="0 0 40 40" style="enable-background:new 0 0 40 40;" xml:space="preserve">
<style type="text/css">
	.st0{fill:#41AAAA;}
	.st1{fill:#797979;}
	.st2{fill:#EF0137;}
	.st3{fill:#787878;}
	.st4{fill:#FFFFFF;}
	.st5{fill:#FFD732;}
</style>
<path class="st0" d="M19.8,10.9c0-2.2,0.8-4.3,2.1-5.9c-1.3-0.9-2.9-1.4-4.6-1.4c-4.7,0-8.5,3.8-8.5,8.5c0,4.7,3.8,8.5,8.5,8.5
	c2.3,0,4.5-1,6-2.5C21.1,16.5,19.8,13.8,19.8,10.9z"/>
<path class="st1" d="M19.8,29.9c0-3.3,1.7-6.1,4.2-7.8c-0.4-0.2-0.8-0.5-1.3-0.7c-1.6,1.1-3.5,1.6-5.4,1.6c-2.1,0-4-0.5-5.6-1.6
	c-5.3,2.4-9,7.8-9,14.3c0,0.4,0,0.8,0,1.5h20.7C21.2,35.6,19.8,32.9,19.8,29.9z"/>
<g>
	<ellipse class="st2" cx="29.6" cy="29.9" rx="6.6" ry="6.6"/>
	<path class="st3" d="M29.6,22.6c-4.2,0-7.4,3.3-7.4,7.4s3.3,7.4,7.4,7.4S37,34.1,37,30C37,25.7,33.7,22.6,29.6,22.6z M29.6,36.4
		c-3.5,0-6.5-2.9-6.5-6.5c0-3.5,2.9-6.5,6.5-6.5c3.5,0,6.5,2.9,6.5,6.5S33.1,36.4,29.6,36.4z"/>
	<path class="st4" d="M26.2,32c-0.1,0.3,0.1,0.6,0.5,0.6h1.7c0,0.7,0.6,1.4,1.3,1.4c0.7,0,1.3-0.6,1.3-1.3h1.7
		c0.3,0,0.6-0.3,0.5-0.6c0,0-0.7-0.7-0.7-1.7v-1.6l0,0c0-0.2-0.2-1.6-2-2v-0.2c0-0.5-0.1-0.8-0.7-0.8c-0.6,0-1.1,0.5-1.1,0.8v0.1
		c-1.6,0.4-2,1.9-2,2l0,0c0,0,0,0.6,0,1.6C26.9,31.4,26.2,32,26.2,32z"/>
	<path class="st4" d="M31.3,25.4c0.7,0.3,1.3,0.7,1.7,1.4c0.6,0.7,0.8,1.4,1,2.2l0.7-0.2c-0.2-0.8-0.5-1.7-1.2-2.5
		c-0.6-0.7-1.3-1.2-2-1.5L31.3,25.4z"/>
	<path class="st4" d="M27.9,25.4c-0.7,0.3-1.3,0.9-1.7,1.4c-0.6,0.6-0.9,1.3-1.1,2.3l-0.7-0.3c0.2-0.8,0.6-1.8,1.2-2.6
		s1.2-1.2,1.8-1.6L27.9,25.4z"/>
</g>
<g>
	<ellipse class="st5" cx="29.3" cy="11.2" rx="6.7" ry="6.5"/>
	<path class="st3" d="M29.2,3.8c-4.2,0-7.4,3.3-7.4,7.4s3.3,7.4,7.4,7.4s7.4-3.3,7.4-7.4S33.3,3.8,29.2,3.8z M29.2,17.7
		c-3.5,0-6.5-2.9-6.5-6.5c0-3.5,2.9-6.5,6.5-6.5c3.5,0,6.5,2.9,6.5,6.5C35.6,14.7,32.8,17.7,29.2,17.7z"/>
	<g>
		<path class="st0" d="M29.2,7.1L29.2,7.1L29.2,7.1L29.2,7.1L29.2,7.1c-2,0-1.5,2-1.5,2l0.9,3.7h0.6l0,0h0.6l0.9-3.7
			C30.8,9.2,31.1,7.1,29.2,7.1z"/>
		<ellipse class="st0" cx="29.2" cy="14.5" rx="1" ry="1"/>
	</g>
</g>
</svg>
