<?xml version="1.0" encoding="utf-8"?>
<!-- Generator: Adobe Illustrator 24.3.0, SVG Export Plug-In . SVG Version: 6.00 Build 0)  -->
<svg version="1.1" id="Layer_1" xmlns="http://www.w3.org/2000/svg" xmlns:xlink="http://www.w3.org/1999/xlink" x="0px" y="0px"
	 viewBox="0 0 40 40" style="enable-background:new 0 0 40 40;" xml:space="preserve">
<style type="text/css">
	.st0{fill:#797979;}
	.st1{fill:#41A9AA;}
	.st2{display:none;fill:#EF0137;}
</style>
<g>
	<path class="st0" d="M32.4,7.6c-6.9-6.9-17.9-6.9-24.8,0s-6.9,17.9,0,24.8s17.9,6.9,24.8,0S39.3,14.5,32.4,7.6z M10,30
		C4.4,24.5,4.4,15.5,10,10S24.5,4.4,30,10c5.3,5.3,5.5,13.8,0.7,19.4l-7.2-7.2c0.9-1.6,0.7-3.6-0.6-5c-1.6-1.6-4.2-1.6-5.7,0
		c-1.6,1.6-1.6,4.2,0,5.7c1.4,1.4,3.4,1.6,5,0.6l7.2,7.2C23.7,35.6,15.3,35.3,10,30z M21.5,21.5c-0.8,0.8-2.1,0.8-2.9,0
		s-0.8-2.1,0-2.9s2.1-0.8,2.9,0C22.3,19.4,22.3,20.7,21.5,21.5z"/>
	<path class="st1" d="M28.9,17.5c-0.2-0.6-0.3-1.2-0.8-1.7l1.2-2.7l-2.6-2.6l-2.5,1.2c-0.7-0.3-1.2-0.6-1.9-0.8l-0.8-2.7l-3.5-0.1
		l-0.8,2.9c-0.6,0.2-1.1,0.5-1.7,0.8l-2.7-1.5L10.3,13l1.5,2.6c-0.3,0.7-0.6,1.1-0.8,1.8l-2.8,0.9v3.6l2.7,0.9
		c0.2,0.8,0.5,1.5,0.9,2.1l-1.2,2.4l2.6,2.6l2.5-1.2c0.7,0.3,1.2,0.6,1.9,0.8l0.8,2.7h3.6l0.8-2.7c0.6-0.2,1.1-0.5,1.7-0.8l-2.3-2.3
		c-2.3,0.8-4.8,0.3-6.7-1.5c-2.5-2.5-2.5-6.7,0-9.2s6.7-2.5,9.2,0c1.8,1.8,2.3,4.5,1.5,6.9l2.1,2.1c0.2-0.6,0.5-1.1,0.7-1.7l2.9-0.8
		v-3.6L28.9,17.5z"/>
</g>
<path class="st2" d="M36.5,0h-33H0v3.5v33.3V40h3.5h33.3H40v-3.5v-33V0H36.5z M36.5,36.5h-33v-33h33.3L36.5,36.5L36.5,36.5z"/>
</svg>
