<?xml version="1.0" encoding="utf-8"?>
<!-- Generator: Adobe Illustrator 24.3.0, SVG Export Plug-In . SVG Version: 6.00 Build 0)  -->
<svg version="1.1" id="Ebene_1" xmlns="http://www.w3.org/2000/svg" xmlns:xlink="http://www.w3.org/1999/xlink" x="0px" y="0px"
	 viewBox="0 0 40 40" style="enable-background:new 0 0 40 40;" xml:space="preserve">
<style type="text/css">
	.st0{fill:#797979;}
	.st1{fill:#41AAAA;}
</style>
<g>
	<g>
		<polygon class="st0" points="37.2,13.6 20.2,22.5 3.6,14 20.6,6.3 		"/>
		<path class="st1" d="M20.2,23.9L7.9,17.6l-4.4,2l16.6,8.5l17-8.9l-4.3-1.9L20.2,23.9z"/>
	</g>
	<g>
		<path class="st0" d="M29.2,26.1c0.3-0.2,0.3-0.1,0.7-0.3l0.9-1.8h2.7l0.6,1.8c0.3,0.1,0.4,0.1,0.6,0.2l2.6-1.4l-4.1-1.9l-5.3,2.8
			L29.2,26.1z"/>
		<path class="st0" d="M24.4,30.5l1.7-0.5c0.1-0.4,0.1-0.4,0.4-0.8l-0.7-1.6l1.6-1.9l-7.2,3.8L7.9,23.2l-4.4,2L20,33.7l4.4-2.3V30.5
			z"/>
	</g>
	<g>
		<path class="st1" d="M38.2,33v-2l-1.6-0.5c-0.2-0.3-0.2-0.6-0.4-0.8l0.8-1.4l-1.3-1.4l-1.4,0.8c-0.3-0.2-0.5-0.3-0.8-0.4L33,25.7
			h-1.9l-0.5,1.6c-0.3,0.2-0.6,0.2-0.8,0.4l-1.4-0.8l-1.2,1.4l0.8,1.5c-0.2,0.3-0.3,0.5-0.4,0.8L26,31.1V33l1.6,0.5
			c0.2,0.3,0.2,0.6,0.4,0.8l-0.8,1.4l1.4,1.4l1.4-0.8c0.3,0.2,0.5,0.3,0.8,0.4l0.5,1.6h1.9l0.5-1.6c0.3-0.2,0.6-0.2,0.8-0.4l1.4,0.8
			l1.4-1.4l-0.8-1.4c0.2-0.3,0.3-0.5,0.4-0.8L38.2,33z M32,34.2c-1.2,0-2.1-0.9-2.1-2.1c0-1.2,0.9-2.1,2.1-2.1s2.1,0.9,2.1,2.1
			C34.1,33.2,33.2,34.2,32,34.2z"/>
	</g>
</g>
</svg>
