<?xml version="1.0" encoding="utf-8"?>
<!-- Generator: Adobe Illustrator 24.3.0, SVG Export Plug-In . SVG Version: 6.00 Build 0)  -->
<svg version="1.1" id="Ebene_1" xmlns="http://www.w3.org/2000/svg" xmlns:xlink="http://www.w3.org/1999/xlink" x="0px" y="0px"
	 viewBox="0 0 40 40" style="enable-background:new 0 0 40 40;" xml:space="preserve">
<style type="text/css">
	.st0{fill:#797979;}
	.st1{fill:#41A9AA;}
	.st2{fill:#FFFFFF;}
</style>
<g>
	<g>
		<path class="st0" d="M29.2,8.7c-1.9-2.5-7-4.3-13-4.3C10.1,4.4,5,6.2,3.1,8.8v4c1.8,2.6,7,4.4,13.1,4.4c6,0,11.1-1.8,13-4.3V8.7z"
			/>
		<ellipse class="st1" cx="16.2" cy="8.2" rx="13" ry="5"/>
	</g>
	<path class="st0" d="M28.2,32.6l1.1-0.8v-0.3L29,30.7l0.3-0.5V29l0,0l-0.9,0.1c-2.3,2-6.9,3.4-12.2,3.4c-6,0-11.1-1.7-12.9-4.2
		c0,0.1-0.1,0.1-0.1,0.2v4c1.8,2.6,7,4.4,13.1,4.4c5.1,0,9.5-1.3,11.9-3.2V32.6z"/>
	<path class="st0" d="M24.7,27.2l0.9-2.1l-1.2-0.3c-2.3,0.8-5.1,1.2-8.2,1.2c-6,0-11.1-1.7-12.9-4.2c0,0.1-0.1,0.1-0.1,0.2v4
		c1.8,2.6,7,4.4,13.1,4.4c3.7,0,7.1-0.7,9.6-1.8L24.7,27.2z"/>
	<g>
		<path class="st0" d="M29.1,16.1l0.2-0.5v-0.4h-0.1c-0.2,0.2-0.4,0.4-0.6,0.6L29.1,16.1z"/>
		<path class="st0" d="M23.4,21.1l2.1-1.2l-0.9-1.8c-2.3,0.8-5.2,1.3-8.4,1.3c-6,0-11.1-1.7-12.9-4.2c0,0.1-0.1,0.1-0.1,0.2v4
			c1.8,2.6,7,4.4,13.1,4.4c2.6,0,5-0.3,7.1-0.9V21.1z"/>
	</g>
	<g>
		<path class="st1" d="M38.6,23.5v-2.1l-1.8-0.6c-0.1-0.3-0.2-0.7-0.4-0.9l0.9-1.6l-1.4-1.5l-1.6,0.8c-0.3-0.2-0.6-0.3-0.9-0.4
			l-0.6-1.8h-2.1l-0.6,1.8c-0.3,0.1-0.7,0.2-0.9,0.4l-1.6-0.9l-1.5,1.5l0.9,1.7c-0.2,0.3-0.3,0.6-0.4,0.9L25,21.4v2.1l1.8,0.6
			c0.1,0.3,0.2,0.7,0.4,0.9l-0.9,1.6l1.5,1.5l1.6-0.9c0.3,0.2,0.6,0.3,0.9,0.4l0.6,1.8H33l0.6-1.8c0.3-0.1,0.7-0.2,0.9-0.4l1.6,0.9
			l1.5-1.5L36.5,25c0.2-0.3,0.3-0.6,0.4-0.9L38.6,23.5z M31.8,24.8c-1.3,0-2.3-1-2.3-2.3s1-2.3,2.3-2.3s2.3,1,2.3,2.3
			S33,24.8,31.8,24.8z"/>
		<path class="st2" d="M31.8,18.8c-2,0-3.7,1.7-3.7,3.7s1.7,3.7,3.7,3.7s3.7-1.7,3.7-3.7S33.9,18.8,31.8,18.8z M31.8,25.4
			c-1.7,0-3-1.3-3-3s1.3-3,3-3s3,1.3,3,3S33.4,25.4,31.8,25.4z"/>
	</g>
	<g>
		<path class="st1" d="M29.5,33v1.6l1.3,0.4c0.1,0.2,0.2,0.5,0.3,0.7l-0.6,1.2l1.1,1.1l1.2-0.6c0.2,0.1,0.4,0.2,0.7,0.3l0.4,1.3h1.6
			l0.4-1.3c0.2-0.1,0.5-0.2,0.7-0.3l1.2,0.6l1.1-1.1L38,35.6c0.1-0.2,0.2-0.4,0.3-0.7l1.3-0.4v-1.6l-1.3-0.4
			c-0.1-0.2-0.2-0.5-0.3-0.7l0.6-1.2l-1.1-1.1l-1.2,0.6c-0.2-0.1-0.4-0.2-0.7-0.3l-0.4-1.3h-1.6L33.3,30c-0.2,0.1-0.5,0.2-0.7,0.3
			l-1.2-0.6l-1.1,1.1l0.6,1.2c-0.1,0.2-0.2,0.4-0.3,0.7L29.5,33z M34.5,32c1,0,1.7,0.7,1.7,1.7s-0.7,1.7-1.7,1.7s-1.7-0.7-1.7-1.7
			C32.8,32.8,33.6,32,34.5,32z"/>
		<path class="st2" d="M34.5,36.5c1.5,0,2.7-1.2,2.7-2.7S36,31,34.5,31s-2.7,1.2-2.7,2.7C31.8,35.3,32.9,36.5,34.5,36.5z M34.5,31.5
			c1.2,0,2.2,1,2.2,2.2s-1,2.2-2.2,2.2s-2.2-1-2.2-2.2S33.3,31.5,34.5,31.5z"/>
	</g>
</g>
</svg>
