<?xml version="1.0" encoding="utf-8"?>
<!-- Generator: Adobe Illustrator 24.3.0, SVG Export Plug-In . SVG Version: 6.00 Build 0)  -->
<svg version="1.1" id="Ebene_1" xmlns="http://www.w3.org/2000/svg" xmlns:xlink="http://www.w3.org/1999/xlink" x="0px" y="0px"
	 viewBox="0 0 40 40" style="enable-background:new 0 0 40 40;" xml:space="preserve">
<style type="text/css">
	.st0{display:none;fill:#797979;}
	.st1{fill:#797979;}
	.st2{fill:#FFFFFF;}
	.st3{display:none;}
	.st4{display:inline;fill:#41AAAA;}
</style>
<g>
	<g>
		<path class="st0" d="M23,31.3v-1.2l1.4-0.7c0.1-0.8,0.5-1.4,0.8-2L24.6,26l1.7-1.7l1.4,0.6l0,0l0.9-0.4c0.4-0.2,0.7-0.3,1.1-0.4
			l0.7-1.4h2.3l0.7,1.4c0.5,0.1,0.8,0.2,1.2,0.4h1.9l0.3-0.1l0.1,0.1h0.7V2.2h-31v7.4h14.5c1,0,1.7,0.8,1.7,1.7v20H23z"/>
		<path class="st0" d="M31.4,29.4h-1.1c-0.4,0.5-0.7,1.2-0.7,1.9l0,0h1.8C31.4,31.3,31.4,29.4,31.4,29.4z"/>
	</g>
	<polygon class="st1" points="37.6,24.5 37.6,2.2 6.6,2.2 6.6,9.5 8.1,9.5 8.1,3.8 36.1,3.8 36.1,22.4 23.1,22.4 23.1,31.5 
		27.4,31.5 30.3,31.5 30.3,29.5 27.4,29.5 27.4,24.5 	"/>
	<g>
		<path class="st1" d="M20.2,11.2H5.7c-0.6,0-1.1,0.5-1.1,1.1v7.5h8c0.5,0,1,0.4,1,1v13.8h6.7c0.6,0,1.1-0.5,1.1-1.1V12.3
			C21.4,11.7,20.9,11.2,20.2,11.2z"/>
		<path class="st2" d="M19,12.9H7c-0.3,0-0.5,0.2-0.5,0.5v6.4h6.1c0.5,0,1,0.4,1,1v12H19c0.3,0,0.5-0.2,0.5-0.5V13.5
			C19.5,13.2,19.3,12.9,19,12.9z"/>
		<rect x="13.5" y="30.8" class="st1" width="0.9" height="1.3"/>
		<g>
			<path class="st1" d="M3.1,21.3h8c0.5,0,1,0.4,1,1v14.4c0,0.5-0.4,1-1,1h-8c-0.5,0-1-0.4-1-1V22.2C2.1,21.7,2.5,21.3,3.1,21.3z"/>
			<path class="st2" d="M4,22.9h6.1c0.2,0,0.4,0.2,0.4,0.4v12.4c0,0.2-0.2,0.4-0.4,0.4H4c-0.2,0-0.4-0.2-0.4-0.4V23.2
				C3.6,23,3.8,22.9,4,22.9z"/>
			<circle class="st1" cx="7.2" cy="34.7" r="0.9"/>
		</g>
	</g>
	<g class="st3">
		<path class="st4" d="M39.1,32.2v-1.9l-1.6-0.6c-0.2-0.6-0.3-1-0.7-1.6l0.9-1.5l-1.4-1.4L34.7,26c-0.5-0.3-0.9-0.6-1.6-0.7
			l-0.6-1.6h-1.9L30,25.4c-0.6,0.2-1,0.3-1.6,0.7l-1.5-0.9l-1.4,1.4l0.9,1.5c-0.3,0.5-0.6,0.9-0.7,1.6L24,30.3v1.9l1.6,0.6
			c0.2,0.6,0.3,1,0.7,1.6l0,0L25.5,36l1.4,1.4l1.5-0.9l0,0c0.5,0.3,0.9,0.6,1.6,0.7l0,0l0.6,1.6h1.9l0.6-1.6l0,0
			c0.6-0.2,1-0.3,1.6-0.7l0,0l1.5,0.9l1.4-1.4l-0.9-1.5l0,0c0.3-0.5,0.6-0.9,0.7-1.6L39.1,32.2z M31.5,34.4c-1.7,0-3.1-1.4-3.1-3.1
			s1.4-3.1,3.1-3.1s3.1,1.4,3.1,3.1C34.6,33,33.2,34.4,31.5,34.4z"/>
	</g>
</g>
<path class="st2" d="M8.1,3.8v5.7h13.7c0.7,0,1.3,0.6,1.3,1.3v11.6h13V3.8H8.1z"/>
</svg>
