<?xml version="1.0" encoding="utf-8"?>
<!-- Generator: Adobe Illustrator 24.3.0, SVG Export Plug-In . SVG Version: 6.00 Build 0)  -->
<svg version="1.1" id="Ebene_1" xmlns="http://www.w3.org/2000/svg" xmlns:xlink="http://www.w3.org/1999/xlink" x="0px" y="0px"
	 viewBox="0 0 40 40" style="enable-background:new 0 0 40 40;" xml:space="preserve">
<style type="text/css">
	.st0{fill:#41AAAA;}
	.st1{fill:#787878;}
</style>
<g>
	<polygon class="st0" points="14.1,16.7 14.1,15.4 8.4,15.4 8.4,11.8 10.3,11.2 12,7.6 9.3,4.5 6.4,4.4 4.5,7.6 5.9,11.4 7.1,11.8 
		7.1,32.1 14.1,32.1 14.1,30.9 8.4,30.9 8.4,16.7 	"/>
	<polygon class="st0" points="30.6,22.2 24,22.2 24,23.9 16.5,23.9 16.5,17.9 15.1,17.9 15.1,25.3 24,25.3 24,27 30.6,27 	"/>
	<polygon class="st1" points="19.2,29 12.3,29 12.3,33.8 19.2,33.8 	"/>
	<polygon class="st1" points="19.2,13.6 12.3,13.6 12.3,18.4 19.2,18.4 	"/>
	<circle class="st0" cx="7.9" cy="7.9" r="4.8"/>
</g>
<path class="st1" d="M30.9,31.3l5.7,6.5l1.9-1.7l-5.7-6.6c2.4-2.8,2.3-7-0.1-9.8c-2.8-3.2-7.7-3.6-10.9-0.8s-3.6,7.7-0.8,10.9
	C23.6,32.6,27.8,33.1,30.9,31.3z M22.3,28.7c-2.2-2.6-1.9-6.5,0.6-8.7s6.5-1.9,8.7,0.6s1.9,6.5-0.6,8.7S24.5,31.3,22.3,28.7z"/>
</svg>
