<?xml version="1.0" encoding="utf-8"?>
<!-- Generator: Adobe Illustrator 24.3.0, SVG Export Plug-In . SVG Version: 6.00 Build 0)  -->
<svg version="1.1" id="Ebene_1" xmlns="http://www.w3.org/2000/svg" xmlns:xlink="http://www.w3.org/1999/xlink" x="0px" y="0px"
	 viewBox="0 0 40 40" style="enable-background:new 0 0 40 40;" xml:space="preserve">
<style type="text/css">
	.st0{fill:#787878;}
	.st1{fill:#797979;}
	.st2{fill:#41AAAA;}
</style>
<g>
	<g>
		<rect x="4.1" y="3" class="st0" width="3.2" height="1.3"/>
		<rect x="9" y="3" class="st0" width="3.2" height="1.3"/>
		<rect x="13.8" y="3" class="st0" width="3.2" height="1.3"/>
		<rect x="18.8" y="3" class="st0" width="3.2" height="1.3"/>
		<rect x="18.8" y="3" class="st0" width="3.2" height="1.3"/>
		<rect x="23.7" y="3" class="st0" width="3.2" height="1.3"/>
		<rect x="28.6" y="3" class="st0" width="3.2" height="1.3"/>
		<rect x="33.5" y="3" class="st0" width="3.2" height="1.3"/>
		<rect x="3.1" y="3" class="st0" width="1.3" height="3.2"/>
		<rect x="3.1" y="7.9" class="st0" width="1.3" height="3.2"/>
		<rect x="3.1" y="12.9" class="st0" width="1.3" height="3.2"/>
		<rect x="3.1" y="17.8" class="st0" width="1.3" height="3.2"/>
		<rect x="3.1" y="17.8" class="st0" width="1.3" height="3.2"/>
		<rect x="3.2" y="22.9" class="st0" width="1.3" height="3.2"/>
		<rect x="3.1" y="27.9" class="st0" width="1.3" height="3.2"/>
		<rect x="3.1" y="32.8" class="st0" width="1.3" height="3.2"/>
		<rect x="32.4" y="35.7" class="st0" width="3.2" height="1.3"/>
		<rect x="27.5" y="35.7" class="st0" width="3.2" height="1.3"/>
		<rect x="22.6" y="35.7" class="st0" width="3.2" height="1.3"/>
		<rect x="17.7" y="35.7" class="st0" width="3.2" height="1.3"/>
		<rect x="17.7" y="35.7" class="st0" width="3.2" height="1.3"/>
		<rect x="12.8" y="35.7" class="st0" width="3.2" height="1.3"/>
		<rect x="7.9" y="35.7" class="st0" width="3.2" height="1.3"/>
		<rect x="3" y="35.7" class="st0" width="3.2" height="1.3"/>
		<rect x="35.6" y="3" class="st0" width="1.3" height="4.2"/>
		<rect x="35.6" y="8.9" class="st0" width="1.3" height="3.2"/>
		<rect x="35.7" y="13.9" class="st0" width="1.3" height="3.2"/>
		<rect x="35.6" y="18.8" class="st0" width="1.3" height="3.2"/>
		<rect x="35.6" y="18.8" class="st0" width="1.3" height="3.2"/>
		<rect x="35.6" y="23.8" class="st0" width="1.3" height="3.2"/>
		<rect x="35.6" y="28.8" class="st0" width="1.3" height="3.2"/>
		<rect x="35.6" y="33.8" class="st0" width="1.3" height="3.2"/>
	</g>
	<path class="st1" d="M17.8,15.1v-2.9h-4.1v1.1h-2.3v-1.6c1.4-0.2,2.6-1.4,2.6-2.8C14,7.3,12.7,6,11.1,6S8.2,7.3,8.2,8.9
		c0,1.4,1,2.6,2.4,2.8v6.9h3.1v1h4.1v-2.9h-4.1v1.1h-2.3v-3.7h2.3v1C13.7,15.1,17.8,15.1,17.8,15.1z"/>
	<path class="st2" d="M32,15.1v-2.9h-4.1v1.1h-2.3v-1.6c1.4-0.2,2.6-1.4,2.6-2.8c0-1.6-1.3-2.9-2.9-2.9s-2.9,1.3-2.9,2.9
		c0,1.4,1,2.6,2.4,2.8v6.9h3.1v1H32v-2.9h-4.1v1.1h-2.3v-3.7h2.3v1C27.9,15.1,32,15.1,32,15.1z"/>
	<path class="st2" d="M17.8,29.6v-2.9h-4.1v1.1h-2.3v-1.6c1.4-0.2,2.6-1.4,2.6-2.8c0-1.6-1.3-2.9-2.9-2.9s-2.9,1.3-2.9,2.9
		c0,1.4,1,2.6,2.4,2.8V33h3.1v1h4.1v-2.9h-4.1v1.1h-2.3v-3.7h2.3v1h4.1V29.6z"/>
	<path class="st1" d="M32,29.6v-2.9h-4.1v1.1h-2.3v-1.6c1.4-0.2,2.6-1.4,2.6-2.8c0-1.6-1.3-2.9-2.9-2.9s-2.9,1.3-2.9,2.9
		c0,1.4,1,2.6,2.4,2.8V33h3.1v1H32v-2.9h-4.1v1.1h-2.3v-3.7h2.3v1H32V29.6z"/>
</g>
</svg>
