<?xml version="1.0" encoding="utf-8"?>
<!-- Generator: Adobe Illustrator 24.3.0, SVG Export Plug-In . SVG Version: 6.00 Build 0)  -->
<svg version="1.1" id="Ebene_1" xmlns="http://www.w3.org/2000/svg" xmlns:xlink="http://www.w3.org/1999/xlink" x="0px" y="0px"
	 viewBox="0 0 40 40" style="enable-background:new 0 0 40 40;" xml:space="preserve">
<style type="text/css">
	.st0{fill:#797979;}
	.st1{fill:#003750;}
	.st2{fill:#FFFFFF;}
	.st3{fill:#505A64;}
	.st4{fill:#40A9AA;}
</style>
<g>
	<g>
		<polygon class="st0" points="28,34.5 28.8,32.9 27,32.1 27,29.4 28.7,28.9 28.2,26.8 30.1,25 31.7,25.7 32.4,24.1 35.3,24 
			35.9,25.7 36.1,25.6 36.1,4 26.5,4 26.5,36.1 29.5,36.1 		"/>
		<polygon class="st0" points="31.1,36.1 31.7,36.1 31.6,35.9 		"/>
	</g>
	<g>
		<g>
			<g>
				<rect x="4.1" y="4" class="st1" width="9.6" height="32.1"/>
				<rect x="6.1" y="6" class="st2" width="5.6" height="10.7"/>
				<polygon class="st2" points="8.9,21.8 7.8,23 10.1,23 				"/>
				<polygon class="st2" points="9,28.3 10.1,27.2 7.8,27.2 				"/>
				<polygon class="st2" points="5.6,25.1 7,26.4 7,23.8 				"/>
				<polygon class="st2" points="12.2,25.1 11,23.8 11,26.4 				"/>
				<polygon class="st2" points="12.4,32.7 12.4,34.9 10.3,34.9 10.3,35.3 12.8,35.3 12.8,32.7 				"/>
				<polygon class="st0" points="5.4,32.7 5.4,34.9 7.4,34.9 7.4,35.3 5.1,35.3 5.1,32.7 				"/>
			</g>
			<g>
				<rect x="15.3" y="4" class="st0" width="9.6" height="32.1"/>
				<rect x="17.8" y="20.4" class="st2" width="4.4" height="8.2"/>
				<rect x="15.3" y="17" class="st3" width="9.6" height="1.2"/>
				<rect x="17.2" y="6.6" class="st2" width="5.8" height="2.3"/>
				<rect x="21" y="10.3" class="st2" width="1.6" height="1.5"/>
			</g>
			<g>
				<rect x="22.5" y="32.2" class="st3" width="0.9" height="4"/>
				<rect x="20.6" y="32.2" class="st3" width="0.9" height="4"/>
				<rect x="18.8" y="32.2" class="st3" width="0.9" height="4"/>
				<rect x="17" y="32.2" class="st3" width="0.9" height="4"/>
				<rect x="28.4" y="6.6" class="st2" width="5.8" height="2.3"/>
				<rect x="26.5" y="17" class="st3" width="9.6" height="1.2"/>
				<rect x="32.3" y="10.3" class="st2" width="1.6" height="1.5"/>
				<rect x="32.3" y="13.2" class="st2" width="1.6" height="1.5"/>
			</g>
		</g>
		<path class="st4" d="M39.3,31.7V30L38,29.5c-0.1-0.3-0.2-0.6-0.4-0.9l0.7-1.2l-1.2-1.2l-1.2,0.7c-0.2-0.1-0.5-0.2-0.8-0.3
			l-0.4-1.4H33l-0.4,1.4c-0.3,0.1-0.6,0.2-0.9,0.3l-1.2-0.7l-1.2,1.2l0.6,1.2c-0.2,0.3-0.3,0.6-0.4,1L28.2,30v1.7l1.3,0.4
			c0.1,0.3,0.2,0.6,0.4,0.9l-0.7,1.2l1.2,1.2l1.2-0.7c0.3,0.1,0.5,0.2,0.9,0.3l0.4,1.4h1.8l0.4-1.4c0.3-0.1,0.5-0.2,0.8-0.3l1.2,0.7
			l1.2-1.2L37.6,33c0.1-0.3,0.3-0.5,0.3-0.8L39.3,31.7z M33.7,33.3c-1.3,0-2.4-1.1-2.4-2.4c0-1.3,1.1-2.4,2.4-2.4s2.4,1.1,2.4,2.4
			C36.2,32.2,35.1,33.3,33.7,33.3z"/>
	</g>
</g>
</svg>
