<?xml version="1.0" encoding="utf-8"?>
<!-- Generator: Adobe Illustrator 24.3.0, SVG Export Plug-In . SVG Version: 6.00 Build 0)  -->
<svg version="1.1" id="Ebene_1" xmlns="http://www.w3.org/2000/svg" xmlns:xlink="http://www.w3.org/1999/xlink" x="0px" y="0px"
	 viewBox="0 0 40 40" style="enable-background:new 0 0 40 40;" xml:space="preserve">
<style type="text/css">
	.st0{fill:#41AAAA;}
	.st1{fill:#FFFFFF;}
	.st2{fill:#787878;}
	.st3{font-family:'SiemensSansGlobal-Bold';}
	.st4{font-size:6.6561px;}
</style>
<g>
	<g>
		<path class="st0" d="M27.5,31.3c-0.1,0.7-0.8,1.7-1.3,2c-1.1,0.6-2.2,0.8-3.6,1c-2.5,0.4-5.1,0.4-7.7,0.4c-1.8,0-3.6-0.1-5.2-0.4
			c-0.4-0.1-0.8-0.8-1.1-1c1.6,0.2,3.1,0.3,4.7,0.4c2.6,0.1,5.1,0,7.7-0.3c1.5-0.2,3-0.4,4.5-0.9C26.2,32.2,27,31.9,27.5,31.3z"/>
		<path class="st0" d="M8.6,29.3c0.2,0,0.6,0,0.8,0.1c-0.9,0-1.8,0.2-2.6,0.7c-0.2,0.1-0.3,0.2-0.4,0.4c-0.2,0.4,0,0.5,0.3,0.5
			c1.1,0.4,2.2,0.6,3.5,0.7c3.5,0.3,6.9,0.2,10.4-0.1c1.2-0.1,2.6-0.3,3.9-0.7c0.4-0.1,0.9-0.2,1.1-0.7c0.1-0.2,0-0.4-0.1-0.7
			c0.2,0.1,0.6,0.9,0.4,1.2c-0.1,0.3-0.4,0.6-0.8,0.7c-1,0.4-2,0.8-3.1,1c-3.1,0.6-6.3,0.8-9.5,0.7c-2.3-0.1-4.8-0.3-7.1-0.7
			c-0.4-0.1-0.9-0.2-1.2-0.6c-0.2-0.2,0.1-1.1,0.2-1.2c0.4-0.4,1-0.6,1.6-0.9C7.1,29.5,7.8,29.3,8.6,29.3L8.6,29.3z"/>
		<path class="st0" d="M11.7,27.1c-0.1,0.1-0.3,0.3-0.2,0.6c0.2,0.2,0.6,0.3,0.9,0.3c1.2,0.1,2.6,0.2,3.9,0.1c1-0.1,1.9-0.2,2.9-0.4
			c0.6,0.3,1,1.1,1.6,1.3c-0.9,0.4-1.8,0.7-2.9,0.8c-1.6,0.3-3.3,0.3-5,0.1c-0.7-0.1-1.5-0.3-2.1-0.7c-0.2-0.1-0.6-0.3-0.7-0.6
			c-0.1-0.2,0.1-1,0.3-1.1C10.9,27.3,11.3,27.2,11.7,27.1z"/>
		<path class="st0" d="M11,23.6c-0.1,0.2-0.3,0.3-0.3,0.6c0,0.1,0.1,0.2,0.2,0.3c0.2,0.1,0.6,0.2,0.8,0.2c1.5,0.1,3,0.2,4.5,0.1
			c1.3-0.1,2.8-0.3,4-0.6c0.3,0.3,0.7,1.1,1.1,1.3c-1.6,0.4-3.3,0.8-4.9,0.9s-3.2,0.1-4.8-0.1c-0.6-0.1-1.2-0.2-1.8-0.6
			c-0.2-0.1-0.4-0.2-0.6-0.6c0-0.2,0.2-1,0.4-1.1C10,23.9,10.6,23.7,11,23.6z"/>
		<path class="st0" d="M12.3,19.9c-0.9,0.2-1.8,0.4-2.6,0.9c-0.2,0.1-0.4,0.2-0.6,0.4c-0.1,0.1,0.1,0.2,0.2,0.3
			c0.6,0.2,1.1,0.2,1.6,0.3c1.9,0.1,3.9,0,5.9-0.1c1.9-0.1,3.9-0.3,5.7-0.7c-0.4,0.2-0.9,1-1.3,1.2c-0.2,0.1-0.4,0.2-0.7,0.2
			c-2.3,0.6-4.8,0.7-7.1,0.7c-0.9,0-1.8,0-2.8-0.1c-1,0-2,0-3-0.4c-0.3-0.1-0.6-0.2-0.8-0.3c-0.1-0.1,0-0.8,0.1-0.9
			c0.2-0.2,0.6-0.3,0.9-0.6C9.2,20.2,10.8,19.9,12.3,19.9z"/>
		<path class="st0" d="M25.1,19.5c0.7,0,1.5,0.1,2,0.6c0.4,0.4,0.7,1.7,0.6,2.3c-0.1,0.8-0.7,1.7-1.2,2.1c-1,0.9-2.5,1-3.9,1.3
			c0.1-0.1,0.1-0.1,0.2-0.2c1-0.6,2-1.3,2.7-2.2c0.4-0.6,0.4-1,0.3-1.8s-1-1.5-1.8-1.5c-0.3,0-0.4,0-0.8,0.1
			c0.3-0.3,0.8-0.6,1.2-0.7C24.6,19.6,25,19.5,25.1,19.5z"/>
		<path class="st0" d="M23.1,9c-1.3,0.9-2.5,1.8-3.7,2.9c-0.4,0.4-0.8,0.9-1,1.6c-0.1,0.4-0.1,0.9,0.1,1.3c0.3,0.7,0.9,1.3,1.2,2
			c0.3,0.6,0.4,1.3,0.1,1.9c-0.4,0.9-1.2,1.6-2,2.2c-0.1,0.1-0.6,0.2-0.7,0.2c0.6-0.4,1-1.2,0.9-1.9c0-0.6-0.3-1-0.7-1.5
			c-0.8-0.9-1.3-2-1.2-3.3c0.1-1.3,1-2.2,1.9-3C19.5,10.2,21.2,9.5,23.1,9z"/>
		<path class="st0" d="M18.3,2.5c0.7,0.8,1.8,2,1.7,3.1c-0.3,1.1-1,2.4-1.7,3.3c-0.6,0.7-1.3,1.3-2,1.9c-0.9,0.7-1.7,1.5-2.2,2.5
			c-0.4,0.8-0.6,1.8-0.2,2.7c0.6,1.5,1.7,2.7,2.3,4c-0.7-0.7-1.9-1.3-2.9-2.2c-0.7-0.7-1.3-1.5-1.8-2.5c-0.3-0.7-0.4-1.3-0.2-2
			s0.7-1.2,1.2-1.8c1.3-1.3,3.1-2.5,4.5-3.9c0.8-0.8,1.3-1.7,1.6-2.8C18.5,4,18.4,3.3,18.3,2.5z"/>
	</g>
	<g>
		<g>
			<path class="st1" d="M35.3,26.3c-2.3,0-4.1,2-4.1,4.2s1.9,4.2,4.1,4.2c0.1,0,0.1,0,0.3,0v-1.5c1.3-0.1,2.5-1.3,2.5-2.9
				s-1.1-2.8-2.5-2.9v-1.2C35.5,26.3,35.4,26.3,35.3,26.3z"/>
			<path class="st1" d="M30,30.6c0-3.1,2.4-5.5,5.3-5.5c0.1,0,0.1,0,0.3,0v-1.3H18.5V36h14.2l-0.1-0.7C31.1,34.5,30,32.7,30,30.6z"
				/>
			<path class="st1" d="M35.5,36.2L35.5,36.2L35.5,36.2C35.6,36.2,35.6,36.2,35.5,36.2z"/>
		</g>
		<g>
			<text transform="matrix(0.9586 0 0 1 20.373 29.7813)" class="st2 st3 st4">1.0</text>
			<text transform="matrix(0.9586 0 0 1 20.373 35.1055)" class="st2 st3 st4">1.1</text>
			<path class="st0" d="M35.3,25.7c-2.4,0.1-4.2,2.1-4.4,4.4c-0.1,2,1,3.7,2.6,4.4V39l1.9-1.3l1.9,1.3v-4.4c1.4-0.7,2.6-2.3,2.6-4.2
				C39.9,27.7,37.8,25.7,35.3,25.7z M35.7,33.1c-1.7,0.2-3.2-1.2-2.9-3.1c0.2-1,1-2.1,2.2-2.2c1.7-0.2,3.2,1.2,2.9,3.1
				C37.8,31.9,36.8,32.9,35.7,33.1z"/>
			<g>
				<path class="st2" d="M32.7,35.7H18.8V24.3h16.6V25c0.4,0,0.9,0.1,1.2,0.2V23H17.4v14h15.3V35.7L32.7,35.7z"/>
			</g>
		</g>
	</g>
</g>
</svg>
