<?xml version="1.0" encoding="utf-8"?>
<!-- Generator: Adobe Illustrator 24.3.0, SVG Export Plug-In . SVG Version: 6.00 Build 0)  -->
<svg version="1.1" id="Ebene_1" xmlns="http://www.w3.org/2000/svg" xmlns:xlink="http://www.w3.org/1999/xlink" x="0px" y="0px"
	 viewBox="0 0 40 40" style="enable-background:new 0 0 40 40;" xml:space="preserve">
<style type="text/css">
	.st0{fill:#787878;}
	.st1{fill:#41AAAA;}
</style>
<g>
	<path class="st0" d="M35.2,8.1C32.8,5.6,26.9,4,20.1,4C13.1,4,7,5.7,4.8,8.3v4.3c2.2,2.5,8.3,4.3,15.3,4.3c6.8,0,12.7-1.7,15.1-4.1
		V8.1z"/>
	<path class="st0" d="M35.2,28.5c-2.3,2.4-8.3,4.1-15.1,4.1c-7,0-13.1-1.8-15.3-4.3c0,0,0,0,0,0.1v4.3C7,35.2,13.1,37,20.1,37
		c6.8,0,12.7-1.8,15.1-4.1V28.5z"/>
	<path class="st0" d="M35.2,21.8c-2.3,2.4-8.3,4.1-15.1,4.1c-7,0-13.1-1.8-15.3-4.3c0,0,0,0,0,0.1V26c2.2,2.5,8.3,4.3,15.3,4.3
		c6.8,0,12.7-1.8,15.1-4.1V21.8z"/>
	<path class="st0" d="M35.2,15.1c-2.3,2.4-8.3,4.1-15.1,4.1c-7,0-13.1-1.8-15.3-4.3c0,0,0,0,0,0.1v4.3c2.2,2.5,8.3,4.3,15.3,4.3
		c6.8,0,12.7-1.8,15.1-4.1V15.1z"/>
	<ellipse class="st1" cx="20" cy="7.8" rx="15.2" ry="4.8"/>
</g>
</svg>
