<?xml version="1.0" encoding="utf-8"?>
<!-- Generator: Adobe Illustrator 24.3.0, SVG Export Plug-In . SVG Version: 6.00 Build 0)  -->
<svg version="1.1" id="Ebene_1" xmlns="http://www.w3.org/2000/svg" xmlns:xlink="http://www.w3.org/1999/xlink" x="0px" y="0px"
	 viewBox="0 0 40 40" style="enable-background:new 0 0 40 40;" xml:space="preserve">
<style type="text/css">
	.st0{fill:#FF7C00;}
	.st1{fill:#FFFFFF;}
	.st2{fill:#797979;}
	.st3{fill:#505A64;}
</style>
<g>
	<g>
		<rect x="4.1" y="4" class="st0" width="9.6" height="32.1"/>
		<rect x="6.1" y="6" class="st1" width="5.6" height="10.7"/>
		<polygon class="st1" points="8.9,21.8 7.8,23 10.1,23 		"/>
		<polygon class="st1" points="9,28.3 10.1,27.2 7.8,27.2 		"/>
		<polygon class="st1" points="5.6,25.1 7,26.4 7,23.8 		"/>
		<polygon class="st1" points="12.2,25.1 11,23.8 11,26.4 		"/>
		<polygon class="st1" points="12.4,32.7 12.4,34.9 10.3,34.9 10.3,35.3 12.8,35.3 12.8,32.7 		"/>
		<polygon class="st2" points="5.4,32.7 5.4,34.9 7.4,34.9 7.4,35.3 5.1,35.3 5.1,32.7 		"/>
	</g>
	<g>
		<rect x="15.3" y="4" class="st2" width="9.6" height="32.1"/>
		<rect x="17.8" y="20.4" class="st1" width="4.4" height="8.2"/>
		<rect x="15.3" y="17" class="st3" width="9.6" height="1.2"/>
		<rect x="17.2" y="6.6" class="st1" width="5.8" height="2.3"/>
		<rect x="21" y="10.3" class="st1" width="1.6" height="1.5"/>
	</g>
	<g>
		<rect x="26.5" y="4" class="st2" width="9.6" height="32.1"/>
		<rect x="33.6" y="32.2" class="st3" width="0.9" height="4"/>
		<rect x="31.7" y="32.2" class="st3" width="0.9" height="4"/>
		<rect x="30" y="32.2" class="st3" width="0.9" height="4"/>
		<rect x="28.2" y="32.2" class="st3" width="0.9" height="4"/>
		<rect x="28.4" y="6.6" class="st1" width="5.8" height="2.3"/>
		<rect x="26.5" y="17" class="st3" width="9.6" height="1.2"/>
		<rect x="32.3" y="10.3" class="st1" width="1.6" height="1.5"/>
		<rect x="32.3" y="13.2" class="st1" width="1.6" height="1.5"/>
	</g>
</g>
</svg>
