<?xml version="1.0" encoding="utf-8"?>
<!-- Generator: Adobe Illustrator 24.3.0, SVG Export Plug-In . SVG Version: 6.00 Build 0)  -->
<svg version="1.1" id="Ebene_1" xmlns="http://www.w3.org/2000/svg" xmlns:xlink="http://www.w3.org/1999/xlink" x="0px" y="0px"
	 viewBox="0 0 40 40" style="enable-background:new 0 0 40 40;" xml:space="preserve">
<style type="text/css">
	.st0{fill:#41AAAA;}
	.st1{fill:#787878;}
	.st2{fill:#FFFFFF;}
</style>
<path class="st0" d="M34.4,31.1H22.9c-1.4,0-2.5-1.1-2.5-2.5V12.9c0-1.4,1.1-2.5,2.5-2.5h11.5c1.4,0,2.5,1.1,2.5,2.5v15.6
	C36.9,29.9,35.8,31.1,34.4,31.1z"/>
<polygon class="st1" points="4.9,23.9 2.9,23.9 2.9,31.1 18.6,31.1 18.6,10.3 2.9,10.3 2.9,17.5 4.9,17.5 4.9,12.3 16.6,12.3 
	16.6,29.1 4.9,29.1 "/>
<g id="icons_2_">
	<path class="st0" d="M6.9,24.5l2.2,1.7l4.6-5.7l-4.8-5.7L7,16.7l2.6,2.7H1v2.8h8.3L6.9,24.5z"/>
</g>
<g>
	<rect x="23" y="26.6" class="st1" width="2.4" height="4.4"/>
	<rect x="27.5" y="24.3" class="st1" width="2.4" height="6.8"/>
	<rect x="31.9" y="20.5" class="st1" width="2.4" height="10.6"/>
</g>
<polygon class="st2" points="35.1,12.1 28.9,13.2 31,15.2 27.2,18.8 22.2,22 23.3,23.9 28.4,20.4 32.5,16.6 34.3,18.3 "/>
</svg>
