<?xml version="1.0" encoding="utf-8"?>
<!-- Generator: Adobe Illustrator 24.3.0, SVG Export Plug-In . SVG Version: 6.00 Build 0)  -->
<svg version="1.1" id="Ebene_1" xmlns="http://www.w3.org/2000/svg" xmlns:xlink="http://www.w3.org/1999/xlink" x="0px" y="0px"
	 viewBox="0 0 40 40" style="enable-background:new 0 0 40 40;" xml:space="preserve">
<style type="text/css">
	.st0{display:none;fill:#797979;}
	.st1{fill:#41AAAA;}
	.st2{fill:#797979;}
	.st3{fill:#40A9AA;}
</style>
<path class="st0" d="M40,0L40,0L40,0H0l0,0l0,0v40l0,0l0,0h40l0,0l0,0V0z M37,3v34H3V3H37z"/>
<g>
	<circle class="st1" cx="9.3" cy="27.9" r="1.4"/>
	<path class="st2" d="M28.3,17.7c2.6,0,4.9,1.4,6.1,3.4c0.1-0.2,0.1-0.3,0.1-0.6c0-0.2,0-0.3,0-0.4l-0.3-1.2L31.5,8.8
		c-0.1-0.7-0.7-1.1-1.4-1.1h-9.3H20H9.6c-0.7,0-1.2,0.4-1.4,1.1l-0.9,3.5c0,0,0,0-0.1,0l-2.1,7.9c0,0.2,0,0.3,0,0.4
		c0,0.8,0.6,1.4,1.5,1.4l0,0h0.2h14.9C22.8,19.5,25.4,17.7,28.3,17.7z"/>
	<path class="st2" d="M25.6,24c-0.1,0.2-0.1,0.5-0.1,0.8c0,1.6,1.2,2.8,2.8,2.9c1.6,0,2.8-1.2,2.9-2.8c0-0.3-0.1-0.5-0.1-0.8
		C31.1,24,25.6,24,25.6,24z"/>
	<path class="st2" d="M31.6,31.2c-1,0.5-2.1,0.9-3.3,0.9c-3.9,0-7.1-3.2-7.1-7.1c0-0.4,0-0.8,0.1-1.2H6.7c-1,0-1.6,0.7-1.5,1.6
		L5.9,31c0.1,0.7,0.8,1.3,1.5,1.3h25.1c0,0,0,0,0.1,0L31.6,31.2z"/>
	<path class="st2" d="M30.3,22.8c-0.5-0.5-1.2-0.8-1.9-0.8c-0.7,0-1.4,0.3-1.9,0.8H30.3z"/>
	<path class="st3" d="M37.6,32.9L33,28.2c0.8-1.1,1.2-2.5,1.1-3.9c-0.3-3.2-3.2-5.6-6.4-5.3s-5.6,3.2-5.3,6.4s3.2,5.6,6.4,5.3
		c1.1-0.1,2-0.5,2.9-1.1l4.6,4.6L37.6,32.9z M28.6,29c-2.3,0.2-4.3-1.5-4.5-3.7c-0.2-2.3,1.5-4.3,3.7-4.5s4.3,1.5,4.5,3.7
		S30.9,28.8,28.6,29z"/>
</g>
</svg>
