<?xml version="1.0" encoding="utf-8"?>
<!-- Generator: Adobe Illustrator 24.3.0, SVG Export Plug-In . SVG Version: 6.00 Build 0)  -->
<svg version="1.1" id="Ebene_1" xmlns="http://www.w3.org/2000/svg" xmlns:xlink="http://www.w3.org/1999/xlink" x="0px" y="0px"
	 viewBox="0 0 40 40" style="enable-background:new 0 0 40 40;" xml:space="preserve">
<style type="text/css">
	.st0{fill:#787878;}
	.st1{fill:#41AAAA;}
</style>
<g>
	<path id="path1" class="st0" d="M24.2,7.2c4.2,0,7.6,3.3,7.6,7.7l0,0c2.9,1,5.2,3.9,5.2,7.2c0,4-3.1,7.2-6.4,7.2h-0.2h-4.3v-2.2h3
		h0.3c3.1,0,5.4-1.8,5.4-4.8s-2.5-5.5-5.5-5.5v-1.9c0-2.6-2.2-5.4-5.4-5.4c-2.9,0-5.7,2.2-5.7,5.5h-2l0,0c-0.3-1.5-1.9-2.2-3.5-1.8
		c-1.9,0.4-2.2,2.6-2.2,3.7h-0.2V17c-3.1,0-5.2,2.2-5.2,5s2.5,5,5.4,5h5.3v2.2h-5.4C6.1,29.2,3,25.9,3,22c0-3.3,2.2-6.2,5.5-7
		c0.6-2.1,1.7-3.6,3.6-4c1.7-0.4,3.5,0,4.8,1C18.1,9.2,21.1,7.2,24.2,7.2z"/>
	<polygon class="st1" points="21.1,16.5 21.1,16.5 21.1,16.5 27.5,23.2 25.4,25.1 22.4,21.8 22.4,33.1 19.7,33.1 19.7,21.8 
		16.6,25.1 14.7,23.2 	"/>
</g>
</svg>
