<?xml version="1.0" encoding="utf-8"?>
<!-- Generator: Adobe Illustrator 24.3.0, SVG Export Plug-In . SVG Version: 6.00 Build 0)  -->
<svg version="1.1" id="Ebene_1" xmlns="http://www.w3.org/2000/svg" xmlns:xlink="http://www.w3.org/1999/xlink" x="0px" y="0px"
	 viewBox="0 0 40 40" style="enable-background:new 0 0 40 40;" xml:space="preserve">
<style type="text/css">
	.st0{fill:#41AAAA;}
	.st1{fill:#FFFFFF;}
	.st2{fill:#787878;}
	.st3{font-family:'NotoSans-Regular';}
	.st4{font-size:6.5078px;}
</style>
<g>
	<path class="st0" d="M37.8,35.9H15.5c-0.6,0-1.3-0.5-1.3-1.3V25c0-0.6,0.5-1.3,1.3-1.3h22.3c0.6,0,1.3,0.5,1.3,1.3v9.6
		C39,35.4,38.5,35.9,37.8,35.9z"/>
	<rect x="16.2" y="25.4" class="st1" width="6.2" height="8.9"/>
	<text transform="matrix(1 0 0 1 17.3409 32.3217)" class="st2 st3 st4">0</text>
	<rect x="23.5" y="25.4" class="st1" width="6.2" height="8.9"/>
	<text transform="matrix(1 0 0 1 24.6617 32.3217)" class="st2 st3 st4">0</text>
	<rect x="30.9" y="25.4" class="st1" width="6.2" height="8.9"/>
	<g>
		<path class="st2" d="M34.2,34.4h-0.6v-2.2c0-0.2,0-0.3,0-0.5c0-0.1,0-0.2,0-0.4c-0.1,0.1-0.1,0.1-0.2,0.2
			c-0.1,0.1-0.1,0.1-0.2,0.2l-0.5,0.4l-0.3-0.4l1.3-1h0.5V34.4z"/>
	</g>
	<path class="st2" d="M34.6,25.4c0.1,0.3,0.2,0.8,0.2,1.3c0,0.6-0.1,1.1-0.2,1.4c-0.2,0.3-0.4,0.5-0.7,0.5c-0.4,0-0.6-0.2-0.7-0.5
		c-0.1-0.3-0.2-0.8-0.2-1.4s0.1-1,0.2-1.3h-0.6l0,0c-0.1,0.4-0.2,0.8-0.2,1.3c0,0.8,0.1,1.3,0.4,1.8c0.3,0.4,0.6,0.6,1.2,0.6
		c0.4,0,0.7-0.1,0.9-0.3s0.4-0.5,0.5-0.8c0.1-0.4,0.2-0.8,0.2-1.3s-0.1-1-0.2-1.3C35.4,25.4,34.6,25.4,34.6,25.4z"/>
</g>
<g>
	<path class="st2" d="M13.1,27.2c-4.6,0-8.3-3.7-8.3-8.3s3.7-8.3,8.3-8.3s8.3,3.7,8.3,8.3c0,1.4-0.3,2.7-0.9,3.9h2.8
		c0.5-1.2,0.8-2.5,0.8-3.9c0-2.2-0.7-4.3-1.8-6l3.1-3.2l-2.6-2.6l-3.1,3.1c-1.3-1-2.9-1.7-4.6-2V4.1h-3.7v4.2c-1.7,0.3-3.3,1-4.6,2
		L3.6,7.2L1,9.8l3.1,3.1c-1.2,1.7-1.8,3.8-1.8,6c0,6,4.9,10.8,10.8,10.8V27.2z"/>
	<path class="st1" d="M13.1,24.7c0-0.9,0.8-1.8,1.8-1.8H21c0.6-1.2,0.9-2.6,0.9-4c0-4.8-4-8.9-8.9-8.9s-8.9,4-8.9,8.9s4,8.9,8.9,8.9
		C13.1,27.8,13.1,24.7,13.1,24.7z"/>
	<rect x="10.3" y="15.5" transform="matrix(0.4372 -0.8994 0.8994 0.4372 -6.4559 22.2871)" class="st0" width="8.5" height="1.7"/>
</g>
</svg>
