<?xml version="1.0" encoding="utf-8"?>
<!-- Generator: Adobe Illustrator 24.3.0, SVG Export Plug-In . SVG Version: 6.00 Build 0)  -->
<svg version="1.1" id="Ebene_1" xmlns="http://www.w3.org/2000/svg" xmlns:xlink="http://www.w3.org/1999/xlink" x="0px" y="0px"
	 viewBox="0 0 40 40" style="enable-background:new 0 0 40 40;" xml:space="preserve">
<style type="text/css">
	.st0{display:none;fill:#EF0137;}
	.st1{fill:#787878;}
	.st2{fill:#FFFFFF;}
	.st3{fill:#41AAAA;}
	.st4{fill:#797979;}
</style>
<path class="st0" d="M0,0v40h40V0H0z M36.7,36.8H3.3V3.3h33.4V36.8z"/>
<g>
	<polygon class="st1" points="3.3,3.3 36.7,3.3 36.6,36.8 3.3,36.8 	"/>
	<rect x="6.2" y="6.2" class="st2" width="28.1" height="28"/>
	<path class="st3" d="M4.8,5.2v30.1h30.3V5.2H4.8z M6.7,6.5h2.9v3.2H6.7V6.5z M6.4,33.7V11.5h27.3v22.1H6.4V33.7z"/>
	<g>
		<rect x="17.2" y="22.3" class="st4" width="4.3" height="1.3"/>
		<rect x="17" y="29.4" class="st4" width="4.3" height="1.3"/>
		<polygon class="st4" points="21,27.7 21,32.7 26.7,32.7 26.7,27.7 		"/>
		<polygon class="st4" points="26.7,20.4 26.7,25.8 21,25.8 21,20.4 		"/>
		<rect x="16.5" y="19.4" class="st1" width="1.3" height="11.3"/>
		<path class="st3" d="M13,15.8L13,15.8c0,1.5,0.7,2.8,2,3.5l0.3,0.2c1.2,0.7,2.7,0.7,3.8,0l0.3-0.2c1.2-0.7,2-2,2-3.3l0,0
			c0-1.5-0.8-2.8-2.2-3.5L19,12.3c-1.2-0.5-2.5-0.5-3.5,0l-0.3,0.1C13.8,13.1,13,14.4,13,15.8z"/>
	</g>
</g>
</svg>
