<?xml version="1.0" encoding="utf-8"?>
<!-- Generator: Adobe Illustrator 24.3.0, SVG Export Plug-In . SVG Version: 6.00 Build 0)  -->
<svg version="1.1" id="Ebene_1" xmlns="http://www.w3.org/2000/svg" xmlns:xlink="http://www.w3.org/1999/xlink" x="0px" y="0px"
	 viewBox="0 0 40 40" style="enable-background:new 0 0 40 40;" xml:space="preserve">
<style type="text/css">
	.st0{fill:#FFFFFF;}
	.st1{fill:#787878;}
	.st2{fill:#797979;}
	.st3{fill:#41AAAA;}
</style>
<g>
	<path class="st0" d="M27.9,34.2H12.2c-1.1,0-1.9-0.9-1.9-1.9V7.8c0-1.1,0.9-1.9,1.9-1.9h15.7c1.1,0,1.9,0.9,1.9,1.9v24.5
		C29.9,33.4,29,34.2,27.9,34.2z"/>
	<path class="st1" d="M36.6,15.8V9.7h-4.1V7.9c0-2-1.6-3.6-3.6-3.6H13.8c-2,0-3.6,1.6-3.6,3.6v24.2c0,2,1.6,3.6,3.6,3.6h15.1
		c2,0,3.6-1.6,3.6-3.6V31h4.1v-6.1h-4.1v-1.5h4.1v-6.1h-4.1v-1.5C32.5,15.8,36.6,15.8,36.6,15.8z M30.9,32c0,1.3-1,2.3-2.3,2.3H14.1
		c-1.3,0-2.3-1-2.3-2.3V8.3c0-1.3,1-2.3,2.3-2.3h14.5c1.3,0,2.3,1,2.3,2.3V32z M35.1,26.4v3.1h-2.6v-3.1H35.1z M35.1,18.8v3.1h-2.6
		v-3.1H35.1z M32.5,11.2h2.6v3.1h-2.6C32.5,14.3,32.5,11.2,32.5,11.2z"/>
	<g>
		<rect x="32.5" y="10.9" class="st0" width="2.9" height="3.8"/>
		<rect x="32.5" y="18.5" class="st0" width="2.9" height="3.8"/>
		<rect x="32.5" y="26" class="st0" width="2.9" height="3.8"/>
	</g>
	<g>
		<path class="st2" d="M30.5,37.1H9.6c-1.3,0-2.3-1-2.3-2.3V4.7c0-1.3,1-2.3,2.3-2.3h20.9c1.3,0,2.3,1,2.3,2.3v30.1
			C32.8,36,31.8,37.1,30.5,37.1z"/>
		<path class="st0" d="M30.3,35.9H9.8c-0.7,0-1.3-0.6-1.3-1.3V4.9c0-0.7,0.6-1.3,1.3-1.3h20.6c0.7,0,1.3,0.6,1.3,1.3v29.7
			C31.6,35.3,31,35.9,30.3,35.9z"/>
		<rect x="22.2" y="2.4" class="st3" width="3.4" height="1.2"/>
	</g>
	<g>
		<rect x="5.5" y="8.3" class="st3" width="4.6" height="1.4"/>
		<rect x="5.5" y="13.6" class="st3" width="4.6" height="1.4"/>
		<rect x="5.5" y="19.3" class="st3" width="4.6" height="1.4"/>
		<rect x="5.5" y="25" class="st3" width="4.6" height="1.4"/>
		<rect x="5.5" y="30.4" class="st3" width="4.6" height="1.4"/>
	</g>
	<rect x="13.3" y="20.4" class="st3" width="15" height="1.9"/>
	<rect x="13.3" y="24.4" class="st3" width="15" height="1.9"/>
	<rect x="13.3" y="28.4" class="st3" width="9" height="1.9"/>
	<g>
		<rect x="13.3" y="8.2" class="st3" width="15" height="9.9"/>
		<path class="st0" d="M15.4,10v4.9c0,0,2.8-2.7,5.9-0.3c3,2.3,4.8,0.7,4.8,0.7V10H15.4z"/>
		<circle class="st3" cx="23.9" cy="12.4" r="1.1"/>
	</g>
</g>
</svg>
