<?xml version="1.0" encoding="utf-8"?>
<!-- Generator: Adobe Illustrator 24.3.0, SVG Export Plug-In . SVG Version: 6.00 Build 0)  -->
<svg version="1.1" id="Ebene_1" xmlns="http://www.w3.org/2000/svg" xmlns:xlink="http://www.w3.org/1999/xlink" x="0px" y="0px"
	 viewBox="0 0 40 40" style="enable-background:new 0 0 40 40;" xml:space="preserve">
<style type="text/css">
	.st0{fill:#41AAAA;}
	.st1{fill:#797979;}
</style>
<g>
	<path class="st0" d="M25.9,15.8h12.4c0-0.2,0-0.4,0-0.7C38.3,8.4,32.7,3,25.9,3V15.8z"/>
	<path class="st1" d="M25.2,30.6c6.7-0.6,12.1-6.2,12.1-13.2H24.2V4.2c-4,0-7.6,1.7-10,4.5c4.1,0.3,7.4,3.8,7.4,8
		c0,2.3-1,4.3-2.5,5.8C21.9,24.2,24.1,27.1,25.2,30.6z"/>
	<path class="st1" d="M2,34.3c0,0.5,0,1.3,0,2.7h21.7c0-1.4,0-2.2,0-2.7l0,0c0-4.8-2.7-9-6.6-10.8c-1.2,0.8-2.6,1.2-4.1,1.2
		c-1.6,0-3-0.4-4.2-1.2C4.8,25.3,2,29.4,2,34.3z"/>
	<circle class="st0" cx="13" cy="16.8" r="6.4"/>
</g>
</svg>
