<?xml version="1.0" encoding="utf-8"?>
<!-- Generator: Adobe Illustrator 24.3.0, SVG Export Plug-In . SVG Version: 6.00 Build 0)  -->
<svg version="1.1" id="Ebene_1" xmlns="http://www.w3.org/2000/svg" xmlns:xlink="http://www.w3.org/1999/xlink" x="0px" y="0px"
	 viewBox="0 0 40 40" style="enable-background:new 0 0 40 40;" xml:space="preserve">
<style type="text/css">
	.st0{fill:#41AAAA;}
	.st1{fill:#FFFFFF;}
	.st2{font-family:'ArialMT';}
	.st3{font-size:9.3128px;}
	.st4{fill:#505A64;}
	.st5{font-family:'NotoSans-Bold';}
	.st6{font-size:9.5374px;}
	.st7{fill:#797979;}
</style>
<g>
	<g>
		<polygon class="st0" points="37,22.9 21.7,22.9 21.7,3 32.8,3 37,7.3 		"/>
		<text transform="matrix(1 0 0 1 21.6776 14.8717)" class="st1 st2 st3">TIA</text>
		<text transform="matrix(1 0 0 1 21.1737 22.7419)" class="st4 st5 st6">S7+</text>
	</g>
	<g>
		<polygon class="st0" points="18.7,35.5 3.4,35.5 3.4,15.5 14.5,15.5 18.7,19.9 		"/>
		<text transform="matrix(1 0 0 1 3.347 27.3756)" class="st1 st2 st3">TIA</text>
		<text transform="matrix(1 0 0 1 2.9926 35.2467)" class="st4 st5 st6">S7</text>
	</g>
	<path class="st7" d="M31.8,28.6l-3.6-4.3l-3.8,4.3h2.5c0,0.6-0.1,1.5-0.7,2.3c-2.3,2.6-5.8,2.1-5.8,2.1s4.1,1.6,6.6,0.2
		c2.9-1.5,2.5-4.5,2.5-4.5L31.8,28.6L31.8,28.6z"/>
</g>
</svg>
