<?xml version="1.0" encoding="utf-8"?>
<!-- Generator: Adobe Illustrator 24.3.0, SVG Export Plug-In . SVG Version: 6.00 Build 0)  -->
<svg version="1.1" id="Ebene_1" xmlns="http://www.w3.org/2000/svg" xmlns:xlink="http://www.w3.org/1999/xlink" x="0px" y="0px"
	 viewBox="0 0 40 40" style="enable-background:new 0 0 40 40;" xml:space="preserve">
<style type="text/css">
	.st0{fill:#41AAAA;}
	.st1{fill:#FFFFFF;}
	.st2{font-family:'NotoSans-Bold';}
	.st3{font-size:11.4962px;}
	.st4{fill:#787878;}
</style>
<circle class="st0" cx="20.7" cy="34.2" r="1.6"/>
<g>
	<path class="st0" d="M38.7,37v-6.1c0-1.1-0.8-1.8-1.8-1.8h-4.1L25.9,26l1.2,3.2h-0.3C25.7,29.2,25,30,25,31v6.1
		c0,1.1,0.8,1.8,1.8,1.8h10.1C38,38.8,38.8,38,38.7,37z"/>
	<text transform="matrix(1 0 0 1 26.8392 36.3426)" class="st1 st2 st3">...</text>
</g>
<path class="st4" d="M23.4,31.4H13.3V7.3H28l0.2,18.2l1.6,0.8v-21c-0.2-1.4-1.4-2.4-2.7-2.4H14.4c-1.4,0-2.6,1-2.6,2.5v29.1
	c0,1.4,1.1,2.6,2.6,2.6h9V31.4z M20.7,35.7c-0.9,0-1.5-0.7-1.5-1.5c0-0.9,0.7-1.5,1.5-1.5s1.5,0.7,1.5,1.5S21.5,35.7,20.7,35.7z"/>
<path class="st1" d="M23.4,30.1c0-1,0.7-1.8,1.6-2.1l-1.1-4.1l4.3,1.7V7H13v24.7h10.4V30.1z"/>
</svg>
