<?xml version="1.0" encoding="utf-8"?>
<!-- Generator: Adobe Illustrator 24.3.0, SVG Export Plug-In . SVG Version: 6.00 Build 0)  -->
<svg version="1.1" id="Ebene_1" xmlns="http://www.w3.org/2000/svg" xmlns:xlink="http://www.w3.org/1999/xlink" x="0px" y="0px"
	 viewBox="0 0 40 40" style="enable-background:new 0 0 40 40;" xml:space="preserve">
<style type="text/css">
	.st0{fill:#40A9AA;}
	.st1{display:none;fill:#FFFFFF;}
	.st2{fill:#797979;}
	.st3{display:none;}
	.st4{display:inline;fill:#40A9AA;}
	.st5{display:inline;fill:#797979;}
</style>
<path class="st0" d="M38.7,35.2L34,30.5c0.8-1.1,1.2-2.5,1.1-4c-0.3-3.3-3.3-5.8-6.6-5.5s-5.8,3.3-5.5,6.6c0.3,3.3,3.3,5.8,6.6,5.5
	c1.1-0.1,2.1-0.5,2.9-1.1l4.7,4.8L38.7,35.2z M29.5,31.2c-2.3,0.2-4.4-1.5-4.6-3.9c-0.2-2.3,1.5-4.4,3.9-4.6s4.4,1.5,4.6,3.9
	S31.8,31,29.5,31.2z"/>
<g>
	<path class="st1" d="M21.2,26.6c0-4.2,3.4-7.6,7.6-7.6c1.5,0,2.8,0.4,4,1.1V6.8H7.6v21.4h13.8C21.3,27.7,21.2,27.2,21.2,26.6z"/>
	<g>
		<path class="st0" d="M21.9,23.4h-0.8v-2.9h-2v2.9h-2v-2.9H15v2.9h-2v-8.8h2.4l0.6-1.4l0.6-1.5l7.1-0.1l0.6,1.5l0.6,1.4h2.2v4.8
			c0.5-0.1,1.1-0.2,1.6-0.2c0.2,0,0.3,0,0.5,0v-6.6h-2.9l-1.1-2.9H15.1l-1,2.9h-2.9v13h10.1C21.4,24.8,21.6,24.1,21.9,23.4z"/>
		<path class="st0" d="M23.1,20.5v1.1c0.4-0.4,0.8-0.8,1.3-1.1H23.1z"/>
	</g>
	<path class="st2" d="M21.3,27.6H8.1v-20h24.1v12.3c0.7,0.4,1.4,0.9,2,1.4V5.5h-28v24h15.6C21.5,28.9,21.4,28.3,21.3,27.6z"/>
	<g class="st3">
		<path class="st4" d="M34.5,26.5c0-3.2-2.6-5.8-5.8-5.8s-5.8,2.6-5.8,5.8c0,0.1,0,0.3,0,0.4l0,0V34h11.5v-7.1l0,0
			C34.5,26.8,34.5,26.6,34.5,26.5z M33.1,32.8h-8.6v-6c0-2.4,1.9-4.3,4.3-4.3s4.3,1.9,4.3,4.3V32.8z"/>
		<circle class="st4" cx="28.7" cy="26.9" r="3.1"/>
		<rect x="27.9" y="26.3" class="st5" width="1.7" height="7.1"/>
		<path class="st5" d="M35.4,36.5H22.1c-0.4,0-0.7-0.4-0.6-0.8l0.7-3.8c0.1-0.3,0.3-0.6,0.6-0.6h11.9c0.3,0,0.6,0.2,0.6,0.6l0.7,3.8
			C36.1,36.1,35.8,36.5,35.4,36.5z"/>
	</g>
</g>
</svg>
