<?xml version="1.0" encoding="utf-8"?>
<!-- Generator: Adobe Illustrator 24.3.0, SVG Export Plug-In . SVG Version: 6.00 Build 0)  -->
<svg version="1.1" id="Ebene_1" xmlns="http://www.w3.org/2000/svg" xmlns:xlink="http://www.w3.org/1999/xlink" x="0px" y="0px"
	 viewBox="0 0 40 40" style="enable-background:new 0 0 40 40;" xml:space="preserve">
<style type="text/css">
	.st0{fill:#41AAAA;}
	.st1{fill:#787878;}
</style>
<g>
	<ellipse class="st0" cx="20" cy="9.8" rx="14.2" ry="5.6"/>
	<path class="st1" d="M20,16.8c-6.3,0-11.8-1.6-14.3-4v4l0,0c0.4,3,6.7,5.5,14.3,5.5s13.9-2.4,14.3-5.5l0,0v-3.9
		C31.8,15.3,26.3,16.8,20,16.8z"/>
	<path class="st1" d="M20,23.7c-6.3,0-11.8-1.6-14.3-4v4l0,0c0.4,3,6.7,5.5,14.3,5.5s13.9-2.4,14.3-5.5l0,0v-4
		C31.8,22,26.3,23.7,20,23.7z"/>
	<path class="st1" d="M20,30.3c-6.3,0-11.8-1.6-14.3-4v4l0,0c0.4,3.1,6.7,5.5,14.3,5.5s13.9-2.4,14.3-5.5l0,0v-4
		C31.8,28.8,26.3,30.3,20,30.3z"/>
</g>
</svg>
