<?xml version="1.0" encoding="utf-8"?>
<!-- Generator: Adobe Illustrator 24.3.0, SVG Export Plug-In . SVG Version: 6.00 Build 0)  -->
<svg version="1.1" id="Ebene_1" xmlns="http://www.w3.org/2000/svg" xmlns:xlink="http://www.w3.org/1999/xlink" x="0px" y="0px"
	 viewBox="0 0 40 40" style="enable-background:new 0 0 40 40;" xml:space="preserve">
<style type="text/css">
	.st0{fill:#41AAAA;}
	.st1{fill:#FFFFFF;}
	.st2{fill:#787878;}
	.st3{font-family:'NotoSans-Bold';}
	.st4{font-size:8.4248px;}
</style>
<g>
	<polygon class="st0" points="14,28.5 18.4,32.8 14.4,36.8 33.1,36.8 36.8,33 32.3,28.5 	"/>
	<polygon class="st1" points="4,29 10,29 13.8,32.8 10.3,36.2 4,36.2 	"/>
	<path class="st2" d="M10.3,27.8L3,27.9v9.4h7.9l4.5-4.5L10.3,27.8z M10.3,36.2H4V29h6l3.8,3.8L10.3,36.2z"/>
	<text transform="matrix(1 0 0 1 4.9902 35.6221)" class="st0 st3 st4">3</text>
	<polygon class="st0" points="14,16 18.4,20.4 14.4,24.3 29.3,24.3 33,20.6 28.5,16 	"/>
	<polygon class="st1" points="4,16.6 10,16.6 13.8,20.4 10.3,23.8 4,23.8 	"/>
	<path class="st2" d="M10.3,15.4L3,15.5v9.4h7.9l4.5-4.5L10.3,15.4z M10.3,23.8H4v-7.2h6l3.8,3.8L10.3,23.8z"/>
	<text transform="matrix(1 0 0 1 4.9902 23.1982)" class="st0 st3 st4">2</text>
	<polygon class="st0" points="14,3.6 18.4,8 14.4,11.9 25.4,11.9 29.2,8.2 24.7,3.6 	"/>
	<polygon class="st1" points="4,4.2 10,4.2 13.8,8 10.3,11.3 4,11.3 	"/>
	<path class="st2" d="M10.3,2.9L3,3v9.4h7.9l4.5-4.5L10.3,2.9z M10.3,11.3H4V4.2h6L13.8,8L10.3,11.3z"/>
	<text transform="matrix(1 0 0 1 4.9902 10.7754)" class="st0 st3 st4">1</text>
</g>
</svg>
