<?xml version="1.0" encoding="utf-8"?>
<!-- Generator: Adobe Illustrator 24.3.0, SVG Export Plug-In . SVG Version: 6.00 Build 0)  -->
<svg version="1.1" id="Ebene_1" xmlns="http://www.w3.org/2000/svg" xmlns:xlink="http://www.w3.org/1999/xlink" x="0px" y="0px"
	 viewBox="0 0 40 40" style="enable-background:new 0 0 40 40;" xml:space="preserve">
<style type="text/css">
	.st0{fill:#FFFFFF;}
	.st1{fill:#41AAAA;}
	.st2{fill:#787878;}
	.st3{fill:#797979;}
</style>
<g>
	<circle class="st0" cx="28.4" cy="29.7" r="5"/>
	<g>
		<path class="st0" d="M20.8,29.7c0-4.2,3.4-7.7,7.7-7.7c1.5,0,3,0.5,4.2,1.2v-9.9l-9.4-9.8H8.6L8.4,36.4h16.3
			C22.4,35.1,20.8,32.6,20.8,29.7z"/>
		<path class="st0" d="M32.2,36.4h0.4v-0.2C32.5,36.2,32.3,36.3,32.2,36.4z"/>
	</g>
	<path class="st1" d="M22.7,3.8l-0.1,9.4c0,0.3,0.2,0.6,0.6,0.6h9.2c0,0,0-0.6-0.3-0.8l-8.5-8.8C23.3,3.9,22.7,3.8,22.7,3.8z"/>
	<g>
		<path class="st1" d="M32,34.8l5,4.9l1.5-1.5l-5-4.9c1.8-2.4,1.5-5.7-0.6-7.9c-2.4-2.4-6.3-2.4-8.7,0s-2.4,6.3,0,8.7
			C26.2,36.2,29.6,36.4,32,34.8z M24.9,33.2c-1.9-2-2-5.1,0-7s5.1-2,7,0s1.9,5.1,0,7C30,35.1,26.8,35.2,24.9,33.2z"/>
	</g>
	<g>
		<path class="st2" d="M24.5,36.1H10.4c-1,0-1.7-0.7-1.7-1.7V5.7C8.8,4.9,9.5,4,10.4,4h11.7c0.4,0,1.1,0.1,1.4,0.4l8.4,8.7
			c0.4,0.3,0.4,1.1,0.4,1.6v8.6c0.4,0.2,0.7,0.5,1,0.7v-9.6c0-0.6-0.2-1.4-0.7-2l-8.2-8.5c-0.5-0.6-1.2-0.9-2-0.9H10.6
			C9,3,7.8,4.3,7.8,5.9v28.3c0,1.7,1.3,2.9,2.9,2.9H27C26,36.9,25.2,36.5,24.5,36.1z"/>
		<path class="st2" d="M30,37h0.6c0.4,0,0.9-0.1,1.2-0.3l-0.2-0.3C31.1,36.7,30.5,36.9,30,37z"/>
	</g>
	<path class="st2" d="M27.2,22.2c0.3,0,0.6-0.1,0.9-0.1v-0.2l-3.6-7.6l-4.9,11.6l-2-3.9l-1.8,3.8l-1.5-2.3v1.9l1.5,2.3l1.8-3.4
		l2.4,3.8l4.5-10.9L27.2,22.2z"/>
	<g>
		<path class="st1" d="M25.9,22.5l0.3-0.6l-0.7-1.3l-1.4,2.8C24.7,23,25.3,22.7,25.9,22.5z"/>
		<path class="st1" d="M23.3,24l-3.8-8.9L16.8,20l-1.6-2l-1,2v2l1.1-2l1.5,2l2.6-4.3l3,7.3C22.7,24.6,23,24.3,23.3,24z"/>
	</g>
	<path class="st2" d="M20.9,28.6h-7.3V15h1.8l-2.3-2.7L10.8,15h1.8v14.4H13h0.6h7.2C20.8,29.1,20.8,28.8,20.9,28.6z"/>
	<path class="st3" d="M30.4,28.8l-2.7-2.1v1.8h-4.1c-0.1,0.3-0.1,0.5-0.1,0.8h4.3v1.8L30.4,28.8z"/>
</g>
</svg>
