<?xml version="1.0" encoding="utf-8"?>
<!-- Generator: Adobe Illustrator 24.3.0, SVG Export Plug-In . SVG Version: 6.00 Build 0)  -->
<svg version="1.1" id="Ebene_1" xmlns="http://www.w3.org/2000/svg" xmlns:xlink="http://www.w3.org/1999/xlink" x="0px" y="0px"
	 viewBox="0 0 40 40" style="enable-background:new 0 0 40 40;" xml:space="preserve">
<style type="text/css">
	.st0{fill:#FFFFFF;}
	.st1{fill:#41AAAA;}
	.st2{fill:#797979;}
</style>
<g>
	<path class="st0" d="M31,32.6c2.7-2.7,4.4-6.5,4.4-10.6c0-8.3-6.8-15-15.2-15s-15,6.8-15,15c0,4.2,1.7,7.9,4.4,10.6H31z"/>
	<path class="st1" d="M29.7,14c0,0-11.4,5.7-12.6,6.8c-1.5,1.4-1.5,3.8-0.1,5.2c1.4,1.5,3.8,1.5,5.2,0.1C23.2,25.1,29.7,14,29.7,14z
		"/>
	<path class="st2" d="M20.3,5.6C11.1,5.6,3.7,13,3.7,22.2c0,4.4,1.8,8.5,4.5,11.4h24.1c2.9-3,4.5-7,4.5-11.4
		C36.9,13,29.5,5.6,20.3,5.6z M31.5,31.5H9.4c-2.1-2.4-3.3-5.6-3.3-9.1C6.1,14.5,12.4,8,20.4,8s14.4,6.4,14.4,14.4
		C34.8,25.9,33.5,29.2,31.5,31.5z"/>
	<rect x="19.6" y="9.3" class="st2" width="1.4" height="3.9"/>
	<rect x="8.8" y="15.5" transform="matrix(0.5 -0.866 0.866 0.5 -10.3844 16.9354)" class="st2" width="1.4" height="3.9"/>
	<rect x="29.3" y="16.8" transform="matrix(0.866 -0.5 0.5 0.866 -4.5489 17.957)" class="st2" width="3.9" height="1.4"/>
</g>
</svg>
