<?xml version="1.0" encoding="utf-8"?>
<!-- Generator: Adobe Illustrator 24.3.0, SVG Export Plug-In . SVG Version: 6.00 Build 0)  -->
<svg version="1.1" id="Ebene_1" xmlns="http://www.w3.org/2000/svg" xmlns:xlink="http://www.w3.org/1999/xlink" x="0px" y="0px"
	 viewBox="0 0 40 40" style="enable-background:new 0 0 40 40;" xml:space="preserve">
<style type="text/css">
	.st0{fill:#41AAAA;}
	.st1{fill:#797979;}
	.st2{fill:#FFFFFF;}
</style>
<g>
	<g>
		<g>
			<path class="st0" d="M26.4,31.1l-0.2,1.5l1.1,0.7c0,0.3,0.1,0.5,0.3,0.9l-0.5,1.2l1,1.1l1.4-0.2c0.2,0.1,0.5,0.3,0.7,0.5l0.6,1.3
				l1.5,0.2l0.7-1.1c0.3,0,0.5-0.1,0.9-0.3l1.2,0.5l1.1-1L36,35c0.1-0.2,0.3-0.5,0.5-0.7l1.3-0.6l0.3-1.6L37,31.4
				c0-0.3-0.1-0.5-0.3-0.9l0.7-1.4l-1-1.1L35,28.2c-0.2-0.1-0.5-0.3-0.6-0.4l-0.7-1.4l-1.5-0.2l-0.8,1.3c-0.3,0-0.5,0.1-0.8,0.4
				l-1.4-0.5l-1.1,1l0.2,1.4c-0.1,0.2-0.3,0.5-0.5,0.7L26.4,31.1z M32.4,29.6c1.5,0.2,2.6,1.4,2.5,3c-0.1,1.5-1.4,2.6-3,2.5
				c-1.5-0.2-2.6-1.4-2.5-3C29.6,30.6,31,29.5,32.4,29.6z"/>
		</g>
		<path class="st0" d="M15.9,14.6c-3.4,0-6.2,2.8-6.2,6.2s2.8,6.2,6.2,6.2s6.2-2.8,6.2-6.2C22.2,17.4,19.3,14.6,15.9,14.6z
			 M15.9,25.1c-2.4,0-4.2-1.9-4.2-4.2s1.9-4.2,4.2-4.2s4.2,1.9,4.2,4.2S18.2,25.1,15.9,25.1z"/>
		<path class="st1" d="M29.3,22.9v-4.2l-3.1-1c-0.3-0.8-0.6-1.5-0.9-2.2l1.6-2.9l-2.8-2.9l-3,1.7c-0.6-0.3-1.3-0.6-2-0.8l-1-3.4
			h-4.2l-1,3.3c-0.8,0.3-1.4,0.5-2.1,0.8l-3-1.6l-2.9,2.9l1.5,2.9c-0.4,0.8-0.8,1.5-1,2.4l-3,0.9V23l3.1,1c0.3,0.8,0.6,1.5,0.9,2.2
			l-1.6,2.9L7.7,32l2.9-1.6c0.7,0.3,1.3,0.6,2.1,0.8l1,3.3H18l1-3.4c0.7-0.3,1.3-0.5,2-0.8l3,1.7l2.9-2.9l-1.6-3
			c0.3-0.7,0.7-1.3,0.8-2L29.3,22.9z M15.9,28.4c-4.1,0-7.5-3.4-7.5-7.5s3.4-7.5,7.5-7.5s7.5,3.4,7.5,7.5S20,28.4,15.9,28.4z"/>
	</g>
	<g>
		<path class="st0" d="M35.8,1.9H22.1c-1.4,0-2.5,1.1-2.5,2.5v7.2v0.1l0,0c0,0.1,0,0.2,0,0.2l0,0c0.1,0.9,0.6,1.6,1.4,1.9l0,0l0,0
			c0.3,0.1,0.5,0.2,0.8,0.2l-2,4.2l9.7-4h6.1c1.4,0,2.5-1.1,2.5-2.5V4.4C38.3,3,37.1,1.9,35.8,1.9z"/>
		<g>
			<rect x="22.2" y="4.5" class="st2" width="13.8" height="1.3"/>
			<rect x="22.2" y="7.4" class="st2" width="13.8" height="1.3"/>
			<rect x="22.2" y="10.3" class="st2" width="10.6" height="1.3"/>
		</g>
	</g>
</g>
</svg>
