<?xml version="1.0" encoding="utf-8"?>
<!-- Generator: Adobe Illustrator 24.3.0, SVG Export Plug-In . SVG Version: 6.00 Build 0)  -->
<svg version="1.1" id="Ebene_1" xmlns="http://www.w3.org/2000/svg" xmlns:xlink="http://www.w3.org/1999/xlink" x="0px" y="0px"
	 viewBox="0 0 40 40" style="enable-background:new 0 0 40 40;" xml:space="preserve">
<style type="text/css">
	.st0{fill:#787878;}
	.st1{fill:#FFFFFF;}
	.st2{fill:#41AAAA;}
</style>
<g>
	<g>
		<path id="path1" class="st0" d="M4.1,6.2h31.8c0.7,0,1.1,0.5,1.1,1.1v20.3c0,0.7-0.5,1.1-1.1,1.1H21.1v3.2h8.6v2.3H10.6V32h8.6
			v-3.2H4.1c-0.7,0-1.1-0.5-1.1-1.1V7.3C3.3,6.7,3.6,6.2,4.1,6.2z"/>
	</g>
	<path class="st1" d="M34,26.4H6.3c-0.6,0-1.1-0.5-1.1-1.1v-16c0-0.6,0.5-1.1,1.1-1.1H34c0.6,0,1.1,0.5,1.1,1.1v16
		C35.1,25.9,34.6,26.4,34,26.4z"/>
	<g id="icons">
		<path class="st2" d="M15.2,12.8c-2.5,0-4.4,2-4.4,4.4s2,4.4,4.4,4.4c1.3,0,2.5-0.5,3.3-1.4h1.8l1.9-1.9l1.9,1.9l1.9-1.9l1.9,1.9
			h0.4l2.3-2.3l-2.3-3.2h-9.4C18,13.5,16.6,12.8,15.2,12.8z M12.2,17.2c0-0.8,0.6-1.5,1.5-1.5c0.8,0,1.5,0.6,1.5,1.5
			c0,0.8-0.6,1.5-1.5,1.5l0,0C12.9,18.7,12.3,18,12.2,17.2L12.2,17.2z"/>
	</g>
</g>
</svg>
