<?xml version="1.0" encoding="utf-8"?>
<!-- Generator: Adobe Illustrator 24.3.0, SVG Export Plug-In . SVG Version: 6.00 Build 0)  -->
<svg version="1.1" id="Ebene_1" xmlns="http://www.w3.org/2000/svg" xmlns:xlink="http://www.w3.org/1999/xlink" x="0px" y="0px"
	 viewBox="0 0 40 40" style="enable-background:new 0 0 40 40;" xml:space="preserve">
<style type="text/css">
	.st0{fill:#41AAAA;}
	.st1{fill:#FFFFFF;}
	.st2{fill:#787878;}
	.st3{display:none;}
	.st4{display:inline;fill:#787878;}
	.st5{display:none;fill:#FFFFFF;}
</style>
<g>
	<g>
		<g>
			<path class="st0" d="M17.1,33H4.2c-0.4,0-0.7-0.3-0.8-0.7L3,29.5c-0.1-0.5,0.3-0.9,0.8-0.9h13.7c0.5,0,0.8,0.4,0.8,0.9l-0.4,2.9
				C17.8,32.7,17.5,33,17.1,33z"/>
			<circle class="st1" cx="16" cy="30.9" r="1"/>
		</g>
		<path class="st2" d="M5.5,20.5h10.3c0.4,0,0.8,0.3,0.9,0.7l1.4,5.6c0.1,0.6-0.3,1.1-0.9,1.1h-13c-0.6,0-1-0.6-0.9-1.1l1.4-5.6
			C4.7,20.8,5.1,20.5,5.5,20.5z"/>
	</g>
	<g>
		<path class="st0" d="M27.3,18.6H14.4c-0.4,0-0.7-0.3-0.8-0.7L13.2,15c-0.1-0.5,0.3-0.9,0.8-0.9h13.7c0.5,0,0.8,0.4,0.8,0.9
			l-0.4,2.9C28,18.3,27.7,18.6,27.3,18.6z"/>
		<circle class="st1" cx="26.1" cy="16.4" r="1"/>
	</g>
	<path class="st0" d="M15.6,6H26c0.4,0,0.8,0.3,0.9,0.7l1.4,5.6c0.1,0.6-0.3,1.1-0.9,1.1H14.3c-0.6,0-1-0.6-0.9-1.1l1.4-5.6
		C15,6.3,15.3,6,15.6,6z"/>
	<g>
		<path class="st0" d="M34.9,33.7H28c-1.1,0-2-0.9-2-1.9v-9.3c0-1.1,0.9-1.9,2-1.9h6.9c1.1,0,2,0.9,2,1.9v9.3
			C36.8,32.8,36.1,33.7,34.9,33.7z"/>
		<g class="st3">
			<rect x="27.7" y="30.9" class="st4" width="1.5" height="2.8"/>
			<rect x="30.5" y="29.4" class="st4" width="1.5" height="4.3"/>
			<rect x="33.3" y="27" class="st4" width="1.5" height="6.7"/>
		</g>
		<polygon class="st5" points="35.3,21.7 31.4,22.3 32.7,23.6 30.3,25.9 27.1,27.9 27.9,29.2 31.1,27 33.7,24.5 34.8,25.6 		"/>
		<g>
			<circle class="st1" cx="31.5" cy="27.1" r="4.5"/>
			<path class="st2" d="M31.5,27.5H36c0-0.1,0-0.2,0-0.4c0-1.7-1-3.2-2.3-4L31.5,27.5z"/>
		</g>
	</g>
	<polygon class="st0" points="21.5,23.9 21.5,19.3 20.2,19.3 20.2,23.9 18.2,23.9 18.6,25.2 20.8,25.2 21.5,25.2 25.3,25.2 
		25.3,23.9 	"/>
</g>
</svg>
