<?xml version="1.0" encoding="utf-8"?>
<!-- Generator: Adobe Illustrator 24.3.0, SVG Export Plug-In . SVG Version: 6.00 Build 0)  -->
<svg version="1.1" id="Ebene_1" xmlns="http://www.w3.org/2000/svg" xmlns:xlink="http://www.w3.org/1999/xlink" x="0px" y="0px"
	 viewBox="0 0 40 40" style="enable-background:new 0 0 40 40;" xml:space="preserve">
<style type="text/css">
	.st0{fill:#787879;}
	.st1{fill:#FFFFFF;}
	.st2{fill:#787878;}
	.st3{fill:#41AAAA;}
</style>
<g>
	<g>
		<path class="st0" d="M33.9,36H6.1C4.4,36,3,34.6,3,32.9V7.3c0-1.7,1.4-3.1,3.1-3.1h27.7c1.7,0,3.1,1.4,3.1,3.1v25.5
			C37,34.6,35.6,36,33.9,36z"/>
		<path class="st1" d="M33.9,34.3H6.2c-0.9,0-1.4-0.7-1.4-1.4V10.5h30.6v22.3C35.4,33.7,34.7,34.3,33.9,34.3z"/>
	</g>
	<g>
		<g>
			<rect x="6.5" y="15.6" class="st2" width="9.3" height="1.4"/>
			<rect x="6.5" y="25.2" class="st2" width="9.3" height="1.4"/>
			<circle class="st3" cx="15.7" cy="25.9" r="1.8"/>
			<circle class="st3" cx="15.7" cy="16.4" r="1.8"/>
			<rect x="8.2" y="20.4" class="st2" width="9.3" height="1.4"/>
			<circle class="st3" cx="8.4" cy="21.1" r="1.9"/>
		</g>
		<g>
			<path class="st3" d="M32.2,27.6H21.3c-0.7,0-1.3-0.6-1.3-1.3V15.1c0-0.7,0.6-1.3,1.3-1.3h10.9c0.7,0,1.3,0.6,1.3,1.3v11.3
				C33.5,27,32.9,27.6,32.2,27.6z"/>
			<path class="st1" d="M30.8,25.9l-4.2-4.5l-0.3,2.1l-1.6-1.9l-2.4,1l0.9-2.4l-1.9-1.6l2.5-0.4l0.4-2.5l1.6,1.9l2.4-0.9l-1,2.3
				l1.9,1.6l-2.2,0.5l4.6,4L30.8,25.9z"/>
		</g>
	</g>
</g>
</svg>
