<svg width="24" height="24" viewBox="0 0 24 24" fill="none" xmlns="http://www.w3.org/2000/svg">
<path fill-rule="evenodd" clip-rule="evenodd" d="M16 2.75739L20.2426 7.00003L16 11.2427L14.5858 9.82845L16.4133 8.00003H9C6.79086 8.00003 5 9.79089 5 12V13H3V12C3 8.68632 5.68629 6.00003 9 6.00003H16.4133L14.5858 4.1716L16 2.75739ZM19 11H21V12C21 15.3137 18.3137 18 15 18H7.5867L9.41421 19.8285L8 21.2427L3.75736 17L8 12.7574L9.41421 14.1716L7.5867 16H15C17.2091 16 19 14.2092 19 12V11Z" fill="#00CCCC"/>
</svg>
