<svg width="24" height="24" viewBox="0 0 24 24" fill="none" xmlns="http://www.w3.org/2000/svg">
<path fill-rule="evenodd" clip-rule="evenodd" d="M12 10H11C8.36816 10 5.99998 8.10653 5.99998 5.5C5.99998 2.89347 8.36816 1 11 1H12L12 10ZM9.99998 3.13968C8.7758 3.49806 7.99998 4.49298 7.99998 5.5C7.99998 6.50702 8.7758 7.50194 9.99998 7.86032V3.13968ZM10 13V12L1 12V13C1 15.6318 2.89347 18 5.5 18C8.10654 18 10 15.6318 10 13ZM5.5 16C4.49298 16 3.49806 15.2242 3.13968 14H7.86032C7.50194 15.2242 6.50702 16 5.5 16ZM13 14H12L12 23H13C15.6318 23 18 21.1065 18 18.5C18 15.8935 15.6318 14 13 14ZM16 18.5C16 19.507 15.2242 20.5019 14 20.8603V16.1397C15.2242 16.4981 16 17.493 16 18.5ZM14 11V12L23 12V11C23 8.36816 21.1065 5.99998 18.5 5.99998C15.8935 5.99998 14 8.36816 14 11ZM18.5 7.99998C19.507 7.99998 20.5019 8.7758 20.8603 9.99998H16.1397C16.4981 8.7758 17.493 7.99998 18.5 7.99998Z" fill="#B9B9B6"/>
</svg>
