<?xml version="1.0" encoding="UTF-8" standalone="no"?>
<svg width="512" height="512" viewBox="0 0 512 512" version="1.1" id="svg1" sodipodi:docname="heat-gauge.svg" xml:space="preserve" inkscape:version="1.3.2 (091e20e, 2023-11-25, custom)" xmlns:inkscape="http://www.inkscape.org/namespaces/inkscape" xmlns:sodipodi="http://sodipodi.sourceforge.net/DTD/sodipodi-0.dtd" xmlns="http://www.w3.org/2000/svg" xmlns:svg="http://www.w3.org/2000/svg">
  <defs id="defs1"/>
  <path id="path1" fill="#00CCCC" d="M 445.30664 63.195312 C 444.85616 63.195312 444.4057 63.309062 444 63.537109 C 443.60058 63.764704 443.26566 64.08975 443.02344 64.480469 C 423.72591 108.42028 384.71339 140.58917 337.90234 151.16406 C 337.53582 151.24776 337.15351 151.22385 336.80078 151.09375 C 336.07266 150.83642 335.56508 150.17413 335.50391 149.4043 C 335.48051 149.03203 335.56621 148.66136 335.75195 148.33789 C 347.96694 129.3553 355.44678 107.71768 357.56445 85.244141 C 357.60125 84.829056 357.50915 84.412503 357.29883 84.052734 C 356.86529 83.311497 356.00589 82.932518 355.16602 83.111328 C 354.76125 83.196798 354.39408 83.409444 354.11719 83.716797 C 327.48244 112.88661 289.81296 129.51709 250.3125 129.54688 L 200.30273 129.54688 C 166.84421 129.64556 134.28646 140.39374 107.34375 160.23242 C 66.693318 190.58544 42.741587 238.33413 42.720703 289.06641 C 41.607442 331.47725 57.877623 372.50115 87.755859 402.62109 C 117.63409 432.74104 158.5249 449.34183 200.94336 448.57031 C 233.71334 450.08161 265.97147 444.25748 295.58594 432.01953 A 177.74768 154.55377 0 0 0 364.82422 386.66602 C 367.6871 383.89868 370.48429 381.0502 373.20898 378.11523 C 373.45625 377.74434 373.32996 377.31997 373.06836 377.08984 A 177.74768 154.55377 0 0 0 401.00781 318.47656 C 434.7001 283.21036 458.22307 237.83408 466.38281 186.68555 L 466.38281 186.66797 C 473.78403 144.97973 467.17031 102.01287 447.57422 64.480469 C 447.33815 64.090975 447.00712 63.765857 446.61328 63.537109 C 446.20758 63.309062 445.75712 63.195313 445.30664 63.195312 z M 209.39453 137.04688 C 294.22531 137.04687 362.99609 205.81573 362.99609 290.64648 C 362.99609 340.89776 338.86317 385.5141 301.55664 413.53711 L 301.55469 413.52734 L 301.55469 413.52539 L 117.23633 413.52539 C 117.23584 413.52839 117.23633 413.5312 117.23633 413.5332 C 79.92768 385.51336 55.794922 340.89776 55.794922 290.64648 C 55.794922 205.81573 124.56377 137.04688 209.39453 137.04688 z M 194.0332 168.71875 C 160.4106 172.91183 131.00657 190.6892 111.48633 216.38477 L 137.26172 231.26562 L 121.90234 257.86914 L 96.103516 242.97461 C 89.927718 257.63336 86.515625 273.74131 86.515625 290.64648 C 86.515625 307.55168 89.927718 323.6596 96.103516 338.31836 L 121.90234 323.42578 L 137.26172 350.0293 L 111.48633 364.91211 C 116.42675 371.41538 122.00045 377.41162 128.11523 382.80859 L 290.67383 382.80859 C 296.78862 377.41162 302.36231 371.41538 307.30273 364.91211 L 281.52734 350.0293 L 296.88867 323.42578 L 322.68555 338.32031 C 328.86153 323.66137 332.27539 307.55196 332.27539 290.64648 C 332.27539 290.36808 332.25575 290.09437 332.25391 289.81641 L 308.98633 289.81641 C 308.98628 289.81241 308.98828 289.80839 308.98828 289.80469 L 332.25391 289.79883 C 332.1412 273.20424 328.75767 257.38704 322.68555 242.97461 L 296.88867 257.86914 L 281.52734 231.26562 L 307.30273 216.38477 C 287.78275 190.68908 258.37872 172.91172 224.75586 168.71875 L 224.75586 198.48633 L 194.03516 198.48633 L 194.0332 168.71875 z M 242.17383 203.1543 L 268.77734 218.51367 L 236.00195 275.28125 C 238.48702 279.57519 239.94665 284.53053 240.08789 289.81445 L 261.88477 289.81055 L 261.88477 289.81641 L 240.08789 289.81641 C 240.09528 290.09358 240.11523 290.36753 240.11523 290.64648 C 240.11523 307.61264 226.36066 321.36719 209.39453 321.36719 C 192.4284 321.36719 178.67578 307.61265 178.67578 290.64648 C 178.67578 273.68036 192.4284 259.92773 209.39453 259.92773 L 242.17383 203.1543 z "/>
</svg>
