<svg width="24" height="24" viewBox="0 0 24 24" fill="none" xmlns="http://www.w3.org/2000/svg">
<path fill-rule="evenodd" clip-rule="evenodd" d="M14 17.748C13.3608 17.9125 12.6906 18 12 18C9.79086 18 7.79086 17.1046 6.34314 15.6569L7.75736 14.2426C8.84314 15.3284 10.3431 16 12 16C12.7013 16 13.3744 15.8797 14 15.6586V17.748ZM4 10C4 10.2046 4.00768 10.4074 4.02277 10.6082L3 9.58579L1.58578 11L5 14.4142L8.41421 11L7 9.58579L6.02575 10.5596C6.00871 10.3754 6 10.1887 6 10C6 6.68629 8.68629 4 12 4C15.3137 4 18 6.68629 18 10C18 11.5367 17.4223 12.9385 16.4722 14H18.9297C19.6104 12.8233 20 11.4571 20 10C20 5.58172 16.4183 2 12 2C7.58172 2 4 5.58172 4 10ZM11 10.54V5H13V9.46L15.55 11.17L14.45 12.83L11 10.54ZM15 15H17V17H15V15ZM18 15H23V17H18V15ZM23 20V18H18V20H23ZM17 18V20H15V18H17ZM23 23V21H18V23H23ZM17 21V23H15V21H17Z" fill="#00CCCC"/>
</svg>
