<svg width="24" height="24" viewBox="0 0 24 24" fill="none" xmlns="http://www.w3.org/2000/svg">
<path d="M7 12V10H6V12H7Z" fill="#00CCCC"/>
<path d="M10.0355 10.7426L10.7426 10.0355L9.32843 8.62132L8.62132 9.32843L10.0355 10.7426Z" fill="#00CCCC"/>
<path d="M4.37868 9.32843L3.67157 8.62132L2.25736 10.0355L2.96447 10.7426L4.37868 9.32843Z" fill="#00CCCC"/>
<path fill-rule="evenodd" clip-rule="evenodd" d="M9.23391 6.5C9.23391 4.9901 8.0099 3.76609 6.5 3.76609C4.9901 3.76609 3.76608 4.9901 3.76608 6.5C3.7647 7.2255 4.05229 7.92169 4.5653 8.4347C5.07831 8.94771 5.7745 9.2353 6.5 9.23392C8.0099 9.23392 9.23391 8.0099 9.23391 6.5ZM4.76608 6.50191C4.76608 5.54239 5.54238 4.76609 6.5 4.76609V8.23392C6.03846 8.2348 5.59741 8.0526 5.27241 7.72759C4.9474 7.40259 4.7652 6.96154 4.76608 6.50191Z" fill="#00CCCC"/>
<path d="M12 7V6H10V7H12Z" fill="#00CCCC"/>
<path d="M3 7V6H1V7H3Z" fill="#00CCCC"/>
<path d="M4.37868 3.67157L2.96447 2.25736L2.25736 2.96447L3.67157 4.37868L4.37868 3.67157Z" fill="#00CCCC"/>
<path d="M10.7426 2.96447L10.0355 2.25736L8.62132 3.67157L9.32843 4.37868L10.7426 2.96447Z" fill="#00CCCC"/>
<path d="M7 3V1H6V3H7Z" fill="#00CCCC"/>
<path d="M11 22V16H9V22H11Z" fill="#FFFFFF"/>
<path d="M5 18H7V22H5V18Z" fill="#00CCCC"/>
<path d="M1 20H3V22H1V20Z" fill="#00CCCC"/>
</svg>
