<svg width="24" height="24" viewBox="0 0 24 24" fill="none" xmlns="http://www.w3.org/2000/svg">
<path fill-rule="evenodd" clip-rule="evenodd" d="M20.16 15.3401L17.85 13.0001L17 12.1501L15.82 12.5401L13.53 13.3101L10.66 10.4301L11.42 8.14012L11.79 7.00012L10.92 6.12012L8.60998 3.78012L7.18998 2.37012L5.77998 3.78012L5.48998 4.07012C3.24728 6.32666 2.60913 9.72351 3.87998 12.6401C4.62458 14.2685 5.66177 15.7463 6.93998 17.0001C8.19682 18.2593 9.6748 19.2763 11.3 20.0001C14.2142 21.2915 17.6231 20.6511 19.87 18.3901L20.16 18.1001L21.58 16.6901L20.16 15.3401ZM18.46 17.0001C17.3867 18.0758 15.9295 18.6803 14.41 18.6801C13.6205 18.6815 12.8398 18.5145 12.12 18.1901C10.7089 17.5543 9.42997 16.6588 8.34998 15.5501C7.24716 14.469 6.35231 13.1945 5.70998 11.7901C4.75849 9.62894 5.23545 7.10503 6.90998 5.44012L7.18998 5.16012L9.50998 7.51012L8.66998 10.0001C8.47539 10.5858 8.6261 11.2312 9.05998 11.6701L12.26 14.8601C12.5652 15.1652 12.9784 15.3377 13.41 15.3401C13.5863 15.3388 13.7614 15.3118 13.93 15.2601L16.44 14.4201L18.75 16.7301L18.46 17.0001Z" fill="#00CCCC"/>
</svg>
