<svg width="24" height="24" viewBox="0 0 24 24" fill="none" xmlns="http://www.w3.org/2000/svg">
<path fill-rule="evenodd" clip-rule="evenodd" d="M6.69128 3.07593L7.7542 4.13134L10.0645 6.4716L10.7205 7.13518L10.4455 7.98258L9.58847 10.5649C9.58847 10.5649 10.6734 11.7955 11.75 12.7501C12.8267 13.7046 13.8951 14.383 13.8951 14.383L16.4769 13.5148L17.3644 13.2215L17.9942 13.8513L20.3098 16.197L21.3626 17.1979L20.3055 18.2475C19.1254 19.4342 17.7462 20.185 16.3198 20.4909C14.8726 20.8012 13.3786 20.6527 12.0035 20.0433C10.4344 19.3444 8.50738 17.8626 7.29016 16.6431C6.05564 15.4321 4.5539 14.0048 3.8384 12.4403C3.24392 11.076 3.09594 9.59934 3.35885 8.19986C3.62176 6.80039 4.29557 5.47811 5.34358 4.42363L6.69128 3.07593Z" fill="#00CCCC"/>
</svg>
