<svg width="24" height="24" viewBox="0 0 24 24" fill="none" xmlns="http://www.w3.org/2000/svg">
<path fill-rule="evenodd" clip-rule="evenodd" d="M11 14.1707V5C11 4.44772 11.4477 4 12 4C12.5523 4 13 4.44772 13 5V14.1707C14.1652 14.5825 15 15.6938 15 17C15 18.6569 13.6569 20 12 20C10.3431 20 9 18.6569 9 17C9 15.6938 9.83481 14.5825 11 14.1707ZM15 13.0002V5C15 3.34315 13.6569 2 12 2C10.3431 2 9 3.34315 9 5V13.0002C7.78662 13.9114 7 15.3624 7 17C7 19.7614 9.23858 22 12 22C14.7614 22 17 19.7614 17 17C17 15.3624 16.2134 13.9114 15 13.0002Z" fill="#00CCCC"/>
</svg>
