<svg width="22" height="21" viewBox="0 0 22 21" fill="none" xmlns="http://www.w3.org/2000/svg">
<path d="M18.293 0.292725L15.293 3.29272L16.7072 4.70694L19.7072 1.70694L18.293 0.292725Z" fill="#00CCCC"/>
<path d="M3.70718 0.292876L6.70718 3.29288L5.29297 4.70709L2.29297 1.70709L3.70718 0.292876Z" fill="#00CCCC"/>
<path fill-rule="evenodd" clip-rule="evenodd" d="M3 14.9999V20.9999H19V14.9999H3ZM5 16.9999V18.9999H17V16.9999H5Z" fill="#00CCCC"/>
<path d="M4 7.99991H0V9.99991H4V7.99991Z" fill="#00CCCC"/>
<path d="M18 7.99991H22V9.99991H18V7.99991Z" fill="#00CCCC"/>
<path d="M5 8.99991C5 5.6862 7.68629 2.99991 11 2.99991C14.3137 2.99991 17 5.6862 17 8.99991V13.9999H15V8.99991C15 6.79077 13.2091 4.99991 11 4.99991C8.79086 4.99991 7 6.79077 7 8.99991V13.9999H5V8.99991Z" fill="#00CCCC"/>
<path d="M11 5.99991C10.606 5.99991 10.2159 6.0775 9.85195 6.22827C9.48797 6.37903 9.15726 6.60001 8.87868 6.87859C8.6001 7.15716 8.37913 7.48788 8.22836 7.85186C8.0776 8.21583 8 8.60594 8 8.99991H10C10 8.86859 10.0259 8.73855 10.0761 8.61722C10.1264 8.4959 10.2 8.38566 10.2929 8.2928C10.3858 8.19994 10.496 8.12628 10.6173 8.07603C10.7386 8.02577 10.8687 7.99991 11 7.99991V5.99991Z" fill="#00CCCC"/>
</svg>
