<svg width="24" height="24" viewBox="0 0 24 24" fill="none" xmlns="http://www.w3.org/2000/svg">
<path fill-rule="evenodd" clip-rule="evenodd" d="M9 2C10.933 2 12.5 3.567 12.5 5.5C12.5 7.36856 11.0357 8.89513 9.19204 8.99482L9 9C7.067 9 5.5 7.433 5.5 5.5C5.5 3.63144 6.96428 2.10487 8.80796 2.00518L9 2ZM15.9956 16.1774C15.8821 13.2983 13.577 11 10.75 11H7.25L7.0336 11.0045C4.23445 11.1212 2 13.4922 2 16.4V20H11.32L9.43041 18.3466L9.73373 18H4V16.4L4.00519 16.2059C4.10161 14.4075 5.52933 13 7.25 13H10.75L10.9332 13.0053C12.6316 13.1046 14 14.575 14 16.4V17.0297L15.213 18.091L16 17.0683V16.4L15.9956 16.1774ZM7.5 5.5C7.5 4.67157 8.17157 4 9 4C9.82843 4 10.5 4.67157 10.5 5.5C10.5 6.32843 9.82843 7 9 7C8.17157 7 7.5 6.32843 7.5 5.5ZM21.2926 15.1097L19.7074 13.8903L15.356 19.546L12.1585 16.7474L10.8415 18.2526L15.6432 22.454L21.2926 15.1097Z" fill="#00CCCC"/>
</svg>
