<svg width="24" height="24" viewBox="0 0 24 24" fill="none" xmlns="http://www.w3.org/2000/svg">
<path fill-rule="evenodd" clip-rule="evenodd" d="M13.0459 2.26386C13.356 2.44103 13.6129 2.698 13.7901 3.00806L22.3438 17.9769C22.8918 18.936 22.5586 20.1577 21.5996 20.7057C21.2974 20.8784 20.9553 20.9692 20.6073 20.9692H3.5C2.39543 20.9692 1.5 20.0738 1.5 18.9692C1.5 18.6212 1.59083 18.2791 1.76351 17.9769L10.3172 3.00806C10.8652 2.04903 12.0869 1.71584 13.0459 2.26386ZM12.0536 4.00034L3.5 18.9692H20.6073L12.0536 4.00034ZM13 13H11V7H13V13ZM12 14.75C12.7143 14.75 13.25 15.278 13.25 15.998C13.25 16.718 12.7143 17.246 12 17.246C11.2695 17.246 10.75 16.718 10.75 15.982C10.75 15.278 11.2857 14.75 12 14.75Z" fill="#00CCCC"/>
</svg>
