<svg xmlns="http://www.w3.org/2000/svg" viewBox="0 0 100 84.4"><defs><style>.cls-1{fill:#fff;}.cls-2{fill:#005159;}.cls-3{fill:#007993;}</style></defs><g id="Original-2" data-name="Original"><rect class="cls-1" x="0.42" y="0.44" width="39.67" height="83.54"/><path class="cls-2" d="M387.37,229.29H346.85V144.9h40.52Zm-39.67-.85h38.82V145.75H347.7Z" transform="translate(-346.85 -144.89)"/><path class="cls-2" d="M347.28,226.45v-.86a60.72,60.72,0,0,0,14.16-1.69H387v.85H361.58A62,62,0,0,1,347.28,226.45Z" transform="translate(-346.85 -144.89)"/><rect class="cls-2" x="31.13" y="0.42" width="0.23" height="6.14"/><rect class="cls-2" x="24.28" y="0.42" width="0.23" height="6.14"/><path class="cls-2" d="M380.88,151.56H353.34V145.2h27.54Zm-27.31-.22h27.08v-5.92H353.57Z" transform="translate(-346.85 -144.89)"/><rect class="cls-3" x="12.25" y="2.07" width="1.25" height="1.25"/><rect class="cls-3" x="14.52" y="2.07" width="1.25" height="1.25"/><rect class="cls-3" x="16.79" y="2.07" width="1.25" height="1.25"/><path class="cls-2" d="M366,149.52h-8v-4.17h8Zm-7.74-.23h7.51v-3.71h-7.51Z" transform="translate(-346.85 -144.89)"/><polygon class="cls-2" points="22.82 67.14 17.7 67.14 17.7 61.46 17.14 61.46 17.14 67.71 23.39 67.71 23.39 61.46 22.82 61.46 22.82 67.14"/><polygon class="cls-2" points="17.7 48.38 17.7 54.07 17.14 54.07 17.14 47.82 23.39 47.82 23.39 54.07 22.82 54.07 22.82 48.38 17.7 48.38"/><polygon class="cls-2" points="16.57 60.32 10.88 60.32 10.88 55.2 16.57 55.2 16.57 54.64 10.31 54.64 10.31 60.89 16.57 60.89 16.57 60.32"/><polygon class="cls-2" points="12.87 69.58 12.87 70.15 6.62 70.15 6.62 63.9 7.19 63.9 7.19 69.58 12.87 69.58"/><polygon class="cls-2" points="33.34 63.9 33.34 69.58 27.65 69.58 27.65 70.15 33.9 70.15 33.9 63.9 33.34 63.9"/><polygon class="cls-2" points="23.96 60.89 23.96 60.32 29.64 60.32 29.64 55.2 23.96 55.2 23.96 54.64 30.21 54.64 30.21 60.89 23.96 60.89"/><path class="cls-2" d="M383.89,217.3H350.33V153.44h33.56Zm-33.33-.23h33.11V153.66H350.56Z" transform="translate(-346.85 -144.89)"/><rect class="cls-2" x="8.87" y="9.4" width="9.83" height="2.61"/><path class="cls-2" d="M380.87,191.39H353.36V153.44h27.51Zm-27.29-.22h27.06V153.66H353.58Z" transform="translate(-346.85 -144.89)"/><rect class="cls-3" x="8.87" y="14.52" width="22.79" height="29.08"/><rect class="cls-1" x="40.12" y="0.44" width="39.67" height="83.54"/><path class="cls-2" d="M427.07,229.29H386.54V144.9h40.53Zm-39.68-.85h38.83V145.75H387.39Z" transform="translate(-346.85 -144.89)"/><path class="cls-2" d="M387,226.45v-.86a60.69,60.69,0,0,0,14.15-1.69h25.52v.85H401.27A61.92,61.92,0,0,1,387,226.45Z" transform="translate(-346.85 -144.89)"/><rect class="cls-1" x="79.79" y="0.43" width="19.78" height="83.55"/><path class="cls-2" d="M446.85,229.29H426.22v-84.4h20.63Zm-19.78-.85H446v-82.7H427.07Z" transform="translate(-346.85 -144.89)"/><path class="cls-2" d="M426.65,226.45v-.86a58.82,58.82,0,0,0,14.11-1.69h5.67v.85h-5.52A59.57,59.57,0,0,1,426.65,226.45Z" transform="translate(-346.85 -144.89)"/><path class="cls-2" d="M443.92,151.57H429.15V145.2h14.77Zm-14.54-.23h14.31v-5.92H429.38Z" transform="translate(-346.85 -144.89)"/></g></svg>