<svg xmlns="http://www.w3.org/2000/svg" viewBox="0 0 77.08 67.63"><defs><style>.cls-1,.cls-10,.cls-2,.cls-9{fill:#fff;}.cls-1,.cls-10,.cls-2,.cls-4,.cls-6,.cls-7,.cls-9{stroke:#005159;}.cls-1,.cls-2,.cls-7{stroke-width:0.85px;}.cls-10,.cls-2,.cls-5,.cls-6{fill-rule:evenodd;}.cls-3{fill:#007993;}.cls-4,.cls-6,.cls-7{fill:none;}.cls-10,.cls-4,.cls-5,.cls-6,.cls-9{stroke-width:0.23px;}.cls-11,.cls-5{fill:#007993;}.cls-5{stroke:#000000;}.cls-8{fill:#007993;}</style></defs><g id="Original"><rect class="cls-1" x="0.43" y="0.43" width="28.38" height="66.78"/><path class="cls-2" d="M372.92,187.09" transform="translate(-358.31 -153.27)"/><rect class="cls-1" x="28.8" y="0.43" width="8.8" height="66.78"/><path class="cls-2" d="M391.51,187.09" transform="translate(-358.31 -153.27)"/><rect class="cls-3" x="30" y="10.12" width="6.41" height="17.43"/><rect class="cls-3" x="19.96" y="10.12" width="6.41" height="17.43"/><rect class="cls-4" x="33.86" y="29.58" width="2.3" height="2.3"/><polyline class="cls-5" points="30.3 31.57 31.5 31.57 31.5 30.39 30.3 30.39 30.3 31.57"/><polyline class="cls-5" points="30.3 30.39 31.5 30.39 31.5 29.19 30.3 29.19 30.3 30.39"/><polyline class="cls-5" points="30.3 32.78 31.5 32.78 31.5 31.57 30.3 31.57 30.3 32.78"/><polyline class="cls-5" points="30.3 35.19 31.5 35.19 31.5 33.98 30.3 33.98 30.3 35.19"/><polyline class="cls-5" points="30.3 33.98 31.5 33.98 31.5 32.78 30.3 32.78 30.3 33.98"/><polyline class="cls-5" points="30.3 36.39 31.5 36.39 31.5 35.19 30.3 35.19 30.3 36.39"/><polyline class="cls-5" points="30.3 37.61 31.5 37.61 31.5 36.39 30.3 36.39 30.3 37.61"/><polyline class="cls-5" points="30.3 38.75 31.5 38.75 31.5 37.59 30.3 37.59 30.3 38.75"/><polyline class="cls-5" points="30.3 39.97 31.5 39.97 31.5 38.8 30.3 38.8 30.3 39.97"/><polyline class="cls-5" points="31.88 31.57 33.08 31.57 33.08 30.39 31.88 30.39 31.88 31.57"/><polyline class="cls-5" points="31.88 30.39 33.08 30.39 33.08 29.19 31.88 29.19 31.88 30.39"/><polyline class="cls-5" points="31.88 32.78 33.08 32.78 33.08 31.57 31.88 31.57 31.88 32.78"/><polyline class="cls-5" points="31.88 35.19 33.08 35.19 33.08 33.98 31.88 33.98 31.88 35.19"/><polyline class="cls-5" points="31.88 33.98 33.08 33.98 33.08 32.78 31.88 32.78 31.88 33.98"/><polyline class="cls-5" points="31.88 36.39 33.08 36.39 33.08 35.19 31.88 35.19 31.88 36.39"/><polyline class="cls-5" points="31.88 37.61 33.08 37.61 33.08 36.39 31.88 36.39 31.88 37.61"/><polyline class="cls-5" points="31.88 38.75 33.08 38.75 33.08 37.59 31.88 37.59 31.88 38.75"/><path class="cls-6" d="M391,197.23a1.16,1.16,0,1,1-1.16-1.16A1.16,1.16,0,0,1,391,197.23Z" transform="translate(-358.31 -153.27)"/><path class="cls-6" d="M394.26,197.23a1.16,1.16,0,1,1-1.16-1.16A1.16,1.16,0,0,1,394.26,197.23Z" transform="translate(-358.31 -153.27)"/><path class="cls-6" d="M391,200.56a1.16,1.16,0,1,1-1.16-1.16A1.16,1.16,0,0,1,391,200.56Z" transform="translate(-358.31 -153.27)"/><path class="cls-6" d="M394.26,200.56a1.16,1.16,0,1,1-1.16-1.16A1.16,1.16,0,0,1,394.26,200.56Z" transform="translate(-358.31 -153.27)"/><path class="cls-6" d="M391,204a1.16,1.16,0,1,1-1.16-1.16A1.16,1.16,0,0,1,391,204Z" transform="translate(-358.31 -153.27)"/><path class="cls-6" d="M394.26,204a1.16,1.16,0,1,1-1.16-1.16A1.16,1.16,0,0,1,394.26,204Z" transform="translate(-358.31 -153.27)"/><path class="cls-6" d="M391,207.31a1.16,1.16,0,1,1-1.16-1.16A1.16,1.16,0,0,1,391,207.31Z" transform="translate(-358.31 -153.27)"/><path class="cls-6" d="M394.26,207.31a1.16,1.16,0,1,1-1.16-1.16A1.16,1.16,0,0,1,394.26,207.31Z" transform="translate(-358.31 -153.27)"/><path class="cls-6" d="M391,210.6a1.16,1.16,0,1,1-1.16-1.15A1.16,1.16,0,0,1,391,210.6Z" transform="translate(-358.31 -153.27)"/><path class="cls-6" d="M394.26,210.6a1.16,1.16,0,1,1-1.16-1.15A1.16,1.16,0,0,1,394.26,210.6Z" transform="translate(-358.31 -153.27)"/><path class="cls-6" d="M391,213.93a1.16,1.16,0,1,1-1.16-1.15A1.16,1.16,0,0,1,391,213.93Z" transform="translate(-358.31 -153.27)"/><path class="cls-6" d="M394.26,213.93a1.16,1.16,0,1,1-1.16-1.15A1.16,1.16,0,0,1,394.26,213.93Z" transform="translate(-358.31 -153.27)"/><path class="cls-6" d="M391,217.26a1.16,1.16,0,1,1-1.16-1.15A1.15,1.15,0,0,1,391,217.26Z" transform="translate(-358.31 -153.27)"/><path class="cls-6" d="M394.26,217.26a1.16,1.16,0,1,1-1.16-1.15A1.15,1.15,0,0,1,394.26,217.26Z" transform="translate(-358.31 -153.27)"/><rect class="cls-1" x="46.4" y="0.43" width="8.8" height="66.78"/><path class="cls-2" d="M409.11,187.09" transform="translate(-358.31 -153.27)"/><rect class="cls-3" x="47.6" y="10.12" width="6.41" height="17.43"/><rect class="cls-4" x="51.46" y="29.58" width="2.3" height="2.3"/><line class="cls-4" x1="46.4" y1="8.91" x2="55.2" y2="8.91"/><line class="cls-4" x1="46.4" y1="7.24" x2="55.2" y2="7.24"/><path class="cls-6" d="M408.57,197.23a1.16,1.16,0,1,1-1.16-1.16A1.16,1.16,0,0,1,408.57,197.23Z" transform="translate(-358.31 -153.27)"/><path class="cls-6" d="M411.86,197.23a1.16,1.16,0,1,1-1.16-1.16A1.16,1.16,0,0,1,411.86,197.23Z" transform="translate(-358.31 -153.27)"/><path class="cls-6" d="M408.57,200.56a1.16,1.16,0,1,1-1.16-1.16A1.16,1.16,0,0,1,408.57,200.56Z" transform="translate(-358.31 -153.27)"/><path class="cls-6" d="M411.86,200.56a1.16,1.16,0,1,1-1.16-1.16A1.16,1.16,0,0,1,411.86,200.56Z" transform="translate(-358.31 -153.27)"/><path class="cls-6" d="M408.57,204a1.16,1.16,0,1,1-1.16-1.16A1.16,1.16,0,0,1,408.57,204Z" transform="translate(-358.31 -153.27)"/><path class="cls-6" d="M411.86,204a1.16,1.16,0,1,1-1.16-1.16A1.16,1.16,0,0,1,411.86,204Z" transform="translate(-358.31 -153.27)"/><path class="cls-6" d="M408.57,207.31a1.16,1.16,0,1,1-1.16-1.16A1.16,1.16,0,0,1,408.57,207.31Z" transform="translate(-358.31 -153.27)"/><path class="cls-6" d="M411.86,207.31a1.16,1.16,0,1,1-1.16-1.16A1.16,1.16,0,0,1,411.86,207.31Z" transform="translate(-358.31 -153.27)"/><path class="cls-6" d="M408.57,210.6a1.16,1.16,0,1,1-1.16-1.15A1.16,1.16,0,0,1,408.57,210.6Z" transform="translate(-358.31 -153.27)"/><path class="cls-6" d="M411.86,210.6a1.16,1.16,0,0,1-2.31,0,1.16,1.16,0,0,1,2.31,0Z" transform="translate(-358.31 -153.27)"/><path class="cls-6" d="M408.57,213.93a1.16,1.16,0,1,1-1.16-1.15A1.16,1.16,0,0,1,408.57,213.93Z" transform="translate(-358.31 -153.27)"/><path class="cls-6" d="M411.86,213.93a1.16,1.16,0,0,1-2.31,0,1.16,1.16,0,0,1,2.31,0Z" transform="translate(-358.31 -153.27)"/><path class="cls-6" d="M408.57,217.26a1.16,1.16,0,1,1-1.16-1.15A1.15,1.15,0,0,1,408.57,217.26Z" transform="translate(-358.31 -153.27)"/><path class="cls-6" d="M411.86,217.26a1.16,1.16,0,1,1-1.16-1.15A1.15,1.15,0,0,1,411.86,217.26Z" transform="translate(-358.31 -153.27)"/><rect class="cls-1" x="55.2" y="0.43" width="8.8" height="66.78"/><path class="cls-2" d="M417.91,187.09" transform="translate(-358.31 -153.27)"/><rect class="cls-3" x="56.4" y="10.12" width="6.41" height="17.43"/><rect class="cls-4" x="60.26" y="29.58" width="2.3" height="2.3"/><line class="cls-4" x1="55.2" y1="8.91" x2="64" y2="8.91"/><line class="cls-4" x1="55.2" y1="7.24" x2="64" y2="7.24"/><path class="cls-6" d="M417.36,197.23a1.15,1.15,0,1,1-1.15-1.16A1.15,1.15,0,0,1,417.36,197.23Z" transform="translate(-358.31 -153.27)"/><path class="cls-6" d="M420.65,197.23a1.15,1.15,0,1,1-1.15-1.16A1.15,1.15,0,0,1,420.65,197.23Z" transform="translate(-358.31 -153.27)"/><path class="cls-6" d="M417.36,200.56a1.15,1.15,0,1,1-1.15-1.16A1.15,1.15,0,0,1,417.36,200.56Z" transform="translate(-358.31 -153.27)"/><path class="cls-6" d="M420.65,200.56a1.15,1.15,0,1,1-1.15-1.16A1.15,1.15,0,0,1,420.65,200.56Z" transform="translate(-358.31 -153.27)"/><path class="cls-6" d="M417.36,204a1.15,1.15,0,1,1-1.15-1.16A1.15,1.15,0,0,1,417.36,204Z" transform="translate(-358.31 -153.27)"/><path class="cls-6" d="M420.65,204a1.15,1.15,0,1,1-1.15-1.16A1.15,1.15,0,0,1,420.65,204Z" transform="translate(-358.31 -153.27)"/><path class="cls-6" d="M417.36,207.31a1.15,1.15,0,1,1-1.15-1.16A1.15,1.15,0,0,1,417.36,207.31Z" transform="translate(-358.31 -153.27)"/><path class="cls-6" d="M420.65,207.31a1.15,1.15,0,1,1-1.15-1.16A1.15,1.15,0,0,1,420.65,207.31Z" transform="translate(-358.31 -153.27)"/><path class="cls-6" d="M417.36,210.6a1.15,1.15,0,1,1-1.15-1.15A1.15,1.15,0,0,1,417.36,210.6Z" transform="translate(-358.31 -153.27)"/><path class="cls-6" d="M420.65,210.6a1.15,1.15,0,1,1-1.15-1.15A1.15,1.15,0,0,1,420.65,210.6Z" transform="translate(-358.31 -153.27)"/><path class="cls-6" d="M417.36,213.93a1.15,1.15,0,1,1-1.15-1.15A1.15,1.15,0,0,1,417.36,213.93Z" transform="translate(-358.31 -153.27)"/><path class="cls-6" d="M420.65,213.93a1.15,1.15,0,1,1-1.15-1.15A1.15,1.15,0,0,1,420.65,213.93Z" transform="translate(-358.31 -153.27)"/><path class="cls-6" d="M417.36,217.26a1.15,1.15,0,1,1-1.15-1.15A1.14,1.14,0,0,1,417.36,217.26Z" transform="translate(-358.31 -153.27)"/><path class="cls-6" d="M420.65,217.26a1.15,1.15,0,1,1-1.15-1.15A1.14,1.14,0,0,1,420.65,217.26Z" transform="translate(-358.31 -153.27)"/><rect class="cls-1" x="64" y="0.43" width="8.8" height="66.78"/><path class="cls-2" d="M426.71,187.09" transform="translate(-358.31 -153.27)"/><rect class="cls-3" x="65.2" y="10.12" width="6.41" height="17.43"/><rect class="cls-4" x="69.06" y="29.58" width="2.3" height="2.3"/><line class="cls-4" x1="64" y1="8.91" x2="72.8" y2="8.91"/><line class="cls-4" x1="64" y1="7.24" x2="72.8" y2="7.24"/><path class="cls-6" d="M426.17,197.23a1.16,1.16,0,1,1-1.16-1.16A1.16,1.16,0,0,1,426.17,197.23Z" transform="translate(-358.31 -153.27)"/><path class="cls-6" d="M429.45,197.23a1.15,1.15,0,1,1-1.15-1.16A1.15,1.15,0,0,1,429.45,197.23Z" transform="translate(-358.31 -153.27)"/><path class="cls-6" d="M426.17,200.56A1.16,1.16,0,1,1,425,199.4,1.16,1.16,0,0,1,426.17,200.56Z" transform="translate(-358.31 -153.27)"/><path class="cls-6" d="M429.45,200.56a1.15,1.15,0,1,1-1.15-1.16A1.15,1.15,0,0,1,429.45,200.56Z" transform="translate(-358.31 -153.27)"/><path class="cls-6" d="M426.17,204a1.16,1.16,0,1,1-1.16-1.16A1.16,1.16,0,0,1,426.17,204Z" transform="translate(-358.31 -153.27)"/><path class="cls-6" d="M429.45,204a1.15,1.15,0,1,1-1.15-1.16A1.15,1.15,0,0,1,429.45,204Z" transform="translate(-358.31 -153.27)"/><path class="cls-6" d="M426.17,207.31a1.16,1.16,0,1,1-1.16-1.16A1.16,1.16,0,0,1,426.17,207.31Z" transform="translate(-358.31 -153.27)"/><path class="cls-6" d="M429.45,207.31a1.15,1.15,0,1,1-1.15-1.16A1.15,1.15,0,0,1,429.45,207.31Z" transform="translate(-358.31 -153.27)"/><path class="cls-6" d="M426.17,210.6a1.16,1.16,0,0,1-2.31,0,1.16,1.16,0,0,1,2.31,0Z" transform="translate(-358.31 -153.27)"/><path class="cls-6" d="M429.45,210.6a1.15,1.15,0,1,1-1.15-1.15A1.15,1.15,0,0,1,429.45,210.6Z" transform="translate(-358.31 -153.27)"/><path class="cls-6" d="M426.17,213.93a1.16,1.16,0,0,1-2.31,0,1.16,1.16,0,0,1,2.31,0Z" transform="translate(-358.31 -153.27)"/><path class="cls-6" d="M429.45,213.93a1.15,1.15,0,1,1-1.15-1.15A1.15,1.15,0,0,1,429.45,213.93Z" transform="translate(-358.31 -153.27)"/><path class="cls-6" d="M426.17,217.26a1.16,1.16,0,1,1-1.16-1.15A1.15,1.15,0,0,1,426.17,217.26Z" transform="translate(-358.31 -153.27)"/><path class="cls-6" d="M429.45,217.26a1.15,1.15,0,1,1-1.15-1.15A1.14,1.14,0,0,1,429.45,217.26Z" transform="translate(-358.31 -153.27)"/><rect class="cls-1" x="72.8" y="0.43" width="3.85" height="66.78"/><path class="cls-2" d="M433,187.09" transform="translate(-358.31 -153.27)"/><rect class="cls-1" x="37.6" y="0.43" width="8.8" height="66.78"/><path class="cls-2" d="M400.31,187.09" transform="translate(-358.31 -153.27)"/><rect class="cls-3" x="38.8" y="10.12" width="6.41" height="17.43"/><rect class="cls-4" x="42.66" y="29.58" width="2.31" height="2.3"/><polyline class="cls-5" points="14.6 31.57 15.8 31.57 15.8 30.39 14.6 30.39 14.6 31.57"/><polyline class="cls-5" points="14.6 30.39 15.8 30.39 15.8 29.19 14.6 29.19 14.6 30.39"/><polyline class="cls-5" points="19.01 38.69 20.22 38.69 20.22 37.51 19.01 37.51 19.01 38.69"/><polyline class="cls-5" points="20.68 8.68 20.68 7.48 19.5 7.48 19.5 8.68 20.68 8.68"/><polyline class="cls-5" points="19.5 8.68 19.5 7.48 18.3 7.48 18.3 8.68 19.5 8.68"/><polyline class="cls-5" points="21.88 8.68 21.88 7.48 20.68 7.48 20.68 8.68 21.88 8.68"/><line class="cls-4" x1="37.6" y1="8.91" x2="46.4" y2="8.91"/><line class="cls-4" x1="37.6" y1="7.24" x2="46.4" y2="7.24"/><path class="cls-6" d="M399.77,197.23a1.16,1.16,0,1,1-1.16-1.16A1.16,1.16,0,0,1,399.77,197.23Z" transform="translate(-358.31 -153.27)"/><path class="cls-6" d="M403.05,197.23a1.15,1.15,0,1,1-1.15-1.16A1.15,1.15,0,0,1,403.05,197.23Z" transform="translate(-358.31 -153.27)"/><path class="cls-6" d="M399.77,200.56a1.16,1.16,0,1,1-1.16-1.16A1.16,1.16,0,0,1,399.77,200.56Z" transform="translate(-358.31 -153.27)"/><path class="cls-6" d="M403.05,200.56a1.15,1.15,0,1,1-1.15-1.16A1.15,1.15,0,0,1,403.05,200.56Z" transform="translate(-358.31 -153.27)"/><path class="cls-6" d="M399.77,204a1.16,1.16,0,1,1-1.16-1.16A1.16,1.16,0,0,1,399.77,204Z" transform="translate(-358.31 -153.27)"/><path class="cls-6" d="M403.05,204a1.15,1.15,0,1,1-1.15-1.16A1.15,1.15,0,0,1,403.05,204Z" transform="translate(-358.31 -153.27)"/><path class="cls-6" d="M399.77,207.31a1.16,1.16,0,1,1-1.16-1.16A1.16,1.16,0,0,1,399.77,207.31Z" transform="translate(-358.31 -153.27)"/><path class="cls-6" d="M403.05,207.31a1.15,1.15,0,1,1-1.15-1.16A1.15,1.15,0,0,1,403.05,207.31Z" transform="translate(-358.31 -153.27)"/><path class="cls-6" d="M399.77,210.6a1.16,1.16,0,1,1-1.16-1.15A1.16,1.16,0,0,1,399.77,210.6Z" transform="translate(-358.31 -153.27)"/><path class="cls-6" d="M403.05,210.6a1.15,1.15,0,1,1-1.15-1.15A1.15,1.15,0,0,1,403.05,210.6Z" transform="translate(-358.31 -153.27)"/><path class="cls-6" d="M399.77,213.93a1.16,1.16,0,1,1-1.16-1.15A1.16,1.16,0,0,1,399.77,213.93Z" transform="translate(-358.31 -153.27)"/><path class="cls-6" d="M403.05,213.93a1.15,1.15,0,1,1-1.15-1.15A1.15,1.15,0,0,1,403.05,213.93Z" transform="translate(-358.31 -153.27)"/><path class="cls-6" d="M399.77,217.26a1.16,1.16,0,1,1-1.16-1.15A1.15,1.15,0,0,1,399.77,217.26Z" transform="translate(-358.31 -153.27)"/><path class="cls-6" d="M403.05,217.26a1.15,1.15,0,1,1-1.15-1.15A1.14,1.14,0,0,1,403.05,217.26Z" transform="translate(-358.31 -153.27)"/><polyline class="cls-7" points="76.65 41.08 6.01 41.08 6.01 3.49 76.65 3.49"/><line class="cls-7" x1="7.53" y1="3.49" x2="0.43" y2="3.49"/><line class="cls-1" x1="17.39" y1="3.49" x2="17.39" y2="67.21"/><line class="cls-4" x1="6.14" y1="8.91" x2="37.6" y2="8.91"/><line class="cls-4" x1="6.14" y1="7.24" x2="37.6" y2="7.24"/><rect class="cls-8" x="19.09" y="4.53" width="8.01" height="2.26"/><path class="cls-6" d="M367.46,158.88a1,1,0,1,1-1-1A1,1,0,0,1,367.46,158.88Z" transform="translate(-358.31 -153.27)"/><rect class="cls-4" x="0.43" y="49.41" width="9.51" height="17.23"/><rect class="cls-4" x="0.43" y="53.2" width="9.51" height="6.29"/><rect class="cls-9" x="2.69" y="54.34" width="5.51" height="12.3"/><path class="cls-10" d="M363.45,209.73a.95.95,0,1,1-1.89,0,.95.95,0,0,1,1.89,0Z" transform="translate(-358.31 -153.27)"/><path class="cls-10" d="M366,209.73a.94.94,0,1,1-.94-.94A.95.95,0,0,1,366,209.73Z" transform="translate(-358.31 -153.27)"/><path class="cls-10" d="M363.45,217.89a.95.95,0,1,1-.95-.94A.95.95,0,0,1,363.45,217.89Z" transform="translate(-358.31 -153.27)"/><path class="cls-10" d="M366,217.89A.94.94,0,1,1,365,217,.94.94,0,0,1,366,217.89Z" transform="translate(-358.31 -153.27)"/><rect class="cls-9" x="2.69" y="58.09" width="5.51" height="0.99"/><rect class="cls-9" x="2.69" y="62.04" width="5.51" height="0.99"/><rect class="cls-11" x="29.87" y="7.71" width="0.74" height="0.74"/><rect class="cls-11" x="38.69" y="7.71" width="0.74" height="0.74"/><rect class="cls-11" x="47.5" y="7.71" width="0.74" height="0.74"/><rect class="cls-11" x="56.27" y="7.71" width="0.74" height="0.74"/><rect class="cls-11" x="65.05" y="7.71" width="0.74" height="0.74"/><polyline class="cls-5" points="39.09 31.57 40.3 31.57 40.3 30.39 39.09 30.39 39.09 31.57"/><polyline class="cls-5" points="39.09 30.39 40.3 30.39 40.3 29.19 39.09 29.19 39.09 30.39"/><polyline class="cls-5" points="39.09 32.78 40.3 32.78 40.3 31.57 39.09 31.57 39.09 32.78"/><polyline class="cls-5" points="39.09 35.19 40.3 35.19 40.3 33.98 39.09 33.98 39.09 35.19"/><polyline class="cls-5" points="39.09 33.98 40.3 33.98 40.3 32.78 39.09 32.78 39.09 33.98"/><polyline class="cls-5" points="39.09 36.39 40.3 36.39 40.3 35.19 39.09 35.19 39.09 36.39"/><polyline class="cls-5" points="39.09 37.61 40.3 37.61 40.3 36.39 39.09 36.39 39.09 37.61"/><polyline class="cls-5" points="39.09 38.75 40.3 38.75 40.3 37.59 39.09 37.59 39.09 38.75"/><polyline class="cls-5" points="39.09 39.97 40.3 39.97 40.3 38.8 39.09 38.8 39.09 39.97"/><polyline class="cls-5" points="40.68 31.57 41.88 31.57 41.88 30.39 40.68 30.39 40.68 31.57"/><polyline class="cls-5" points="40.68 30.39 41.88 30.39 41.88 29.19 40.68 29.19 40.68 30.39"/><polyline class="cls-5" points="40.68 32.78 41.88 32.78 41.88 31.57 40.68 31.57 40.68 32.78"/><polyline class="cls-5" points="40.68 35.19 41.88 35.19 41.88 33.98 40.68 33.98 40.68 35.19"/><polyline class="cls-5" points="40.68 33.98 41.88 33.98 41.88 32.78 40.68 32.78 40.68 33.98"/><polyline class="cls-5" points="40.68 36.39 41.88 36.39 41.88 35.19 40.68 35.19 40.68 36.39"/><polyline class="cls-5" points="40.68 37.61 41.88 37.61 41.88 36.39 40.68 36.39 40.68 37.61"/><polyline class="cls-5" points="40.68 38.75 41.88 38.75 41.88 37.59 40.68 37.59 40.68 38.75"/><polyline class="cls-5" points="47.89 31.57 49.09 31.57 49.09 30.39 47.89 30.39 47.89 31.57"/><polyline class="cls-5" points="47.89 30.39 49.09 30.39 49.09 29.19 47.89 29.19 47.89 30.39"/><polyline class="cls-5" points="47.89 32.78 49.09 32.78 49.09 31.57 47.89 31.57 47.89 32.78"/><polyline class="cls-5" points="47.89 35.19 49.09 35.19 49.09 33.98 47.89 33.98 47.89 35.19"/><polyline class="cls-5" points="47.89 33.98 49.09 33.98 49.09 32.78 47.89 32.78 47.89 33.98"/><polyline class="cls-5" points="47.89 36.39 49.09 36.39 49.09 35.19 47.89 35.19 47.89 36.39"/><polyline class="cls-5" points="47.89 37.61 49.09 37.61 49.09 36.39 47.89 36.39 47.89 37.61"/><polyline class="cls-5" points="47.89 38.75 49.09 38.75 49.09 37.59 47.89 37.59 47.89 38.75"/><polyline class="cls-5" points="47.89 39.97 49.09 39.97 49.09 38.8 47.89 38.8 47.89 39.97"/><polyline class="cls-5" points="49.48 31.57 50.68 31.57 50.68 30.39 49.48 30.39 49.48 31.57"/><polyline class="cls-5" points="49.48 30.39 50.68 30.39 50.68 29.19 49.48 29.19 49.48 30.39"/><polyline class="cls-5" points="49.48 32.78 50.68 32.78 50.68 31.57 49.48 31.57 49.48 32.78"/><polyline class="cls-5" points="49.48 35.19 50.68 35.19 50.68 33.98 49.48 33.98 49.48 35.19"/><polyline class="cls-5" points="49.48 33.98 50.68 33.98 50.68 32.78 49.48 32.78 49.48 33.98"/><polyline class="cls-5" points="49.48 36.39 50.68 36.39 50.68 35.19 49.48 35.19 49.48 36.39"/><polyline class="cls-5" points="49.48 37.61 50.68 37.61 50.68 36.39 49.48 36.39 49.48 37.61"/><polyline class="cls-5" points="49.48 38.75 50.68 38.75 50.68 37.59 49.48 37.59 49.48 38.75"/><polyline class="cls-5" points="56.7 31.57 57.9 31.57 57.9 30.39 56.7 30.39 56.7 31.57"/><polyline class="cls-5" points="56.7 30.39 57.9 30.39 57.9 29.19 56.7 29.19 56.7 30.39"/><polyline class="cls-5" points="56.7 32.78 57.9 32.78 57.9 31.57 56.7 31.57 56.7 32.78"/><polyline class="cls-5" points="56.7 35.19 57.9 35.19 57.9 33.98 56.7 33.98 56.7 35.19"/><polyline class="cls-5" points="56.7 33.98 57.9 33.98 57.9 32.78 56.7 32.78 56.7 33.98"/><polyline class="cls-5" points="56.7 36.39 57.9 36.39 57.9 35.19 56.7 35.19 56.7 36.39"/><polyline class="cls-5" points="56.7 37.61 57.9 37.61 57.9 36.39 56.7 36.39 56.7 37.61"/><polyline class="cls-5" points="56.7 38.75 57.9 38.75 57.9 37.59 56.7 37.59 56.7 38.75"/><polyline class="cls-5" points="56.7 39.97 57.9 39.97 57.9 38.8 56.7 38.8 56.7 39.97"/><polyline class="cls-5" points="58.28 31.57 59.48 31.57 59.48 30.39 58.28 30.39 58.28 31.57"/><polyline class="cls-5" points="58.28 30.39 59.48 30.39 59.48 29.19 58.28 29.19 58.28 30.39"/><polyline class="cls-5" points="58.28 32.78 59.48 32.78 59.48 31.57 58.28 31.57 58.28 32.78"/><polyline class="cls-5" points="58.28 35.19 59.48 35.19 59.48 33.98 58.28 33.98 58.28 35.19"/><polyline class="cls-5" points="58.28 33.98 59.48 33.98 59.48 32.78 58.28 32.78 58.28 33.98"/><polyline class="cls-5" points="58.28 36.39 59.48 36.39 59.48 35.19 58.28 35.19 58.28 36.39"/><polyline class="cls-5" points="58.28 37.61 59.48 37.61 59.48 36.39 58.28 36.39 58.28 37.61"/><polyline class="cls-5" points="58.28 38.75 59.48 38.75 59.48 37.59 58.28 37.59 58.28 38.75"/><polyline class="cls-5" points="65.5 31.57 66.69 31.57 66.69 30.39 65.5 30.39 65.5 31.57"/><polyline class="cls-5" points="65.5 30.39 66.69 30.39 66.69 29.19 65.5 29.19 65.5 30.39"/><polyline class="cls-5" points="65.5 32.78 66.69 32.78 66.69 31.57 65.5 31.57 65.5 32.78"/><polyline class="cls-5" points="65.5 35.19 66.69 35.19 66.69 33.98 65.5 33.98 65.5 35.19"/><polyline class="cls-5" points="65.5 33.98 66.69 33.98 66.69 32.78 65.5 32.78 65.5 33.98"/><polyline class="cls-5" points="65.5 36.39 66.69 36.39 66.69 35.19 65.5 35.19 65.5 36.39"/><polyline class="cls-5" points="65.5 37.61 66.69 37.61 66.69 36.39 65.5 36.39 65.5 37.61"/><polyline class="cls-5" points="65.5 38.75 66.69 38.75 66.69 37.59 65.5 37.59 65.5 38.75"/><polyline class="cls-5" points="65.5 39.97 66.69 39.97 66.69 38.8 65.5 38.8 65.5 39.97"/><polyline class="cls-5" points="67.08 31.57 68.28 31.57 68.28 30.39 67.08 30.39 67.08 31.57"/><polyline class="cls-5" points="67.08 30.39 68.28 30.39 68.28 29.19 67.08 29.19 67.08 30.39"/><polyline class="cls-5" points="67.08 32.78 68.28 32.78 68.28 31.57 67.08 31.57 67.08 32.78"/><polyline class="cls-5" points="67.08 35.19 68.28 35.19 68.28 33.98 67.08 33.98 67.08 35.19"/><polyline class="cls-5" points="67.08 33.98 68.28 33.98 68.28 32.78 67.08 32.78 67.08 33.98"/><polyline class="cls-5" points="67.08 36.39 68.28 36.39 68.28 35.19 67.08 35.19 67.08 36.39"/><polyline class="cls-5" points="67.08 37.61 68.28 37.61 68.28 36.39 67.08 36.39 67.08 37.61"/><polyline class="cls-5" points="67.08 38.75 68.28 38.75 68.28 37.59 67.08 37.59 67.08 38.75"/></g></svg>