<svg xmlns="http://www.w3.org/2000/svg" viewBox="0 0 99.75 84.4"><defs><style>.cls-1{fill:#fff;}.cls-2,.cls-4{fill:none;stroke:#005159;}.cls-2{stroke-width:0.85px;}.cls-3{fill:#007993;}.cls-4{stroke-width:0.23px;}.cls-5{fill:#007993;}.cls-6{fill:#007993;}.cls-7{fill:#e9c32a;}</style></defs><g id="Original"><rect class="cls-1" x="0.43" y="0.43" width="19.78" height="83.55"/><rect class="cls-2" x="0.43" y="0.43" width="19.78" height="83.55"/><path class="cls-2" d="M367.14,224.31h-5.57A59.16,59.16,0,0,1,347.36,226" transform="translate(-346.93 -144.89)"/><rect class="cls-3" x="7.42" y="2.07" width="1.25" height="1.25"/><rect class="cls-3" x="9.69" y="2.07" width="1.25" height="1.25"/><rect class="cls-3" x="11.97" y="2.07" width="1.25" height="1.25"/><rect class="cls-4" x="3.05" y="0.43" width="14.54" height="6.15"/><rect class="cls-5" x="5.4" y="9.41" width="9.83" height="2.61"/><rect class="cls-1" x="20.21" y="0.43" width="19.78" height="83.55"/><rect class="cls-2" x="20.21" y="0.43" width="19.78" height="83.55"/><rect class="cls-3" x="27.2" y="2.07" width="1.25" height="1.25"/><rect class="cls-3" x="29.47" y="2.07" width="1.25" height="1.25"/><rect class="cls-3" x="31.75" y="2.07" width="1.25" height="1.25"/><rect class="cls-4" x="22.83" y="0.43" width="14.54" height="6.15"/><rect class="cls-3" x="37.51" y="27.91" width="1.14" height="1.53"/><rect class="cls-3" x="37.51" y="30.97" width="1.14" height="1.54"/><rect class="cls-3" x="37.51" y="34.05" width="1.14" height="1.53"/><rect class="cls-3" x="37.51" y="30.97" width="1.14" height="1.54"/><rect class="cls-3" x="37.51" y="34.05" width="1.14" height="1.53"/><rect class="cls-3" x="37.51" y="37.11" width="1.14" height="1.54"/><rect class="cls-3" x="37.51" y="40.18" width="1.14" height="1.53"/><rect class="cls-3" x="37.51" y="43.25" width="1.14" height="1.54"/><rect class="cls-3" x="37.51" y="46.32" width="1.14" height="1.54"/><rect class="cls-3" x="37.51" y="49.39" width="1.14" height="1.54"/><rect class="cls-3" x="37.51" y="49.39" width="1.14" height="1.54"/><rect class="cls-3" x="37.51" y="52.46" width="1.14" height="1.54"/><rect class="cls-3" x="37.51" y="55.53" width="1.14" height="1.53"/><rect class="cls-3" x="37.51" y="58.6" width="1.14" height="1.54"/><rect class="cls-3" x="37.51" y="61.67" width="1.14" height="1.53"/><rect class="cls-3" x="37.51" y="65.02" width="1.14" height="1.54"/><rect class="cls-3" x="37.51" y="68.38" width="1.14" height="1.53"/><rect class="cls-3" x="21.63" y="43.25" width="1.14" height="1.54"/><rect class="cls-3" x="21.63" y="46.32" width="1.14" height="1.54"/><rect class="cls-3" x="21.63" y="49.39" width="1.14" height="1.54"/><rect class="cls-3" x="21.63" y="49.39" width="1.14" height="1.54"/><rect class="cls-3" x="21.63" y="52.46" width="1.14" height="1.54"/><rect class="cls-3" x="21.63" y="55.53" width="1.14" height="1.53"/><rect class="cls-3" x="21.63" y="58.6" width="1.14" height="1.54"/><rect class="cls-3" x="21.63" y="61.67" width="1.14" height="1.53"/><rect class="cls-3" x="21.63" y="65.02" width="1.14" height="1.54"/><rect class="cls-3" x="21.63" y="68.38" width="1.14" height="1.53"/><rect class="cls-3" x="21.63" y="9.49" width="1.14" height="1.54"/><rect class="cls-3" x="21.63" y="12.56" width="1.14" height="1.53"/><rect class="cls-3" x="21.63" y="15.63" width="1.14" height="1.54"/><rect class="cls-3" x="21.63" y="18.7" width="1.14" height="1.54"/><rect class="cls-3" x="21.63" y="21.77" width="1.14" height="1.54"/><rect class="cls-3" x="21.63" y="24.84" width="1.14" height="1.54"/><rect class="cls-3" x="21.63" y="27.91" width="1.14" height="1.53"/><rect class="cls-3" x="21.63" y="30.97" width="1.14" height="1.54"/><rect class="cls-3" x="21.63" y="34.05" width="1.14" height="1.53"/><rect class="cls-3" x="21.63" y="30.97" width="1.14" height="1.54"/><rect class="cls-3" x="21.63" y="34.05" width="1.14" height="1.53"/><rect class="cls-3" x="21.63" y="37.11" width="1.14" height="1.54"/><rect class="cls-3" x="21.63" y="40.18" width="1.14" height="1.53"/><rect class="cls-3" x="37.51" y="24.84" width="1.14" height="1.54"/><rect class="cls-3" x="37.51" y="9.49" width="1.14" height="1.54"/><rect class="cls-3" x="37.51" y="12.56" width="1.14" height="1.53"/><rect class="cls-3" x="37.51" y="15.63" width="1.14" height="1.54"/><rect class="cls-3" x="37.51" y="18.7" width="1.14" height="1.54"/><rect class="cls-3" x="37.51" y="21.77" width="1.14" height="1.54"/><path class="cls-2" d="M386.92,224.32h-5.57a59.66,59.66,0,0,1-14.21,1.7" transform="translate(-346.93 -144.89)"/><polygon class="cls-6" points="36.72 8.68 23.48 8.68 23.48 10.31 24.13 11.08 24.13 72.3 36.06 72.3 36.06 11.08 36.72 10.31 36.72 8.68"/><polyline class="cls-4" points="20.29 7.24 22.76 8.76 22.76 70.58 20.21 72.11"/><polyline class="cls-4" points="39.99 7.24 37.52 8.76 37.52 70.58 40.07 72.11"/><rect class="cls-1" x="39.99" y="0.43" width="19.78" height="83.55"/><rect class="cls-2" x="39.99" y="0.43" width="19.78" height="83.55"/><rect class="cls-3" x="46.98" y="2.07" width="1.25" height="1.25"/><rect class="cls-3" x="49.25" y="2.07" width="1.25" height="1.25"/><rect class="cls-3" x="51.53" y="2.07" width="1.25" height="1.25"/><rect class="cls-4" x="42.61" y="0.43" width="14.54" height="6.15"/><rect class="cls-3" x="57.29" y="27.91" width="1.14" height="1.53"/><rect class="cls-3" x="57.29" y="30.97" width="1.14" height="1.54"/><rect class="cls-3" x="57.29" y="34.05" width="1.14" height="1.53"/><rect class="cls-3" x="57.29" y="30.97" width="1.14" height="1.54"/><rect class="cls-3" x="57.29" y="34.05" width="1.14" height="1.53"/><rect class="cls-3" x="57.29" y="37.11" width="1.14" height="1.54"/><rect class="cls-3" x="57.29" y="40.18" width="1.14" height="1.53"/><rect class="cls-3" x="57.29" y="43.25" width="1.14" height="1.54"/><rect class="cls-3" x="57.29" y="46.32" width="1.14" height="1.54"/><rect class="cls-3" x="57.29" y="49.39" width="1.14" height="1.54"/><rect class="cls-3" x="57.29" y="49.39" width="1.14" height="1.54"/><rect class="cls-3" x="57.29" y="52.46" width="1.14" height="1.54"/><rect class="cls-3" x="57.29" y="55.53" width="1.14" height="1.53"/><rect class="cls-3" x="57.29" y="58.6" width="1.14" height="1.54"/><rect class="cls-3" x="57.29" y="61.67" width="1.14" height="1.53"/><rect class="cls-3" x="57.29" y="65.02" width="1.14" height="1.54"/><rect class="cls-3" x="57.29" y="68.38" width="1.14" height="1.53"/><rect class="cls-3" x="41.41" y="43.25" width="1.14" height="1.54"/><rect class="cls-3" x="41.41" y="46.32" width="1.14" height="1.54"/><rect class="cls-3" x="41.41" y="49.39" width="1.14" height="1.54"/><rect class="cls-3" x="41.41" y="49.39" width="1.14" height="1.54"/><rect class="cls-3" x="41.41" y="52.46" width="1.14" height="1.54"/><rect class="cls-3" x="41.41" y="55.53" width="1.14" height="1.53"/><rect class="cls-3" x="41.41" y="58.6" width="1.14" height="1.54"/><rect class="cls-3" x="41.41" y="61.67" width="1.14" height="1.53"/><rect class="cls-3" x="41.41" y="65.02" width="1.14" height="1.54"/><rect class="cls-3" x="41.41" y="68.38" width="1.14" height="1.53"/><rect class="cls-3" x="41.41" y="9.49" width="1.14" height="1.54"/><rect class="cls-3" x="41.41" y="12.56" width="1.14" height="1.53"/><rect class="cls-3" x="41.41" y="15.63" width="1.14" height="1.54"/><rect class="cls-3" x="41.41" y="18.7" width="1.14" height="1.54"/><rect class="cls-3" x="41.41" y="21.77" width="1.14" height="1.54"/><rect class="cls-3" x="41.41" y="24.84" width="1.14" height="1.54"/><rect class="cls-3" x="41.41" y="27.91" width="1.14" height="1.53"/><rect class="cls-3" x="41.41" y="30.97" width="1.14" height="1.54"/><rect class="cls-3" x="41.41" y="34.05" width="1.14" height="1.53"/><rect class="cls-3" x="41.41" y="30.97" width="1.14" height="1.54"/><rect class="cls-3" x="41.41" y="34.05" width="1.14" height="1.53"/><rect class="cls-3" x="41.41" y="37.11" width="1.14" height="1.54"/><rect class="cls-3" x="41.41" y="40.18" width="1.14" height="1.53"/><rect class="cls-3" x="57.29" y="24.84" width="1.14" height="1.54"/><rect class="cls-3" x="57.29" y="9.49" width="1.14" height="1.54"/><rect class="cls-3" x="57.29" y="12.56" width="1.14" height="1.53"/><rect class="cls-3" x="57.29" y="15.63" width="1.14" height="1.54"/><rect class="cls-3" x="57.29" y="18.7" width="1.14" height="1.54"/><rect class="cls-3" x="57.29" y="21.77" width="1.14" height="1.54"/><path class="cls-2" d="M406.7,224.32h-5.57a59.66,59.66,0,0,1-14.21,1.7" transform="translate(-346.93 -144.89)"/><polygon class="cls-6" points="56.5 8.68 43.25 8.68 43.25 10.31 43.91 11.08 43.91 72.3 55.84 72.3 55.84 11.08 56.5 10.31 56.5 8.68"/><polyline class="cls-4" points="40.07 7.24 42.54 8.76 42.54 70.58 39.99 72.11"/><polyline class="cls-4" points="59.77 7.24 57.29 8.76 57.29 70.58 59.85 72.11"/><rect class="cls-1" x="59.77" y="0.43" width="19.78" height="83.55"/><rect class="cls-2" x="59.77" y="0.43" width="19.78" height="83.55"/><rect class="cls-3" x="66.76" y="2.07" width="1.25" height="1.25"/><rect class="cls-3" x="69.03" y="2.07" width="1.25" height="1.25"/><rect class="cls-3" x="71.31" y="2.07" width="1.25" height="1.25"/><rect class="cls-4" x="62.39" y="0.43" width="14.54" height="6.15"/><rect class="cls-3" x="77.07" y="27.91" width="1.14" height="1.53"/><rect class="cls-3" x="77.07" y="30.97" width="1.14" height="1.54"/><rect class="cls-3" x="77.07" y="34.05" width="1.14" height="1.53"/><rect class="cls-3" x="77.07" y="30.97" width="1.14" height="1.54"/><rect class="cls-3" x="77.07" y="34.05" width="1.14" height="1.53"/><rect class="cls-3" x="77.07" y="37.11" width="1.14" height="1.54"/><rect class="cls-3" x="77.07" y="40.18" width="1.14" height="1.53"/><rect class="cls-3" x="77.07" y="43.25" width="1.14" height="1.54"/><rect class="cls-3" x="77.07" y="46.32" width="1.14" height="1.54"/><rect class="cls-3" x="77.07" y="49.39" width="1.14" height="1.54"/><rect class="cls-3" x="77.07" y="49.39" width="1.14" height="1.54"/><rect class="cls-3" x="77.07" y="52.46" width="1.14" height="1.54"/><rect class="cls-3" x="77.07" y="55.53" width="1.14" height="1.53"/><rect class="cls-3" x="77.07" y="58.6" width="1.14" height="1.54"/><rect class="cls-3" x="77.07" y="61.67" width="1.14" height="1.53"/><rect class="cls-3" x="77.07" y="65.02" width="1.14" height="1.54"/><rect class="cls-3" x="77.07" y="68.38" width="1.14" height="1.53"/><rect class="cls-3" x="61.19" y="43.25" width="1.14" height="1.54"/><rect class="cls-3" x="61.19" y="46.32" width="1.14" height="1.54"/><rect class="cls-3" x="61.19" y="49.39" width="1.14" height="1.54"/><rect class="cls-3" x="61.19" y="49.39" width="1.14" height="1.54"/><rect class="cls-3" x="61.19" y="52.46" width="1.14" height="1.54"/><rect class="cls-3" x="61.19" y="55.53" width="1.14" height="1.53"/><rect class="cls-3" x="61.19" y="58.6" width="1.14" height="1.54"/><rect class="cls-3" x="61.19" y="61.67" width="1.14" height="1.53"/><rect class="cls-3" x="61.19" y="65.02" width="1.14" height="1.54"/><rect class="cls-3" x="61.19" y="68.38" width="1.14" height="1.53"/><rect class="cls-3" x="61.19" y="9.49" width="1.14" height="1.54"/><rect class="cls-3" x="61.19" y="12.56" width="1.14" height="1.53"/><rect class="cls-3" x="61.19" y="15.63" width="1.14" height="1.54"/><rect class="cls-3" x="61.19" y="18.7" width="1.14" height="1.54"/><rect class="cls-3" x="61.19" y="21.77" width="1.14" height="1.54"/><rect class="cls-3" x="61.19" y="24.84" width="1.14" height="1.54"/><rect class="cls-3" x="61.19" y="27.91" width="1.14" height="1.53"/><rect class="cls-3" x="61.19" y="30.97" width="1.14" height="1.54"/><rect class="cls-3" x="61.19" y="34.05" width="1.14" height="1.53"/><rect class="cls-3" x="61.19" y="30.97" width="1.14" height="1.54"/><rect class="cls-3" x="61.19" y="34.05" width="1.14" height="1.53"/><rect class="cls-3" x="61.19" y="37.11" width="1.14" height="1.54"/><rect class="cls-3" x="61.19" y="40.18" width="1.14" height="1.53"/><rect class="cls-3" x="77.07" y="24.84" width="1.14" height="1.54"/><rect class="cls-3" x="77.07" y="9.49" width="1.14" height="1.54"/><rect class="cls-3" x="77.07" y="12.56" width="1.14" height="1.53"/><rect class="cls-3" x="77.07" y="15.63" width="1.14" height="1.54"/><rect class="cls-3" x="77.07" y="18.7" width="1.14" height="1.54"/><rect class="cls-3" x="77.07" y="21.77" width="1.14" height="1.54"/><path class="cls-2" d="M426.48,224.32h-5.57A59.66,59.66,0,0,1,406.7,226" transform="translate(-346.93 -144.89)"/><polygon class="cls-7" points="76.28 8.68 63.03 8.68 63.03 10.31 63.69 11.08 63.69 72.3 75.62 72.3 75.62 11.08 76.28 10.31 76.28 8.68"/><polyline class="cls-4" points="59.85 7.24 62.32 8.76 62.32 70.58 59.77 72.11"/><polyline class="cls-4" points="79.55 7.24 77.08 8.76 77.08 70.58 79.63 72.11"/><rect class="cls-1" x="79.55" y="0.43" width="19.78" height="83.55"/><rect class="cls-2" x="79.55" y="0.43" width="19.78" height="83.55"/><rect class="cls-3" x="86.54" y="2.07" width="1.25" height="1.25"/><rect class="cls-3" x="88.81" y="2.07" width="1.25" height="1.25"/><rect class="cls-3" x="91.09" y="2.07" width="1.25" height="1.25"/><rect class="cls-4" x="82.17" y="0.43" width="14.54" height="6.15"/><rect class="cls-3" x="96.85" y="27.91" width="1.14" height="1.53"/><rect class="cls-3" x="96.85" y="30.97" width="1.14" height="1.54"/><rect class="cls-3" x="96.85" y="34.05" width="1.14" height="1.53"/><rect class="cls-3" x="96.85" y="30.97" width="1.14" height="1.54"/><rect class="cls-3" x="96.85" y="34.05" width="1.14" height="1.53"/><rect class="cls-3" x="96.85" y="37.11" width="1.14" height="1.54"/><rect class="cls-3" x="96.85" y="40.18" width="1.14" height="1.53"/><rect class="cls-3" x="96.85" y="43.25" width="1.14" height="1.54"/><rect class="cls-3" x="96.85" y="46.32" width="1.14" height="1.54"/><rect class="cls-3" x="96.85" y="49.39" width="1.14" height="1.54"/><rect class="cls-3" x="96.85" y="49.39" width="1.14" height="1.54"/><rect class="cls-3" x="96.85" y="52.46" width="1.14" height="1.54"/><rect class="cls-3" x="96.85" y="55.53" width="1.14" height="1.53"/><rect class="cls-3" x="96.85" y="58.6" width="1.14" height="1.54"/><rect class="cls-3" x="96.85" y="61.67" width="1.14" height="1.53"/><rect class="cls-3" x="96.85" y="65.02" width="1.14" height="1.54"/><rect class="cls-3" x="96.85" y="68.38" width="1.14" height="1.53"/><rect class="cls-3" x="80.97" y="43.25" width="1.14" height="1.54"/><rect class="cls-3" x="80.97" y="46.32" width="1.14" height="1.54"/><rect class="cls-3" x="80.97" y="49.39" width="1.14" height="1.54"/><rect class="cls-3" x="80.97" y="49.39" width="1.14" height="1.54"/><rect class="cls-3" x="80.97" y="52.46" width="1.14" height="1.54"/><rect class="cls-3" x="80.97" y="55.53" width="1.14" height="1.53"/><rect class="cls-3" x="80.97" y="58.6" width="1.14" height="1.54"/><rect class="cls-3" x="80.97" y="61.67" width="1.14" height="1.53"/><rect class="cls-3" x="80.97" y="65.02" width="1.14" height="1.54"/><rect class="cls-3" x="80.97" y="68.38" width="1.14" height="1.53"/><rect class="cls-3" x="80.97" y="9.49" width="1.14" height="1.54"/><rect class="cls-3" x="80.97" y="12.56" width="1.14" height="1.53"/><rect class="cls-3" x="80.97" y="15.63" width="1.14" height="1.54"/><rect class="cls-3" x="80.97" y="18.7" width="1.14" height="1.54"/><rect class="cls-3" x="80.97" y="21.77" width="1.14" height="1.54"/><rect class="cls-3" x="80.97" y="24.84" width="1.14" height="1.54"/><rect class="cls-3" x="80.97" y="27.91" width="1.14" height="1.53"/><rect class="cls-3" x="80.97" y="30.97" width="1.14" height="1.54"/><rect class="cls-3" x="80.97" y="34.05" width="1.14" height="1.53"/><rect class="cls-3" x="80.97" y="30.97" width="1.14" height="1.54"/><rect class="cls-3" x="80.97" y="34.05" width="1.14" height="1.53"/><rect class="cls-3" x="80.97" y="37.11" width="1.14" height="1.54"/><rect class="cls-3" x="80.97" y="40.18" width="1.14" height="1.53"/><rect class="cls-3" x="96.85" y="24.84" width="1.14" height="1.54"/><rect class="cls-3" x="96.85" y="9.49" width="1.14" height="1.54"/><rect class="cls-3" x="96.85" y="12.56" width="1.14" height="1.53"/><rect class="cls-3" x="96.85" y="15.63" width="1.14" height="1.54"/><rect class="cls-3" x="96.85" y="18.7" width="1.14" height="1.54"/><rect class="cls-3" x="96.85" y="21.77" width="1.14" height="1.54"/><path class="cls-2" d="M446.26,224.32h-5.57a59.66,59.66,0,0,1-14.21,1.7" transform="translate(-346.93 -144.89)"/><polygon class="cls-7" points="96.06 8.68 82.81 8.68 82.81 10.31 83.47 11.08 83.47 72.3 95.4 72.3 95.4 11.08 96.06 10.31 96.06 8.68"/><polyline class="cls-4" points="79.63 7.24 82.1 8.76 82.1 70.58 79.55 72.11"/><polyline class="cls-4" points="99.33 7.24 96.85 8.76 96.85 70.58 99.41 72.11"/></g></svg>