<?xml version="1.0" encoding="UTF-8" standalone="no"?>
<svg
   version="1.0"
   width="249.000000pt"
   height="615.000000pt"
   viewBox="0 0 249.000000 615.000000"
   preserveAspectRatio="xMidYMid meet"
   id="svg26"
   sodipodi:docname="ScalanceS600.svg"
   inkscape:version="1.3.2 (091e20e, 2023-11-25, custom)"
   xmlns:inkscape="http://www.inkscape.org/namespaces/inkscape"
   xmlns:sodipodi="http://sodipodi.sourceforge.net/DTD/sodipodi-0.dtd"
   xmlns="http://www.w3.org/2000/svg"
   xmlns:svg="http://www.w3.org/2000/svg">
  <defs
     id="defs26" />
  <sodipodi:namedview
     id="namedview26"
     pagecolor="#505050"
     bordercolor="#eeeeee"
     borderopacity="1"
     inkscape:showpageshadow="0"
     inkscape:pageopacity="0"
     inkscape:pagecheckerboard="0"
     inkscape:deskcolor="#505050"
     inkscape:document-units="pt"
     inkscape:zoom="1.4402439"
     inkscape:cx="166.29128"
     inkscape:cy="410"
     inkscape:window-width="2560"
     inkscape:window-height="1377"
     inkscape:window-x="1672"
     inkscape:window-y="-8"
     inkscape:window-maximized="1"
     inkscape:current-layer="g26" />
  <g
     transform="translate(0.000000,615.000000) scale(0.100000,-0.100000)"
     fill="#fff"
     stroke="none"
     id="g26">
    <rect
       style="fill:#fff;fill-opacity:1;fill-rule:evenodd;stroke:#000000;stroke-width:1.5;stroke-linecap:round;stroke-linejoin:round;stroke-opacity:1"
       id="rect26"
       width="248.39543"
       height="614.47925"
       x="0.5207451"
       y="0.5207451"
       transform="matrix(9.9999998,0,0,-9.9999998,0,6150)" />
    <path
       fill="#005159"
       d="M1 3080 l4 -3060 1243 0 1242 0 0 3060 0 3060 -1246 0 -1246 0 3 -3060z m957 1473 l2 -1463 -415 0 -415 0 0 1465 0 1465 413 -2 412 -3 3 -1462z m1405 1455 c-2 -5 -3 -1326 -3 -2938 l0 -2930 -1115 0 -1115 0 0 1410 0 1410 473 2 472 3 2 1515 c2 833 5 1521 8 1528 3 10 137 12 642 10 351 -2 637 -6 636 -10z"
       id="path1" />
    <path
       fill="#007993"
       d="M180 5855 l0 -95 355 0 355 0 0 95 0 95 -355 0 -355 0 0 -95z"
       id="path2" />
    <path
       fill="#005159"
       d="M210 3355 l0 -215 210 0 210 0 0 215 0 215 -210 0 -210 0 0 -215z m390 0 l0 -175 -180 0 -180 0 0 175 0 175 180 0 180 0 0 -175z"
       id="path3" />
    <path
       fill="#005159"
       d="M1232 5644 l-22 -15 0 -1290 c0 -1276 0 -1289 20 -1309 19 -19 33 -20 449 -20 l430 0 20 26 c21 27 21 27 21 1296 0 1280 0 1298 -34 1320 -6 4 -202 8 -436 8 -369 0 -428 -2 -448 -16z m868 -24 c13 -8 15 -162 15 -1285 0 -1123 -2 -1277 -15 -1285 -24 -15 -833 -13 -848 2 -9 9 -12 308 -12 1285 0 1201 1 1273 18 1282 22 13 821 14 842 1z"
       id="path4" />
    <path
       fill="#005159"
       d="M1380 5285 l0 -295 250 0 250 0 0 295 0 295 -250 0 -250 0 0 -295z m470 0 l0 -265 -215 0 -215 0 0 265 0 265 215 0 215 0 0 -265z"
       id="path5" />
    <path
       fill="#005159"
       d="M1380 4645 l0 -295 250 0 250 0 0 295 0 295 -250 0 -250 0 0 -295z m470 0 l0 -265 -215 0 -215 0 0 265 0 265 215 0 215 0 0 -265z"
       id="path6" />
    <path
       fill="#005159"
       d="M1380 4009 l0 -299 250 0 250 0 0 300 0 301 -250 -2 -250 -1 0 -299z m470 -4 l0 -265 -215 0 -215 0 0 265 0 265 215 0 215 0 0 -265z"
       id="path7" />
    <path
       fill="#005159"
       d="M1387 3663 c-4 -3 -7 -138 -7 -300 l0 -293 250 0 250 0 0 300 0 300 -243 0 c-134 0 -247 -3 -250 -7z m463 -298 l0 -265 -215 0 -215 0 0 265 0 265 215 0 215 0 0 -265z"
       id="path8" />
    <path
       fill="#005159"
       d="M583 2943 c-26 -5 -71 -55 -79 -89 -9 -36 4 -73 36 -105 23 -24 37 -29 75 -29 40 0 52 5 81 34 27 27 34 42 34 73 0 55 -31 99 -77 112 -21 6 -40 10 -43 10 -3 -1 -15 -4 -27 -6z m84 -48 c58 -41 24 -144 -48 -145 -43 0 -79 35 -79 78 0 68 71 106 127 67z"
       id="path9" />
    <path
       fill="#005159"
       d="M1227 2922 c-15 -17 -17 -78 -17 -673 0 -550 2 -658 14 -675 14 -18 32 -19 444 -22 412 -3 430 -2 453 17 l24 19 3 639 c1 351 0 648 -3 660 -13 54 -1 53 -469 53 -407 0 -434 -1 -449 -18z m881 -671 c2 -517 0 -656 -10 -663 -20 -12 -816 -10 -839 2 -18 10 -19 28 -19 653 0 490 3 646 12 655 9 9 114 12 433 10 l420 -3 3 -654z"
       id="path10" />
    <path
       fill="#005159"
       d="M1380 2565 l0 -295 250 0 250 0 0 295 0 295 -250 0 -250 0 0 -295z m470 0 l0 -265 -215 0 -215 0 0 265 0 265 215 0 215 0 0 -265z"
       id="path11" />
    <path
       fill="#005159"
       d="M1380 1925 l0 -295 250 0 250 0 0 295 0 295 -250 0 -250 0 0 -295z m470 0 l0 -265 -215 0 -215 0 0 265 0 265 215 0 215 0 0 -265z"
       id="path12" />
    <path
       fill="#005159"
       d="M370 2395 l0 -305 274 0 274 0 1 305 2 305 -276 0 -275 0 0 -305z m510 0 l0 -275 -240 0 -240 0 0 275 0 275 240 0 240 0 0 -275z"
       id="path13" />
    <path
       fill="#005159"
       d="M520 2565 c0 -45 0 -45 -35 -45 l-35 0 0 -125 0 -125 35 0 c35 0 35 0 35 -45 l0 -46 151 3 151 3 -1 203 c0 111 0 207 -1 212 0 6 -57 10 -150 10 l-150 0 0 -45z m268 -171 l2 -182 -115 -1 -115 -2 0 46 c0 45 0 45 -35 45 l-35 0 0 95 0 95 35 0 c35 0 35 0 35 46 l0 45 113 -3 112 -3 3 -181z"
       id="path14" />
    <path
       fill="#005159"
       d="M390 1825 l0 -245 205 0 205 0 0 80 0 80 40 0 40 0 0 100 0 100 -40 0 -40 0 0 65 0 65 -205 0 -205 0 0 -245z m41 168 c-9 -16 -10 -15 -11 8 0 14 3 29 8 33 12 12 14 -22 3 -41z m329 -23 l0 -70 40 0 40 0 0 -60 0 -60 -40 0 -40 0 0 -80 0 -80 -137 0 -138 0 -18 55 c-16 49 -16 57 -2 91 18 45 19 68 1 119 -14 40 -11 90 5 101 5 3 9 16 9 29 l0 24 140 0 140 1 0 -70z m-320 -147 c0 -17 -4 -34 -9 -38 -6 -3 -10 16 -9 46 0 34 3 47 9 38 5 -8 9 -28 9 -46z m0 -184 c0 -10 -4 -19 -10 -19 -5 0 -10 12 -10 26 0 14 4 23 10 19 6 -3 10 -15 10 -26z"
       id="path15" />
    <path
       fill="#005159"
       d="M543 2000 c-32 -13 -56 -55 -49 -85 16 -64 86 -86 131 -40 41 40 26 106 -28 125 -16 5 -30 10 -31 9 -1 0 -11 -4 -23 -9z m57 -44 c6 -8 10 -25 8 -38 -2 -18 -10 -24 -35 -26 -28 -3 -33 1 -39 23 -11 45 37 75 66 41z"
       id="path16" />
    <path
       fill="#005159"
       d="M540 1797 c-38 -19 -55 -61 -40 -98 23 -54 84 -66 125 -24 31 30 32 66 3 99 -29 31 -57 39 -88 23z m58 -39 c34 -34 -6 -90 -48 -68 -25 13 -26 55 -2 69 23 14 36 13 50 -1z"
       id="path17" />
    <path
       fill="#005159"
       d="M413 1562 l-23 -3 0 -245 0 -244 203 2 202 3 3 78 3 77 39 0 40 0 0 100 0 100 -40 0 -40 0 0 65 0 64 -182 3 c-101 2 -193 2 -205 0z m27 -51 c0 -11 -4 -23 -10 -26 -6 -4 -10 5 -10 19 0 14 5 26 10 26 6 0 10 -9 10 -19z m320 -46 l0 -65 40 0 40 0 0 -65 0 -65 -40 0 -40 0 0 -80 0 -80 -137 0 -138 0 -18 54 c-17 52 -16 68 5 113 10 21 8 45 -10 113 -6 25 -4 50 7 88 l15 52 138 0 138 0 0 -65z m-320 -143 c0 -15 -5 -34 -10 -42 -7 -11 -10 -2 -10 33 0 30 4 46 10 42 6 -3 10 -18 10 -33z m0 -194 c0 -10 -4 -18 -10 -18 -5 0 -10 15 -10 33 0 24 3 28 10 17 5 -8 10 -23 10 -32z"
       id="path18" />
    <path
       fill="#005159"
       d="M516 1469 c-29 -34 -32 -50 -14 -82 28 -53 84 -63 123 -21 40 43 30 95 -22 122 -35 19 -60 14 -87 -19z m84 -23 c6 -8 10 -25 8 -38 -6 -42 -78 -32 -78 11 0 37 46 55 70 27z"
       id="path19" />
    <path
       fill="#005159"
       d="M543 1290 c-32 -13 -56 -55 -49 -85 16 -64 86 -86 131 -40 35 35 33 76 -6 109 -33 28 -42 30 -76 16z m57 -44 c6 -8 10 -25 8 -38 -2 -18 -10 -24 -35 -26 -28 -3 -33 1 -39 23 -11 45 37 75 66 41z"
       id="path20" />
    <path
       fill="#005159"
       d="M1230 930 l0 -540 205 0 205 0 0 540 0 540 -205 0 -205 0 0 -540z m370 480 c0 -18 -7 -20 -59 -20 l-59 0 22 -85 21 -85 38 0 c36 0 37 -1 37 -35 0 -34 -1 -35 -38 -35 l-38 0 -21 -85 -20 -85 58 0 c53 0 59 -2 59 -20 0 -20 -5 -20 -167 -18 l-168 3 -3 243 -2 242 170 0 c163 0 170 -1 170 -20z m0 -100 c0 -37 -4 -52 -16 -57 -21 -8 -31 5 -48 60 l-14 47 39 0 39 0 0 -50z m0 -243 l0 -53 -35 -2 c-39 -3 -40 0 -24 64 10 37 15 44 35 44 22 0 24 -4 24 -53z m0 -177 c0 -18 -7 -20 -59 -20 l-58 0 20 -85 21 -85 38 0 c37 0 38 -1 38 -35 0 -34 -1 -35 -38 -35 l-38 0 -21 -85 -20 -85 58 0 c52 0 59 -2 59 -20 0 -19 -7 -20 -170 -20 l-171 0 1 245 1 245 170 0 c162 0 169 -1 169 -20z m0 -105 c0 -51 -2 -55 -24 -55 -20 0 -25 7 -35 44 -16 64 -15 66 24 66 l35 0 0 -55z m0 -240 l0 -55 -35 0 c-39 0 -40 2 -24 66 10 37 15 44 35 44 22 0 24 -4 24 -55z"
       id="path21" />
    <path
       fill="#005159"
       d="M390 610 l0 -440 205 0 205 0 0 75 0 75 40 0 41 0 -3 78 -3 77 -37 3 -38 3 0 124 0 124 38 3 37 3 3 78 3 77 -41 0 -40 0 0 80 0 80 -205 0 -205 0 0 -440z m50 391 c0 -11 -4 -23 -10 -26 -6 -4 -10 5 -10 19 0 14 5 26 10 26 6 0 10 -9 10 -19z m220 -391 l0 -410 -88 0 -88 0 -15 53 c-11 37 -13 60 -6 82 19 62 19 78 2 128 -16 48 -16 55 -1 91 20 49 20 74 -1 116 -15 32 -15 37 0 81 21 58 21 77 2 123 -14 34 -14 42 2 91 l18 55 88 0 87 0 0 -410z m100 330 l0 -80 40 0 40 0 0 -45 0 -45 -40 0 -40 0 0 -165 0 -165 40 0 40 0 0 -45 0 -45 -40 0 -40 0 0 -75 0 -75 -30 0 -30 0 0 410 0 410 30 0 30 0 0 -80z m-320 -124 c0 -19 -4 -38 -10 -41 -6 -4 -10 10 -10 34 0 23 5 41 10 41 6 0 10 -15 10 -34z m0 -208 c0 -48 -17 -39 -18 10 -1 34 1 43 8 32 5 -8 10 -27 10 -42z m0 -203 c0 -19 -4 -37 -10 -40 -6 -4 -10 12 -10 40 0 28 4 44 10 40 6 -3 10 -21 10 -40z m0 -187 c0 -33 -17 -19 -18 14 -1 23 2 28 8 18 6 -8 10 -23 10 -32z"
       id="path22" />
    <path
       fill="#005159"
       d="M519 961 c-31 -32 -35 -50 -17 -84 27 -52 79 -62 122 -22 41 38 34 95 -15 120 -40 21 -57 19 -90 -14z m81 -26 c7 -8 10 -25 6 -40 -11 -41 -76 -29 -76 15 0 36 47 53 70 25z"
       id="path23" />
    <path
       fill="#005159"
       d="M554 782 c-29 -4 -52 -31 -60 -69 -14 -71 90 -114 135 -57 26 33 27 64 1 96 -21 27 -42 36 -76 30z m44 -44 c31 -31 -3 -87 -42 -72 -26 10 -32 55 -11 71 23 16 37 17 53 1z"
       id="path24" />
    <path
       fill="#005159"
       d="M521 563 c-56 -47 -24 -133 49 -133 69 0 102 69 59 124 -25 31 -76 35 -108 9z m77 -25 c17 -17 15 -53 -3 -68 -24 -20 -65 3 -65 34 0 37 43 59 68 34z"
       id="path25" />
    <path
       fill="#005159"
       d="M523 365 c-70 -49 -6 -165 74 -134 56 21 71 82 28 124 -28 29 -70 32 -102 10z m85 -62 c-7 -56 -69 -55 -76 1 -3 20 2 28 20 35 33 13 60 -4 56 -36z"
       id="path26" />
  </g>
</svg>
