<svg xmlns="http://www.w3.org/2000/svg" viewBox="0 0 30.96 36.28"><defs><style>.cls-1,.cls-5{fill:#fff;}.cls-1,.cls-4,.cls-5,.cls-6,.cls-8,.cls-9{stroke:#005159;}.cls-1,.cls-4,.cls-5{stroke-width:0.85px;}.cls-1{fill-rule:evenodd;}.cls-2{fill:#007993;}.cls-3{fill:#01893a;}.cls-4,.cls-6,.cls-8,.cls-9{fill:none;}.cls-6,.cls-8{stroke-width:0.23px;}.cls-7{fill:#007993;}.cls-8{stroke-miterlimit:3.86;}.cls-9{stroke-width:0.23px;}</style></defs><g id="Original"><polygon class="cls-1" points="18.44 0.42 18.44 2.05 12.46 2.05 12.46 0.42 0.42 0.42 0.42 35.86 30.53 35.86 30.53 0.42 18.44 0.42"/><rect class="cls-2" x="25.84" y="5.57" width="3.4" height="9.25"/><rect class="cls-3" x="23.11" y="16.44" width="0.41" height="0.4"/><rect class="cls-3" x="23.11" y="15.8" width="0.41" height="0.41"/><rect class="cls-3" x="25.45" y="20.21" width="0.41" height="0.4"/><rect class="cls-3" x="25.71" y="4.28" width="0.4" height="0.41"/><rect class="cls-3" x="25.07" y="4.28" width="0.41" height="0.41"/><rect class="cls-3" x="26.34" y="4.28" width="0.41" height="0.41"/><polyline class="cls-4" points="30.53 22 18.44 22 18.44 2.05 30.53 2.05"/><line class="cls-5" x1="24.48" y1="2.05" x2="24.48" y2="22"/><line class="cls-6" x1="18.51" y1="4.93" x2="24.48" y2="4.93"/><line class="cls-6" x1="18.51" y1="4.04" x2="24.48" y2="4.04"/><line class="cls-6" x1="24.56" y1="4.93" x2="30.53" y2="4.93"/><line class="cls-6" x1="24.56" y1="4.04" x2="30.53" y2="4.04"/><rect class="cls-7" x="25.38" y="2.6" width="4.25" height="1.2"/><path class="cls-6" d="M401.48,172.12a.52.52,0,1,1-.51-.51A.51.51,0,0,1,401.48,172.12Z" transform="translate(-381.37 -168.95)"/><rect class="cls-3" x="11.06" y="16.44" width="0.41" height="0.4"/><rect class="cls-3" x="11.06" y="15.8" width="0.41" height="0.41"/><line class="cls-6" x1="6.46" y1="4.93" x2="12.43" y2="4.93"/><line class="cls-6" x1="6.46" y1="4.04" x2="12.43" y2="4.04"/><path class="cls-6" d="M389.43,172.12a.52.52,0,1,1-.51-.51A.51.51,0,0,1,389.43,172.12Z" transform="translate(-381.37 -168.95)"/><rect class="cls-4" x="12.46" y="2.05" width="6.04" height="19.95"/><rect class="cls-4" x="6.43" y="2.05" width="6.04" height="19.95"/><line class="cls-4" x1="6.43" y1="2.05" x2="0.43" y2="2.05"/><rect class="cls-4" x="24.48" y="23.77" width="6.06" height="12.09"/><polygon class="cls-8" points="26.22 25.6 26.22 26.73 26.78 26.73 26.78 27.64 29.34 27.64 29.34 24.52 26.78 24.52 26.78 25.6 26.22 25.6"/><path class="cls-8" d="M409.16,195.72a.42.42,0,0,1,.42-.42.41.41,0,0,1,.41.42.41.41,0,0,1-.41.41A.41.41,0,0,1,409.16,195.72Z" transform="translate(-381.37 -168.95)"/><path class="cls-8" d="M409.16,194.33a.42.42,0,0,1,.42-.42.42.42,0,0,1,0,.84A.42.42,0,0,1,409.16,194.33Z" transform="translate(-381.37 -168.95)"/><path class="cls-8" d="M410.33,196.6v-.34a.9.9,0,0,0,0-1.06v-.34a.9.9,0,0,0,0-1.06v-.34" transform="translate(-381.37 -168.95)"/><polygon class="cls-8" points="26.22 29.33 26.22 30.45 26.78 30.45 26.78 31.36 29.34 31.36 29.34 28.25 26.78 28.25 26.78 29.33 26.22 29.33"/><path class="cls-8" d="M409.16,199.44a.41.41,0,0,1,.42-.41.41.41,0,0,1,.41.41.41.41,0,0,1-.41.42A.42.42,0,0,1,409.16,199.44Z" transform="translate(-381.37 -168.95)"/><path class="cls-8" d="M409.16,198.06a.42.42,0,0,1,.42-.42.42.42,0,0,1,0,.84A.42.42,0,0,1,409.16,198.06Z" transform="translate(-381.37 -168.95)"/><path class="cls-8" d="M410.33,200.32V200a.9.9,0,0,0,0-1.06v-.34a.9.9,0,0,0,0-1.06v-.34" transform="translate(-381.37 -168.95)"/><polygon class="cls-8" points="26.22 33.05 26.22 34.18 26.78 34.18 26.78 35.09 29.34 35.09 29.34 31.97 26.78 31.97 26.78 33.05 26.22 33.05"/><path class="cls-8" d="M409.16,203.17a.42.42,0,0,1,.42-.42.42.42,0,0,1,0,.84A.42.42,0,0,1,409.16,203.17Z" transform="translate(-381.37 -168.95)"/><path class="cls-8" d="M409.16,201.79a.42.42,0,0,1,.42-.42.41.41,0,0,1,.41.42.41.41,0,0,1-.41.41A.41.41,0,0,1,409.16,201.79Z" transform="translate(-381.37 -168.95)"/><path class="cls-8" d="M410.33,204.05v-.33a.92.92,0,0,0,0-1.07v-.33a.9.9,0,0,0,0-1.06v-.34" transform="translate(-381.37 -168.95)"/><polygon class="cls-9" points="8.67 6.09 8.67 6.95 8.14 6.95 8.14 7.39 7.49 7.39 7.49 8.66 8.14 8.66 8.14 9.05 8.67 9.05 8.67 9.97 10.92 9.97 10.92 6.09 8.67 6.09"/><rect class="cls-6" x="7.48" y="5.72" width="3.93" height="4.62"/><polygon class="cls-9" points="8.67 11.14 8.67 12 8.14 12 8.14 12.45 7.49 12.45 7.49 13.71 8.14 13.71 8.14 14.1 8.67 14.1 8.67 15.02 10.92 15.02 10.92 11.14 8.67 11.14"/><rect class="cls-6" x="7.48" y="10.77" width="3.93" height="4.62"/><polygon class="cls-9" points="20.72 6.09 20.72 6.95 20.2 6.95 20.2 7.39 19.54 7.39 19.54 8.66 20.2 8.66 20.2 9.05 20.72 9.05 20.72 9.97 22.97 9.97 22.97 6.09 20.72 6.09"/><rect class="cls-6" x="19.53" y="5.72" width="3.93" height="4.62"/><polygon class="cls-9" points="20.72 11.14 20.72 12 20.2 12 20.2 12.45 19.54 12.45 19.54 13.71 20.2 13.71 20.2 14.1 20.72 14.1 20.72 15.02 22.97 15.02 22.97 11.14 20.72 11.14"/><rect class="cls-6" x="19.53" y="10.77" width="3.93" height="4.62"/></g></svg>