<?xml version="1.0" encoding="UTF-8" standalone="no"?>
<svg
   width="24"
   height="24"
   viewBox="0 0 24 24"
   fill="none"
   version="1.1"
   id="svg1"
   sodipodi:docname="fan_45.svg"
   inkscape:version="1.3.2 (091e20e, 2023-11-25, custom)"
   xmlns:inkscape="http://www.inkscape.org/namespaces/inkscape"
   xmlns:sodipodi="http://sodipodi.sourceforge.net/DTD/sodipodi-0.dtd"
   xmlns="http://www.w3.org/2000/svg"
   xmlns:svg="http://www.w3.org/2000/svg">
  <defs
     id="defs1" />
  <sodipodi:namedview
     id="namedview1"
     pagecolor="#505050"
     bordercolor="#eeeeee"
     borderopacity="1"
     inkscape:showpageshadow="0"
     inkscape:pageopacity="0"
     inkscape:pagecheckerboard="0"
     inkscape:deskcolor="#505050"
     inkscape:zoom="31.875"
     inkscape:cx="12"
     inkscape:cy="12"
     inkscape:window-width="1680"
     inkscape:window-height="987"
     inkscape:window-x="-8"
     inkscape:window-y="-8"
     inkscape:window-maximized="1"
     inkscape:current-layer="svg1" />
  <path
     fill-rule="evenodd"
     clip-rule="evenodd"
     d="M 13.414214,10.585786 12.707107,9.8786797 c -1.860992,-1.860992 -2.196663,-4.8744336 -0.353568,-6.7175286 1.843095,-1.843095 4.856537,-1.5074244 6.717529,0.3535675 l 0.707107,0.7071068 z M 16.850965,4.3205799 C 15.731926,3.7083669 14.479823,3.863294 13.767753,4.5753647 13.055682,5.2874353 12.900755,6.5395376 13.512968,7.6585765 Z M 9.8786797,11.292893 10.585786,10.585786 4.2218254,4.2218254 3.5147186,4.9289322 C 1.653755,6.7898958 1.3180702,9.8033516 3.1611652,11.646447 5.0042673,13.489549 8.017716,13.153857 9.8786797,11.292893 Z M 4.5753788,10.232233 C 3.8633081,9.5201624 3.7083669,8.2680743 4.3205941,7.1490212 l 3.3379965,3.3379968 c -1.119053,0.612227 -2.3711411,0.457286 -3.0832118,-0.254785 z m 6.7175142,3.889087 -0.707107,-0.707106 -6.3639606,6.363961 0.7071068,0.707106 c 1.8609636,1.860964 4.8744406,2.196628 6.7175148,0.353554 1.843073,-1.843074 1.50741,-4.856551 -0.353554,-6.717515 z m -1.06066,5.303301 c -0.7120565,0.712057 -1.9641305,0.866984 -3.0831977,0.254771 l 3.3379687,-3.337968 c 0.612213,1.119067 0.457286,2.371141 -0.254771,3.083197 z m 3.889087,-6.717514 -0.707106,0.707107 6.363961,6.363961 0.707106,-0.707107 c 1.860992,-1.860992 2.196642,-4.874455 0.353568,-6.717529 -1.843074,-1.843074 -4.856537,-1.507424 -6.717529,0.353568 z m 5.303315,1.060646 c 0.712057,0.712056 0.86697,1.964144 0.254771,3.083198 l -3.337968,-3.337969 c 1.119053,-0.612199 2.371141,-0.457286 3.083197,0.254771 z"
     fill="#007993"
     id="path1" />
</svg>
