<svg width="32" height="29" viewBox="0 0 32 29" fill="none" xmlns="http://www.w3.org/2000/svg">
<g clip-path="url(#clip0_194_10173)">
<path d="M15.9998 0.0188484C16.3545 0.0188484 16.7094 0.154221 16.9799 0.424818C17.0686 0.513538 17.1426 0.611465 17.2022 0.715294L17.922 1.95034H17.9254L31.7646 25.9382C31.7672 25.9428 31.7693 25.9475 31.7719 25.9521C31.8421 26.0651 31.8973 26.1902 31.9336 26.3256C32.1317 27.0648 31.6929 27.8249 30.9535 28.023C30.8314 28.0558 30.7087 28.0707 30.5881 28.0702H1.40507C0.639456 28.0702 0.0189819 27.4497 0.0189819 26.6841C0.0189819 26.4336 0.0857463 26.1986 0.202135 25.9958C0.20308 25.9943 0.203788 25.9928 0.204543 25.9912L14.5757 1.04142C14.7581 0.726721 14.8427 0.60207 15.0199 0.424818C15.2905 0.154221 15.6451 0.0188484 15.9998 0.0188484Z" fill="white"/>
<path d="M15.9998 0.366127C16.3362 0.363718 16.7057 0.535635 16.8866 0.857464L31.4904 26.1604C31.5747 26.3327 31.6101 26.4825 31.6112 26.6538C31.6112 26.9605 31.4754 27.2516 31.2407 27.4489C31.0337 27.6092 30.8376 27.6926 30.5739 27.6926H1.3984C1.22044 27.6942 1.04206 27.6515 0.880153 27.5447C0.575464 27.3606 0.388958 27.0308 0.38858 26.6746C0.397268 26.4908 0.442643 26.2969 0.524517 26.1604L15.1198 0.853212C15.1211 0.850992 15.1226 0.848774 15.1241 0.846601C15.1256 0.844381 15.127 0.842165 15.1285 0.839756C15.1803 0.756939 15.2453 0.683706 15.3192 0.621002C15.4887 0.474205 15.701 0.386049 15.9247 0.369997C15.9498 0.367777 15.9749 0.366316 15.9998 0.366127ZM30.5739 27.6926H30.6458H30.5724H30.5739ZM16.0149 5.38105L4.88583 24.6707H27.1597L16.0149 5.38105Z" fill="#A60F18"/>
<path d="M16.1862 23.2402L17.7588 21.3617C17.8461 21.318 17.9336 21.2307 18.0209 21.2307L18.3268 21.0996C18.5016 21.0559 18.6762 20.9248 18.8073 20.7938L19.8993 19.527C20.3799 18.9154 21.2536 18.8717 21.8215 19.3522C21.9088 19.396 21.9963 19.4833 22.0399 19.5707L24.8794 23.2401C24.9667 23.3712 24.9667 23.5459 24.8356 23.6333C24.7919 23.677 24.7046 23.7206 24.6608 23.7206H16.4045C16.2297 23.7206 16.1424 23.5895 16.1424 23.4148C16.1424 23.371 16.1424 23.2839 16.1862 23.2402ZM18.283 12.6685C18.283 13.2364 17.8025 13.717 17.2346 13.717C16.6667 13.717 16.1862 13.2364 16.1862 12.6685C16.1862 12.1006 16.6667 11.6638 17.2346 11.6638C17.8025 11.6638 18.283 12.1006 18.283 12.6685ZM12.6041 17.0807L14.133 14.1975H13.0409L12.3856 15.4207L13.0409 15.9886L12.8224 16.3817L12.1672 15.8575L11.8614 16.4254C11.3809 16.1633 11.2062 15.5517 11.4683 15.1149L12.2546 13.5859C12.3856 13.3675 12.6041 13.2364 12.8662 13.2364H15.3125C15.9241 13.2364 16.4046 13.717 16.4046 14.3285C16.4046 14.3723 16.4046 14.3723 16.4046 14.4158L16.1425 18.5222L18.7199 20.7064C18.6326 20.7937 18.5015 20.8812 18.3268 20.9685L16.0988 19.0901L16.0551 19.5707C15.5308 19.5269 15.1377 19.0901 15.1814 18.5659V18.3475L14.5261 17.8232L14.7445 17.4301L15.2251 17.7796L15.3124 16.0759L14.3076 17.998L12.6041 17.0807ZM15.4435 23.7207C14.832 23.7207 14.3078 23.2402 14.3078 22.6286L14.2205 20.3133L13.0846 18.566L10.3326 23.7207C9.80836 23.4149 9.58992 22.7596 9.89572 22.1917L12.4731 17.3428L14.1768 18.2165L15.2689 19.9201C15.2689 19.9639 15.3126 20.0074 15.3126 20.0512" fill="black"/>
</g>
<defs>
<clipPath id="clip0_194_10173">
<rect width="32" height="28.0891" fill="white"/>
</clipPath>
</defs>
</svg>
