<svg width="32" height="29" viewBox="0 0 32 29" fill="none" xmlns="http://www.w3.org/2000/svg">
<g clip-path="url(#clip0_194_10643)">
<path d="M16.0002 0.0188408C15.6456 0.0188408 15.2909 0.154213 15.0201 0.424812C14.9313 0.513533 14.8573 0.61146 14.7977 0.71529L14.0778 1.95029H14.0747L0.235145 25.9385C0.232784 25.9429 0.230753 25.9474 0.228156 25.9521C0.158087 26.065 0.102748 26.1903 0.0660137 26.3257C-0.131683 27.0649 0.307103 27.825 1.04633 28.0231C1.16862 28.0559 1.29129 28.0709 1.41169 28.0703H30.5953C31.3607 28.0703 31.9811 27.4498 31.9811 26.6842C31.9811 26.4341 31.9142 26.1988 31.798 25.9959C31.7971 25.9942 31.7959 25.9929 31.7956 25.9913L17.4241 1.04137C17.2417 0.726715 17.1574 0.602064 16.9802 0.424812C16.7096 0.154213 16.3549 0.0188408 16.0002 0.0188408Z" fill="white"/>
<path d="M16.0002 0.366121C15.6638 0.363712 15.2942 0.535772 15.1135 0.857082L0.509425 26.1606C0.425332 26.3328 0.38992 26.4826 0.388786 26.6539C0.388786 26.9607 0.524346 27.2517 0.759344 27.4494C0.966485 27.6093 1.16234 27.6927 1.42609 27.6927H30.6017C30.7797 27.6944 30.9578 27.6516 31.1202 27.5448C31.4243 27.3609 31.6111 27.0309 31.6115 26.6748C31.6028 26.4909 31.5573 26.297 31.4756 26.1606L16.8802 0.853209C16.8788 0.85099 16.8774 0.848772 16.8758 0.846552C16.8745 0.844379 16.8729 0.842493 16.8715 0.839754C16.8197 0.756746 16.7548 0.683702 16.6805 0.620998C16.5113 0.474201 16.299 0.386045 16.0753 0.370323C16.0502 0.367773 16.0252 0.36631 16.0002 0.366121ZM1.42609 27.6927H1.35418H1.42756H1.42609ZM15.9851 5.3814L27.1143 24.6708H4.8403L15.9851 5.3814Z" fill="#A60F18"/>
<path d="M16.0002 -5.72205e-06C15.6406 -5.72205e-06 15.2811 0.137209 15.0069 0.411821C14.9169 0.501297 14.842 0.600878 14.7815 0.705841L14.0671 1.93145H14.0636L0.219135 25.9289C0.215972 25.9344 0.213564 25.9392 0.211392 25.9431C0.140377 26.0574 0.0848504 26.184 0.0481629 26.3206C-0.152509 27.07 0.292321 27.8404 1.04156 28.0413C1.16531 28.0745 1.28978 28.0896 1.41169 28.0892H30.5953C31.3708 28.0892 32 27.4599 32 26.6841C32 26.4304 31.9321 26.1924 31.8142 25.9866C31.8135 25.9859 31.8131 25.9842 31.812 25.982L17.4409 1.03192C17.2582 0.717079 17.172 0.589828 16.9936 0.411821C16.7194 0.137209 16.3597 -5.72205e-06 16.0004 -5.72205e-06H16.0002ZM16.0002 0.0187874C16.3549 0.0187874 16.7096 0.15416 16.9802 0.424759C17.1574 0.602011 17.2417 0.726662 17.4241 1.04132L31.7954 25.9912C31.7959 25.9929 31.7971 25.9942 31.798 25.9958C31.9142 26.1987 31.9811 26.434 31.9811 26.6841C31.9811 27.4498 31.3607 28.0702 30.5953 28.0702H1.41169C1.29129 28.0708 1.16862 28.0558 1.04633 28.023C0.3071 27.825 -0.131686 27.0649 0.0660109 26.3256C0.102368 26.1902 0.158084 26.065 0.228154 25.9521C0.230751 25.9473 0.232781 25.9429 0.235142 25.9385L14.0747 1.95024H14.0778L14.7977 0.715237C14.8573 0.611406 14.9313 0.513479 15.0201 0.424759C15.2909 0.15416 15.6452 0.0187874 16.0002 0.0187874Z" fill="black"/>
<path d="M16.5683 21.036C16.5683 20.923 16.6056 20.8119 16.6735 20.7214L16.7775 20.5817C16.8513 20.4844 16.913 20.3781 16.9612 20.266L17.6519 18.6778C17.7216 18.5175 17.8788 18.4151 18.0518 18.4151H22.4158C22.5898 18.4151 22.7469 18.5175 22.8166 18.6778L23.5065 20.266C23.5555 20.3781 23.6175 20.4844 23.6901 20.5817L23.7953 20.7214C23.863 20.8119 23.9004 20.923 23.9004 21.036V22.172C23.9004 22.4129 23.7049 22.6086 23.4631 22.6086H17.0045C16.7638 22.6086 16.5683 22.4129 16.5683 22.172V21.036ZM17.3974 20.3368H23.0712L22.4708 18.957C22.4433 18.8932 22.3804 18.8519 22.3107 18.8519H18.1578C18.0881 18.8519 18.0252 18.8932 17.9978 18.957L17.3974 20.3368ZM17.0045 22.7836H18.0518V23.7446C18.0518 23.889 17.9349 24.0061 17.7904 24.0061H17.2668C17.1224 24.0061 17.0045 23.889 17.0045 23.7446V22.7836ZM22.4158 22.7836H23.4631V23.7446C23.4631 23.889 23.3463 24.0061 23.2018 24.0061H22.6781C22.5337 24.0061 22.4158 23.889 22.4158 23.7446V22.7836Z" fill="black"/>
<path d="M13.4992 18.6298C13.4992 18.5334 13.5308 18.439 13.5887 18.3613L13.6782 18.2423C13.7399 18.1588 13.793 18.0693 13.8344 17.9729L14.4227 16.6196C14.4817 16.4839 14.6164 16.3955 14.7638 16.3955H18.4843C18.6326 16.3955 18.7663 16.4839 18.8251 16.6196L19.4137 17.9729C19.456 18.0693 19.5079 18.1588 19.5708 18.2423L19.6151 18.3014H18.052C17.8329 18.3014 17.6355 18.4312 17.5479 18.6319L16.9663 19.9702H13.8716C13.6664 19.9702 13.4992 19.804 13.4992 19.5976V18.6298ZM14.2056 18.0339H19.0422L18.5304 16.8578C18.5068 16.8035 18.4539 16.7681 18.3939 16.7681H14.8541C14.7951 16.7681 14.7411 16.8035 14.7175 16.8578L14.2056 18.0339ZM13.8716 20.1198H14.7638V20.9389C14.7638 21.0619 14.6645 21.1622 14.5406 21.1622H14.0946C13.9709 21.1622 13.8716 21.0619 13.8716 20.9389V20.1198Z" fill="black"/>
<path d="M10.7714 16.4909C10.7714 16.4094 10.7977 16.3297 10.847 16.2639L10.9226 16.1635C10.9757 16.0927 11.0198 16.016 11.0552 15.9354L11.5534 14.7896C11.6034 14.6745 11.7164 14.6007 11.8411 14.6007H14.989C15.1147 14.6007 15.2276 14.6745 15.2778 14.7896L15.776 15.9354C15.8112 16.016 15.8555 16.0927 15.9086 16.1635L15.9842 16.2639L15.996 16.2816H14.764C14.5705 16.2816 14.3956 16.3965 14.3189 16.5736L13.862 17.6258H11.0856C10.9128 17.6258 10.7714 17.4843 10.7714 17.3102V16.4909ZM11.3697 15.9865H15.4615L15.0282 14.9912C15.0087 14.9449 14.9635 14.9154 14.9134 14.9154H11.9178C11.8677 14.9154 11.8225 14.9449 11.8018 14.9912L11.3697 15.9865ZM11.0856 17.7518H11.8411V18.445C11.8411 18.5493 11.7566 18.6339 11.6526 18.6339H11.2753C11.1712 18.6339 11.0856 18.5493 11.0856 18.445V17.7518Z" fill="black"/>
</g>
<defs>
<clipPath id="clip0_194_10643">
<rect width="32" height="28.0893" fill="white"/>
</clipPath>
</defs>
</svg>
