<svg width="32" height="32" viewBox="0 0 32 32" fill="none" xmlns="http://www.w3.org/2000/svg">
<g clip-path="url(#clip0_194_10215)">
<path d="M31.9735 16C31.9735 24.8221 24.8221 31.9735 16 31.9735C7.17796 31.9735 0.0264893 24.8221 0.0264893 16C0.0264893 7.17796 7.17796 0.0264874 16 0.0264874C24.8221 0.0264874 31.9735 7.17796 31.9735 16Z" fill="white"/>
<path d="M16 5.72205e-05C7.16365 5.72205e-05 0 7.16371 0 16.0001C0 24.8365 7.16365 32.0001 16 32.0001C24.8364 32.0001 32.0001 24.8365 32.0001 16.0001C32.0001 7.16371 24.8364 5.72205e-05 16 5.72205e-05ZM16 0.0265465C24.8221 0.0265465 31.9735 7.17802 31.9735 16.0001C31.9735 24.8222 24.8221 31.9736 16 31.9736C7.17796 31.9736 0.0264894 24.8222 0.0264894 16.0001C0.0264894 7.17802 7.17796 0.0265465 16 0.0265465Z" fill="black"/>
<path d="M16 0.559044C7.49769 0.559044 0.558929 7.4978 0.558929 16.0001C0.558929 24.5025 7.49769 31.4412 16 31.4412C24.5024 31.4412 31.441 24.5025 31.441 16.0001C31.441 7.4978 24.5024 0.559044 16 0.559044ZM16 4.84001C22.189 4.84001 27.1601 9.81117 27.1601 16.0001C27.1601 22.1891 22.189 27.1603 16 27.1603C9.81105 27.1603 4.8399 22.1891 4.8399 16.0001C4.8399 9.81117 9.81105 4.84001 16 4.84001Z" fill="#A60F18"/>
<path d="M8.18695 12.5873C7.97404 12.5873 7.78295 12.7131 7.69736 12.9074L6.85396 14.8465C6.79419 14.9828 6.71932 15.1128 6.62987 15.2329L6.50174 15.403C6.41855 15.5142 6.37329 15.6489 6.37329 15.7869V17.1737C6.37329 17.468 6.61196 17.7067 6.90627 17.7067H14.8004C15.0948 17.7067 15.3337 17.468 15.3337 17.1737V15.7869C15.3337 15.6489 15.2884 15.5142 15.2055 15.403L15.0771 15.2329C14.9877 15.1128 14.9127 14.9828 14.853 14.8465L14.0096 12.9074C13.9248 12.7131 13.7322 12.5873 13.52 12.5873H8.18695ZM8.31587 13.1203H13.3911C13.4758 13.1203 13.5533 13.1702 13.5871 13.2485L14.32 14.9337H7.38694L8.11986 13.2485C8.15394 13.1702 8.23034 13.1203 8.31587 13.1203Z" fill="#A60F18"/>
<path d="M13.5201 17.9203H14.8007V19.0936C14.8007 19.2701 14.657 19.4137 14.4804 19.4137H13.8403C13.6636 19.4137 13.5201 19.2701 13.5201 19.0936V17.9203ZM6.90656 17.9203H8.18697V19.0936C8.18697 19.2701 8.04347 19.4137 7.8669 19.4137H7.22656C7.05005 19.4137 6.90656 19.2701 6.90656 19.0936" fill="#A60F18"/>
<path d="M18.48 12.5873C18.2679 12.5873 18.076 12.7131 17.9912 12.9074L17.1471 14.8465C17.0873 14.9828 17.0124 15.1128 16.923 15.2329L16.7946 15.403C16.7116 15.5142 16.6672 15.6489 16.6672 15.7869V17.1737C16.6672 17.468 16.9053 17.7067 17.2004 17.7067H25.0938C25.3881 17.7067 25.6268 17.468 25.6268 17.1737V15.7869C25.6268 15.6489 25.5823 15.5142 25.4983 15.403L25.3709 15.2329C25.2816 15.1128 25.2059 14.9828 25.146 14.8465L24.3027 12.9074C24.2179 12.7131 24.026 12.5873 23.8139 12.5873H18.48ZM18.609 13.1203H23.6849C23.7697 13.1203 23.8461 13.1702 23.8802 13.2485L24.6139 14.9337H17.6801L18.4129 13.2485C18.4478 13.1702 18.5245 13.1203 18.609 13.1203Z" fill="black"/>
<path d="M23.8139 17.9203H25.0935V19.0936C25.0935 19.2701 24.95 19.4137 24.7735 19.4137H24.1334C23.9566 19.4137 23.8139 19.2701 23.8139 19.0936V17.9203ZM17.2004 17.9203H18.48V19.0936C18.48 19.2701 18.3365 19.4137 18.1598 19.4137H17.5204C17.3439 19.4137 17.2004 19.2701 17.2004 19.0936" fill="black"/>
</g>
<defs>
<clipPath id="clip0_194_10215">
<rect width="32" height="32" fill="white"/>
</clipPath>
</defs>
</svg>
