<svg width="32" height="32" viewBox="0 0 32 32" fill="none" xmlns="http://www.w3.org/2000/svg">
<g clip-path="url(#clip0_194_10380)">
<path d="M31.9735 16C31.9735 24.8221 24.8221 31.9735 16 31.9735C7.17796 31.9735 0.0264893 24.8221 0.0264893 16C0.0264893 7.17796 7.17796 0.0264874 16 0.0264874C24.8221 0.0264874 31.9735 7.17796 31.9735 16Z" fill="white"/>
<path d="M16 0.559044C7.4977 0.559044 0.558937 7.4978 0.558937 16.0001C0.558937 24.5025 7.4977 31.4412 16 31.4412C24.5024 31.4412 31.4411 24.5025 31.4411 16.0001C31.4411 7.4978 24.5024 0.559044 16 0.559044ZM16 4.84001C22.189 4.84001 27.1602 9.81117 27.1602 16.0001C27.1602 22.1891 22.189 27.1603 16 27.1603C9.81106 27.1603 4.8399 22.1891 4.8399 16.0001C4.8399 9.81117 9.81106 4.84001 16 4.84001Z" fill="#A60F18"/>
<path d="M1.58617 1.61632V1.61792H1.58464L1.58617 1.61632Z" fill="black"/>
<path d="M1.58464 1.61639H1.58617V1.61792H1.58464V1.61639Z" fill="black"/>
<path d="M1.58464 1.61792V1.61632L1.58617 1.61792H1.58464ZM1.58617 1.61792L1.58464 1.61632V1.61792H1.58617Z" fill="black"/>
<path d="M1.58797 1.61792H1.58464H1.58617V1.61632L1.58797 1.61792Z" fill="black"/>
<path d="M1.58464 1.61639H1.58617V1.61792H1.58464V1.61639Z" fill="black"/>
<path d="M1.58797 1.61638V1.61951H1.58464L1.58797 1.61638Z" fill="black"/>
<path d="M1.58464 1.61638H1.58803V1.61951H1.58464V1.61638Z" fill="black"/>
<path d="M1.58464 1.61951V1.61638L1.58797 1.61951H1.58464ZM1.58797 1.61951L1.58464 1.61638V1.61951H1.58797Z" fill="black"/>
<path d="M1.58797 1.61951H1.58464H1.58617V1.61638L1.58797 1.61951Z" fill="black"/>
<path d="M1.58464 1.61638H1.58803V1.61951H1.58464V1.61638Z" fill="black"/>
<path d="M1.58797 1.61638V1.61951H1.58464L1.58797 1.61638Z" fill="black"/>
<path d="M1.58464 1.61638H1.58803V1.61951H1.58464V1.61638Z" fill="black"/>
<path d="M1.58464 1.61951V1.61638L1.58797 1.61951H1.58464ZM1.58797 1.61951L1.58464 1.61638V1.61951H1.58797Z" fill="black"/>
<path d="M1.58797 1.61951H1.58464H1.58617V1.61638L1.58797 1.61951Z" fill="black"/>
<path d="M1.58464 1.61638H1.58803V1.61951H1.58464V1.61638Z" fill="black"/>
<path d="M1.58797 1.61638V1.61951H1.58464L1.58797 1.61638Z" fill="black"/>
<path d="M1.58464 1.61638H1.58803V1.61951H1.58464V1.61638Z" fill="black"/>
<path d="M1.58464 1.61951V1.61638L1.58797 1.61951H1.58464ZM1.58797 1.61951L1.58464 1.61638V1.61951H1.58797Z" fill="black"/>
<path d="M1.58797 1.61951H1.58464H1.58617V1.61638L1.58797 1.61951Z" fill="black"/>
<path d="M1.58464 1.61638H1.58803V1.61951H1.58464V1.61638Z" fill="black"/>
<path d="M18.3997 18.9166C18.3997 19.948 19.2358 20.7833 20.2664 20.7833C21.297 20.7833 22.1331 19.948 22.1331 18.9166V13.0836C22.1331 12.0522 21.297 11.2169 20.2664 11.2169C19.2358 11.2169 18.3997 12.0522 18.3997 13.0836V18.9166ZM16.533 18.9166V13.0836C16.533 11.0216 18.2047 9.35015 20.2664 9.35015C22.3283 9.35015 23.9998 11.0216 23.9998 13.0836V18.9166C23.9998 20.9785 22.3283 22.65 20.2664 22.65C18.2047 22.65 16.533 20.9785 16.533 18.9166ZM8.93312 22.5333L13.3664 11.3328H9.86697V13.1995H8.00027V9.46616H15.4663V11.2169L11.033 22.5333" fill="black"/>
</g>
<defs>
<clipPath id="clip0_194_10380">
<rect width="32" height="32" fill="white"/>
</clipPath>
</defs>
</svg>
