<svg width="32" height="32" viewBox="0 0 32 32" fill="none" xmlns="http://www.w3.org/2000/svg">
<g clip-path="url(#clip0_194_10475)">
<path d="M31.9736 16.0001C31.9736 24.8222 24.8222 31.9736 16.0001 31.9736C7.17806 31.9736 0.0266113 24.8222 0.0266113 16.0001C0.0266113 7.17806 7.17806 0.0266113 16.0001 0.0266113C24.8222 0.0266113 31.9736 7.17806 31.9736 16.0001Z" fill="white"/>
<path d="M16.0001 0.559082C7.49755 0.559082 0.559082 7.49755 0.559082 16.0001C0.559082 24.5025 7.49755 31.4412 16.0001 31.4412C24.5025 31.4412 31.4412 24.5025 31.4412 16.0001C31.4412 7.49755 24.5025 0.559082 16.0001 0.559082ZM16.0001 4.84005C22.1891 4.84005 27.1602 9.81094 27.1602 16.0001C27.1602 22.1891 22.1891 27.1602 16.0001 27.1602C9.81094 27.1602 4.84005 22.1891 4.84005 16.0001C4.84005 9.81094 9.81094 4.84005 16.0001 4.84005Z" fill="#A60F18"/>
<path d="M1.58627 1.61621V1.61784H1.58456L1.58627 1.61621Z" fill="black"/>
<path d="M1.58456 1.61621H1.5862V1.61784H1.58456V1.61621Z" fill="black"/>
<path d="M1.58456 1.61784V1.61621L1.58627 1.61784H1.58456ZM1.58627 1.61784L1.58456 1.61621V1.61784H1.58627Z" fill="black"/>
<path d="M1.5879 1.61784H1.58456H1.58627V1.61621L1.5879 1.61784Z" fill="black"/>
<path d="M1.58456 1.61621H1.5862V1.61784H1.58456V1.61621Z" fill="black"/>
<path d="M1.5879 1.61621V1.61948H1.58456L1.5879 1.61621Z" fill="black"/>
<path d="M1.58456 1.61621H1.5879V1.61955H1.58456V1.61621Z" fill="black"/>
<path d="M1.58456 1.61948V1.61621L1.5879 1.61948H1.58456ZM1.5879 1.61948L1.58456 1.61621V1.61948H1.5879Z" fill="black"/>
<path d="M1.5879 1.61948H1.58456H1.58627V1.61621L1.5879 1.61948Z" fill="black"/>
<path d="M1.58456 1.61621H1.5879V1.61955H1.58456V1.61621Z" fill="black"/>
<path d="M1.5879 1.61621V1.61948H1.58456L1.5879 1.61621Z" fill="black"/>
<path d="M1.58456 1.61621H1.5879V1.61955H1.58456V1.61621Z" fill="black"/>
<path d="M1.58456 1.61948V1.61621L1.5879 1.61948H1.58456ZM1.5879 1.61948L1.58456 1.61621V1.61948H1.5879Z" fill="black"/>
<path d="M1.5879 1.61948H1.58456H1.58627V1.61621L1.5879 1.61948Z" fill="black"/>
<path d="M1.58456 1.61621H1.5879V1.61955H1.58456V1.61621Z" fill="black"/>
<path d="M1.5879 1.61621V1.61948H1.58456L1.5879 1.61621Z" fill="black"/>
<path d="M1.58456 1.61621H1.5879V1.61955H1.58456V1.61621Z" fill="black"/>
<path d="M1.58456 1.61948V1.61621L1.5879 1.61948H1.58456ZM1.5879 1.61948L1.58456 1.61621V1.61948H1.5879Z" fill="black"/>
<path d="M1.5879 1.61948H1.58456H1.58627V1.61621L1.5879 1.61948Z" fill="black"/>
<path d="M1.58456 1.61621H1.5879V1.61955H1.58456V1.61621Z" fill="black"/>
<path d="M10.7949 16.6343V14.9682H11.4471C12.075 14.9682 12.5711 14.7918 12.9358 14.4391C13.301 14.0858 13.4838 13.6371 13.4838 13.0936C13.4838 12.5561 13.2935 12.1035 12.9135 11.7358C12.5334 11.3675 12.0808 11.1833 11.5558 11.1833C11.157 11.1833 10.7796 11.3162 10.4232 11.5816C10.0675 11.8473 9.83811 12.2455 9.73552 12.7763H7.84313C7.91547 11.8467 8.3048 11.0333 9.01118 10.3359C9.71721 9.63873 10.5411 9.28979 11.4826 9.28979C12.6598 9.28979 13.603 9.67777 14.3124 10.4534C15.0223 11.2294 15.3773 12.0971 15.3773 13.0569C15.3773 13.5644 15.2774 14.0581 15.0778 14.5378C14.8786 15.0178 14.5076 15.4327 13.964 15.7824C14.5193 16.139 14.9175 16.5766 15.1587 17.0958C15.4006 17.6149 15.5215 18.1402 15.5215 18.6709C15.5215 19.9031 15.1349 20.8845 14.3623 21.615C13.5894 22.3448 12.6418 22.7098 11.5192 22.7098C10.6257 22.7098 9.82121 22.4219 9.10546 21.8457C8.39027 21.2689 7.94543 20.428 7.771 19.3232H9.6634C9.83783 19.7758 10.073 20.1396 10.3689 20.4147C10.6645 20.6893 11.0844 20.8262 11.6279 20.8262C12.1529 20.8262 12.6176 20.6407 13.0223 20.2694C13.4266 19.8983 13.6291 19.387 13.6291 18.7353C13.6291 18.0772 13.4282 17.5625 13.0267 17.1911C12.6252 16.8201 12.1465 16.6343 11.5913 16.6343H10.7949Z" fill="black"/>
<path d="M22.3524 18.7297V13.1701C22.3524 12.5416 22.1829 12.0508 21.8443 11.698C21.5063 11.3448 21.0617 11.1679 20.511 11.1679C19.9541 11.1679 19.5076 11.3448 19.1721 11.698C18.8371 12.0508 18.6696 12.5416 18.6696 13.1701V18.7297C18.6696 19.365 18.8371 19.8579 19.1721 20.2084C19.5076 20.5584 19.9541 20.7331 20.511 20.7331C21.0617 20.7331 21.5063 20.5584 21.8443 20.2084C22.1829 19.8579 22.3524 19.365 22.3524 18.7297ZM16.7927 18.8384V13.0625C16.7927 11.8595 17.1699 10.9299 17.9242 10.2738C18.6785 9.61793 19.5406 9.28979 20.511 9.28979C21.4752 9.28979 22.336 9.61793 23.0934 10.2738C23.8504 10.9299 24.2293 11.8595 24.2293 13.0625V18.8384C24.2293 20.0417 23.8504 20.9699 23.0934 21.6227C22.336 22.275 21.4752 22.6011 20.511 22.6011C19.5406 22.6011 18.6785 22.275 17.9242 21.6227C17.1699 20.9699 16.7927 20.0417 16.7927 18.8384Z" fill="black"/>
</g>
<defs>
<clipPath id="clip0_194_10475">
<rect width="32" height="32" fill="white"/>
</clipPath>
</defs>
</svg>
