<svg width="32" height="32" viewBox="0 0 32 32" fill="none" xmlns="http://www.w3.org/2000/svg">
<g clip-path="url(#clip0_194_10411)">
<path d="M31.9735 16C31.9735 24.8221 24.8221 31.9735 16 31.9735C7.17796 31.9735 0.0264893 24.8221 0.0264893 16C0.0264893 7.17796 7.17796 0.0264874 16 0.0264874C24.8221 0.0264874 31.9735 7.17796 31.9735 16Z" fill="white"/>
<path d="M16 0.559044C7.4977 0.559044 0.558945 7.4978 0.558945 16.0001C0.558945 24.5025 7.4977 31.4412 16 31.4412C24.5024 31.4412 31.4411 24.5025 31.4411 16.0001C31.4411 7.4978 24.5024 0.559044 16 0.559044ZM16 4.84001C22.189 4.84001 27.1602 9.81117 27.1602 16.0001C27.1602 22.1891 22.189 27.1603 16 27.1603C9.81107 27.1603 4.83991 22.1891 4.83991 16.0001C4.83991 9.81117 9.81107 4.84001 16 4.84001Z" fill="#A60F18"/>
<path d="M1.58617 1.61632V1.61792H1.58464L1.58617 1.61632Z" fill="black"/>
<path d="M1.58464 1.61639H1.58617V1.61792H1.58464V1.61639Z" fill="black"/>
<path d="M1.58464 1.61792V1.61632L1.58617 1.61792H1.58464ZM1.58617 1.61792L1.58464 1.61632V1.61792H1.58617Z" fill="black"/>
<path d="M1.58797 1.61792H1.58464H1.58617V1.61632L1.58797 1.61792Z" fill="black"/>
<path d="M1.58464 1.61639H1.58617V1.61792H1.58464V1.61639Z" fill="black"/>
<path d="M1.58797 1.61638V1.61951H1.58464L1.58797 1.61638Z" fill="black"/>
<path d="M1.58464 1.61638H1.58803V1.61951H1.58464V1.61638Z" fill="black"/>
<path d="M1.58464 1.61951V1.61638L1.58797 1.61951H1.58464ZM1.58797 1.61951L1.58464 1.61638V1.61951H1.58797Z" fill="black"/>
<path d="M1.58797 1.61951H1.58464H1.58617V1.61638L1.58797 1.61951Z" fill="black"/>
<path d="M1.58464 1.61638H1.58803V1.61951H1.58464V1.61638Z" fill="black"/>
<path d="M1.58797 1.61638V1.61951H1.58464L1.58797 1.61638Z" fill="black"/>
<path d="M1.58464 1.61638H1.58803V1.61951H1.58464V1.61638Z" fill="black"/>
<path d="M1.58464 1.61951V1.61638L1.58797 1.61951H1.58464ZM1.58797 1.61951L1.58464 1.61638V1.61951H1.58797Z" fill="black"/>
<path d="M1.58797 1.61951H1.58464H1.58617V1.61638L1.58797 1.61951Z" fill="black"/>
<path d="M1.58464 1.61638H1.58803V1.61951H1.58464V1.61638Z" fill="black"/>
<path d="M1.58797 1.61638V1.61951H1.58464L1.58797 1.61638Z" fill="black"/>
<path d="M1.58464 1.61638H1.58803V1.61951H1.58464V1.61638Z" fill="black"/>
<path d="M1.58464 1.61951V1.61638L1.58797 1.61951H1.58464ZM1.58797 1.61951L1.58464 1.61638V1.61951H1.58797Z" fill="black"/>
<path d="M1.58797 1.61951H1.58464H1.58617V1.61638L1.58797 1.61951Z" fill="black"/>
<path d="M1.58464 1.61638H1.58803V1.61951H1.58464V1.61638Z" fill="black"/>
<path d="M8.21818 16.4863C7.88173 17.1592 7.71355 17.9009 7.71355 18.711C7.71355 19.3217 7.81312 19.8763 8.01252 20.3749C8.22437 20.8733 8.5049 21.3033 8.85379 21.665C9.21546 22.0263 9.61426 22.3007 10.0505 22.4876C10.4993 22.6745 10.954 22.7678 11.4152 22.7678C11.9388 22.7678 12.4309 22.687 12.8922 22.5248C13.3534 22.3628 13.7709 22.1072 14.1447 21.7583C14.5187 21.4094 14.8116 20.9669 15.0236 20.4311C15.2354 19.8825 15.3412 19.2406 15.3412 18.5054C15.3412 17.284 15.036 16.3615 14.4253 15.7383C13.8268 15.1152 13.0729 14.8037 12.1629 14.8037C11.7765 14.8037 11.4402 14.8596 11.1534 14.9719H11.1162L13.9204 9.34448H11.7891L8.21818 16.4863ZM11.5275 16.4863C12.0883 16.4863 12.5433 16.6733 12.8922 17.0471C13.2536 17.421 13.4343 17.9631 13.4343 18.6735C13.4343 19.4088 13.241 19.9573 12.8548 20.3188C12.4808 20.6802 12.0384 20.8609 11.5275 20.8609C10.929 20.8609 10.4619 20.6802 10.1251 20.3188C9.78871 19.9449 9.62052 19.3966 9.62052 18.6735C9.62052 17.9631 9.79496 17.421 10.1439 17.0471C10.5053 16.6733 10.9665 16.4863 11.5275 16.4863Z" fill="black"/>
<path d="M22.3795 18.8231C22.3795 19.4587 22.2114 19.9574 21.8747 20.3188C21.5382 20.6802 21.0832 20.8609 20.51 20.8609C19.9367 20.8609 19.4818 20.6802 19.1453 20.3188C18.8087 19.9574 18.6404 19.4587 18.6404 18.8231V13.1769C18.6404 12.5416 18.8087 12.0429 19.1453 11.6815C19.4818 11.3199 19.9367 11.1392 20.51 11.1392C21.0832 11.1392 21.5382 11.3199 21.8747 11.6815C22.2114 12.0429 22.3795 12.5416 22.3795 13.1769V18.8231ZM16.7334 18.9354C16.7334 19.5336 16.8333 20.0694 17.0327 20.5431C17.2446 21.0168 17.5249 21.4219 17.874 21.7583C18.2354 22.095 18.6404 22.3503 19.0892 22.5248C19.5379 22.687 20.0113 22.7678 20.51 22.7678C21.0086 22.7678 21.4821 22.687 21.9308 22.5248C22.3921 22.3503 22.7971 22.1012 23.146 21.777C23.4952 21.4406 23.7692 21.0356 23.9686 20.5619C24.1805 20.0757 24.2865 19.5336 24.2865 18.9354V13.0649C24.2865 12.4667 24.1867 11.9306 23.9873 11.4572C23.7879 10.9834 23.5076 10.5784 23.146 10.242C22.7846 9.90529 22.3795 9.65597 21.9308 9.49404C21.4821 9.31952 21.0086 9.2322 20.51 9.2322C20.0113 9.2322 19.5317 9.31952 19.0704 9.49404C18.6217 9.65597 18.2229 9.90529 17.874 10.242C17.5249 10.5659 17.2446 10.971 17.0327 11.4572C16.8333 11.9306 16.7334 12.4667 16.7334 13.0649V18.9354Z" fill="black"/>
</g>
<defs>
<clipPath id="clip0_194_10411">
<rect width="32" height="32" fill="white"/>
</clipPath>
</defs>
</svg>
