<svg width="32" height="32" viewBox="0 0 32 32" fill="none" xmlns="http://www.w3.org/2000/svg">
<g clip-path="url(#clip0_194_10704)">
<path d="M31.9735 16C31.9735 24.8221 24.8221 31.9735 16 31.9735C7.17796 31.9735 0.0264893 24.8221 0.0264893 16C0.0264893 7.17796 7.17796 0.0264874 16 0.0264874C24.8221 0.0264874 31.9735 7.17796 31.9735 16Z" fill="#666675"/>
<path d="M16 5.72205e-05C7.16365 5.72205e-05 0 7.16371 0 16.0001C0 24.8365 7.16365 32.0001 16 32.0001C24.8364 32.0001 32.0001 24.8365 32.0001 16.0001C32.0001 7.16371 24.8364 5.72205e-05 16 5.72205e-05ZM16 0.0265465C24.8221 0.0265465 31.9735 7.17802 31.9735 16.0001C31.9735 24.8222 24.8221 31.9736 16 31.9736C7.17796 31.9736 0.0264894 24.8222 0.0264894 16.0001C0.0264894 7.17802 7.17796 0.0265465 16 0.0265465Z" fill="black"/>
<path fill-rule="evenodd" clip-rule="evenodd" d="M0.559113 16.0001C0.559113 24.5278 7.47229 31.441 16 31.441C24.5278 31.441 31.441 24.5279 31.441 16.0001C31.441 7.47238 24.5278 0.559196 16 0.559196C7.4723 0.559196 0.559113 7.47239 0.559113 16.0001ZM16 27.1603C9.83647 27.1603 4.8398 22.1637 4.8398 16.0001C4.8398 9.83655 9.83646 4.83989 16 4.83989C22.1636 4.83989 27.1603 9.83655 27.1603 16.0001C27.1603 22.1637 22.1636 27.1603 16 27.1603Z" fill="#37374D"/>
<path d="M1.58617 1.61632V1.61792H1.58464L1.58617 1.61632Z" fill="black"/>
<path d="M1.58464 1.61639H1.58617V1.61792H1.58464V1.61639Z" fill="black"/>
<path d="M1.58464 1.61792V1.61632L1.58617 1.61792H1.58464ZM1.58617 1.61792L1.58464 1.61632V1.61792H1.58617Z" fill="black"/>
<path d="M1.58797 1.61792H1.58464H1.58617V1.61632L1.58797 1.61792Z" fill="black"/>
<path d="M1.58464 1.61639H1.58617V1.61792H1.58464V1.61639Z" fill="black"/>
<path d="M1.58797 1.61638V1.61951H1.58464L1.58797 1.61638Z" fill="black"/>
<path d="M1.58464 1.61638H1.58803V1.61951H1.58464V1.61638Z" fill="black"/>
<path d="M1.58464 1.61951V1.61638L1.58797 1.61951H1.58464ZM1.58797 1.61951L1.58464 1.61638V1.61951H1.58797Z" fill="black"/>
<path d="M1.58797 1.61951H1.58464H1.58617V1.61638L1.58797 1.61951Z" fill="black"/>
<path d="M1.58464 1.61638H1.58803V1.61951H1.58464V1.61638Z" fill="black"/>
<path d="M1.58797 1.61638V1.61951H1.58464L1.58797 1.61638Z" fill="black"/>
<path d="M1.58464 1.61638H1.58803V1.61951H1.58464V1.61638Z" fill="black"/>
<path d="M1.58464 1.61951V1.61638L1.58797 1.61951H1.58464ZM1.58797 1.61951L1.58464 1.61638V1.61951H1.58797Z" fill="black"/>
<path d="M1.58797 1.61951H1.58464H1.58617V1.61638L1.58797 1.61951Z" fill="black"/>
<path d="M1.58464 1.61638H1.58803V1.61951H1.58464V1.61638Z" fill="black"/>
<path d="M1.58797 1.61638V1.61951H1.58464L1.58797 1.61638Z" fill="black"/>
<path d="M1.58464 1.61638H1.58803V1.61951H1.58464V1.61638Z" fill="black"/>
<path d="M1.58464 1.61951V1.61638L1.58797 1.61951H1.58464ZM1.58797 1.61951L1.58464 1.61638V1.61951H1.58797Z" fill="black"/>
<path d="M1.58797 1.61951H1.58464H1.58617V1.61638L1.58797 1.61951Z" fill="black"/>
<path d="M1.58464 1.61638H1.58803V1.61951H1.58464V1.61638Z" fill="black"/>
</g>
<defs>
<clipPath id="clip0_194_10704">
<rect width="32" height="32" fill="white"/>
</clipPath>
</defs>
</svg>
