<svg width="32" height="32" viewBox="0 0 32 32" fill="none" xmlns="http://www.w3.org/2000/svg">
<g clip-path="url(#clip0_194_10443)">
<path d="M31.9735 16C31.9735 24.8221 24.8221 31.9735 16 31.9735C7.17796 31.9735 0.0264893 24.8221 0.0264893 16C0.0264893 7.17796 7.17796 0.0264874 16 0.0264874C24.8221 0.0264874 31.9735 7.17796 31.9735 16Z" fill="white"/>
<path d="M16 0.559044C7.4977 0.559044 0.558945 7.4978 0.558945 16.0001C0.558945 24.5025 7.4977 31.4412 16 31.4412C24.5024 31.4412 31.4411 24.5025 31.4411 16.0001C31.4411 7.4978 24.5024 0.559044 16 0.559044ZM16 4.84001C22.189 4.84001 27.1602 9.81117 27.1602 16.0001C27.1602 22.1891 22.189 27.1603 16 27.1603C9.81107 27.1603 4.83991 22.1891 4.83991 16.0001C4.83991 9.81117 9.81107 4.84001 16 4.84001Z" fill="#A60F18"/>
<path d="M1.58617 1.61632V1.61792H1.58464L1.58617 1.61632Z" fill="black"/>
<path d="M1.58464 1.61639H1.58617V1.61792H1.58464V1.61639Z" fill="black"/>
<path d="M1.58464 1.61792V1.61632L1.58617 1.61792H1.58464ZM1.58617 1.61792L1.58464 1.61632V1.61792H1.58617Z" fill="black"/>
<path d="M1.58797 1.61792H1.58464H1.58617V1.61632L1.58797 1.61792Z" fill="black"/>
<path d="M1.58464 1.61639H1.58617V1.61792H1.58464V1.61639Z" fill="black"/>
<path d="M1.58797 1.61638V1.61951H1.58464L1.58797 1.61638Z" fill="black"/>
<path d="M1.58464 1.61638H1.58803V1.61951H1.58464V1.61638Z" fill="black"/>
<path d="M1.58464 1.61951V1.61638L1.58797 1.61951H1.58464ZM1.58797 1.61951L1.58464 1.61638V1.61951H1.58797Z" fill="black"/>
<path d="M1.58797 1.61951H1.58464H1.58617V1.61638L1.58797 1.61951Z" fill="black"/>
<path d="M1.58464 1.61638H1.58803V1.61951H1.58464V1.61638Z" fill="black"/>
<path d="M1.58797 1.61638V1.61951H1.58464L1.58797 1.61638Z" fill="black"/>
<path d="M1.58464 1.61638H1.58803V1.61951H1.58464V1.61638Z" fill="black"/>
<path d="M1.58464 1.61951V1.61638L1.58797 1.61951H1.58464ZM1.58797 1.61951L1.58464 1.61638V1.61951H1.58797Z" fill="black"/>
<path d="M1.58797 1.61951H1.58464H1.58617V1.61638L1.58797 1.61951Z" fill="black"/>
<path d="M1.58464 1.61638H1.58803V1.61951H1.58464V1.61638Z" fill="black"/>
<path d="M1.58797 1.61638V1.61951H1.58464L1.58797 1.61638Z" fill="black"/>
<path d="M1.58464 1.61638H1.58803V1.61951H1.58464V1.61638Z" fill="black"/>
<path d="M1.58464 1.61951V1.61638L1.58797 1.61951H1.58464ZM1.58797 1.61951L1.58464 1.61638V1.61951H1.58797Z" fill="black"/>
<path d="M1.58797 1.61951H1.58464H1.58617V1.61638L1.58797 1.61951Z" fill="black"/>
<path d="M1.58464 1.61638H1.58803V1.61951H1.58464V1.61638Z" fill="black"/>
<path d="M7.96598 16.5422H9.76061C9.98497 16.1559 10.2344 15.8753 10.5084 15.7009C10.7826 15.5264 11.1068 15.4394 11.4807 15.4394C12.2159 15.4394 12.7208 15.6637 12.9948 16.1122C13.2691 16.5485 13.4064 17.1779 13.4064 18.0005C13.4064 18.4367 13.3939 18.8043 13.369 19.1036C13.344 19.3904 13.2691 19.6706 13.1446 19.9449C13.0323 20.2192 12.8454 20.4433 12.5835 20.618C12.322 20.78 11.9729 20.8609 11.5369 20.8609C11.0133 20.8609 10.5894 20.7238 10.2655 20.4495C9.94131 20.1755 9.72946 19.7954 9.62989 19.3092H7.72285C7.78528 19.9074 7.94103 20.4311 8.19035 20.8796C8.4394 21.3158 8.74489 21.6774 9.10623 21.964C9.46763 22.2382 9.86044 22.4439 10.2843 22.5809C10.7202 22.7057 11.1627 22.7678 11.6115 22.7678C12.2222 22.7678 12.777 22.6308 13.2754 22.3565C13.774 22.0825 14.1791 21.7459 14.4906 21.347C14.7898 20.9607 15.0017 20.5431 15.1262 20.0944C15.251 19.6457 15.3131 18.9975 15.3131 18.1502C15.3131 17.1033 15.2385 16.3428 15.0888 15.8694C14.9393 15.3832 14.665 14.9282 14.2662 14.5045C14.0046 14.2177 13.6617 13.9873 13.2379 13.8126C12.8141 13.6257 12.3657 13.5323 11.892 13.5323C11.0819 13.5323 10.3713 13.7755 9.76061 14.2613V11.2515H15.0516V9.34448H7.96598V16.5422Z" fill="black"/>
<path d="M22.3702 18.8231C22.3702 19.4587 22.202 19.9574 21.8655 20.3188C21.5289 20.6802 21.0739 20.8609 20.5007 20.8609C19.9273 20.8609 19.4724 20.6802 19.136 20.3188C18.7993 19.9574 18.6311 19.4587 18.6311 18.8231V13.1769C18.6311 12.5416 18.7993 12.0429 19.136 11.6815C19.4724 11.3199 19.9273 11.1392 20.5007 11.1392C21.0739 11.1392 21.5289 11.3199 21.8655 11.6815C22.202 12.0429 22.3702 12.5416 22.3702 13.1769V18.8231ZM16.7241 18.9354C16.7241 19.5336 16.8239 20.0694 17.0233 20.5431C17.2352 21.0168 17.5155 21.4219 17.8646 21.7583C18.226 22.095 18.6311 22.3503 19.0798 22.5248C19.5285 22.687 20.002 22.7678 20.5007 22.7678C20.9993 22.7678 21.4727 22.687 21.9214 22.5248C22.3827 22.3503 22.7877 22.1012 23.1366 21.777C23.4858 21.4406 23.7598 21.0356 23.9592 20.5619C24.1711 20.0757 24.2772 19.5336 24.2772 18.9354V13.0649C24.2772 12.4667 24.1774 11.9306 23.978 11.4572C23.7786 10.9834 23.4983 10.5784 23.1366 10.242C22.7752 9.90529 22.3702 9.65597 21.9214 9.49404C21.4727 9.31952 20.9993 9.2322 20.5007 9.2322C20.002 9.2322 19.5223 9.31952 19.0611 9.49404C18.6123 9.65597 18.2135 9.90529 17.8646 10.242C17.5155 10.5659 17.2352 10.971 17.0233 11.4572C16.8239 11.9306 16.7241 12.4667 16.7241 13.0649V18.9354Z" fill="black"/>
</g>
<defs>
<clipPath id="clip0_194_10443">
<rect width="32" height="32" fill="white"/>
</clipPath>
</defs>
</svg>
