<svg width="32" height="32" viewBox="0 0 32 32" fill="none" xmlns="http://www.w3.org/2000/svg">
<g clip-path="url(#clip0_194_10348)">
<path d="M31.9736 16.0001C31.9736 24.8222 24.8222 31.9736 16.0001 31.9736C7.17807 31.9736 0.0266228 24.8222 0.0266228 16.0001C0.0266228 7.17806 7.17807 0.0266113 16.0001 0.0266113C24.8222 0.0266113 31.9736 7.17806 31.9736 16.0001Z" fill="white"/>
<path d="M16.0001 0.559082C7.49754 0.559082 0.559074 7.49755 0.559074 16.0001C0.559074 24.5025 7.49754 31.4412 16.0001 31.4412C24.5024 31.4412 31.4412 24.5025 31.4412 16.0001C31.4412 7.49755 24.5024 0.559082 16.0001 0.559082ZM16.0001 4.84005C22.1891 4.84005 27.1602 9.81094 27.1602 16.0001C27.1602 22.1891 22.1891 27.1602 16.0001 27.1602C9.81093 27.1602 4.84005 22.1891 4.84005 16.0001C4.84005 9.81094 9.81093 4.84005 16.0001 4.84005Z" fill="#A60F18"/>
<path d="M1.58628 1.61621V1.61784H1.58457L1.58628 1.61621Z" fill="black"/>
<path d="M1.58457 1.61621H1.5862V1.61784H1.58457V1.61621Z" fill="black"/>
<path d="M1.58457 1.61784V1.61621L1.58628 1.61784H1.58457ZM1.58628 1.61784L1.58457 1.61621V1.61784H1.58628Z" fill="black"/>
<path d="M1.58791 1.61784H1.58457H1.58628V1.61621L1.58791 1.61784Z" fill="black"/>
<path d="M1.58457 1.61621H1.5862V1.61784H1.58457V1.61621Z" fill="black"/>
<path d="M1.58791 1.61621V1.61948H1.58457L1.58791 1.61621Z" fill="black"/>
<path d="M1.58457 1.61621H1.58791V1.61955H1.58457V1.61621Z" fill="black"/>
<path d="M1.58457 1.61948V1.61621L1.58791 1.61948H1.58457ZM1.58791 1.61948L1.58457 1.61621V1.61948H1.58791Z" fill="black"/>
<path d="M1.58791 1.61948H1.58457H1.58628V1.61621L1.58791 1.61948Z" fill="black"/>
<path d="M1.58457 1.61621H1.58791V1.61955H1.58457V1.61621Z" fill="black"/>
<path d="M1.58791 1.61621V1.61948H1.58457L1.58791 1.61621Z" fill="black"/>
<path d="M1.58457 1.61621H1.58791V1.61955H1.58457V1.61621Z" fill="black"/>
<path d="M1.58457 1.61948V1.61621L1.58791 1.61948H1.58457ZM1.58791 1.61948L1.58457 1.61621V1.61948H1.58791Z" fill="black"/>
<path d="M1.58791 1.61948H1.58457H1.58628V1.61621L1.58791 1.61948Z" fill="black"/>
<path d="M1.58457 1.61621H1.58791V1.61955H1.58457V1.61621Z" fill="black"/>
<path d="M1.58791 1.61621V1.61948H1.58457L1.58791 1.61621Z" fill="black"/>
<path d="M1.58457 1.61621H1.58791V1.61955H1.58457V1.61621Z" fill="black"/>
<path d="M1.58457 1.61948V1.61621L1.58791 1.61948H1.58457ZM1.58791 1.61948L1.58457 1.61621V1.61948H1.58791Z" fill="black"/>
<path d="M1.58791 1.61948H1.58457H1.58628V1.61621L1.58791 1.61948Z" fill="black"/>
<path d="M1.58457 1.61621H1.58791V1.61955H1.58457V1.61621Z" fill="black"/>
<path d="M9.90443 13.0989C9.90443 13.7156 10.0974 14.1826 10.4835 14.4999C10.8694 14.8172 11.3021 14.9758 11.7813 14.9758C12.2605 14.9758 12.6931 14.8172 13.0791 14.4999C13.4652 14.1826 13.6582 13.7156 13.6582 13.0989C13.6582 12.4882 13.4652 12.0226 13.0791 11.7023C12.6931 11.3823 12.2605 11.222 11.7813 11.222C11.3021 11.222 10.8694 11.3823 10.4835 11.7023C10.0974 12.0226 9.90443 12.4882 9.90443 13.0989ZM7.79344 18.7307C7.79344 17.455 8.30814 16.473 9.33755 15.7844C8.9485 15.4369 8.63265 15.0523 8.39028 14.6308C8.14763 14.2087 8.02644 13.7098 8.02644 13.1344C8.02644 12.0806 8.38723 11.1854 9.10909 10.4489C9.83067 9.71231 10.7214 9.34399 11.7813 9.34399C12.8409 9.34399 13.7317 9.71231 14.4535 10.4489C15.1751 11.1854 15.5362 12.0806 15.5362 13.1344C15.5362 13.7098 15.4133 14.2087 15.1679 14.6308C14.9222 15.0523 14.6105 15.4369 14.2328 15.7844C15.2569 16.4788 15.7691 17.4611 15.7691 18.7307C15.7691 19.8926 15.3753 20.8372 14.5877 21.5649C13.8002 22.292 12.8645 22.6553 11.7813 22.6553C10.6912 22.6553 9.75385 22.292 8.9693 21.5649C8.18532 20.8372 7.79344 19.8926 7.79344 18.7307ZM9.67036 18.7129C9.67036 19.3114 9.88143 19.8066 10.3038 20.1993C10.7258 20.5915 11.2184 20.7873 11.7813 20.7873C12.3382 20.7873 12.8306 20.5915 13.2589 20.1993C13.687 19.8066 13.9011 19.3114 13.9011 18.7129C13.9011 18.1139 13.687 17.6169 13.2589 17.2221C12.8306 16.8266 12.3382 16.6286 11.7813 16.6286C11.2184 16.6286 10.7258 16.8266 10.3038 17.2221C9.88143 17.6169 9.67036 18.1139 9.67036 18.7129Z" fill="black"/>
<path d="M22.3296 18.7839V13.2242C22.3296 12.5958 22.1602 12.105 21.8216 11.7522C21.4835 11.3989 21.039 11.222 20.4883 11.222C19.9314 11.222 19.4849 11.3989 19.1493 11.7522C18.8144 12.105 18.6468 12.5958 18.6468 13.2242V18.7839C18.6468 19.4192 18.8144 19.9121 19.1493 20.2626C19.4849 20.6126 19.9314 20.7873 20.4883 20.7873C21.039 20.7873 21.4835 20.6126 21.8216 20.2626C22.1602 19.9121 22.3296 19.4192 22.3296 18.7839ZM16.77 18.8926V13.1167C16.77 11.9136 17.1471 10.9841 17.9014 10.328C18.6557 9.67205 19.5179 9.34399 20.4883 9.34399C21.4525 9.34399 22.3133 9.67205 23.0707 10.328C23.8277 10.9841 24.2065 11.9136 24.2065 13.1167V18.8926C24.2065 20.0959 23.8277 21.0241 23.0707 21.6769C22.3133 22.3291 21.4525 22.6553 20.4883 22.6553C19.5179 22.6553 18.6557 22.3291 17.9014 21.6769C17.1471 21.0241 16.77 20.0959 16.77 18.8926Z" fill="black"/>
</g>
<defs>
<clipPath id="clip0_194_10348">
<rect width="32" height="32" fill="white"/>
</clipPath>
</defs>
</svg>
