<svg width="32" height="32" viewBox="0 0 32 32" fill="none" xmlns="http://www.w3.org/2000/svg">
<g clip-path="url(#clip0_194_10315)">
<path d="M31.9736 16.0001C31.9736 24.8221 24.8222 31.9736 16.0001 31.9736C7.17807 31.9736 0.0266228 24.8221 0.0266228 16.0001C0.0266228 7.17806 7.17807 0.0266132 16.0001 0.0266132C24.8222 0.0266132 31.9736 7.17806 31.9736 16.0001Z" fill="white"/>
<path d="M16.0001 0.559042C7.49754 0.559042 0.559072 7.49751 0.559072 16.0001C0.559072 24.5023 7.49754 31.4412 16.0001 31.4412C24.5024 31.4412 31.4412 24.5023 31.4412 16.0001C31.4412 7.49751 24.5024 0.559042 16.0001 0.559042ZM16.0001 4.84001C22.1891 4.84001 27.1602 9.8109 27.1602 16.0001C27.1602 22.189 22.1891 27.1602 16.0001 27.1602C9.81093 27.1602 4.84004 22.189 4.84004 16.0001C4.84004 9.8109 9.81093 4.84001 16.0001 4.84001Z" fill="#A60F18"/>
<path d="M1.58628 1.61622V1.61792H1.58457L1.58628 1.61622Z" fill="black"/>
<path d="M1.58457 1.61617H1.5862V1.6178H1.58457V1.61617Z" fill="black"/>
<path d="M1.58457 1.61792V1.61622L1.58628 1.61792H1.58457ZM1.58628 1.61792L1.58457 1.61622V1.61792H1.58628Z" fill="black"/>
<path d="M1.58791 1.61792H1.58457H1.58628V1.61622L1.58791 1.61792Z" fill="black"/>
<path d="M1.58457 1.61617H1.5862V1.6178H1.58457V1.61617Z" fill="black"/>
<path d="M1.58791 1.61617V1.61951H1.58457L1.58791 1.61617Z" fill="black"/>
<path d="M1.58457 1.61617H1.58791V1.61951H1.58457V1.61617Z" fill="black"/>
<path d="M1.58457 1.61951V1.61617L1.58791 1.61951H1.58457ZM1.58791 1.61951L1.58457 1.61617V1.61951H1.58791Z" fill="black"/>
<path d="M1.58791 1.61951H1.58457H1.58628V1.61617L1.58791 1.61951Z" fill="black"/>
<path d="M1.58457 1.61617H1.58791V1.61951H1.58457V1.61617Z" fill="black"/>
<path d="M1.58791 1.61617V1.61951H1.58457L1.58791 1.61617Z" fill="black"/>
<path d="M1.58457 1.61617H1.58791V1.61951H1.58457V1.61617Z" fill="black"/>
<path d="M1.58457 1.61951V1.61617L1.58791 1.61951H1.58457ZM1.58791 1.61951L1.58457 1.61617V1.61951H1.58791Z" fill="black"/>
<path d="M1.58791 1.61951H1.58457H1.58628V1.61617L1.58791 1.61951Z" fill="black"/>
<path d="M1.58457 1.61617H1.58791V1.61951H1.58457V1.61617Z" fill="black"/>
<path d="M1.58791 1.61617V1.61951H1.58457L1.58791 1.61617Z" fill="black"/>
<path d="M1.58457 1.61617H1.58791V1.61951H1.58457V1.61617Z" fill="black"/>
<path d="M1.58457 1.61951V1.61617L1.58791 1.61951H1.58457ZM1.58791 1.61951L1.58457 1.61617V1.61951H1.58791Z" fill="black"/>
<path d="M1.58791 1.61951H1.58457H1.58628V1.61617L1.58791 1.61951Z" fill="black"/>
<path d="M1.58457 1.61617H1.58791V1.61951H1.58457V1.61617Z" fill="black"/>
<path d="M9.01836 11.4405L7.14314 12.8193V10.8337L9.01836 9.45487H10.8936V22.5454H9.01836V11.4405Z" fill="black"/>
<path d="M12.2863 12.1576C12.2863 11.7161 12.3598 11.324 12.5068 10.981C12.6662 10.6376 12.8745 10.3434 13.1319 10.0982C13.3895 9.8531 13.6834 9.66923 14.0145 9.54662C14.3576 9.41188 14.7131 9.3445 15.0808 9.3445C15.4485 9.3445 15.7979 9.41188 16.1288 9.54662C16.4721 9.66923 16.7725 9.8531 17.0298 10.0982C17.2872 10.3434 17.4894 10.6376 17.6366 10.981C17.7958 11.324 17.8754 11.7161 17.8754 12.1576V19.8426C17.8754 20.2842 17.7958 20.6763 17.6366 21.0193C17.4894 21.3626 17.2872 21.6568 17.0298 21.902C16.7725 22.1472 16.4721 22.3371 16.1288 22.4719C15.7979 22.5944 15.4485 22.6558 15.0808 22.6558C14.7131 22.6558 14.3576 22.5944 14.0145 22.4719C13.6834 22.3371 13.3895 22.1472 13.1319 21.902C12.8745 21.6568 12.6662 21.3626 12.5068 21.0193C12.3598 20.6763 12.2863 20.2842 12.2863 19.8426V12.1576ZM14.1615 19.8426C14.1615 20.1125 14.2475 20.339 14.4189 20.5229C14.5906 20.6946 14.8113 20.7805 15.0808 20.7805C15.3504 20.7805 15.5711 20.6946 15.7428 20.5229C15.9144 20.339 16.0001 20.1125 16.0001 19.8426V12.1576C16.0001 11.8878 15.9144 11.6673 15.7428 11.4957C15.5711 11.3118 15.3504 11.2197 15.0808 11.2197C14.8113 11.2197 14.5906 11.3118 14.4189 11.4957C14.2475 11.6673 14.1615 11.8878 14.1615 12.1576V19.8426Z" fill="black"/>
<path d="M19.268 12.1576C19.268 11.7161 19.3415 11.324 19.4885 10.981C19.648 10.6376 19.8562 10.3434 20.1136 10.0982C20.3712 9.8531 20.6652 9.66923 20.9963 9.54662C21.3393 9.41188 21.6949 9.3445 22.0626 9.3445C22.4303 9.3445 22.7797 9.41188 23.1105 9.54662C23.4539 9.66923 23.7542 9.8531 24.0116 10.0982C24.2689 10.3434 24.4711 10.6376 24.6184 10.981C24.7775 11.324 24.8571 11.7161 24.8571 12.1576V19.8426C24.8571 20.2842 24.7775 20.6763 24.6184 21.0193C24.4711 21.3626 24.2689 21.6568 24.0116 21.902C23.7542 22.1472 23.4539 22.3371 23.1105 22.4719C22.7797 22.5944 22.4303 22.6558 22.0626 22.6558C21.6949 22.6558 21.3393 22.5944 20.9963 22.4719C20.6652 22.3371 20.3712 22.1472 20.1136 21.902C19.8562 21.6568 19.648 21.3626 19.4885 21.0193C19.3415 20.6763 19.268 20.2842 19.268 19.8426V12.1576ZM21.1432 19.8426C21.1432 20.1125 21.2292 20.339 21.4006 20.5229C21.5723 20.6946 21.793 20.7805 22.0626 20.7805C22.3321 20.7805 22.5529 20.6946 22.7246 20.5229C22.8962 20.339 22.9819 20.1125 22.9819 19.8426V12.1576C22.9819 11.8878 22.8962 11.6673 22.7246 11.4957C22.5529 11.3118 22.3321 11.2197 22.0626 11.2197C21.793 11.2197 21.5723 11.3118 21.4006 11.4957C21.2292 11.6673 21.1432 11.8878 21.1432 12.1576V19.8426Z" fill="black"/>
</g>
<defs>
<clipPath id="clip0_194_10315">
<rect width="32" height="32" fill="white"/>
</clipPath>
</defs>
</svg>
