<?xml version="1.0" encoding="UTF-8" standalone="no"?>
<svg width="512" height="512" viewBox="0 0 512 512" version="1.1" id="svg1">
  <defs id="defs1"/>
  <path id="path1" fill="#007993" style="display:inline" d="M 47.084953,3.125e-5 16.915031,30.169953 73.141594,86.396516 C 22.862705,135.45194 9.6875e-4,196.418 9.6875e-4,196.418 c 0,0 63.99885025,170.66602 213.33203125,170.66602 42.39547,0 77.91284,-13.75451 107.04102,-33.45508 l 59.20703,59.20703 30.16992,-30.16992 -55.48047,-55.47852 -4.46875,4.46875 L 82.487297,44.341828 86.958,39.873078 Z M 147.64159,160.89652 l 33.74024,33.74023 c -0.0324,0.58969 -0.0488,1.18347 -0.0488,1.78125 0,17.67309 14.32691,32 32,32 0.59744,0 1.19189,-0.0165 1.78125,-0.0488 l 33.74023,33.74024 c -10.56359,5.72419 -22.66263,8.97461 -35.52148,8.97461 -41.23722,0 -74.66602,-33.4288 -74.66602,-74.66602 0,-12.85885 3.25042,-24.95789 8.97461,-35.52148 z" transform="translate(42.667,59.582)"/>
  <path id="path1-7" fill="#007993" d="m 89.751953,59.582031 -30.169922,30.169922 39.119141,39.119137 2.974608,-2.97461 283.56055,283.56055 -2.97461,2.97461 39.98633,39.98633 30.16992,-30.16992 -138.65625,-138.6543 C 317.76029,275.23863 320,265.88074 320,256 c 0,-35.34588 -28.65413,-64 -64,-64 -9.88035,0 -19.23694,2.23805 -27.5918,6.23633 z M 256,85.333984 c -24.89569,0 -47.42068,4.743318 -67.67188,12.648438 l 34.04102,34.048828 C 232.95454,129.44022 244.1625,128 256,128 c 94.26166,0 148.59637,91.30358 166.62109,127.99219 -5.81161,11.82896 -15.372,29.28751 -28.80273,47.53125 l 30.56055,30.5664 C 455.09474,293.96938 469.33398,256 469.33398,256 469.33398,256 405.33318,85.333984 256,85.333984 Z" style="display:inline"/>
</svg>
