<?xml version="1.0" encoding="UTF-8" standalone="no"?>
<svg width="512px" height="512px" viewBox="0 0 512 512" version="1.1" id="svg1">
  <defs id="defs1">
    <rect x="198.99069" y="282.66215" width="120.52159" height="111.85097" id="rect1"/>
  </defs>
  <path id="Combined-Shape" d="M 255.99935,0 C 216.90788,0 182.72902,21.028093 164.17904,52.390625 149.8299,46.135322 133.98641,42.666016 117.33333,42.666016 52.532056,42.666016 -6.51375e-4,95.198719 -6.51375e-4,160 c 0,49.83435 31.068022375,92.4122 74.888672375,109.41797 0.839763,-14.92334 4.040871,-29.21647 9.236328,-42.50977 C 59.476191,214.64826 42.667317,189.16742 42.667317,160 c 0,-41.23718 33.42884,-74.666016 74.666013,-74.666016 10.43752,0 20.50021,2.11802 29.79492,6.169922 l 34.57422,15.070314 19.19922,-32.460939 2.25391,-3.542969 c 11.7966,-17.277143 31.3737,-27.904296 52.84375,-27.904296 35.34615,0 64,28.653842 64,64.000004 l -0.85742,35.57031 32.88476,8.4414 3.23438,0.96875 c 16.93484,5.82032 28.73828,21.92001 28.73828,40.35352 0,22.17352 -16.97074,40.52485 -38.74414,42.48828 4.26372,13.13754 6.61919,27.13584 6.74023,41.66602 l 0.002,0.51953 1.25781,-0.16602 c 41.48417,-5.79952 73.41211,-41.4257 73.41211,-84.50781 0,-39.77914 -27.21901,-73.20177 -64.03321,-82.65039 l 0.0332,-2.68359 C 362.66732,47.755756 314.9096,0 255.99935,0 Z m -42.66602,160 c -64.80127,0 -117.333981,52.53271 -117.333981,117.33398 0,64.80129 52.532711,117.33204 117.333981,117.33204 64.80129,0 117.33399,-52.53075 117.33399,-117.33204 C 330.66732,212.53271 278.13462,160 213.33333,160 Z m 0,32 c 47.12821,0 85.33399,38.20578 85.33399,85.33398 0,47.12822 -38.20578,85.33204 -85.33399,85.33204 -47.1282,0 -85.33398,-38.20382 -85.33398,-85.33204 0,-47.1282 38.20578,-85.33398 85.33398,-85.33398 z" transform="translate(42.666667,64)" style="display:inline;fill:#007993;fill-opacity:1"/>
  <path d="m 246.69855,346.87042 2.875,8.33333 q -3.79167,1.70833 -6.29167,2.41666 -5.08333,1.5 -11.16666,1.5 -13.24999,0 -20.79166,-7.625 -8.08333,-8.16666 -8.08333,-22.41665 0,-16.04166 9.79167,-24.66666 7.16666,-6.25 18.54165,-6.25 8.58333,0 17.375,4 l -3.41667,8.04166 q -7.25,-3.70833 -13.45833,-3.70833 -8.70833,0 -13.33332,6.20833 -4.70834,6.41667 -4.70834,16.125 0,11.37499 6.20834,17.37499 4.74999,4.58333 12.33332,4.58333 4.625,0 8.875,-1.54167 2.04167,-0.74999 5.25,-2.37499 z m 34.99998,-48.70832 q 13,0 20.16666,8.91667 6.91666,8.66666 6.91666,21.54165 0,14.20833 -8.16666,22.99999 -7,7.5 -19.20833,7.5 -13.33332,0 -20.49999,-8.91666 -6.91666,-8.625 -6.91666,-21.58333 0,-8.49999 3.125,-15.29166 6.91666,-15.16666 24.58332,-15.16666 z m -0.54166,8.33333 q -7.875,0 -12.33333,6.58333 -4.04167,5.91667 -4.04167,15.54166 0,10.625 4.79167,16.58333 4.49999,5.58333 11.83332,5.58333 8,0 12.54167,-6.58333 4.04166,-5.875 4.04166,-15.58333 0,-10.62499 -4.79166,-16.54166 -4.5,-5.58333 -12.04166,-5.58333 z" id="text1" style="font-weight:bold;font-size:85.3333px;font-family:'Siemens Sans';-inkscape-font-specification:'Siemens Sans Bold';white-space:pre;fill:#007993;fill-rule:evenodd;stroke:#000000;stroke-width:0;stroke-linecap:round;stroke-linejoin:round;stroke-opacity:0" transform="matrix(1.44,0,0,1.44,-112.64486,-132.89682)" aria-label="CO"/>
</svg>
