<svg width="24" height="24" viewBox="0 0 24 24" fill="none" xmlns="http://www.w3.org/2000/svg">
<path fill-rule="evenodd" clip-rule="evenodd" d="M12 4C5 4 2 12 2 12C2 12 5 20 12 20C19 20 22 12 22 12C22 12 19 4 12 4ZM12 18C7.58148 18 5.03455 13.7201 4.1897 12.0003C5.0368 10.2761 7.5835 6 12 6C16.4185 6 18.9655 10.2799 19.8104 11.9996C18.9632 13.7239 16.4165 18 12 18ZM12 8.5C10.067 8.5 8.5 10.067 8.5 12C8.5 13.933 10.067 15.5 12 15.5C13.933 15.5 15.5 13.933 15.5 12C15.5 10.067 13.933 8.5 12 8.5ZM12 13.5C11.1729 13.5 10.5 12.8271 10.5 12C10.5 11.1729 11.1729 10.5 12 10.5C12.8271 10.5 13.5 11.1729 13.5 12C13.5 12.8271 12.8271 13.5 12 13.5Z" fill="#007993"/>
</svg>
