<svg width="24" height="24" viewBox="0 0 24 24" fill="none" xmlns="http://www.w3.org/2000/svg">
<path fill-rule="evenodd" clip-rule="evenodd" d="M13 5V1H11V5H13ZM17.4678 12C17.4678 8.9802 15.0198 6.53217 12 6.53217C8.9802 6.53217 6.53216 8.9802 6.53216 12C6.5294 13.451 7.10458 14.8434 8.1306 15.8694C9.15662 16.8954 10.549 17.4706 12 17.4678C15.0198 17.4678 17.4678 15.0198 17.4678 12ZM8.53216 12.0038C8.53216 10.0848 10.0848 8.53217 12 8.53217C13.9152 8.53217 15.4678 10.0848 15.4678 12C15.4678 13.9152 13.9152 15.4678 12 15.4678C11.0769 15.4696 10.1948 15.1052 9.54481 14.4552C8.8948 13.8052 8.53041 12.9231 8.53216 12.0038ZM19 11H23V13H19V11ZM5 11H1V13H5V11ZM13 19V23H11V19H13ZM20.4853 19.0711L19.0711 20.4853L16.2426 17.6569L17.6569 16.2426L20.4853 19.0711ZM7.75736 6.34315L4.92893 3.51472L3.51472 4.92893L6.34315 7.75736L7.75736 6.34315ZM4.92893 20.4853L3.51472 19.0711L6.34315 16.2426L7.75736 17.6569L4.92893 20.4853ZM17.6569 7.75736L20.4853 4.92893L19.0711 3.51472L16.2426 6.34315L17.6569 7.75736Z" fill="#cecec8"/>
</svg>
