<svg width="24" height="24" viewBox="0 0 24 24" fill="none" xmlns="http://www.w3.org/2000/svg">
<path fill-rule="evenodd" clip-rule="evenodd" d="M12 2C6.47715 2 2 6.47715 2 12C2 14.8242 3.17079 17.375 5.05351 19.1935C5.24173 19.3753 5.43707 19.5498 5.63907 19.7165C7.36766 21.143 9.58375 22 12 22C12.1726 22 12.3442 21.9956 12.5146 21.987C13.1311 21.9557 13.7329 21.8687 14.315 21.7307C15.3552 21.4841 16.3325 21.0751 17.2187 20.5319C17.843 20.1493 18.4221 19.7001 18.9464 19.1942C18.9463 19.194 18.9463 19.1939 18.9463 19.1937C20.8291 17.3752 22 14.8243 22 12C22 9.34784 20.9464 6.8043 19.0711 4.92893C17.1957 3.05357 14.6522 2 12 2ZM18.2173 17.0348C19.3321 15.6599 20 13.908 20 12C20 7.58172 16.4183 4 12 4C7.58172 4 4 7.58172 4 12C4 13.908 4.66792 15.6599 5.78268 17.0348C6.8152 15.2222 8.76487 14 11 14H13C15.2352 14 17.1849 15.2222 18.2173 17.0348ZM11.0845 19.9482C9.70965 19.7916 8.44055 19.2864 7.36777 18.5232L7.301 18.474L7.3734 18.3079C8.01386 16.9374 9.40704 16 11 16H13L13.2066 16.0053C14.7129 16.0823 16.0142 16.9971 16.6266 18.3081L16.698 18.474L16.6285 18.5259C15.5312 19.3056 14.2288 19.8154 12.818 19.9587C12.549 19.986 12.2761 20 12 20L11.6855 19.9939C11.6531 19.9927 11.6207 19.9912 11.5883 19.9896C11.419 19.981 11.251 19.9672 11.0845 19.9482ZM16 9C16 6.79086 14.2091 5 12 5L11.8004 5.0049C9.68397 5.10892 8 6.8578 8 9C8 11.2091 9.79086 13 12 13L12.1996 12.9951C14.316 12.8911 16 11.1422 16 9ZM12 7C10.8954 7 10 7.89543 10 9C10 10.1046 10.8954 11 12 11C13.1046 11 14 10.1046 14 9C14 7.89543 13.1046 7 12 7Z" fill="#007993"/>
</svg>
