<svg width="24" height="24" viewBox="0 0 24 24" fill="none" xmlns="http://www.w3.org/2000/svg">
<path fill-rule="evenodd" clip-rule="evenodd" d="M6 3H3V13H6V3ZM11 9.02182C11.8784 8.45944 12.901 8.10255 14 8.01894V5H11V9.02182ZM15 8.01894C16.099 8.10255 17.1216 8.45944 18 9.02182V6H15V8.01894ZM8 14.5C8 14.3318 8.00639 14.165 8.01894 14H2V16H8.17393C8.06019 15.5185 8 15.0163 8 14.5ZM8.17393 13C8.46631 11.7622 9.11256 10.6612 10 9.80957V7H7V13H8.17393ZM19.0317 17.6175C19.6424 16.7315 20 15.6575 20 14.5C20 11.4624 17.5376 9 14.5 9C11.4624 9 9 11.4624 9 14.5C9 17.5376 11.4624 20 14.5 20C15.6575 20 16.7315 19.6424 17.6175 19.0317L20.4246 21.8388L21.8388 20.4246L19.0317 17.6175ZM18 14.5C18 16.433 16.433 18 14.5 18C12.567 18 11 16.433 11 14.5C11 12.567 12.567 11 14.5 11C16.433 11 18 12.567 18 14.5Z" fill="black"/>
</svg>
