<svg width="24" height="24" viewBox="0 0 24 24" fill="none" xmlns="http://www.w3.org/2000/svg">
<path d="M16.7881 6C18.4779 6 19.7769 6.56502 20.6851 7.69505C21.5617 8.7934 22 10.1611 22 11.798C22 13.5934 21.4825 15.0482 20.4475 16.1624C19.5604 17.1129 18.3406 17.5881 16.7881 17.5881C15.1036 17.5881 13.8073 17.0231 12.899 15.8931C12.0224 14.8 11.5842 13.4112 11.5842 11.7267C11.5842 10.6917 11.7822 9.74389 12.1782 8.88317C13.0548 6.96106 14.5914 6 16.7881 6ZM16.7881 7.58416C15.7637 7.58416 14.969 8.00132 14.404 8.83564C13.8917 9.58548 13.6356 10.5571 13.6356 11.7505C13.6356 13.1234 13.9393 14.1875 14.5465 14.9426C15.1168 15.6502 15.864 16.004 16.7881 16.004C17.8073 16.004 18.6046 15.5868 19.1802 14.7525C19.6924 14.0079 19.9485 13.0231 19.9485 11.798C19.9485 10.4462 19.6449 9.39538 19.0376 8.64554C18.4726 7.93795 17.7228 7.58416 16.7881 7.58416Z" fill="#000000"/>
<path d="M10.2614 15.2594L10.8079 16.8436C10.1743 17.1234 9.61716 17.3162 9.13663 17.4218C8.66139 17.5327 8.11221 17.5881 7.48911 17.5881C5.8099 17.5881 4.49241 17.1049 3.53663 16.1386C2.51221 15.1036 2 13.6832 2 11.8772C2 9.84422 2.62046 8.28119 3.86139 7.18812C4.76964 6.39604 5.94455 6 7.38614 6C8.47393 6 9.57492 6.25347 10.6891 6.7604L10.0396 8.28911C9.12079 7.81914 8.26799 7.58416 7.48119 7.58416C6.37756 7.58416 5.53267 7.97756 4.94653 8.76436C4.34984 9.57756 4.05149 10.5993 4.05149 11.8297C4.05149 13.1182 4.36568 14.1373 4.99406 14.8871C5.62772 15.6317 6.48845 16.004 7.57624 16.004C8.04621 16.004 8.47393 15.9512 8.85941 15.8455C9.25017 15.7347 9.71749 15.5393 10.2614 15.2594Z" fill="#000000"/>
</svg>
