<svg width="24" height="24" viewBox="0 0 24 24" fill="none" xmlns="http://www.w3.org/2000/svg">
<path fill-rule="evenodd" clip-rule="evenodd" d="M13.5996 2H15.5996V4V4.416C16.0076 4.609 16.3986 4.834 16.7696 5.09L17.1276 4.882L18.8606 3.883L19.8606 5.614L21.4596 8.386L22.4596 10.118L20.7286 11.118L20.3706 11.323C20.3906 11.55 20.4006 11.775 20.4006 12C20.4006 12.225 20.3906 12.45 20.3706 12.677L20.7286 12.882L22.4596 13.882L21.4596 15.614L19.8606 18.386L18.8606 20.117L17.1276 19.118L16.7696 18.91C16.3986 19.166 16.0076 19.391 15.5996 19.584V20V22H13.5996H10.4006H8.40061V20V19.584C7.99261 19.391 7.60161 19.166 7.23061 18.91L6.87161 19.118L5.13961 20.117L4.13961 18.386L2.53961 15.614L1.53961 13.882L3.27161 12.882L3.62861 12.677C3.60961 12.45 3.59961 12.225 3.59961 12C3.59961 11.775 3.60961 11.55 3.62861 11.323L3.27161 11.118L1.53961 10.118L2.53961 8.386L4.13961 5.614L5.13961 3.883L6.87161 4.882L7.23061 5.09C7.60161 4.834 7.99261 4.609 8.40061 4.416V4V2H10.4006H13.5996ZM13.5996 5.81V4H10.4006V5.81C9.25761 6.104 8.23761 6.701 7.43561 7.518L5.87161 6.614L4.27161 9.386L5.83761 10.29C5.68761 10.835 5.59961 11.407 5.59961 12C5.59961 12.593 5.68761 13.165 5.83761 13.71L4.27161 14.614L5.87161 17.386L7.43561 16.482C8.23761 17.299 9.25761 17.896 10.4006 18.19V20H13.5996V18.19C14.7426 17.896 15.7626 17.299 16.5646 16.482L18.1276 17.386L19.7286 14.614L18.1626 13.71C18.3126 13.165 18.4006 12.593 18.4006 12C18.4006 11.407 18.3126 10.835 18.1626 10.29L19.7286 9.386L18.1276 6.614L16.5646 7.518C15.7626 6.701 14.7426 6.104 13.5996 5.81ZM12 8C9.79073 8 8.00001 9.79072 8.00001 12C8.00001 14.2093 9.79073 16 12 16C14.2093 16 16 14.2093 16 12C16 9.79072 14.2093 8 12 8ZM12 10C13.1047 10 14 10.8953 14 12C14 13.1047 13.1047 14 12 14C10.8953 14 10 13.1047 10 12C10 10.8953 10.8953 10 12 10Z" fill="black"/>
</svg>
