<svg width="24" height="24" viewBox="0 0 24 24" fill="none" xmlns="http://www.w3.org/2000/svg">
<path fill-rule="evenodd" clip-rule="evenodd" d="M2 12C2 6.47715 6.47715 2 12 2C17.5228 2 22 6.47715 22 12C22 17.5228 17.5228 22 12 22C6.47715 22 2 17.5228 2 12ZM4.06189 11C4.41947 8.13247 6.29466 5.73625 8.85836 4.64045C8.49585 5.4067 8.19914 6.31155 7.97652 7.31675L7.86699 7.85096C7.73005 8.57486 7.62978 9.34425 7.56898 10.1462L7.53083 10.7535C7.52674 10.8354 7.52305 10.9176 7.51976 11H4.06189ZM4.06189 13C4.41947 15.8675 6.29467 18.2638 8.85837 19.3596C8.49585 18.5933 8.19914 17.6884 7.97652 16.6832L7.86699 16.149C7.73005 15.4251 7.62978 14.6558 7.56898 13.8538L7.53083 13.2465C7.52674 13.1646 7.52305 13.0824 7.51976 13H4.06189ZM9.52317 13C9.53524 13.2596 9.55186 13.5152 9.57269 13.7661L9.62678 14.3252C9.63693 14.417 9.64765 14.508 9.6589 14.5983L9.73274 15.1309C9.91939 16.3515 10.2042 17.4127 10.5345 18.2302L10.6788 18.5654C11.0944 19.4713 11.5662 20 12 20C12.4338 20 12.9056 19.4713 13.3212 18.5654L13.4655 18.2302C13.7958 17.4127 14.0806 16.3515 14.2673 15.1309L14.3411 14.5983C14.3524 14.508 14.3631 14.417 14.3732 14.3252L14.4273 13.7661C14.4481 13.5152 14.4648 13.2596 14.4768 13H9.52317ZM16.4802 13C16.477 13.0824 16.4733 13.1646 16.4692 13.2465L16.431 13.8538C16.3702 14.6558 16.27 15.4251 16.133 16.149L16.0235 16.6832C15.8009 17.6884 15.5041 18.5933 15.1416 19.3596C17.7053 18.2638 19.5805 15.8675 19.9381 13H16.4802ZM19.9381 11H16.4802C16.477 10.9176 16.4733 10.8354 16.4692 10.7535L16.431 10.1462C16.3702 9.34425 16.27 8.57486 16.133 7.85096L16.0235 7.31675C15.8009 6.31155 15.5042 5.4067 15.1416 4.64045C17.7053 5.73625 19.5805 8.13247 19.9381 11ZM14.4768 11H9.52317C9.53524 10.7404 9.55186 10.4848 9.57269 10.2339L9.62678 9.6748C9.63693 9.58302 9.64765 9.49196 9.6589 9.40165L9.73274 8.86906C9.91939 7.64852 10.2042 6.58725 10.5345 5.76979L10.6788 5.43462C11.0944 4.52866 11.5662 4 12 4C12.4338 4 12.9056 4.52866 13.3212 5.43462L13.4655 5.76979C13.7958 6.58725 14.0806 7.64852 14.2673 8.86906L14.3411 9.40165C14.3524 9.49196 14.3631 9.58302 14.3732 9.6748L14.4273 10.2339C14.4481 10.4848 14.4648 10.7404 14.4768 11Z" fill="black"/>
</svg>
