<svg width="24" height="24" viewBox="0 0 24 24" fill="none" xmlns="http://www.w3.org/2000/svg">
<path fill-rule="evenodd" clip-rule="evenodd" d="M18 15C14.5 15 13 19 13 19C13 19 14.5 23 18 23C21.5 23 23 19 23 19C23 19 21.5 15 18 15ZM18 22C15.7907 22 14.5173 19.8601 14.0949 19.0002C14.5184 18.138 15.7917 16 18 16C20.2093 16 21.4827 18.1399 21.9052 18.9998C21.4816 19.862 20.2083 22 18 22ZM18 17.25C17.0335 17.25 16.25 18.0335 16.25 19C16.25 19.9665 17.0335 20.75 18 20.75C18.9665 20.75 19.75 19.9665 19.75 19C19.75 18.0335 18.9665 17.25 18 17.25ZM18 19.75C17.5865 19.75 17.25 19.4135 17.25 19C17.25 18.5865 17.5865 18.25 18 18.25C18.4135 18.25 18.75 18.5865 18.75 19C18.75 19.4135 18.4135 19.75 18 19.75Z" fill="#000000"/>
<path d="M13 22.6826V23H11V19.3626L11.1274 19.7022L13 19C11.1274 19.7022 11.1279 19.7037 11.1279 19.7037L11.1285 19.7052L11.1298 19.7086L11.1328 19.7165L11.1406 19.7367C11.1466 19.7522 11.1542 19.7715 11.1634 19.7944C11.1819 19.8401 11.2071 19.9006 11.239 19.9735C11.3027 20.1191 11.3943 20.3166 11.5152 20.5489C11.7547 21.0087 12.1224 21.6299 12.6353 22.2612C12.7475 22.3992 12.869 22.5405 13 22.6826Z" fill="#000000"/>
<path fill-rule="evenodd" clip-rule="evenodd" d="M17.371 13.03C17.4345 12.6964 17.4678 12.3521 17.4678 12C17.4678 8.9802 15.0198 6.53217 12 6.53217C8.9802 6.53217 6.53215 8.9802 6.53215 12C6.5294 13.451 7.10458 14.8434 8.1306 15.8694C9.0422 16.781 10.243 17.3367 11.5172 17.4474C11.7567 16.9879 12.1238 16.3684 12.6353 15.7388C13.5591 14.6018 15.1182 13.2471 17.371 13.03ZM12 8.53217C10.0848 8.53217 8.53215 10.0848 8.53215 12.0038C8.53041 12.9231 8.8948 13.8052 9.54481 14.4552C10.1948 15.1052 11.0769 15.4696 12 15.4678V8.53217Z" fill="#000000"/>
<path d="M6.34315 16.2426L7.75736 17.6569L4.92893 20.4853L3.51472 19.0711L6.34315 16.2426Z" fill="#000000"/>
<path d="M19 11H23V13H19V11Z" fill="#000000"/>
<path d="M5 11V13H1V11H5Z" fill="#000000"/>
<path d="M4.92893 3.51472L7.75736 6.34315L6.34315 7.75736L3.51472 4.92893L4.92893 3.51472Z" fill="#000000"/>
<path d="M19.0711 3.51472L20.4853 4.92893L17.6569 7.75736L16.2426 6.34315L19.0711 3.51472Z" fill="#000000"/>
<path d="M13 1V5H11V1H13Z" fill="#000000"/>
</svg>
