<svg width="24" height="24" viewBox="0 0 24 24" fill="none" xmlns="http://www.w3.org/2000/svg">
<path fill-rule="evenodd" clip-rule="evenodd" d="M10 2C11.933 2 13.5 3.567 13.5 5.5C13.5 7.36856 12.0357 8.89513 10.192 8.99482L10 9C8.067 9 6.5 7.433 6.5 5.5C6.5 3.63144 7.96428 2.10487 9.80796 2.00518L10 2ZM3 20H11.8027C11.4513 19.3926 11.2034 18.7179 11.083 18H5V16.4L5.00519 16.2059C5.10161 14.4075 6.52933 13 8.25 13H11.75L11.9332 13.0053C12.1117 13.0158 12.2866 13.0414 12.4567 13.0809C12.9598 12.4981 13.5732 12.0132 14.2645 11.6585C13.5177 11.2386 12.661 11 11.75 11H8.25L8.0336 11.0045C5.23445 11.1212 3 13.4922 3 16.4V20ZM8.5 5.5C8.5 4.67157 9.17157 4 10 4C10.8284 4 11.5 4.67157 11.5 5.5C11.5 6.32843 10.8284 7 10 7C9.17157 7 8.5 6.32843 8.5 5.5ZM15.6057 12H18.3835V13.0704C18.8711 13.2428 19.3171 13.5034 19.7023 13.833L20.6303 13.2972L22.0191 15.7028L21.0918 16.2382C21.1374 16.4852 21.1612 16.7398 21.1612 17C21.1612 17.2602 21.1374 17.5148 21.0918 17.7618L22.0191 18.2972L20.6303 20.7028L19.7023 20.167C19.3171 20.4966 18.8711 20.7572 18.3835 20.9296V22H15.6057V20.9296C15.118 20.7572 14.672 20.4966 14.2869 20.167L13.3589 20.7028L11.97 18.2972L12.8974 17.7618C12.8518 17.5148 12.8279 17.2602 12.8279 17C12.8279 16.7398 12.8518 16.4852 12.8974 16.2382L11.97 15.7028L13.3589 13.2972L14.2869 13.833C14.672 13.5034 15.118 13.2428 15.6057 13.0704V12ZM18.6612 17C18.6612 17.9205 17.915 18.6667 16.9946 18.6667C16.0741 18.6667 15.3279 17.9205 15.3279 17C15.3279 16.0795 16.0741 15.3333 16.9946 15.3333C17.915 15.3333 18.6612 16.0795 18.6612 17Z" fill="black"/>
</svg>
