<svg xmlns="http://www.w3.org/2000/svg" viewBox="0 0 17.51 17.5"><defs><style>.cls-1{fill:#000028;stroke-width:0.85px;}.cls-1,.cls-2{stroke:#00FFB9;stroke-miterlimit:3.86;}.cls-2{fill:none;stroke-width:0.23px;}</style></defs><g id="Original"><path class="cls-1" d="M396.85,178.76a8.33,8.33,0,1,0,8.33,8.33A8.33,8.33,0,0,0,396.85,178.76Z" transform="translate(-388.1 -178.33)"/><path class="cls-1" d="M398.45,183.23a4.17,4.17,0,1,0,2.25,5.45A4.17,4.17,0,0,0,398.45,183.23Z" transform="translate(-388.1 -178.33)"/><path class="cls-2" d="M397.69,181.48a5.58,5.58,0,0,1,2.66,1.15.49.49,0,0,0,.8-.1.49.49,0,0,0-.1-.8,6.48,6.48,0,0,0-3.19-1.37c-.39-.06-.58.08-.64.48A.48.48,0,0,0,397.69,181.48Z" transform="translate(-388.1 -178.33)"/><path class="cls-2" d="M396.85,194.25a7.17,7.17,0,1,0-7.16-7.16A7.16,7.16,0,0,0,396.85,194.25Z" transform="translate(-388.1 -178.33)"/><path class="cls-2" d="M392.65,181.73a.57.57,0,0,0,.7.9,5.58,5.58,0,0,1,2.66-1.15.48.48,0,0,0,.47-.64c-.05-.4-.24-.54-.64-.48A6.48,6.48,0,0,0,392.65,181.73Z" transform="translate(-388.1 -178.33)"/><path class="cls-2" d="M403.62,186.47c0,.4-.11.58-.51.61s-.58-.11-.61-.51a5.68,5.68,0,0,0-1-2.72.57.57,0,0,1,.93-.65A6.55,6.55,0,0,1,403.62,186.47Z" transform="translate(-388.1 -178.33)"/><path class="cls-2" d="M390.08,186.47c0,.4.11.58.51.61s.58-.11.61-.51a5.68,5.68,0,0,1,1-2.72.57.57,0,1,0-.93-.65A6.55,6.55,0,0,0,390.08,186.47Z" transform="translate(-388.1 -178.33)"/></g></svg>