<svg width="24" height="24" viewBox="0 0 24 24" fill="none" xmlns="http://www.w3.org/2000/svg">
<path d="M15.6172 4.03125C18.4688 6.64844 20.5 10.9453 20.5 13.0156C20.5 17.9766 16.5547 22 11.75 22C6.90625 22 3 17.9766 3 13.0156C3 10.2422 5.69531 5.59375 9.5625 2C11.0469 3.40625 12.375 4.89062 13.4297 6.375C14.0938 5.55469 14.7969 4.77344 15.6172 4.03125ZM11.75 20.125C15.5391 20.125 18.625 16.9609 18.625 13.0156C18.625 11.8047 17.375 8.99219 15.5781 6.72656C15.3438 7 15.1094 7.27344 14.875 7.54688L13.3516 9.42188L11.9062 7.46875C11.2422 6.53125 10.4219 5.55469 9.5625 4.65625C6.59375 7.82031 4.875 11.2578 4.875 13.0156C4.875 16.9609 7.96094 20.125 11.75 20.125ZM15.2266 11.5312C15.3828 11.7656 15.5 11.9609 15.6172 12.1953C16.5547 13.9922 16.1641 16.2578 14.4844 17.4297C13.7422 17.9766 12.8047 18.25 11.8281 18.25C9.36719 18.25 7.375 16.6484 7.375 13.9922C7.375 12.6641 8.19531 11.4922 9.83594 9.5C10.0703 9.77344 13.2344 13.7969 13.2344 13.7969L15.2266 11.5312Z" fill="#d72339"/>
</svg>
