<svg width="24" height="24" viewBox="0 0 24 24" fill="none" xmlns="http://www.w3.org/2000/svg">
<path d="M11.5853 3.05764C11.1014 2.9614 10.6012 2.98597 10.1291 3.12918C9.65702 3.27239 9.22752 3.52983 8.87866 3.87868L10.2929 5.29289C10.4092 5.17661 10.5523 5.0908 10.7097 5.04306C10.8671 4.99532 11.0338 4.98713 11.1951 5.01921C11.3564 5.0513 11.5073 5.12266 11.6344 5.22699C11.7615 5.33132 11.8609 5.46538 11.9239 5.61732C11.9868 5.76925 12.0113 5.93436 11.9952 6.09802C11.979 6.26168 11.9228 6.41883 11.8315 6.55557C11.7401 6.69231 11.6164 6.8044 11.4714 6.88192C11.3264 6.95944 11.1644 7 11 7H2V9H11C11.4933 9 11.9791 8.87833 12.4142 8.64576C12.8493 8.4132 13.2203 8.07692 13.4944 7.66671C13.7685 7.2565 13.9372 6.78503 13.9855 6.29405C14.0339 5.80307 13.9604 5.30775 13.7716 4.85195C13.5828 4.39615 13.2845 3.99395 12.9032 3.68097C12.5218 3.36799 12.0691 3.15389 11.5853 3.05764Z" fill="white"/>
<path d="M14 17H2V15H14C14.4933 15 14.9791 15.1217 15.4142 15.3542C15.8493 15.5868 16.2203 15.9231 16.4944 16.3333C16.7685 16.7435 16.9372 17.215 16.9855 17.7059C17.0339 18.1969 16.9604 18.6923 16.7716 19.1481C16.5828 19.6038 16.2845 20.0061 15.9032 20.319C15.5218 20.632 15.0691 20.8461 14.5853 20.9424C14.1014 21.0386 13.6012 21.014 13.1291 20.8708C12.657 20.7276 12.2275 20.4702 11.8787 20.1213L13.2929 18.7071C13.4092 18.8234 13.5523 18.9092 13.7097 18.9569C13.8671 19.0047 14.0338 19.0129 14.1951 18.9808C14.3564 18.9487 14.5073 18.8773 14.6344 18.773C14.7615 18.6687 14.8609 18.5346 14.9239 18.3827C14.9868 18.2308 15.0113 18.0656 14.9952 17.902C14.979 17.7383 14.9228 17.5812 14.8315 17.4444C14.7401 17.3077 14.6164 17.1956 14.4714 17.1181C14.3264 17.0406 14.1644 17 14 17Z" fill="white"/>
<path d="M19.9093 6.29623C19.3232 6.03842 18.6776 5.94634 18.0427 6.03001C17.4079 6.11369 16.8082 6.36992 16.3089 6.7708C15.8096 7.17168 15.4298 7.70185 15.2109 8.3036L17.0905 8.98726C17.1843 8.72937 17.347 8.50215 17.561 8.33034C17.775 8.15854 18.032 8.04873 18.3041 8.01286C18.5762 7.977 18.8529 8.01647 19.1041 8.12696C19.3552 8.23745 19.5713 8.41473 19.7287 8.63951C19.8862 8.86429 19.9789 9.12795 19.9969 9.40178C20.0149 9.67562 19.9574 9.94913 19.8307 10.1926C19.704 10.436 19.5129 10.64 19.2783 10.7823C19.0437 10.9247 18.7745 11 18.5001 11V13C19.1404 13 19.7685 12.8243 20.3159 12.4921C20.8633 12.16 21.3091 11.684 21.6047 11.116C21.9004 10.548 22.0345 9.90977 21.9926 9.27082C21.9507 8.63188 21.7343 8.01667 21.3669 7.49219C20.9996 6.96771 20.4954 6.55404 19.9093 6.29623Z" fill="white"/>
<path d="M18.5001 11L2 11V13L18.5001 13V11Z" fill="white"/>
</svg>
