<svg width="24" height="24" viewBox="0 0 24 24" fill="none" xmlns="http://www.w3.org/2000/svg">
<g clip-path="url(#clip0_271_579)">
<path d="M3.99982 11.0001H1.99982L1.99982 22.0001H7.99982V17.0001H5.99982L5.99982 20.0001H3.99982L3.99982 11.0001Z" fill="white"/>
<path fill-rule="evenodd" clip-rule="evenodd" d="M5.17137 12.0712L8.7069 15.6068L16.8386 7.47504C17.8149 6.49873 17.8149 4.91582 16.8386 3.93951C15.8623 2.9632 14.2794 2.9632 13.3031 3.93951L5.17137 12.0712ZM15.4244 6.06083L8.7069 12.7783L7.99979 12.0712L9.41415 10.6569L10.1212 11.364L11.5354 9.94974L10.8284 9.24266L12.2425 7.82851L12.9496 8.53559L14.3638 7.12137L13.6567 6.4143L14.7173 5.35372C14.9126 5.15846 15.2292 5.15846 15.4244 5.35372C15.6197 5.54898 15.6197 5.86557 15.4244 6.06083Z" fill="white"/>
</g>
<defs>
<clipPath id="clip0_271_579">
<rect width="24" height="24" fill="white"/>
</clipPath>
</defs>
</svg>
