<svg width="24" height="24" viewBox="0 0 24 24" fill="none" xmlns="http://www.w3.org/2000/svg">
<path fill-rule="evenodd" clip-rule="evenodd" d="M9 12.5312V18.25H11V12.5312L18 4H2L9 12.5312ZM13.771 6H6.228L10 10.596L13.771 6ZM21 17C21 19.2091 19.2091 21 17 21C14.7909 21 13 19.2091 13 17C13 14.7909 14.7909 13 17 13C19.2091 13 21 14.7909 21 17ZM17 12C14.2386 12 12 14.2386 12 17C12 19.7614 14.2386 22 17 22C19.7614 22 22 19.7614 22 17C22 15.6739 21.4732 14.4021 20.5355 13.4645C19.5979 12.5268 18.3261 12 17 12ZM14.5799 18.713L16.2929 17L14.5799 15.287L15.287 14.5799L17 16.2929L18.713 14.5799L19.4201 15.287L17.7071 17L19.4201 18.713L18.713 19.4201L17 17.7071L15.287 19.4201L14.5799 18.713Z" fill="white"/>
</svg>
