<svg width="24" height="24" viewBox="0 0 24 24" fill="none" xmlns="http://www.w3.org/2000/svg">
<path fill-rule="evenodd" clip-rule="evenodd" d="M12 2.00002C14.6522 2.00002 17.1957 3.05358 19.0711 4.92895C20.9465 6.80431 22 9.34785 22 12C22 17.5229 17.5229 22 12 22C6.47718 22 2.00003 17.5229 2.00003 12C2.00003 6.47717 6.47718 2.00002 12 2.00002ZM12 4.00002C7.58175 4.00002 4.00003 7.58174 4.00003 12C4.00003 16.4183 7.58175 20 12 20C16.4183 20 20 16.4183 20 12C20 7.58174 16.4183 4.00002 12 4.00002ZM15.5356 7.05027L16.9498 8.46448L13.4142 12L16.9498 15.5355L15.5356 16.9498L12 13.4142L8.4645 16.9498L7.05028 15.5355L10.5858 12L7.05028 8.46448L8.4645 7.05027L12 10.5858L15.5356 7.05027Z" fill="white"/>
</svg>
