<svg width="24" height="24" viewBox="0 0 24 24" fill="none" xmlns="http://www.w3.org/2000/svg">
<path fill-rule="evenodd" clip-rule="evenodd" d="M13 19V23H11V19H13ZM17.6569 16.2426L20.4853 19.0711L19.0711 20.4853L16.2426 17.6569L17.6569 16.2426ZM6.34315 16.2426L7.75736 17.6569L4.92893 20.4853L3.51472 19.0711L6.34315 16.2426ZM12 6.53217C15.0198 6.53217 17.4678 8.9802 17.4678 12C17.4678 15.0198 15.0198 17.4678 12 17.4678C10.549 17.4706 9.15662 16.8954 8.1306 15.8694C7.10458 14.8434 6.5294 13.451 6.53215 12C6.53215 8.9802 8.9802 6.53217 12 6.53217ZM12 8.53217C10.0848 8.53217 8.53215 10.0848 8.53215 12.0038C8.53041 12.9231 8.8948 13.8052 9.54481 14.4552C10.1948 15.1052 11.0769 15.4696 12 15.4678V8.53217ZM23 11V13H19V11H23ZM5 11V13H1V11H5ZM4.92893 3.51472L7.75736 6.34315L6.34315 7.75736L3.51472 4.92893L4.92893 3.51472ZM19.0711 3.51472L20.4853 4.92893L17.6569 7.75736L16.2426 6.34315L19.0711 3.51472ZM13 1V5H11V1H13Z" fill="white"/>
</svg>
