<svg width="24" height="24" viewBox="0 0 24 24" fill="none" xmlns="http://www.w3.org/2000/svg">
<path d="M7 3V1H6V3H7Z" fill="white"/>
<path d="M2.96447 2.25736L2.25736 2.96447L3.67157 4.37868L4.37868 3.67157L2.96447 2.25736Z" fill="white"/>
<path fill-rule="evenodd" clip-rule="evenodd" d="M6.5 3.76609C8.0099 3.76609 9.23391 4.9901 9.23391 6.5C9.23391 8.0099 8.0099 9.23392 6.5 9.23392C5.7745 9.2353 5.07831 8.94771 4.5653 8.4347C4.05229 7.92169 3.7647 7.2255 3.76608 6.5C3.76608 4.9901 4.9901 3.76609 6.5 3.76609ZM6.5 4.76609C5.54238 4.76609 4.76608 5.54239 4.76608 6.50191C4.7652 6.96154 4.9474 7.40259 5.27241 7.72759C5.59741 8.0526 6.03846 8.2348 6.5 8.23392V4.76609Z" fill="white"/>
<path d="M4.37868 9.32843L3.67157 8.62132L2.25736 10.0355L2.96447 10.7426L4.37868 9.32843Z" fill="white"/>
<path d="M10.7426 10.0355L10.0355 10.7426L8.62132 9.32843L9.32843 8.62132L10.7426 10.0355Z" fill="white"/>
<path d="M7 10V12H6V10H7Z" fill="white"/>
<path d="M12 7V6H10V7H12Z" fill="white"/>
<path d="M3 6V7H1V6H3Z" fill="white"/>
<path d="M10.0355 2.25736L10.7426 2.96447L9.32843 4.37868L8.62132 3.67157L10.0355 2.25736Z" fill="white"/>
<path d="M11 16V22H9V16H11Z" fill="white"/>
<path d="M5 18H7V22H5V18Z" fill="white"/>
<path d="M3 20H1V22H3V20Z" fill="white"/>
<path d="M21 10H23V22H21V10Z" fill="white"/>
<path d="M19 12H17V22H19V12Z" fill="white"/>
<path d="M15 14H13V22H15V14Z" fill="white"/>
</svg>
