<svg width="24" height="24" viewBox="0 0 24 24" fill="none" xmlns="http://www.w3.org/2000/svg">
<path fill-rule="evenodd" clip-rule="evenodd" d="M18 12V12V12.126C16.9492 12.3965 16.0654 13.0832 15.5351 14H13V14H6V20H18V20H19H20V22H4V12H6V8C6 4.70445 8.69579 2 12 2C15.3042 2 18 4.70445 18 8V12ZM12 4C9.78136 4 8 5.82793 8 8V12H16V8C16 5.82793 14.2186 4 12 4ZM22 16C22 14.3431 20.6569 13 19 13C17.6938 13 16.5825 13.8348 16.1707 15H9V17H10V19H13V17H16.1707C16.5825 18.1652 17.6938 19 19 19C20.6569 19 22 17.6569 22 16ZM18 16C18 15.4477 18.4477 15 19 15C19.5523 15 20 15.4477 20 16C20 16.5523 19.5523 17 19 17C18.4477 17 18 16.5523 18 16Z" fill="white"/>
</svg>
