<svg width="24" height="24" viewBox="0 0 24 24" fill="none" xmlns="http://www.w3.org/2000/svg">
<path fill-rule="evenodd" clip-rule="evenodd" d="M24 3.00049L11.9942 24.0001L0 3.00049H24ZM22.276 4.0001H1.722L11.994 21.9841L22.276 4.0001ZM13.47 5.4201C14.6741 5.93325 15.4594 7.1113 15.47 8.4201C15.4488 9.71592 14.6643 10.8769 13.47 11.3801V16.6901C13.47 17.5185 12.7984 18.1901 11.97 18.1901C11.1416 18.1901 10.47 17.5185 10.47 16.6901V11.4501C9.26245 10.9412 8.47534 9.76051 8.47 8.4501C8.48058 7.1413 9.26595 5.96325 10.47 5.4501V7.7401C10.47 8.22611 10.864 8.6201 11.35 8.6201H12.59C13.076 8.6201 13.47 8.22611 13.47 7.7401V5.4201Z" fill="white"/>
</svg>
