<svg width="24" height="24" viewBox="0 0 24 24" fill="none" xmlns="http://www.w3.org/2000/svg">
<path d="M4 12.375C4 7.71075 7.6198 4 12 4C16.3802 4 20 7.71075 20 12.375V18H22V12.375C22 6.68391 17.5609 2 12 2C6.43907 2 2 6.68391 2 12.375V18H4V12.375Z" fill="white"/>
<path d="M19.9821 22L16.7111 13H14.6551L17.9271 22H19.9821Z" fill="white"/>
<path d="M6.07009 22L9.34209 13H7.28709L4.01709 22H6.07009Z" fill="white"/>
<path d="M13.0001 21V17H11.0001V21H13.0001Z" fill="white"/>
<path d="M13.0001 15V13H11.0001V15H13.0001Z" fill="white"/>
</svg>
