<svg width="24" height="24" viewBox="0 0 24 24" fill="none" xmlns="http://www.w3.org/2000/svg">
<path fill-rule="evenodd" clip-rule="evenodd" d="M15.5 10C13.57 10 12 8.43 12 6.5C12 4.57 13.57 3 15.5 3C17.43 3 19 4.57 19 6.5C19 8.43 17.43 10 15.5 10ZM14 11C12.52 11 11.23 11.8 10.54 13H7C4.79 13 3 14.79 3 17V21H21V15C21 12.79 19.21 11 17 11H14ZM12 15C12 13.9 12.9 13 14 13H17C18.1 13 19 13.9 19 15V19H12V15ZM5 17V19H10V15H7C5.9 15 5 15.9 5 17ZM14 6.5C14 5.673 14.673 5 15.5 5C16.327 5 17 5.673 17 6.5C17 7.327 16.327 8 15.5 8C14.673 8 14 7.327 14 6.5ZM8 12C6.346 12 5 10.654 5 9C5 7.346 6.346 6 8 6C9.654 6 11 7.346 11 9C11 10.654 9.654 12 8 12ZM6.875 9C6.875 8.379 7.38 7.875 8 7.875C8.62 7.875 9.125 8.379 9.125 9C9.125 9.621 8.62 10.125 8 10.125C7.38 10.125 6.875 9.621 6.875 9Z" fill="white"/>
</svg>
