<?xml version="1.0" encoding="utf-8"?>
<!-- Generator: Adobe Illustrator 24.3.0, SVG Export Plug-In . SVG Version: 6.00 Build 0)  -->
<svg version="1.1" id="Ebene_1" xmlns="http://www.w3.org/2000/svg" xmlns:xlink="http://www.w3.org/1999/xlink" x="0px" y="0px"
	 viewBox="0 0 40 40" style="enable-background:new 0 0 40 40;" xml:space="preserve">
<style type="text/css">
	.st0{fill:#41AAAA;}
	.st1{fill:#FFFFFF;}
	.st2{fill:#EF0137;}
	.st3{fill:#787878;}
	.st4{fill:#FFD732;}
</style>
<path class="st0" d="M32.2,35.4H7.8c-2,0-3.5-1.6-3.5-3.5V17.8c0-2,1.6-3.5,3.5-3.5h24.4c2,0,3.5,1.6,3.5,3.5v14.1
	C35.7,33.8,34.1,35.4,32.2,35.4z"/>
<g>
	<rect x="8.4" y="25.3" class="st1" width="7.2" height="1.2"/>
	<rect x="8.4" y="22.8" class="st1" width="10" height="1.2"/>
	<rect x="8.4" y="27.7" class="st1" width="6.2" height="1.2"/>
	<rect x="8.2" y="30.2" class="st1" width="11.1" height="1.2"/>
</g>
<g>
	<g>
		<ellipse class="st2" cx="10.5" cy="10.4" rx="6.6" ry="6.6"/>
		<path class="st3" d="M10.5,3.1c-4.2,0-7.4,3.3-7.4,7.4s3.3,7.4,7.4,7.4s7.4-3.3,7.4-7.4C17.9,6.2,14.6,3.1,10.5,3.1z M10.5,16.9
			C7,16.9,4,14,4,10.4c0-3.5,2.9-6.5,6.5-6.5c3.5,0,6.5,2.9,6.5,6.5S14,16.9,10.5,16.9z"/>
		<path class="st1" d="M7.1,12.5c-0.1,0.3,0.1,0.6,0.5,0.6h1.7c0,0.7,0.6,1.4,1.3,1.4s1.3-0.6,1.3-1.3h1.7c0.3,0,0.6-0.3,0.5-0.6
			c0,0-0.7-0.7-0.7-1.7V9.3l0,0c0-0.2-0.2-1.6-2-2V7.1c0-0.5-0.1-0.8-0.7-0.8S9.6,6.8,9.6,7.1v0.1c-1.6,0.4-2,1.9-2,2l0,0
			c0,0,0,0.6,0,1.6C7.8,11.9,7.1,12.5,7.1,12.5z"/>
		<path class="st1" d="M12.2,5.9c0.7,0.3,1.3,0.7,1.7,1.4c0.6,0.7,0.8,1.4,1,2.2l0.7-0.2c-0.2-0.8-0.5-1.7-1.2-2.5
			c-0.6-0.7-1.3-1.2-2-1.5L12.2,5.9z"/>
		<path class="st1" d="M8.8,5.9C8.1,6.2,7.5,6.8,7.1,7.3C6.5,7.9,6.2,8.6,6,9.6L5.3,9.3c0.2-0.8,0.6-1.8,1.2-2.6s1.2-1.2,1.8-1.6
			L8.8,5.9z"/>
	</g>
	<g>
		<ellipse class="st4" cx="29" cy="10.4" rx="6.7" ry="6.5"/>
		<path class="st3" d="M28.9,3c-4.2,0-7.4,3.3-7.4,7.4s3.3,7.4,7.4,7.4s7.4-3.3,7.4-7.4S33,3,28.9,3z M28.9,16.9
			c-3.5,0-6.5-2.9-6.5-6.5c0-3.5,2.9-6.5,6.5-6.5c3.5,0,6.5,2.9,6.5,6.5C35.3,13.9,32.5,16.9,28.9,16.9z"/>
		<g>
			<path class="st0" d="M28.9,6.3L28.9,6.3L28.9,6.3L28.9,6.3L28.9,6.3c-2,0-1.5,2-1.5,2l0.9,3.7h0.6l0,0h0.6l0.9-3.7
				C30.5,8.4,30.8,6.3,28.9,6.3z"/>
			<ellipse class="st0" cx="28.9" cy="13.7" rx="1" ry="1"/>
		</g>
	</g>
</g>
</svg>
