<?xml version="1.0" encoding="utf-8"?>
<!-- Generator: Adobe Illustrator 24.3.0, SVG Export Plug-In . SVG Version: 6.00 Build 0)  -->
<svg version="1.1" id="Ebene_1" xmlns="http://www.w3.org/2000/svg" xmlns:xlink="http://www.w3.org/1999/xlink" x="0px" y="0px"
	 viewBox="0 0 40 40" style="enable-background:new 0 0 40 40;" xml:space="preserve">
<style type="text/css">
	.st0{fill:#797979;}
	.st1{fill:#41AAAA;}
</style>
<path class="st0" d="M3.9,37h32.2c-2.3-6.6-7-11.4-12.7-12.9c3.3-1.4,5.7-4.7,5.7-8.5c0-5.1-4.2-9.3-9.4-9.3s-9.4,4.1-9.4,9.3
	c0,3.9,2.4,7.2,5.9,8.6C10.8,25.8,6.2,30.6,3.9,37z"/>
<path class="st1" d="M7.7,11.7c1.7-5,6.5-8.6,12.1-8.6h0.1l0,0c0.1,0,0.2,0,0.3,0c0.3,0,0.6,0,0.9,0.1c0.3,0,0.7,0.1,1,0.2
	c0.1,0,0.1,0,0.2,0c4.5,0.9,8.1,4.1,9.5,8.3c1.9,0.4,3.3,1.8,3.3,3.4c0,1.5-1.2,2.8-2.9,3.3c-1.1,5-5.2,8.9-10.3,9.7
	c-0.2,0.8-1,1.4-1.9,1.4c-1.1,0-1.9-0.9-1.9-1.9c0-1.1,0.9-1.9,1.9-1.9c0.7,0,1.3,0.4,1.6,0.9c4.8-0.8,8.6-4.7,9.2-9.6v-2.2
	c-0.4-4.9-4.1-8.9-8.9-9.9c-0.1,0-0.1,0-0.2,0c-0.3-0.1-0.6-0.1-0.9-0.1s-0.5,0-0.8,0c-0.1,0-0.3,0-0.4,0c-6.1,0-11,4.8-11.1,10.8
	v3.2c-2.4-0.1-4.3-1.6-4.3-3.5C4.3,13.4,5.8,12,7.7,11.7z"/>
</svg>
