<?xml version="1.0" encoding="utf-8"?>
<!-- Generator: Adobe Illustrator 24.3.0, SVG Export Plug-In . SVG Version: 6.00 Build 0)  -->
<svg version="1.1" id="Ebene_1" xmlns="http://www.w3.org/2000/svg" xmlns:xlink="http://www.w3.org/1999/xlink" x="0px" y="0px"
	 viewBox="0 0 40 40" style="enable-background:new 0 0 40 40;" xml:space="preserve">
<style type="text/css">
	.st0{fill:#787879;}
	.st1{fill:#FFFFFF;}
	.st2{fill:#787878;}
	.st3{fill:#41AAAA;}
</style>
<g>
	<path class="st0" d="M33.9,35.8H6.3c-1.7,0-3.1-1.4-3.1-3.1V7.3c0-1.7,1.4-3.1,3.1-3.1h27.5c1.7,0,3.1,1.4,3.1,3.1v25.4
		C37,34.4,35.6,35.8,33.9,35.8z"/>
	<path class="st1" d="M33.9,34.1H6.4c-0.8,0-1.4-0.7-1.4-1.4V10.5h30.3v22.1C35.4,33.5,34.7,34.1,33.9,34.1z"/>
</g>
<g>
	<g>
		<rect x="23.1" y="17" class="st2" width="9.4" height="1.5"/>
		<rect x="23.1" y="26.7" class="st2" width="9.4" height="1.5"/>
		<circle class="st3" cx="32.3" cy="27.4" r="1.8"/>
		<circle class="st3" cx="32.3" cy="17.7" r="1.8"/>
		<rect x="24.8" y="21.9" class="st2" width="9.4" height="1.5"/>
		<circle class="st3" cx="25" cy="22.6" r="1.9"/>
	</g>
	<g>
		<ellipse class="st3" cx="13.9" cy="17.3" rx="7.2" ry="2.9"/>
		<path class="st2" d="M13.9,20.8c-3.2,0-6-0.8-7.2-2.1v2.1l0,0c0.2,1.5,3.4,2.8,7.2,2.8s7.1-1.3,7.2-2.8l0,0v-2
			C19.9,20,17.1,20.8,13.9,20.8z"/>
		<path class="st2" d="M13.9,24.3c-3.2,0-6-0.8-7.2-2.1v2.1l0,0c0.2,1.5,3.4,2.8,7.2,2.8s7.1-1.3,7.2-2.8l0,0v-2.1
			C19.9,23.4,17.1,24.3,13.9,24.3z"/>
		<path class="st2" d="M13.9,27.7c-3.2,0-6-0.8-7.2-2.1v2.1l0,0c0.2,1.5,3.4,2.8,7.2,2.8s7.1-1.3,7.2-2.8l0,0v-2.1
			C19.9,26.9,17.1,27.7,13.9,27.7z"/>
	</g>
</g>
</svg>
