<?xml version="1.0" encoding="utf-8"?>
<!-- Generator: Adobe Illustrator 24.3.0, SVG Export Plug-In . SVG Version: 6.00 Build 0)  -->
<svg version="1.1" id="Ebene_1" xmlns="http://www.w3.org/2000/svg" xmlns:xlink="http://www.w3.org/1999/xlink" x="0px" y="0px"
	 viewBox="0 0 40 40" style="enable-background:new 0 0 40 40;" xml:space="preserve">
<style type="text/css">
	.st0{fill:#41AAAA;}
	.st1{fill:#787878;}
	.st2{fill:#797979;}
</style>
<ellipse class="st0" cx="14.6" cy="11.5" rx="11.9" ry="4.8"/>
<g>
	<path class="st1" d="M26.5,28.1v-3c-0.2,0.2-0.4,0.4-0.7,0.6c0,0,0,0,0,0.1C25.8,26.6,26.1,27.4,26.5,28.1z"/>
	<path class="st1" d="M22,31.2l-0.2-2.6L21,28.3c-1.8,0.4-4,0.7-6.2,0.7C9.4,29,5.3,27.8,3,25.7V29c0.3,2.4,5.6,4.8,11.9,4.8
		c2.6,0,5-0.4,6.2-0.7L22,31.2z"/>
</g>
<g>
	<g>
		<g>
			<path class="st0" d="M39.4,26.9v-2.3l-2-0.7c-0.2-0.7-0.4-1.3-0.8-2l1-1.9L36,18.3l-1.9,1c-0.6-0.3-1.2-0.7-2-0.8l-0.7-2h-2.3
				l-0.7,2c-0.7,0.2-1.3,0.4-2,0.8l-1.9-1L22.8,20l1,1.9c-0.3,0.6-0.7,1.2-0.8,2l-2,0.7v2.3l2,0.7c0.2,0.7,0.4,1.3,0.8,2l0,0l-1,1.9
				l1.7,1.7l1.9-1l0,0c0.6,0.3,1.2,0.7,2,0.8l0,0l0.7,2h2.3l0.7-2l0,0c0.7-0.2,1.3-0.4,2-0.8l0,0l1.9,1l1.7-1.7l-1-1.9l0,0
				c0.3-0.6,0.7-1.2,0.8-2L39.4,26.9z M30.4,29.5c-2.1,0-3.8-1.7-3.8-3.8s1.7-3.8,3.8-3.8s3.8,1.7,3.8,3.8S32.4,29.5,30.4,29.5z"/>
		</g>
	</g>
	<circle class="st2" cx="30.4" cy="25.7" r="2.7"/>
</g>
<path class="st1" d="M19.2,27.2v-2.7l2.4-0.8c0.1-0.6,0.3-1.2,0.6-1.6c-2.1,0.6-4.8,1-7.6,1c-5.4,0-9.5-1.2-11.9-3.3v3.3
	c0.3,2.4,5.6,4.8,11.9,4.8c1.8,0,3.5-0.2,5.1-0.5L19.2,27.2z"/>
<path class="st1" d="M21.4,19.1l2-2l2.2,1.2c0.2-0.1,0.4-0.2,0.7-0.3c0.1-0.3,0.2-0.5,0.3-0.8v-3c-1.8,1.8-6.5,3-11.9,3
	S5.2,16,2.9,13.9v3.3C3.2,19.6,8.4,22,14.7,22c2.9,0,5.5-0.4,7.6-1.2L21.4,19.1z"/>
</svg>
