<?xml version="1.0" encoding="utf-8"?>
<!-- Generator: Adobe Illustrator 24.3.0, SVG Export Plug-In . SVG Version: 6.00 Build 0)  -->
<svg version="1.1" id="Ebene_1" xmlns="http://www.w3.org/2000/svg" xmlns:xlink="http://www.w3.org/1999/xlink" x="0px" y="0px"
	 viewBox="0 0 40 40" style="enable-background:new 0 0 40 40;" xml:space="preserve">
<style type="text/css">
	.st0{fill:#41AAAA;}
	.st1{fill:#787878;}
</style>
<path class="st0" d="M39.3,33.7c0.4,0.4,0.4,1.3,0,2.1l-1.1,0.9c-0.4,0.4-1.3,0.4-2.1,0L30.6,31l-1.1-0.3l-4-0.8l-2.1-2.5v-0.9
	l0.9-0.9l2.3,1.8l2.1-1l0.4-2.3l-2.8-1.3l0.4-1.5l5.2,1.1l1.3,4.6c0,0,0.3,0.8,0.4,1.1L39.3,33.7z"/>
<g>
	<g>
		<path class="st1" d="M35.5,8.2c-2.4-2.4-8.3-4.1-15.1-4.1C13.3,4.1,7.2,5.9,5,8.4v4.3c2.2,2.5,8.3,4.3,15.4,4.3
			c6.8,0,12.7-1.7,15.1-4.1V8.2z"/>
		<ellipse class="st0" cx="20.3" cy="8" rx="15.2" ry="4.9"/>
	</g>
	<path class="st1" d="M25.3,23.3l0.8-3.3l6.3,1l0.3,0.4c1.1-0.6,2.1-1.1,2.8-1.8v-4.4c-2.3,2.4-8.3,4.1-15.1,4.1
		C13.3,19.3,7.2,17.6,5,15c0,0,0,0,0,0.1v4.3c2.2,2.5,8.3,4.3,15.4,4.3c1.8,0,3.5-0.1,5.2-0.3L25.3,23.3z"/>
	<g>
		<path class="st1" d="M34.5,27.1c0.3-0.2,0.7-0.6,1-0.8v-4.4c-0.6,0.6-1.2,1.1-2.1,1.5L34.5,27.1z"/>
		<path class="st1" d="M21.8,27.1l0.1-0.8l0.4-0.4c-0.7,0-1.3,0-2,0C13.3,26,7.2,24.2,5,21.6c0,0,0,0,0,0.1V26
			c2.2,2.5,8.3,4.3,15.4,4.3c1.3,0,2.5-0.1,3.8-0.2L21.8,27.1z"/>
		<path class="st1" d="M26.9,26.1l0.9-0.3v-0.6c-0.4,0.2-1.2,0.3-1.7,0.4L26.9,26.1z"/>
	</g>
	<path class="st1" d="M29.9,32l-1.2-0.3c-2.4,0.6-5.3,0.9-8.3,0.9c-7.1,0-13.1-1.8-15.4-4.3c0,0,0,0,0,0.1v4.3
		c2.2,2.5,8.3,4.3,15.4,4.3c4.7,0,9.1-0.9,12-2.2L29.9,32z"/>
</g>
</svg>
