<?xml version="1.0" encoding="utf-8"?>
<!-- Generator: Adobe Illustrator 24.3.0, SVG Export Plug-In . SVG Version: 6.00 Build 0)  -->
<svg version="1.1" id="Ebene_1" xmlns="http://www.w3.org/2000/svg" xmlns:xlink="http://www.w3.org/1999/xlink" x="0px" y="0px"
	 viewBox="0 0 40 40" style="enable-background:new 0 0 40 40;" xml:space="preserve">
<style type="text/css">
	.st0{fill:#787878;}
	.st1{fill:none;stroke:#787878;stroke-miterlimit:10;}
	.st2{fill:#41AAAA;}
	.st3{fill:#FFFFFF;}
</style>
<g>
	<g>
		<path class="st0" d="M25,6.5l-4.9-3.4l-4.9,3.2v3.6l4.9,3.6l4.9-3.4V6.5z M20.6,9.6l3.9-2.5v2.3l-3.9,2.5
			C20.6,11.9,20.6,9.6,20.6,9.6z"/>
		<line class="st1" x1="29.4" y1="18.6" x2="29.4" y2="22.3"/>
		<line class="st1" x1="11.3" y1="18.5" x2="11.3" y2="22.2"/>
		<line class="st1" x1="25" y1="28.1" x2="22.9" y2="29.4"/>
		<line class="st1" x1="15.3" y1="28.1" x2="17.4" y2="29.6"/>
		<line class="st1" x1="20.1" y1="24.4" x2="20.1" y2="27.9"/>
		<line class="st1" x1="25.3" y1="16.2" x2="23.1" y2="17.6"/>
		<line class="st1" x1="15.1" y1="16" x2="17.3" y2="17.5"/>
		<line class="st1" x1="24.5" y1="10" x2="26.8" y2="11.4"/>
		<line class="st1" x1="15.6" y1="9.7" x2="13.2" y2="11.4"/>
		<polygon class="st2" points="16.3,6.4 20.1,9 23.9,6.5 20.2,3.9 		"/>
	</g>
	<g>
		<path class="st0" d="M25,6.5l-4.9-3.4l-4.9,3.2v3.6l4.9,3.6l4.9-3.4V6.5z M20.6,9.6l3.9-2.5v2.3l-3.9,2.5
			C20.6,11.9,20.6,9.6,20.6,9.6z"/>
		<polygon class="st2" points="16.3,6.4 20.1,9 23.9,6.5 20.2,3.9 		"/>
		<polygon class="st3" points="16,7.1 16,9.3 19.5,12 19.5,9.6 		"/>
		<polygon class="st3" points="20.6,9.6 20.6,12.1 24.4,9.4 24.4,7.1 		"/>
	</g>
	<g>
		<path class="st0" d="M25,18.5L20.1,15l-4.9,3.2v3.6l4.9,3.6L25,22V18.5z M20.6,21.6l3.9-2.5v2.3l-3.9,2.5V21.6z"/>
		<polygon class="st2" points="16.3,18.4 20.1,20.9 23.9,18.5 20.2,15.9 		"/>
		<polygon class="st3" points="16,19.1 16,21.3 19.5,24 19.5,21.6 		"/>
		<polygon class="st3" points="20.6,21.6 20.6,24.1 24.4,21.4 24.4,19.1 		"/>
	</g>
	<g>
		<path class="st0" d="M25,30.4L20.1,27l-4.9,3.2v3.6l4.9,3.6L25,34V30.4z M20.6,33.6l3.9-2.5v2.3l-3.9,2.5
			C20.6,35.9,20.6,33.6,20.6,33.6z"/>
		<polygon class="st2" points="16.3,30.3 20.1,32.9 23.9,30.4 20.2,27.9 		"/>
		<polygon class="st3" points="16,31.1 16,33.3 19.5,36 19.5,33.6 		"/>
		<polygon class="st3" points="20.6,33.6 20.6,36.1 24.4,33.4 24.4,31.1 		"/>
	</g>
	<g>
		<path class="st0" d="M15.8,12.9l-4.9-3.4L6,12.7v3.6l4.9,3.6l4.9-3.4C15.8,16.5,15.8,12.9,15.8,12.9z M11.3,16.1l3.9-2.5v2.3
			l-3.9,2.5C11.3,18.4,11.3,16.1,11.3,16.1z"/>
		<polygon class="st2" points="7.1,12.8 10.9,15.4 14.7,12.9 11,10.3 		"/>
		<polygon class="st3" points="6.8,13.6 6.8,15.8 10.3,18.5 10.3,16.1 		"/>
		<polygon class="st3" points="11.3,16.1 11.3,18.5 15.2,15.9 15.2,13.6 		"/>
	</g>
	<g>
		<path class="st0" d="M15.8,24.9l-4.9-3.4L6,24.7v3.6l4.9,3.6l4.9-3.4C15.8,28.5,15.8,24.9,15.8,24.9z M11.3,28l3.9-2.5v2.3
			l-3.9,2.5C11.3,30.3,11.3,28,11.3,28z"/>
		<polygon class="st2" points="7.1,24.8 10.9,27.4 14.7,24.9 11,22.3 		"/>
		<polygon class="st3" points="6.8,25.5 6.8,27.8 10.3,30.4 10.3,28 		"/>
		<polygon class="st3" points="11.3,28 11.3,30.5 15.2,27.9 15.2,25.5 		"/>
	</g>
	<g>
		<path class="st0" d="M34.2,12.9l-4.9-3.4l-4.9,3.2v3.6l4.9,3.6l4.9-3.4V12.9z M29.8,16.1l3.9-2.5v2.3l-3.9,2.5
			C29.8,18.4,29.8,16.1,29.8,16.1z"/>
		<polygon class="st2" points="25.5,12.8 29.3,15.4 33.1,12.9 29.4,10.3 		"/>
		<polygon class="st3" points="25.3,13.6 25.3,15.8 28.8,18.5 28.8,16.1 		"/>
		<polygon class="st3" points="29.8,16.1 29.8,18.5 33.6,15.9 33.6,13.6 		"/>
	</g>
	<g>
		<path class="st0" d="M34.2,24.9l-4.9-3.4l-4.9,3.2v3.6l4.9,3.6l4.9-3.4V24.9z M29.8,28l3.9-2.5v2.3l-3.9,2.5
			C29.8,30.3,29.8,28,29.8,28z"/>
		<polygon class="st2" points="25.5,24.8 29.3,27.4 33.1,24.9 29.4,22.3 		"/>
		<polygon class="st3" points="25.3,25.5 25.3,27.8 28.8,30.4 28.8,28 		"/>
		<polygon class="st3" points="29.8,28 29.8,30.5 33.6,27.9 33.6,25.5 		"/>
	</g>
</g>
</svg>
