<?xml version="1.0" encoding="utf-8"?>
<!-- Generator: Adobe Illustrator 24.3.0, SVG Export Plug-In . SVG Version: 6.00 Build 0)  -->
<svg version="1.1" id="Ebene_1" xmlns="http://www.w3.org/2000/svg" xmlns:xlink="http://www.w3.org/1999/xlink" x="0px" y="0px"
	 viewBox="0 0 40 40" style="enable-background:new 0 0 40 40;" xml:space="preserve">
<style type="text/css">
	.st0{display:none;}
	.st1{display:inline;}
	.st2{fill:#797979;}
	.st3{fill:#40A9A9;}
	.st4{fill:#FFFFFF;}
	.st5{fill:#505A64;}
	.st6{fill:#41A9C6;}
	.st7{fill:#41AAAA;}
	.st8{fill:#40A9AA;}
</style>
<g>
	<g class="st0">
		<g class="st1">
			<g>
				<path class="st2" d="M27.2,29.6c0-4.3,3.5-7.3,7.8-7.3c0.3,0,0.6,0,0.9,0.1V9.9h-9.5V36h4.1C28.6,34.6,27.2,32.2,27.2,29.6z"/>
				<g>
					<g>
						<rect x="4.1" y="9.9" class="st3" width="9.5" height="26.2"/>
						<rect x="6.2" y="11.9" class="st4" width="5.6" height="8.3"/>
						<polygon class="st4" points="8.9,23.8 7.8,25 10.2,25 						"/>
						<polygon class="st4" points="9,30.3 10.2,29.1 7.8,29.1 						"/>
						<polygon class="st4" points="5.7,27.1 7,28.3 7,25.8 						"/>
						<polygon class="st4" points="12.2,27.1 10.9,25.8 10.9,28.3 						"/>
						<polygon class="st4" points="12.4,32.5 12.4,34.8 10.4,34.8 10.4,35.2 12.8,35.2 12.8,32.5 						"/>
						<polygon class="st2" points="5.5,32.5 5.5,34.8 7.5,34.8 7.5,35.2 5.1,35.2 5.1,32.5 						"/>
					</g>
					<g>
						<rect x="15.3" y="9.9" class="st2" width="9.5" height="26.2"/>
						<rect x="17.9" y="25.8" class="st4" width="4.4" height="8.1"/>
						<rect x="15.3" y="22.8" class="st5" width="9.5" height="1.2"/>
						<rect x="17.2" y="12.5" class="st6" width="5.8" height="2.3"/>
						<rect x="21.1" y="16.1" class="st4" width="1.6" height="1.5"/>
					</g>
					<g>
						<rect x="28.3" y="12.5" class="st6" width="5.8" height="2.3"/>
						<rect x="32.2" y="16.1" class="st4" width="1.6" height="1.5"/>
						<rect x="32.2" y="19" class="st4" width="1.6" height="1.5"/>
					</g>
				</g>
				<path class="st5" d="M32,22.8h-5.5V24h3.4C30.5,23.5,31.2,23.1,32,22.8z"/>
				<path class="st5" d="M28.1,33.2V36h1v-1.3C28.8,34.3,28.4,33.8,28.1,33.2z"/>
				<path class="st5" d="M29.8,35.4V36h0.9C30.4,35.9,30.1,35.6,29.8,35.4z"/>
			</g>
		</g>
	</g>
</g>
<g>
	<g>
		<polygon class="st2" points="28,34.5 28.8,32.9 27,32.1 27,29.4 28.7,28.9 28.2,26.8 30.1,25 31.7,25.7 32.4,24.1 35.3,24 
			35.9,25.7 36.1,25.6 36.1,4 26.5,4 26.5,36.1 29.5,36.1 		"/>
		<polygon class="st2" points="31.1,36.1 31.7,36.1 31.6,35.9 		"/>
	</g>
	<g>
		<g>
			<g>
				<rect x="4.1" y="4" class="st7" width="9.6" height="32.1"/>
				<rect x="6.1" y="6" class="st4" width="5.6" height="10.7"/>
				<polygon class="st4" points="8.9,21.8 7.8,23 10.1,23 				"/>
				<polygon class="st4" points="9,28.3 10.1,27.2 7.8,27.2 				"/>
				<polygon class="st4" points="5.6,25.1 7,26.4 7,23.8 				"/>
				<polygon class="st4" points="12.2,25.1 11,23.8 11,26.4 				"/>
				<polygon class="st4" points="12.4,32.7 12.4,34.9 10.3,34.9 10.3,35.3 12.8,35.3 12.8,32.7 				"/>
				<polygon class="st2" points="5.4,32.7 5.4,34.9 7.4,34.9 7.4,35.3 5.1,35.3 5.1,32.7 				"/>
			</g>
			<g>
				<rect x="15.3" y="4" class="st2" width="9.6" height="32.1"/>
				<rect x="17.8" y="20.4" class="st4" width="4.4" height="8.2"/>
				<rect x="15.3" y="17" class="st5" width="9.6" height="1.2"/>
				<rect x="17.2" y="6.6" class="st4" width="5.8" height="2.3"/>
				<rect x="21" y="10.3" class="st4" width="1.6" height="1.5"/>
			</g>
			<g>
				<rect x="22.5" y="32.2" class="st5" width="0.9" height="4"/>
				<rect x="20.6" y="32.2" class="st5" width="0.9" height="4"/>
				<rect x="18.8" y="32.2" class="st5" width="0.9" height="4"/>
				<rect x="17" y="32.2" class="st5" width="0.9" height="4"/>
				<rect x="28.4" y="6.6" class="st4" width="5.8" height="2.3"/>
				<rect x="26.5" y="17" class="st5" width="9.6" height="1.2"/>
				<rect x="32.3" y="10.3" class="st4" width="1.6" height="1.5"/>
				<rect x="32.3" y="13.2" class="st4" width="1.6" height="1.5"/>
			</g>
		</g>
		<path class="st8" d="M39.3,31.7V30L38,29.5c-0.1-0.3-0.2-0.6-0.4-0.9l0.7-1.2l-1.2-1.2l-1.2,0.7c-0.2-0.1-0.5-0.2-0.8-0.3
			l-0.4-1.4H33l-0.4,1.4c-0.3,0.1-0.6,0.2-0.9,0.3l-1.2-0.7l-1.2,1.2l0.6,1.2c-0.2,0.3-0.3,0.6-0.4,1L28.2,30v1.7l1.3,0.4
			c0.1,0.3,0.2,0.6,0.4,0.9l-0.7,1.2l1.2,1.2l1.2-0.7c0.3,0.1,0.5,0.2,0.9,0.3l0.4,1.4h1.8l0.4-1.4c0.3-0.1,0.5-0.2,0.8-0.3l1.2,0.7
			l1.2-1.2L37.6,33c0.1-0.3,0.3-0.5,0.3-0.8L39.3,31.7z M33.7,33.3c-1.3,0-2.4-1.1-2.4-2.4c0-1.3,1.1-2.4,2.4-2.4s2.4,1.1,2.4,2.4
			C36.2,32.2,35.1,33.3,33.7,33.3z"/>
	</g>
</g>
</svg>
