<?xml version="1.0" encoding="utf-8"?>
<!-- Generator: Adobe Illustrator 24.3.0, SVG Export Plug-In . SVG Version: 6.00 Build 0)  -->
<svg version="1.1" id="Ebene_1" xmlns="http://www.w3.org/2000/svg" xmlns:xlink="http://www.w3.org/1999/xlink" x="0px" y="0px"
	 viewBox="0 0 40 40" style="enable-background:new 0 0 40 40;" xml:space="preserve">
<style type="text/css">
	.st0{fill:#797979;}
	.st1{fill:#41AAAA;}
	.st2{fill:#FFFFFF;}
	.st3{fill:#505A64;}
</style>
<g>
	<g>
		<rect x="7.5" y="4.1" class="st0" width="11.5" height="31.9"/>
		<rect x="10" y="6.6" class="st1" width="6.8" height="10.2"/>
		<polygon class="st2" points="13.3,21.2 12,22.6 14.9,22.6 		"/>
		<polygon class="st2" points="13.4,29.1 14.9,27.7 12,27.7 		"/>
		<polygon class="st2" points="9.4,25.2 11.1,26.8 11.1,23.6 		"/>
		<polygon class="st2" points="17.4,25.2 15.8,23.6 15.8,26.8 		"/>
		<polygon class="st1" points="17.6,31.9 17.6,34.7 15.1,34.7 15.1,35.2 18.1,35.2 18.1,31.9 		"/>
		<polygon class="st2" points="9.1,31.9 9.1,34.7 11.5,34.7 11.5,35.2 8.7,35.2 8.7,31.9 		"/>
	</g>
	<g>
		<rect x="21.3" y="4.1" class="st0" width="11.5" height="31.9"/>
		<rect x="29.9" y="31.5" class="st3" width="1.1" height="4.8"/>
		<rect x="27.6" y="31.5" class="st3" width="1.1" height="4.8"/>
		<rect x="25.4" y="31.5" class="st3" width="1.1" height="4.8"/>
		<rect x="23.3" y="31.5" class="st3" width="1.1" height="4.8"/>
		<rect x="23.5" y="7.4" class="st1" width="7.1" height="2.8"/>
		<rect x="21.3" y="19.9" class="st1" width="11.5" height="1.5"/>
		<rect x="28.3" y="11.8" class="st2" width="2" height="1.9"/>
		<rect x="28.3" y="15.3" class="st2" width="2" height="1.9"/>
	</g>
</g>
</svg>
