<?xml version="1.0" encoding="utf-8"?>
<!-- Generator: Adobe Illustrator 24.3.0, SVG Export Plug-In . SVG Version: 6.00 Build 0)  -->
<svg version="1.1" id="Ebene_1" xmlns="http://www.w3.org/2000/svg" xmlns:xlink="http://www.w3.org/1999/xlink" x="0px" y="0px"
	 viewBox="0 0 40 40" style="enable-background:new 0 0 40 40;" xml:space="preserve">
<style type="text/css">
	.st0{fill:#797979;}
	.st1{fill:#FFFFFF;}
	.st2{fill:#41AAAA;}
	.st3{fill:#00622D;}
	.st4{font-family:'ArialMT';}
	.st5{font-size:17.3796px;}
</style>
<g>
	<path class="st0" d="M29.5,36.5H10c-1.2,0-2.2-1-2.2-2.2v-28c0-1.2,1-2.2,2.2-2.2h19.5c1.2,0,2.2,1,2.2,2.2v28.1
		C31.7,35.4,30.7,36.5,29.5,36.5z"/>
	<path class="st1" d="M29.2,35.3h-19c-0.6,0-1.2-0.6-1.2-1.2V6.5c0-0.6,0.6-1.2,1.2-1.2h19.1c0.6,0,1.2,0.6,1.2,1.2v27.7
		C30.5,34.7,30,35.3,29.2,35.3z"/>
	<rect x="21.6" y="4.1" class="st2" width="3.1" height="1.1"/>
</g>
<g>
	<rect x="10" y="27.2" class="st2" width="5.8" height="3.9"/>
	<rect x="17.2" y="27.2" class="st2" width="5.8" height="3.9"/>
	<rect x="24" y="27.2" class="st2" width="5.8" height="3.9"/>
	<rect x="10" y="22.2" class="st2" width="5.8" height="3.9"/>
	<rect x="17.2" y="22.2" class="st2" width="5.8" height="3.9"/>
	<rect x="24" y="22.2" class="st2" width="5.8" height="3.9"/>
	<rect x="10" y="17.4" class="st2" width="5.8" height="3.9"/>
	<rect x="17.2" y="17.4" class="st2" width="5.8" height="3.9"/>
	<rect x="24" y="17.4" class="st2" width="5.8" height="3.9"/>
	<rect x="10" y="12.4" class="st2" width="5.8" height="3.9"/>
	<rect x="17.2" y="12.4" class="st2" width="5.8" height="3.9"/>
	<rect x="24" y="12.4" class="st2" width="5.8" height="3.9"/>
	<rect x="10" y="7.5" class="st2" width="5.8" height="3.9"/>
	<rect x="17.2" y="7.5" class="st2" width="5.8" height="3.9"/>
	<rect x="24" y="7.5" class="st2" width="5.8" height="3.9"/>
</g>
<g>
	<path class="st3" d="M26.5,38.5V26.8h12.1v11.7H26.5z"/>
	<text transform="matrix(1 0 0 1 28.2578 37.2021)" class="st1 st4 st5">x</text>
</g>
</svg>
