<?xml version="1.0" encoding="utf-8"?>
<!-- Generator: Adobe Illustrator 24.3.0, SVG Export Plug-In . SVG Version: 6.00 Build 0)  -->
<svg version="1.1" id="Ebene_1" xmlns="http://www.w3.org/2000/svg" xmlns:xlink="http://www.w3.org/1999/xlink" x="0px" y="0px"
	 viewBox="0 0 40 40" style="enable-background:new 0 0 40 40;" xml:space="preserve">
<style type="text/css">
	.st0{display:none;fill:#EF0137;}
	.st1{fill:#797979;}
	.st2{fill:#41A9AA;}
	.st3{fill:#FFFFFF;}
	.st4{fill:#787878;}
	.st5{enable-background:new    ;}
	.st6{fill:#41AAAA;}
	.st7{font-family:'SiemensSansGlobal-Bold';}
	.st8{font-size:8.8749px;}
</style>
<g>
	<path class="st0" d="M0,0v40h40V0H0z M36.7,36.8H3.3V3.3h33.4V36.8z"/>
	<g>
		<g>
			<polygon class="st1" points="27.8,20.6 22.1,36.7 26,35.7 28.2,38.9 34,22.7 			"/>
			<polygon class="st1" points="25.7,23.3 33.4,38.8 35.3,35.4 39.1,36 31.4,20.4 			"/>
			<circle class="st2" cx="30.1" cy="22.1" r="9.2"/>
			<circle class="st3" cx="30.1" cy="22.1" r="5.6"/>
			<circle class="st1" cx="30.1" cy="22.1" r="3.7"/>
		</g>
		<path class="st3" d="M19.1,22.1c0-6,4.8-11,11-11c1.4,0,2.6,0.3,3.9,0.7V4.7H4.8v0.1v31h16.3l1.6-5.5c-0.3-0.3-0.7-0.7-0.9-1
			C20.1,27.4,19.1,24.9,19.1,22.1z"/>
		<path class="st4" d="M5.6,5.4h27v6.1c0.8,0.2,1.5,0.4,2.1,0.8v-9H3.3v33.5h17.4l0.6-2H5.6V5.4z"/>
		<g class="st5">
			<path class="st6" d="M11,14.6V9.7l-1,0.8L9.5,9.6l1.7-1.1h0.9v6.1H11z"/>
			<path class="st6" d="M14.9,12.5c0.2,0,0.4,0.1,0.6,0.2c0.2,0.2,0.2,0.4,0.2,0.6s-0.1,0.4-0.2,0.6C15.4,14,15.1,14,14.9,14
				s-0.4-0.1-0.6-0.2c-0.2-0.2-0.2-0.5-0.2-0.7s0.1-0.4,0.2-0.6C14.5,12.5,14.7,12.5,14.9,12.5z"/>
			<path class="st6" d="M19,8.4c0.8,0,1.3,0.3,1.6,0.8c0.3,0.5,0.5,1.4,0.5,2.4s-0.2,1.7-0.4,2.2c-0.3,0.7-0.9,1-1.7,1
				c-0.8,0-1.3-0.3-1.6-0.8c-0.3-0.5-0.5-1.4-0.5-2.4S17,10,17.3,9.5C17.6,8.7,18.2,8.4,19,8.4z M19,9.3c-0.3,0-0.7,0.2-0.9,0.6
				c-0.2,0.4-0.3,0.9-0.3,1.7c0,0.8,0.1,1.4,0.3,1.7c0.2,0.4,0.5,0.6,0.9,0.6c0.3,0,0.7-0.2,0.9-0.6s0.3-1,0.3-1.7
				c0-0.8-0.1-1.4-0.3-1.7C19.7,9.5,19.3,9.3,19,9.3z"/>
		</g>
		<g class="st5">
			<path class="st6" d="M11,23.3v-4.9L10,19l-0.5-0.9l1.7-1.1h0.9v6.2H11z"/>
			<path class="st6" d="M15.2,22c0.2,0,0.3,0.1,0.5,0.2c0.2,0.2,0.2,0.3,0.2,0.5s-0.1,0.3-0.2,0.5c-0.1,0.2-0.3,0.2-0.5,0.2
				s-0.3-0.1-0.5-0.2c-0.2-0.1-0.2-0.3-0.2-0.5c0-0.2,0.1-0.3,0.2-0.5C14.8,22,15,22,15.2,22z"/>
		</g>
		<text transform="matrix(1 0 0 1 8.7549 32.0715)" class="st6 st7 st8">0.1</text>
		<path class="st6" d="M19.1,23.3c0-0.6-0.1-1.2,0-1.6c0.1-1.4,0.3-2.4,0.7-3.6v-0.9h-0.9l-1.7,1.1l0.5,0.9l1.2-0.8v4.9H19.1z"/>
	</g>
	<path class="st6" d="M26.4,9.7v2c0.4-0.1,0.7-0.2,1.1-0.3V8.5h-1l-1.6,1.1l0.5,0.9L26.4,9.7z"/>
	<path class="st6" d="M22.7,13.8c0.4-0.3,0.8-0.7,1.3-1c0,0-0.1-0.1-0.1-0.1c-0.2-0.1-0.4-0.2-0.6-0.2s-0.4,0-0.6,0.2
		c-0.1,0.2-0.2,0.4-0.2,0.6C22.5,13.4,22.5,13.7,22.7,13.8z"/>
</g>
</svg>
