<?xml version="1.0" encoding="utf-8"?>
<!-- Generator: Adobe Illustrator 24.3.0, SVG Export Plug-In . SVG Version: 6.00 Build 0)  -->
<svg version="1.1" id="Ebene_1" xmlns="http://www.w3.org/2000/svg" xmlns:xlink="http://www.w3.org/1999/xlink" x="0px" y="0px"
	 viewBox="0 0 40 40" style="enable-background:new 0 0 40 40;" xml:space="preserve">
<style type="text/css">
	.st0{fill:#787878;}
	.st1{fill:#41AAAA;}
</style>
<g>
	<polygon class="st0" points="9.2,26.8 9.2,27.1 9.4,26.8 	"/>
	<path class="st0" d="M37,27.2V15c0-2.1-1.7-3.7-3.7-3.7h-0.4v11.8c0,2.1-1.7,3.7-3.7,3.7h-13l-5.5,3.3c0.6,0.5,1.4,0.8,2.3,0.8h13
		l10.4,6.3l-3.6-6.3h0.5C35.3,30.9,37,29.3,37,27.2z"/>
</g>
<path class="st1" d="M27.1,5.1H6.7C4.7,5.1,3,6.8,3,8.8V21c0,2.1,1.7,3.7,3.7,3.7h0.5L3.5,31L14,24.7h13c2.1,0,3.7-1.7,3.7-3.7V8.8
	C30.8,6.9,29.1,5.1,27.1,5.1z"/>
</svg>
