<?xml version="1.0" encoding="utf-8"?>
<!-- Generator: Adobe Illustrator 24.3.0, SVG Export Plug-In . SVG Version: 6.00 Build 0)  -->
<svg version="1.1" id="Ebene_1" xmlns="http://www.w3.org/2000/svg" xmlns:xlink="http://www.w3.org/1999/xlink" x="0px" y="0px"
	 viewBox="0 0 40 40" style="enable-background:new 0 0 40 40;" xml:space="preserve">
<style type="text/css">
	.st0{display:none;}
	.st1{display:inline;fill:#797979;}
	.st2{display:inline;fill:#FFFFFF;}
	.st3{display:inline;fill:#41AAAA;}
	.st4{fill:#FFFFFF;}
	.st5{fill:#41AAAA;}
	.st6{fill:#787878;}
</style>
<g>
	<g>
		<g class="st0">
			<path class="st1" d="M34.6,37h-29c-1.4,0-2.4-1-2.4-2.3V5.3C3.2,4,4.2,3,5.6,3h28.9C35.9,3,37,4,37,5.3v29.4
				C37,35.9,35.9,37,34.6,37z"/>
			<path class="st2" d="M33.7,35.1H6.4c-0.7,0-1.3-0.6-1.3-1.2V6.1c0-0.7,0.6-1.2,1.3-1.2h27.3c0.7,0,1.3,0.6,1.3,1.2v27.7
				C35,34.5,34.4,35.1,33.7,35.1z"/>
			<rect x="29.3" y="3" class="st3" width="3.5" height="1.8"/>
		</g>
		<rect x="3.3" y="3.7" class="st4" width="33.6" height="32.5"/>
		<g>
			<rect x="11" y="29.4" class="st5" width="2.9" height="2.7"/>
			<rect x="11" y="24.4" class="st5" width="2.9" height="2.7"/>
			<g>
				<g id="icons">
					<rect x="18.2" y="13.3" class="st5" width="4.1" height="9"/>
					<rect x="10.9" y="17.3" class="st5" width="4.1" height="5"/>
					<rect x="25" y="8.1" class="st5" width="4.1" height="14.2"/>
				</g>
				<rect x="16.3" y="29.4" class="st6" width="12.9" height="2.7"/>
				<rect x="16.3" y="24.4" class="st6" width="12.9" height="2.7"/>
			</g>
		</g>
	</g>
</g>
</svg>
