<?xml version="1.0" encoding="utf-8"?>
<!-- Generator: Adobe Illustrator 24.3.0, SVG Export Plug-In . SVG Version: 6.00 Build 0)  -->
<svg version="1.1" id="Ebene_1" xmlns="http://www.w3.org/2000/svg" xmlns:xlink="http://www.w3.org/1999/xlink" x="0px" y="0px"
	 viewBox="0 0 40 40" style="enable-background:new 0 0 40 40;" xml:space="preserve">
<style type="text/css">
	.st0{fill:#787878;}
	.st1{fill:#40A9AA;}
	.st2{fill:#FFFFFF;}
	.st3{fill:#797979;}
</style>
<g>
	<path class="st0" d="M20.2,3c-4.8,0-8.9,4-8.9,8.9v7.7h3.9v-7.9c0-2.7,2.3-5,5-5s5,2.3,5,5v7.9h3.9v-7.7C29.1,6.9,25,3,20.2,3z"/>
	<g>
		<path class="st1" d="M29.9,37H10.5C8.6,37,7,35.4,7,33.5V20.9c0-1.9,1.6-3.5,3.5-3.5h19.3c1.9,0,3.5,1.6,3.5,3.5v12.6
			C33.4,35.5,31.8,37,29.9,37z"/>
		<path class="st2" d="M28.3,33.5H12.1c-0.8,0-1.3-0.6-1.3-1.3v-9.8c0-0.8,0.6-1.3,1.3-1.3h16.1c0.8,0,1.3,0.6,1.3,1.3v9.8
			C29.7,33,29.1,33.5,28.3,33.5z"/>
		<circle class="st3" cx="20.2" cy="27.2" r="3.1"/>
	</g>
</g>
</svg>
