<?xml version="1.0" encoding="utf-8"?>
<!-- Generator: Adobe Illustrator 24.3.0, SVG Export Plug-In . SVG Version: 6.00 Build 0)  -->
<svg version="1.1" id="Ebene_1" xmlns="http://www.w3.org/2000/svg" xmlns:xlink="http://www.w3.org/1999/xlink" x="0px" y="0px"
	 viewBox="0 0 40 40" style="enable-background:new 0 0 40 40;" xml:space="preserve">
<style type="text/css">
	.st0{fill:#787878;}
	.st1{fill:#FFFFFF;}
	.st2{fill:#41AAAA;}
	.st3{fill:#797979;}
</style>
<g>
	<path class="st0" d="M30.3,30c-2.6,2.4-6,3.9-9.6,3.9C13.1,33.9,7,27.8,7,20.1S13.1,6.3,20.8,6.3c3.6,0,6.9,1.4,9.5,3.7l2.3-2.3
		C29.4,4.8,25.3,3,20.7,3c-9.5,0-17,7.7-17,17s7.7,17,17,17c4.6,0,8.8-1.8,11.8-4.8C31.8,31.5,31,30.7,30.3,30z"/>
	<path class="st1" d="M29,28.7v-5.3h-8.6V17H29v-5.3l5.4,3.3C32.3,9.5,27,5.4,20.8,5.4C12.6,5.4,6.1,12,6.1,20
		c0,8.1,6.5,14.7,14.6,14.7c6.1,0,11.4-3.8,13.5-9.4L29,28.7z"/>
	<path class="st2" d="M20.6,20.2V5.5h-0.1C12.5,5.4,6,12,6,20c0,0.1,0,0.1,0,0.2H20.6z"/>
	<polygon class="st2" points="38.9,20.2 29.7,14.9 29.7,18.7 22,18.7 22,21.8 29.7,21.8 29.7,25.6 	"/>
	<rect x="19.2" y="4.7" class="st3" width="2.4" height="4.4"/>
	<rect x="19.3" y="30.4" class="st3" width="2.3" height="4.1"/>
	<rect x="5.5" y="18.8" class="st3" width="4.4" height="2.4"/>
</g>
</svg>
