<?xml version="1.0" encoding="utf-8"?>
<!-- Generator: Adobe Illustrator 24.3.0, SVG Export Plug-In . SVG Version: 6.00 Build 0)  -->
<svg version="1.1" id="Ebene_1" xmlns="http://www.w3.org/2000/svg" xmlns:xlink="http://www.w3.org/1999/xlink" x="0px" y="0px"
	 viewBox="0 0 40 40" style="enable-background:new 0 0 40 40;" xml:space="preserve">
<style type="text/css">
	.st0{fill:#787879;}
	.st1{fill:#41AAAA;}
	.st2{fill:#787878;}
</style>
<g>
	<path class="st0" d="M19.5,30.4c-0.2-0.5-0.6-0.8-1-1v-21h-0.3v-2H17v1.9h-0.1v20.9c-0.7,0.3-1.3,0.9-1.3,1.8c0,1,0.8,2,2,2
		c0.8,0,1.6-0.5,1.8-1.3h2.4v-1.4L19.5,30.4L19.5,30.4z M18.3,31.2c0,0.4-0.3,0.7-0.7,0.7c-0.4,0-0.7-0.4-0.7-0.7
		c0-0.4,0.3-0.7,0.7-0.7C18,30.4,18.3,30.7,18.3,31.2z"/>
	<g>
		<g>
			<path class="st0" d="M33.5,20.7h-27c-0.5,0-0.8-0.4-0.8-0.8V14c0-0.5,0.4-0.8,0.8-0.8h27c0.5,0,0.8,0.4,0.8,0.8v5.9
				C34.4,20.2,34,20.7,33.5,20.7z"/>
			<rect x="8.4" y="15.9" class="st1" width="15.5" height="1.7"/>
			<circle class="st1" cx="30.3" cy="16.7" r="1.3"/>
		</g>
		<g>
			<path class="st0" d="M33.5,10.4h-27C6,10.4,5.7,10,5.7,9.6V3.8C5.7,3.3,6.1,3,6.5,3h27c0.5,0,0.8,0.4,0.8,0.8v5.8
				C34.4,10,34,10.4,33.5,10.4z"/>
			<rect x="8.4" y="5.6" class="st1" width="15.5" height="1.7"/>
			<circle class="st1" cx="30.3" cy="6.6" r="1.3"/>
		</g>
	</g>
	<g>
		<ellipse class="st1" cx="27.3" cy="24.5" rx="6.8" ry="2.8"/>
		<path class="st2" d="M27.3,27.9c-3,0-5.6-0.7-6.8-1.9v1.9l0,0c0.1,1.4,3.2,2.6,6.8,2.6s6.7-1.2,6.8-2.6l0,0v-1.8
			C33.1,27.2,30.4,27.9,27.3,27.9z"/>
		<path class="st2" d="M27.3,31.2c-3,0-5.6-0.7-6.8-1.9v1.9l0,0c0.1,1.4,3.2,2.6,6.8,2.6s6.7-1.2,6.8-2.6l0,0v-1.9
			C33.1,30.4,30.4,31.2,27.3,31.2z"/>
		<path class="st2" d="M27.3,34.4c-3,0-5.6-0.7-6.8-1.9v1.9l0,0c0.1,1.4,3.2,2.6,6.8,2.6s6.7-1.2,6.8-2.6l0,0v-1.9
			C33.1,33.6,30.4,34.4,27.3,34.4z"/>
	</g>
</g>
</svg>
