<?xml version="1.0" encoding="utf-8"?>
<!-- Generator: Adobe Illustrator 24.3.0, SVG Export Plug-In . SVG Version: 6.00 Build 0)  -->
<svg version="1.1" id="Ebene_1" xmlns="http://www.w3.org/2000/svg" xmlns:xlink="http://www.w3.org/1999/xlink" x="0px" y="0px"
	 viewBox="0 0 40 40" style="enable-background:new 0 0 40 40;" xml:space="preserve">
<style type="text/css">
	.st0{fill:#797979;}
	.st1{fill:#FFFFFF;}
	.st2{fill:#41AAAA;}
	.st3{fill:#787878;}
</style>
<g>
	<g>
		<path class="st0" d="M30.2,37.1H9.6c-1.3,0-2.3-1-2.3-2.3V5.2c0-1.3,1-2.3,2.3-2.3h20.6c1.3,0,2.3,1,2.3,2.3v29.6
			C32.5,36,31.5,37.1,30.2,37.1z"/>
		<path class="st1" d="M30,35.9H9.8c-0.7,0-1.3-0.6-1.3-1.3V5.4c0-0.7,0.6-1.3,1.3-1.3h20.3c0.7,0,1.3,0.6,1.3,1.3v29.2
			C31.3,35.3,30.7,35.9,30,35.9z"/>
		<rect x="22" y="2.9" class="st2" width="3.3" height="1.2"/>
	</g>
	<path class="st2" d="M19.9,8.4c-4.5,0-8.2,3.7-8.2,8.2h16.5C28,12.1,24.3,8.4,19.9,8.4z"/>
	<path class="st0" d="M18.9,10c3.4,0,6.2,2.8,6.4,6.1h2.1c-0.1-4-3.3-7.3-7.4-7.3s-7.3,3.2-7.4,7.3c0-0.4,0.1-0.8,0.1-1.2
		C13.3,12.1,15.8,10,18.9,10z"/>
	<rect x="17.1" y="29.8" class="st3" width="9.9" height="2.2"/>
	<rect x="13.2" y="29.8" class="st2" width="2.2" height="2.2"/>
	<rect x="17.1" y="25.4" class="st3" width="9.9" height="2.2"/>
	<rect x="13.2" y="25.4" class="st2" width="2.2" height="2.2"/>
	<rect x="17.1" y="20.8" class="st3" width="9.9" height="2.2"/>
	<rect x="13.2" y="20.8" class="st2" width="2.2" height="2.2"/>
	<path class="st0" d="M20.9,16.6l0.4-4.9l-2.8,4.2c-0.1,0.1-0.2,0.2-0.2,0.4c0,0.1,0,0.2,0,0.4C18.3,16.6,20.9,16.6,20.9,16.6z"/>
</g>
</svg>
