<?xml version="1.0" encoding="utf-8"?>
<!-- Generator: Adobe Illustrator 24.3.0, SVG Export Plug-In . SVG Version: 6.00 Build 0)  -->
<svg version="1.1" id="Ebene_1" xmlns="http://www.w3.org/2000/svg" xmlns:xlink="http://www.w3.org/1999/xlink" x="0px" y="0px"
	 viewBox="0 0 40 40" style="enable-background:new 0 0 40 40;" xml:space="preserve">
<style type="text/css">
	.st0{fill:#41AAAA;}
	.st1{fill:#797979;}
</style>
<path class="st0" d="M37,22.1v-4.3l-3.5-2c-0.2-0.9-0.5-1.6-1-2.2l1.1-4l-3-3l-4,1.1c-0.7-0.4-1.5-0.7-2.2-1l-2.1-3.5h-2.4v9
	c0.1,0,0.1,0,0.2,0c4.4,0,7.8,3.4,7.8,7.8s-3.4,7.8-7.8,7.8c-0.1,0-0.1,0-0.2,0v9.1h2.5l2-3.6c0.7-0.2,1.5-0.5,2.2-1l4,1.1l3-3
	l-1.1-4c0.3-0.7,0.7-1.5,1-2.2L37,22.1z"/>
<g>
	<g>
		<g>
			<g>
				<path class="st1" d="M10.3,29c2.6,1.3,5.7,2.1,9.1,2.1c0.2,0,0.3,0,0.5,0V37C15.7,36.9,12.1,33.7,10.3,29z"/>
			</g>
			<path class="st1" d="M10.3,27.6c-0.7-2-1.2-4.5-1.2-6.8l0,0h10.8v9c-0.2,0-0.3,0-0.5,0C16,29.6,12.9,28.9,10.3,27.6z"/>
		</g>
		<path class="st1" d="M7.9,20.6L7.9,20.6H3.1v0.1c0.9,2.9,3.4,5.2,6.1,6.6C8.3,25.3,7.9,23.1,7.9,20.6z"/>
		<path class="st1" d="M8.9,28.7c-2.5-1.3-4.4-3-5.6-5c1.1,5.5,5.1,9.9,10.4,12C11.5,33.7,9.9,31.3,8.9,28.7z"/>
	</g>
	<g>
		<g>
			<g>
				<path class="st1" d="M10.3,11.1C12.8,9.8,15.9,9,19.4,9c0.2,0,0.3,0,0.5,0V3.2C15.7,3.2,12.1,6.4,10.3,11.1z"/>
			</g>
			<path class="st1" d="M10.3,12.5c-0.7,2-1.2,4.5-1.2,6.8l0,0h10.8v-9c-0.2,0-0.3,0-0.5,0C16,10.5,12.9,11.2,10.3,12.5z"/>
		</g>
		<path class="st1" d="M7.9,19.5L7.9,19.5H3.1v-0.1c0.9-2.9,3.4-5.2,6.1-6.6C8.3,14.8,7.9,17,7.9,19.5z"/>
		<path class="st1" d="M8.9,11.4c-2.5,1.3-4.4,3-5.6,5c1.1-5.5,5.1-9.9,10.4-12C11.5,6.4,9.9,8.8,8.9,11.4z"/>
	</g>
</g>
</svg>
