<?xml version="1.0" encoding="utf-8"?>
<!-- Generator: Adobe Illustrator 24.3.0, SVG Export Plug-In . SVG Version: 6.00 Build 0)  -->
<svg version="1.1" id="Ebene_1" xmlns="http://www.w3.org/2000/svg" xmlns:xlink="http://www.w3.org/1999/xlink" x="0px" y="0px"
	 viewBox="0 0 40 40" style="enable-background:new 0 0 40 40;" xml:space="preserve">
<style type="text/css">
	.st0{fill:#FFFFFF;}
	.st1{fill:#41AAAA;}
	.st2{fill:#787878;}
</style>
<g>
	<g>
		<rect x="6.6" y="12.3" class="st0" width="15.7" height="18.8"/>
		<path class="st1" d="M21.5,7.5H8.7c-1.2,0-2.2,1.1-2.2,2.3V30c0,1.2,1,2.2,2.2,2.2h12.8c1.2,0,2.2-1,2.2-2.2V9.8
			C23.7,8.6,22.8,7.5,21.5,7.5z M22.2,29.4c0,0.7-0.6,1.3-1.3,1.3H9.3c-0.7,0-1.3-0.6-1.3-1.3V13h14.2V29.4L22.2,29.4z"/>
		<g>
			<rect x="9.9" y="17.2" class="st2" width="8.4" height="1.3"/>
			<rect x="9.9" y="26" class="st2" width="8.4" height="1.3"/>
			<circle class="st1" cx="18.1" cy="26.6" r="1.6"/>
			<circle class="st1" cx="18.1" cy="17.9" r="1.6"/>
			<rect x="11.4" y="21.6" class="st2" width="8.4" height="1.3"/>
			<circle class="st1" cx="11.5" cy="22.2" r="1.7"/>
		</g>
	</g>
	<g>
		<path class="st1" d="M30.6,20.9c0-0.4-0.1-0.5-0.3-0.9c0-0.1,0-0.3,0-0.4H34v-7.1c0-1.2-1-2.2-2.2-2.2h-7.1v2.3
			c1.3,0,2.6,1.2,2.6,2.4c0,1.3-1.2,2.4-2.6,2.4v2.3h3.7c0,0.1,0,0.3,0,0.4c-0.1,0.4-0.3,0.5-0.3,0.9c0,0.8,0.5,1.3,1.2,1.3
			C30.1,22.3,30.6,21.6,30.6,20.9z"/>
		<path class="st1" d="M31.8,20.7c0,1.3-1.2,2.6-2.4,2.6c-1.3,0-2.4-1.2-2.4-2.6h-2.2v5.6l0,0V30h7.1c1.2,0,2.2-1,2.2-2.2v-7.1
			C34.2,20.7,31.8,20.7,31.8,20.7z"/>
	</g>
	<g>
		<rect x="4.1" y="3" class="st2" width="3.2" height="1.3"/>
		<rect x="9.1" y="3" class="st2" width="3.2" height="1.3"/>
		<rect x="13.9" y="3" class="st2" width="3.2" height="1.3"/>
		<rect x="18.8" y="3" class="st2" width="3.2" height="1.3"/>
		<rect x="18.8" y="3" class="st2" width="3.2" height="1.3"/>
		<rect x="23.8" y="3" class="st2" width="3.2" height="1.3"/>
		<rect x="28.6" y="3" class="st2" width="3.2" height="1.3"/>
		<rect x="33.6" y="3" class="st2" width="3.2" height="1.3"/>
		<rect x="3.1" y="3" class="st2" width="1.2" height="3.2"/>
		<rect x="3.1" y="7.9" class="st2" width="1.2" height="3.2"/>
		<rect x="3.1" y="12.9" class="st2" width="1.2" height="3.2"/>
		<rect x="3.1" y="17.8" class="st2" width="1.2" height="3.2"/>
		<rect x="3.1" y="17.8" class="st2" width="1.2" height="3.2"/>
		<rect x="3.2" y="22.9" class="st2" width="1.2" height="3.2"/>
		<rect x="3.1" y="27.8" class="st2" width="1.2" height="3.2"/>
		<rect x="3.1" y="32.8" class="st2" width="1.2" height="3.2"/>
		<rect x="32.5" y="35.7" class="st2" width="3.2" height="1.3"/>
		<rect x="27.7" y="35.7" class="st2" width="3.2" height="1.3"/>
		<rect x="22.7" y="35.7" class="st2" width="3.2" height="1.3"/>
		<rect x="17.8" y="35.7" class="st2" width="3.2" height="1.3"/>
		<rect x="17.8" y="35.7" class="st2" width="3.2" height="1.3"/>
		<rect x="12.8" y="35.7" class="st2" width="3.2" height="1.3"/>
		<rect x="7.9" y="35.7" class="st2" width="3.2" height="1.3"/>
		<rect x="3" y="35.7" class="st2" width="3.2" height="1.3"/>
		<rect x="35.8" y="3" class="st2" width="1.2" height="4.2"/>
		<rect x="35.8" y="8.9" class="st2" width="1.2" height="3.2"/>
		<rect x="35.8" y="13.9" class="st2" width="1.2" height="3.2"/>
		<rect x="35.8" y="18.8" class="st2" width="1.2" height="3.2"/>
		<rect x="35.8" y="18.8" class="st2" width="1.2" height="3.2"/>
		<rect x="35.7" y="23.9" class="st2" width="1.2" height="3.2"/>
		<rect x="35.8" y="28.8" class="st2" width="1.2" height="3.2"/>
		<rect x="35.8" y="33.8" class="st2" width="1.2" height="3.2"/>
	</g>
</g>
</svg>
