<?xml version="1.0" encoding="utf-8"?>
<!-- Generator: Adobe Illustrator 24.3.0, SVG Export Plug-In . SVG Version: 6.00 Build 0)  -->
<svg version="1.1" id="Ebene_1" xmlns="http://www.w3.org/2000/svg" xmlns:xlink="http://www.w3.org/1999/xlink" x="0px" y="0px"
	 viewBox="0 0 40 40" style="enable-background:new 0 0 40 40;" xml:space="preserve">
<style type="text/css">
	.st0{fill:#787879;}
	.st1{fill:#FFFFFF;}
	.st2{fill:#787878;}
	.st3{fill:#41AAAA;}
	.st4{font-family:'NotoSans-BoldItalic';}
	.st5{font-size:8.8748px;}
</style>
<g>
	<g>
		<path class="st0" d="M33.9,35.9H6.1c-1.7,0-3.1-1.4-3.1-3.1V7.1C3,5.4,4.4,4,6.1,4h27.7C35.6,4,37,5.4,37,7.1v25.5
			C37,34.4,35.6,35.9,33.9,35.9z"/>
		<path class="st1" d="M33.9,34.2H6.2c-0.9,0-1.4-0.7-1.4-1.4V10.3h30.6v22.3C35.4,33.5,34.7,34.2,33.9,34.2z"/>
	</g>
	<g>
		<g>
			<rect x="6.7" y="16.5" class="st2" width="10.9" height="1.7"/>
			<rect x="6.7" y="27.8" class="st2" width="10.9" height="1.7"/>
			<circle class="st3" cx="17.5" cy="28.6" r="2.1"/>
			<circle class="st3" cx="17.5" cy="17.4" r="2.1"/>
			<rect x="8.7" y="22.2" class="st2" width="10.9" height="1.7"/>
			<circle class="st3" cx="8.9" cy="23" r="2.2"/>
		</g>
		<text transform="matrix(1 0 0 1 20.7035 26.6465)" class="st3 st4 st5">&lt;/&gt;</text>
	</g>
</g>
</svg>
