<?xml version="1.0" encoding="utf-8"?>
<!-- Generator: Adobe Illustrator 24.3.0, SVG Export Plug-In . SVG Version: 6.00 Build 0)  -->
<svg version="1.1" id="Ebene_1" xmlns="http://www.w3.org/2000/svg" xmlns:xlink="http://www.w3.org/1999/xlink" x="0px" y="0px"
	 viewBox="0 0 40 40" style="enable-background:new 0 0 40 40;" xml:space="preserve">
<style type="text/css">
	.st0{fill:#787879;}
	.st1{fill:#FFFFFF;}
	.st2{fill:#41AAAA;}
	.st3{fill:#797979;}
</style>
<g>
	<g>
		<path class="st0" d="M33.9,36H6.1C4.4,36,3,34.5,3,32.8V7.2C3,5.5,4.4,4,6.1,4h27.7C35.6,4,37,5.5,37,7.2v25.5
			C37,34.5,35.6,36,33.9,36z"/>
		<path class="st1" d="M33.9,34.2H6.2c-0.9,0-1.4-0.7-1.4-1.4V9.5h30.6v23.3C35.4,33.6,34.7,34.2,33.9,34.2z"/>
	</g>
	<g>
		<g>
			<g>
				<rect x="17.1" y="29" class="st2" width="1.8" height="0.7"/>
				<rect x="19.3" y="13.5" class="st2" width="0.7" height="15"/>
				<rect x="20.7" y="29" class="st2" width="1.8" height="0.7"/>
			</g>
			<path class="st0" d="M19.7,28.2c-0.6,0-1.2,0.5-1.2,1.2c0,0.6,0.5,1.2,1.2,1.2c0.6,0,1.2-0.5,1.2-1.2
				C20.8,28.7,20.3,28.2,19.7,28.2z M19.7,30c-0.3,0-0.6-0.3-0.6-0.6s0.3-0.6,0.6-0.6s0.6,0.3,0.6,0.6C20.3,29.7,20,30,19.7,30z"/>
		</g>
		<g>
			<ellipse class="st2" cx="25.7" cy="25.6" rx="4" ry="1.6"/>
			<path class="st3" d="M25.7,27.6c-1.8,0-3.2-0.4-4-1.1v1.1l0,0c0.1,0.8,1.9,1.6,4,1.6s3.9-0.7,4-1.6l0,0v-1
				C29.1,27.2,27.5,27.6,25.7,27.6z"/>
			<path class="st3" d="M25.7,29.6c-1.8,0-3.2-0.4-4-1.1v1.1l0,0c0.1,0.8,1.9,1.6,4,1.6s3.9-0.7,4-1.6l0,0v-1.1
				C29.1,29.1,27.5,29.6,25.7,29.6z"/>
			<path class="st3" d="M25.7,31.6c-1.8,0-3.2-0.4-4-1.1v1.1l0,0c0.1,0.8,1.9,1.6,4,1.6s3.9-0.7,4-1.6l0,0v-1.1
				C29.1,31.1,27.5,31.6,25.7,31.6z"/>
		</g>
		<g>
			<ellipse class="st2" cx="13.9" cy="25.6" rx="4" ry="1.6"/>
			<path class="st3" d="M13.9,27.6c-1.8,0-3.2-0.4-4-1.1v1.1l0,0c0.1,0.8,1.9,1.6,4,1.6s3.9-0.7,4-1.6l0,0v-1
				C17.3,27.2,15.7,27.6,13.9,27.6z"/>
			<path class="st3" d="M13.9,29.6c-1.8,0-3.2-0.4-4-1.1v1.1l0,0c0.1,0.8,1.9,1.6,4,1.6s3.9-0.7,4-1.6l0,0v-1.1
				C17.3,29.1,15.7,29.6,13.9,29.6z"/>
			<path class="st3" d="M13.9,31.6c-1.8,0-3.2-0.4-4-1.1v1.1l0,0c0.1,0.8,1.9,1.6,4,1.6s3.9-0.7,4-1.6l0,0v-1.1
				C17.3,31.1,15.7,31.6,13.9,31.6z"/>
		</g>
	</g>
	<g>
		<g>
			<path class="st0" d="M29.1,23.3H10.5c-0.4,0-0.6-0.3-0.6-0.6v-4c0-0.4,0.3-0.6,0.6-0.6h18.6c0.4,0,0.6,0.3,0.6,0.6v4
				C29.8,22.9,29.5,23.3,29.1,23.3z"/>
			<rect x="11.8" y="20" class="st2" width="10.7" height="1.2"/>
			<circle class="st2" cx="26.9" cy="20.6" r="0.8"/>
		</g>
		<g>
			<path class="st0" d="M29.1,16.2H10.5c-0.4,0-0.6-0.3-0.6-0.6v-4c0-0.4,0.3-0.6,0.6-0.6h18.6c0.4,0,0.6,0.3,0.6,0.6v4
				C29.8,16,29.5,16.2,29.1,16.2z"/>
			<rect x="11.8" y="12.9" class="st2" width="10.7" height="1.2"/>
			<circle class="st2" cx="26.9" cy="13.6" r="0.8"/>
		</g>
	</g>
</g>
</svg>
