<?xml version="1.0" encoding="utf-8"?>
<!-- Generator: Adobe Illustrator 24.3.0, SVG Export Plug-In . SVG Version: 6.00 Build 0)  -->
<svg version="1.1" id="Ebene_1" xmlns="http://www.w3.org/2000/svg" xmlns:xlink="http://www.w3.org/1999/xlink" x="0px" y="0px"
	 viewBox="0 0 40 40" style="enable-background:new 0 0 40 40;" xml:space="preserve">
<style type="text/css">
	.st0{fill:#41AAAA;}
	.st1{fill:#787879;}
	.st2{fill:#FFFFFF;}
	.st3{fill:#797979;}
</style>
<g>
	<rect x="21.5" y="10.2" class="st0" width="2.5" height="1"/>
	<rect x="16.3" y="10.2" class="st0" width="2.6" height="1"/>
	<rect x="19.7" y="12" class="st0" width="1" height="6.9"/>
	<path class="st1" d="M20.2,12.3c0.9,0,1.6-0.7,1.6-1.6s-0.7-1.6-1.6-1.6s-1.6,0.6-1.6,1.6C18.7,11.6,19.4,12.3,20.2,12.3z
		 M20.2,9.8c0.4,0,0.8,0.4,0.8,0.8c0,0.4-0.4,0.8-0.8,0.8s-0.8-0.4-0.8-0.8C19.4,10.2,19.8,9.8,20.2,9.8z"/>
</g>
<g>
	<path class="st1" d="M27.1,37h-14c-1.8,0-3.4-1.5-3.4-3.4V20.9c0-1.8,1.5-3.4,3.4-3.4h14c1.8,0,3.4,1.5,3.4,3.4v12.7
		C30.5,35.5,29,37,27.1,37z"/>
	<path class="st2" d="M27,35.9H13.2c-1.3,0-2.5-1.1-2.5-2.5v-12h18.7v12C29.5,34.8,28.4,35.9,27,35.9z"/>
</g>
<g>
	<g>
		<ellipse class="st0" cx="28.4" cy="5.3" rx="5.5" ry="2.2"/>
		<path class="st3" d="M28.4,8.1c-2.5,0-4.5-0.5-5.5-1.5v1.5l0,0c0.1,1.2,2.7,2.1,5.5,2.1s5.4-1,5.5-2.1l0,0V6.7
			C33.2,7.6,30.9,8.1,28.4,8.1z"/>
		<path class="st3" d="M28.4,10.9c-2.5,0-4.5-0.5-5.5-1.5v1.5l0,0c0.1,1.2,2.7,2.1,5.5,2.1s5.4-1,5.5-2.1l0,0V9.3
			C33.2,10.2,30.9,10.9,28.4,10.9z"/>
		<path class="st3" d="M28.4,13.6c-2.5,0-4.5-0.5-5.5-1.5v1.5l0,0c0.1,1.2,2.7,2.1,5.5,2.1s5.4-1,5.5-2.1l0,0v-1.5
			C33.2,13,30.9,13.6,28.4,13.6z"/>
	</g>
	<g>
		<ellipse class="st0" cx="11.8" cy="5.3" rx="5.5" ry="2.2"/>
		<path class="st3" d="M11.8,8.1c-2.5,0-4.5-0.5-5.5-1.5v1.5l0,0c0.1,1.2,2.7,2.1,5.5,2.1s5.4-1,5.5-2.1l0,0V6.7
			C16.6,7.6,14.4,8.1,11.8,8.1z"/>
		<path class="st3" d="M11.8,10.9c-2.5,0-4.5-0.5-5.5-1.5v1.5l0,0C6.4,12.1,9,13,11.8,13s5.4-1,5.5-2.1l0,0V9.3
			C16.6,10.2,14.4,10.9,11.8,10.9z"/>
		<path class="st3" d="M11.8,13.6c-2.5,0-4.5-0.5-5.5-1.5v1.5l0,0c0.1,1.2,2.7,2.1,5.5,2.1s5.4-1,5.5-2.1l0,0v-1.5
			C16.6,13,14.4,13.6,11.8,13.6z"/>
	</g>
</g>
<g>
	<rect x="12.5" y="23.8" class="st0" width="15.2" height="1.6"/>
	<rect x="12.5" y="27.3" class="st0" width="15.2" height="1.6"/>
	<rect x="12.5" y="30.9" class="st0" width="15.2" height="1.6"/>
</g>
</svg>
