<?xml version="1.0" encoding="utf-8"?>
<!-- Generator: Adobe Illustrator 24.3.0, SVG Export Plug-In . SVG Version: 6.00 Build 0)  -->
<svg version="1.1" id="Ebene_1" xmlns="http://www.w3.org/2000/svg" xmlns:xlink="http://www.w3.org/1999/xlink" x="0px" y="0px"
	 viewBox="0 0 40 40" style="enable-background:new 0 0 40 40;" xml:space="preserve">
<style type="text/css">
	.st0{fill:#FFFFFF;}
	.st1{fill:#41AAAA;}
</style>
<g>
	<polygon class="st0" points="19.6,4 6.1,10.9 6.1,27.3 19.9,35.3 33.9,27.3 33.9,10.5 	"/>
	<path class="st1" d="M19.9,2.7L4.7,10l0,0v2.7l0,0v15.5L20,37l15.3-8.9V12.6V10l0,0L19.9,2.7z M19.9,35.3L6.1,27.2l0.1-15l12.9,6.7
		L19,25.2l-3.9-3.3l-1.2,1.5l6,4.9l6.2-5.1l-1.2-1.3l-4,3.2v-6.3L34,12.2v15.1L19.9,35.3z M19.9,17.4L6.4,10.6l13.5-6.4l13.5,6.5
		L19.9,17.4z"/>
	<rect x="19.1" y="13.9" class="st1" width="1.8" height="1.8"/>
	<rect x="19.1" y="10.8" class="st1" width="1.8" height="1.8"/>
	<rect x="19.1" y="7.8" class="st1" width="1.8" height="1.8"/>
</g>
</svg>
