<?xml version="1.0" encoding="utf-8"?>
<!-- Generator: Adobe Illustrator 24.3.0, SVG Export Plug-In . SVG Version: 6.00 Build 0)  -->
<svg version="1.1" id="Ebene_1" xmlns="http://www.w3.org/2000/svg" xmlns:xlink="http://www.w3.org/1999/xlink" x="0px" y="0px"
	 viewBox="0 0 40 40" style="enable-background:new 0 0 40 40;" xml:space="preserve">
<style type="text/css">
	.st0{fill:#FFFFFF;}
	.st1{fill:#797979;}
	.st2{fill:#41AAAA;}
	.st3{fill:#787878;}
</style>
<g>
	<g>
		<path class="st0" d="M35,35.6V6.5H4.1v29.2h21.1h0.2H35z"/>
		<rect x="29.2" y="23.7" class="st1" width="3.6" height="3.6"/>
		<rect x="6.5" y="17.5" class="st2" width="10.6" height="3.6"/>
		<rect x="18.8" y="17.5" class="st1" width="7" height="3.6"/>
		<rect x="27.8" y="17.5" class="st2" width="4.9" height="3.6"/>
		<rect x="6.5" y="29.5" class="st2" width="6.6" height="3.6"/>
		<rect x="15.2" y="29.5" class="st1" width="10.6" height="3.6"/>
		<rect x="27.8" y="29.5" class="st2" width="4.9" height="3.6"/>
		<rect x="6.7" y="23.7" class="st2" width="20.6" height="3.6"/>
	</g>
	<rect x="4.1" y="6.3" class="st2" width="31.1" height="6.4"/>
	<path class="st3" d="M37.1,4.3h-7.9V2.4h-2.8v1.9h-14V2.4h-3v1.9h-7v33.2h34.9v-0.2l0,0L37.1,4.3L37.1,4.3z M4.1,6.5h5.5v2.8h3V6.5
		h14.3v2.8h2.8V6.5h5.5v6.2H4.1V6.5z M4.3,14.8H35v20.6H4.3V14.8z"/>
</g>
</svg>
