<?xml version="1.0" encoding="utf-8"?>
<!-- Generator: Adobe Illustrator 24.3.0, SVG Export Plug-In . SVG Version: 6.00 Build 0)  -->
<svg version="1.1" id="Ebene_1" xmlns="http://www.w3.org/2000/svg" xmlns:xlink="http://www.w3.org/1999/xlink" x="0px" y="0px"
	 viewBox="0 0 40 40" style="enable-background:new 0 0 40 40;" xml:space="preserve">
<style type="text/css">
	.st0{fill:#787878;}
	.st1{fill:#41AAAA;}
	.st2{fill:#FFFFFF;}
	.st3{font-family:'NotoSans-Bold';}
	.st4{font-size:7.0203px;}
</style>
<g>
	<path id="path1" class="st0" d="M8,19.5v2.8h15.5v-2.8h-2.8v1.4h-1.4v-1.4h-7.2v1.4h-1.4v-1.4H8z"/>
</g>
<g>
	<rect x="15.2" y="3" class="st1" width="3.2" height="1.9"/>
	<g>
		<path class="st0" d="M23.8,10.7c0.7-0.5,1.3-1,2.1-1.3V4.9c0-1.1-1-1.9-2.1-1.9h-4.1v1.9h4.1V10.7z"/>
		<path class="st0" d="M27,30.5V35H8.2V9.2h8.7V7.4H8.5c-1.3,0-2.2,0.9-2.2,2.2v25.6c0,1.1,0.9,1.9,1.9,1.9h19.1
			c1.1,0,1.9-0.9,1.9-1.9v-3.4C28.3,31.4,27.7,30.9,27,30.5z"/>
		<path class="st0" d="M23.8,26.1v4.6H4.9V4.9h8.7V3H5.2C3.9,3,3.1,3.9,3.1,5.2v25.6c0,1.1,0.9,1.9,1.9,1.9h19
			c1.1,0,1.9-0.9,1.9-1.9v-3.4C25.1,27.1,24.4,26.5,23.8,26.1z"/>
	</g>
	<rect x="4.9" y="4.9" class="st2" width="18.9" height="25.7"/>
	<rect x="11.7" y="26.8" class="st1" width="9" height="2"/>
	<rect x="8.2" y="26.8" class="st1" width="2" height="2"/>
	<rect x="11.7" y="22.8" class="st1" width="9" height="2"/>
	<rect x="8.2" y="22.8" class="st1" width="2" height="2"/>
	<rect x="11.7" y="18.6" class="st1" width="9" height="2"/>
	<rect x="8.2" y="18.6" class="st1" width="2" height="2"/>
	<rect x="11.7" y="14.4" class="st1" width="9" height="2"/>
	<rect x="8.2" y="14.4" class="st1" width="2" height="2"/>
	<rect x="11.7" y="10.2" class="st1" width="9" height="2"/>
	<rect x="8.2" y="10.2" class="st1" width="2" height="2"/>
</g>
<g>
	<rect x="21.5" y="30.3" class="st1" width="17.9" height="8.9"/>
	<text transform="matrix(1 0 0 1 22.6492 37.0624)" class="st2 st3 st4">4 5 6</text>
</g>
<g>
	<circle class="st2" cx="30.2" cy="18.4" r="7.3"/>
	<path id="path1_1_" class="st1" d="M30.1,12.5c0.3,0,0.7,0.3,0.7,0.7v3.9l1.2-1.7c0.1-0.3,0.7-0.3,1-0.1c0.3,0.1,0.3,0.7,0.1,1
		l-2.5,3.4c-0.1,0.1-0.3,0.3-0.4,0.3s-0.1,0-0.1,0c-0.3-0.1-0.4-0.3-0.4-0.7v-5.9C29.4,12.8,29.8,12.5,30.1,12.5z M30.2,11.3
		c-3.7,0-6.9,3.1-6.9,6.9s3.1,6.9,6.9,6.9s6.9-3.1,6.9-6.9S33.9,11.3,30.2,11.3z M30.2,9.9c4.5,0,8.2,3.7,8.2,8.2s-3.7,8.2-8.2,8.2
		S22,22.5,22,18S25.6,9.9,30.2,9.9z"/>
</g>
</svg>
