<?xml version="1.0" encoding="utf-8"?>
<!-- Generator: Adobe Illustrator 24.3.0, SVG Export Plug-In . SVG Version: 6.00 Build 0)  -->
<svg version="1.1" id="Ebene_1" xmlns="http://www.w3.org/2000/svg" xmlns:xlink="http://www.w3.org/1999/xlink" x="0px" y="0px"
	 viewBox="0 0 40 40" style="enable-background:new 0 0 40 40;" xml:space="preserve">
<style type="text/css">
	.st0{fill:#41AAAA;}
	.st1{fill:#797979;}
</style>
<g>
	<g>
		<path class="st0" d="M26.8,28l-0.2,1.5l1.1,0.7c0,0.3,0.1,0.5,0.3,0.9l-0.5,1.2l1,1.1l1.4-0.2c0.2,0.1,0.5,0.3,0.7,0.5l0.6,1.3
			l1.5,0.2l0.7-1.1c0.3,0,0.5-0.1,0.9-0.3l1.2,0.5l1.1-1l-0.2-1.4c0.1-0.2,0.3-0.5,0.5-0.7l1.3-0.6l0.3-1.6l-1.1-0.7
			c0-0.3-0.1-0.5-0.3-0.9l0.7-1.4l-1-1.1l-1.4,0.2c-0.2-0.1-0.5-0.3-0.6-0.4l-0.7-1.4l-1.5-0.2l-0.8,1.3c-0.3,0-0.5,0.1-0.8,0.4
			l-1.4-0.5l-1.1,1l0.2,1.4c-0.1,0.2-0.3,0.5-0.5,0.7L26.8,28z M32.8,26.5c1.5,0.2,2.6,1.4,2.5,3c-0.1,1.5-1.4,2.6-3,2.5
			c-1.5-0.2-2.6-1.4-2.5-3C30,27.5,31.4,26.4,32.8,26.5z"/>
	</g>
	<path class="st0" d="M16.3,11.5c-3.4,0-6.2,2.8-6.2,6.2s2.8,6.2,6.2,6.2s6.2-2.8,6.2-6.2C22.6,14.3,19.7,11.5,16.3,11.5z M16.3,22
		c-2.4,0-4.2-1.9-4.2-4.2s1.9-4.2,4.2-4.2s4.2,1.9,4.2,4.2S18.6,22,16.3,22z"/>
	<path class="st1" d="M29.7,19.8v-4.2l-3.1-1c-0.3-0.8-0.6-1.5-0.9-2.2l1.6-2.9l-2.8-2.9l-3,1.7c-0.6-0.3-1.3-0.6-2-0.8l-1-3.4h-4.2
		l-1,3.3c-0.8,0.3-1.4,0.5-2.1,0.8l-3-1.6L5.3,9.5l1.5,2.9c-0.4,0.8-0.8,1.5-1,2.4l-3,0.9v4.2l3.1,1c0.3,0.8,0.6,1.5,0.9,2.2L5.2,26
		l2.9,2.9l2.9-1.6c0.7,0.3,1.3,0.6,2.1,0.8l1,3.3h4.3l1-3.4c0.7-0.3,1.3-0.5,2-0.8l3,1.7l2.9-2.9l-1.6-3c0.3-0.7,0.7-1.3,0.8-2
		L29.7,19.8z M16.3,25.3c-4.1,0-7.5-3.4-7.5-7.5s3.4-7.5,7.5-7.5s7.5,3.4,7.5,7.5S20.4,25.3,16.3,25.3z"/>
</g>
</svg>
