<?xml version="1.0" encoding="utf-8"?>
<!-- Generator: Adobe Illustrator 24.3.0, SVG Export Plug-In . SVG Version: 6.00 Build 0)  -->
<svg version="1.1" id="Ebene_1" xmlns="http://www.w3.org/2000/svg" xmlns:xlink="http://www.w3.org/1999/xlink" x="0px" y="0px"
	 viewBox="0 0 40 40" style="enable-background:new 0 0 40 40;" xml:space="preserve">
<style type="text/css">
	.st0{fill:#41AAAA;}
	.st1{fill:#797979;}
</style>
<g>
	<path class="st0" d="M23.6,25.8v2.1l1.6,0.9c0.1,0.4,0.3,0.7,0.4,1.1l-0.4,1.8l1.5,1.3l1.8-0.5c0.3,0.2,0.7,0.3,1.1,0.5l1,1.6h2.1
		l0.9-1.6c0.4-0.1,0.7-0.3,1.1-0.4l1.8,0.4l1.3-1.5l-0.6-1.8c0.2-0.3,0.3-0.7,0.5-1.1l1.6-1v-2.1L38,24.7c-0.1-0.4-0.3-0.7-0.4-1.1
		l0.5-2l-1.5-1.3l-2,0.5c-0.3-0.2-0.7-0.3-1-0.5l-1-1.6h-2.1l-0.9,1.7c-0.4,0.1-0.7,0.3-1,0.5l-2.1-0.5l-1.3,1.4l0.5,1.8
		c-0.2,0.3-0.3,0.7-0.5,1.1L23.6,25.8z M31.5,22.9c2.1,0,3.7,1.6,3.7,3.6c0,2.1-1.6,3.7-3.6,3.7s-3.7-1.6-3.7-3.6
		C27.9,24.7,29.6,23,31.5,22.9z"/>
	<path class="st1" d="M28,33.8l-2.3,0.6l-1.8-1.6l0.5-2.3c-0.2-0.4-0.5-0.9-0.5-1.3l-2.1-1.1v-2.5l1.8-1.2c0.2-0.5,0.4-0.9,0.5-1.3
		c-1-0.9-2.1-1.6-3.4-2.2c-1.4,0.9-3.1,1.4-4.9,1.4s-3.4-0.5-4.8-1.4c-4.5,2.2-8,7.2-8,13.2c0,0.2,0,0.4,0,0.5h26.3
		c0-0.1,0-0.2,0-0.3C28.9,34.2,28.4,34,28,33.8z"/>
	<circle class="st0" cx="15.9" cy="13.1" r="7.8"/>
</g>
</svg>
