<?xml version="1.0" encoding="utf-8"?>
<!-- Generator: Adobe Illustrator 24.3.0, SVG Export Plug-In . SVG Version: 6.00 Build 0)  -->
<svg version="1.1" id="Ebene_1" xmlns="http://www.w3.org/2000/svg" xmlns:xlink="http://www.w3.org/1999/xlink" x="0px" y="0px"
	 viewBox="0 0 40 40" style="enable-background:new 0 0 40 40;" xml:space="preserve">
<style type="text/css">
	.st0{fill:#787878;}
	.st1{fill:#41AAAA;}
</style>
<g>
	<polygon class="st0" points="10.9,8.6 6.7,3.9 3,8.6 6.2,8.6 6.2,33.8 7.7,33.8 7.7,8.6 	"/>
	<polygon class="st0" points="32.3,37 37,32.9 32.3,29.1 32.3,32.3 6.7,32.3 6.7,33.8 32.3,33.8 	"/>
	<polygon class="st1" points="8.8,23.5 11.4,27.5 14.6,20.9 18.5,27.7 26.9,7.3 33.3,20.5 33.3,23.1 33.3,24 26.9,12.8 18.9,31.5 
		14.6,25 11.4,30.8 8.8,26.8 	"/>
	<polygon class="st0" points="8.8,20.9 10.9,17.3 13.4,20.9 17.9,13.4 24.8,30.1 29.8,20.8 28.6,18.4 25.1,25.3 18,8.8 13.4,17.4 
		10.7,13.7 8.8,17.3 	"/>
</g>
</svg>
