<?xml version="1.0" encoding="utf-8"?>
<!-- Generator: Adobe Illustrator 24.3.0, SVG Export Plug-In . SVG Version: 6.00 Build 0)  -->
<svg version="1.1" id="Ebene_1" xmlns="http://www.w3.org/2000/svg" xmlns:xlink="http://www.w3.org/1999/xlink" x="0px" y="0px"
	 viewBox="0 0 40 40" style="enable-background:new 0 0 40 40;" xml:space="preserve">
<style type="text/css">
	.st0{fill:#797979;}
	.st1{fill:#41A9AA;}
	.st2{fill:#FFFFFF;}
	.st3{display:none;fill:#EF0137;}
</style>
<path class="st0" d="M34,3.3H5.8c-1.4,0-2.6,1.2-2.6,2.6v28.2c0,1.4,1.2,2.6,2.6,2.6H34c1.4,0,2.6-1.2,2.6-2.6V5.9
	C36.6,4.5,35.4,3.3,34,3.3z M34.8,33.9c0,0.6-0.5,1.1-1.1,1.1H6c-0.6,0-1.1-0.5-1.1-1.1V6.1c0-0.6,0.5-1.1,1.1-1.1h27.8
	c0.6,0,1.1,0.5,1.1,1.1V33.9z"/>
<g>
	<g>
		<ellipse class="st1" cx="10.7" cy="8.5" rx="1.8" ry="2"/>
		<ellipse class="st1" cx="20.2" cy="8.5" rx="1.8" ry="2"/>
	</g>
	<path class="st1" d="M14.8,25.5c0,0-1.1,8.1,8.8,7.8c10.7-0.2,7.5-12.7,7.5-12.7l-1.4,0.2c0,0,2.9,10.1-5.3,11.1
		c-8.8,0.9-8.3-6.1-8.3-6.1L14.8,25.5z"/>
	<path class="st0" d="M24.8,14.2c0-1.2,0-2.6-0.3-3.7c-0.3-1.6-1.4-2.3-2.5-2.3l-0.5,1.4c1.1,0,1.6,0.6,1.7,1.4
		c0.2,1.1,0.3,2.1,0.3,3.2c0,7-3.7,9.3-8.1,9.5c-4.6-0.2-8.1-2.5-8.1-9.5c0-1.1,0-2.1,0.2-3.2c0.2-0.7,0.7-1.4,1.7-1.4L8.8,8.2
		c-1.1,0-2.1,0.6-2.5,2.3c-0.3,1.1-0.3,2.5-0.3,3.7c0,7.1,3.3,10.2,7.6,10.9l0.6,1.8h2.5l0.3-1.8C21.5,24.4,24.8,21.3,24.8,14.2z"/>
	<path class="st1" d="M30.1,15.6c-1.6,0-2.9,1.2-2.9,2.9s1.2,2.9,2.9,2.9c1.6,0,2.9-1.2,2.9-2.9S31.7,15.6,30.1,15.6z M30.1,20.2
		c-0.9,0-1.8-0.7-1.8-1.8c0-1.1,0.9-1.7,1.8-1.7c0.9,0,1.7,0.9,1.7,1.8C31.8,19.4,31.1,20.2,30.1,20.2z"/>
	<circle class="st2" cx="30.1" cy="18.5" r="1.1"/>
</g>
<path class="st3" d="M0,0v40h40V0H0z M36.8,36.8H3.2V3.2h33.2L36.8,36.8L36.8,36.8z"/>
</svg>
