<?xml version="1.0" encoding="utf-8"?>
<!-- Generator: Adobe Illustrator 24.3.0, SVG Export Plug-In . SVG Version: 6.00 Build 0)  -->
<svg version="1.1" id="Ebene_1" xmlns="http://www.w3.org/2000/svg" xmlns:xlink="http://www.w3.org/1999/xlink" x="0px" y="0px"
	 viewBox="0 0 40 40" style="enable-background:new 0 0 40 40;" xml:space="preserve">
<style type="text/css">
	.st0{fill:#787878;}
	.st1{fill:#41AAAA;}
</style>
<g>
	<g>
		<path class="st0" d="M22.4,35.6l0.5-1v-0.9h-3.8v-2.9c0.5-0.1,1-0.1,1.4-0.3h-0.1V28l2.2-0.8c0-0.2,0.1-0.4,0.1-0.7
			c-1.4,1-3.1,1.5-5.1,1.5c-4.7,0-8.5-3.3-8.9-7.6H6.4c0,5.4,4.3,9.8,9.9,10.4v2.9h-3.8v2.6h10.4V36L22.4,35.6z"/>
		<path class="st0" d="M26.3,22.1c0.8-0.4,1.4-0.7,2.2-0.9l0.3-0.9h-2.3C26.5,20.8,26.4,21.5,26.3,22.1L26.3,22.1z"/>
		<path class="st0" d="M17.7,24.2c2.8,0,5.2-2.3,5.2-4.9V8.6c0-2.8-2.3-4.9-5.2-4.9s-5.2,2.1-5.2,4.9v10.7
			C12.5,22.1,14.9,24.2,17.7,24.2z"/>
	</g>
	<g>
		<g>
			<g>
				<path class="st1" d="M39.5,30.4v-2.2l-2-0.7c-0.2-0.7-0.3-1.2-0.8-2l1-1.8l-1.5-1.5l-1.8,1c-0.7-0.2-1.1-0.7-2-0.8l-0.7-2h-2.2
					l-0.7,2c-0.7,0.2-1.2,0.3-2,0.8l-1.8-1l-1.5,1.5l1,1.8c-0.2,0.7-0.7,1.1-0.8,2l-2,0.7v2.2l2,0.7c0.2,0.7,0.3,1.2,0.8,2l0,0
					l-1,1.8l1.5,1.5l1.8-1l0,0c0.7,0.2,1.1,0.7,2,0.8l0,0l0.7,2h2.2l0.7-2l0,0c0.7-0.2,1.2-0.3,2-0.8l0,0l1.8,1l1.5-1.5l-1-1.8l0,0
					c0.2-0.7,0.7-1.1,0.8-2L39.5,30.4z M31.1,33c-2,0-3.6-1.5-3.6-3.6s1.5-3.6,3.6-3.6s3.6,1.5,3.6,3.6C34.8,31.4,32.9,33,31.1,33z"
					/>
			</g>
		</g>
	</g>
</g>
</svg>
