<svg xmlns="http://www.w3.org/2000/svg" viewBox="0 0 25.98 70.87"><defs><style>.cls-1{fill:#000028;}.cls-1,.cls-10,.cls-2,.cls-3,.cls-5,.cls-6,.cls-8{stroke:#00FFB9;}.cls-1,.cls-10,.cls-3{stroke-width:0.85px;}.cls-10,.cls-2,.cls-3,.cls-5,.cls-6,.cls-8{fill:none;}.cls-2{stroke-width:0.81px;}.cls-3,.cls-5{stroke-miterlimit:3.86;}.cls-4{fill:#00CCCC;}.cls-5,.cls-8{stroke-width:0.23px;}.cls-6{stroke-width:0.37px;}.cls-7{fill:#00CCCC;}.cls-9{fill:#00CCCC;}</style></defs><g id="Original"><rect class="cls-1" x="0.43" y="0.43" width="25.12" height="70.02"/><line class="cls-2" x1="25.55" y1="29.64" x2="6.54" y2="29.64"/><line class="cls-3" x1="25.55" y1="52.02" x2="6.54" y2="52.02"/><rect class="cls-4" x="16.9" y="31.6" width="6.02" height="18.99"/><path class="cls-5" d="M406.4,170.47" transform="translate(-383.83 -151.62)"/><path class="cls-6" d="M403.57,155.61v.79h-7.29v-.79a.12.12,0,0,0-.12-.12h-4.44c-.13,0-.24.47-.24.6V181a.25.25,0,0,0,.25.24h16.39a.24.24,0,0,0,.24-.24V156.09c0-.13-.11-.6-.24-.6h-4.43A.12.12,0,0,0,403.57,155.61Z" transform="translate(-383.83 -151.62)"/><line class="cls-6" x1="7.51" y1="5.77" x2="24.38" y2="5.77"/><path class="cls-6" d="M397,156.4h5.78v-.08a3.28,3.28,0,0,0-.39-.77h-5a3.71,3.71,0,0,0-.39.77Z" transform="translate(-383.83 -151.62)"/><rect class="cls-7" x="13.92" y="6.53" width="4.34" height="1.08"/><polygon class="cls-7" points="19.91 28.17 19.91 27.93 21.3 27.93 22.39 27.93 22.39 25.45 22.63 25.45 22.63 28.17 19.91 28.17"/><polygon class="cls-7" points="17.42 25.71 17.42 28.17 14.77 28.17 14.77 25.71 15.01 25.71 15.01 26.84 15.01 27.93 16.09 27.93 17.18 27.93 17.18 26.84 17.18 25.71 17.42 25.71"/><path class="cls-8" d="M401,173.52a1.09,1.09,0,1,1-2.17,0,1.09,1.09,0,0,1,2.17,0Z" transform="translate(-383.83 -151.62)"/><path class="cls-6" d="M401.63,173.52a1.71,1.71,0,1,1-1.71-1.71A1.7,1.7,0,0,1,401.63,173.52Z" transform="translate(-383.83 -151.62)"/><path class="cls-6" d="M396.45,173.52a3.47,3.47,0,1,0,3.47-3.47A3.47,3.47,0,0,0,396.45,173.52Z" transform="translate(-383.83 -151.62)"/><polygon class="cls-7" points="12.27 22.99 12.27 23.23 9.55 23.23 9.55 20.5 9.79 20.5 9.79 22.99 10.88 22.99 12.27 22.99"/><polygon class="cls-7" points="12.27 28.17 9.55 28.17 9.55 25.45 9.79 25.45 9.79 27.93 10.88 27.93 12.27 27.93 12.27 28.17"/><polygon class="cls-7" points="22.63 23.23 19.91 23.23 19.91 22.99 21.3 22.99 22.39 22.99 22.39 20.5 22.63 20.5 22.63 23.23"/><rect class="cls-8" x="8.38" y="6.38" width="15.43" height="22.33" rx="0.36"/><path class="cls-9" d="M406,159.47a.05.05,0,0,1,.06.06v9.16a.05.05,0,0,1-.06.06H393.9s-.06,0-.06-.06v-9.16s0-.06.05-.06Z" transform="translate(-383.83 -151.62)"/><rect class="cls-5" x="6.54" y="29.6" width="8.47" height="6"/><polygon class="cls-4" points="6.95 31.23 13.76 31.23 13.76 32.65 7.55 32.65 6.95 32.05 6.95 31.23"/><rect class="cls-9" x="9.04" y="32.79" width="0.8" height="0.8"/><rect class="cls-9" x="10.17" y="32.79" width="0.8" height="0.8"/><rect class="cls-9" x="11.3" y="32.79" width="0.8" height="0.8"/><rect class="cls-9" x="7.91" y="32.79" width="0.8" height="0.8"/><polygon class="cls-10" points="0.42 2.46 3.17 3.32 6.49 3.32 6.49 59.45 0.42 59.45 0.42 2.46"/><line class="cls-6" x1="3.18" y1="3.32" x2="3.18" y2="63.25"/><line class="cls-6" x1="3.18" y1="8.38" x2="6.49" y2="8.38"/><line class="cls-6" x1="3.18" y1="18.62" x2="6.49" y2="18.62"/><line class="cls-6" x1="3.18" y1="28.85" x2="6.49" y2="28.85"/><line class="cls-6" x1="3.18" y1="39.09" x2="6.49" y2="39.09"/><line class="cls-6" x1="3.18" y1="49.32" x2="6.49" y2="49.32"/><polyline class="cls-10" points="0.42 63.26 19.05 63.26 19.05 55.03 25.55 55.03"/><line class="cls-6" x1="0.43" y1="68.32" x2="25.55" y2="68.32"/><path class="cls-5" d="M388.16,218.27a.81.81,0,1,1-.8-.8A.8.8,0,0,1,388.16,218.27Z" transform="translate(-383.83 -151.62)"/><path class="cls-5" d="M390.76,218.27a.8.8,0,1,1-.8-.8A.8.8,0,0,1,390.76,218.27Z" transform="translate(-383.83 -151.62)"/><path class="cls-5" d="M393.37,218.27a.81.81,0,1,1-.8-.8A.8.8,0,0,1,393.37,218.27Z" transform="translate(-383.83 -151.62)"/><path class="cls-5" d="M402.11,218.27a.8.8,0,1,1-.8-.8A.8.8,0,0,1,402.11,218.27Z" transform="translate(-383.83 -151.62)"/><path class="cls-5" d="M404.72,218.27a.81.81,0,1,1-.8-.8A.8.8,0,0,1,404.72,218.27Z" transform="translate(-383.83 -151.62)"/><path class="cls-5" d="M407.32,218.27a.8.8,0,1,1-.8-.8A.8.8,0,0,1,407.32,218.27Z" transform="translate(-383.83 -151.62)"/><path class="cls-5" d="M396.41,218.27a.81.81,0,1,1-.81-.8A.8.8,0,0,1,396.41,218.27Z" transform="translate(-383.83 -151.62)"/><path class="cls-5" d="M399,218.27a.81.81,0,1,1-.8-.8A.8.8,0,0,1,399,218.27Z" transform="translate(-383.83 -151.62)"/><line class="cls-10" x1="6.49" y1="59.45" x2="6.49" y2="63.25"/><line class="cls-6" x1="10.64" y1="63.25" x2="10.64" y2="70.45"/><polygon class="cls-5" points="12.52 52.35 8.11 52.35 8.11 54.63 9.71 54.63 9.71 54.16 9.3 54.16 9.3 52.98 12.27 52.98 12.27 54.16 11.89 54.16 11.89 54.63 12.52 54.63 13.14 54.63 13.14 54.16 12.77 54.16 12.77 52.98 15.74 52.98 15.74 54.16 15.33 54.16 15.33 54.63 16.93 54.63 16.93 52.35 12.52 52.35"/><line class="cls-10" x1="6.49" y1="3.32" x2="25.52" y2="3.32"/><rect class="cls-8" x="1.11" y="1.62" width="0.83" height="0.45"/><rect class="cls-8" x="2.64" y="1.62" width="0.83" height="0.45"/><rect class="cls-8" x="4.17" y="1.62" width="0.83" height="0.45"/><rect class="cls-8" x="5.7" y="1.62" width="0.83" height="0.45"/><rect class="cls-8" x="7.22" y="1.62" width="0.83" height="0.45"/><rect class="cls-8" x="8.75" y="1.62" width="0.83" height="0.45"/><rect class="cls-8" x="10.28" y="1.62" width="0.83" height="0.45"/><rect class="cls-8" x="10.27" y="1.62" width="0.83" height="0.45"/><rect class="cls-8" x="11.8" y="1.62" width="0.83" height="0.45"/><rect class="cls-8" x="13.32" y="1.62" width="0.83" height="0.45"/><rect class="cls-8" x="14.85" y="1.62" width="0.83" height="0.45"/><rect class="cls-8" x="16.38" y="1.62" width="0.83" height="0.45"/><rect class="cls-8" x="17.91" y="1.62" width="0.83" height="0.45"/><rect class="cls-8" x="19.44" y="1.62" width="0.83" height="0.45"/><rect class="cls-8" x="19.45" y="1.62" width="0.83" height="0.45"/><rect class="cls-8" x="20.98" y="1.62" width="0.83" height="0.45"/><rect class="cls-8" x="22.51" y="1.62" width="0.83" height="0.45"/><rect class="cls-8" x="24.03" y="1.62" width="0.83" height="0.45"/><line class="cls-8" x1="0.54" y1="1.62" x2="25.61" y2="1.62"/><rect class="cls-10" x="19.04" y="55.03" width="6.51" height="6.72"/><line class="cls-6" x1="19.08" y1="58.57" x2="25.27" y2="58.57"/><rect class="cls-5" x="20.92" y="55.03" width="2.51" height="1.24"/><rect class="cls-5" x="21.42" y="56.81" width="1.52" height="1.76"/><rect class="cls-5" x="20.96" y="59.18" width="2.42" height="2.07"/><rect class="cls-5" x="10.63" y="64.95" width="4.88" height="5.56"/></g></svg>