<svg xmlns="http://www.w3.org/2000/svg" viewBox="0 0 17.05 183.87"><defs><style>.cls-1{fill:#000028;}.cls-2{fill:#00FFB9;}.cls-3{fill:#d9e6eb;}.cls-4{fill:#d9edf5;}.cls-5,.cls-6,.cls-7,.cls-8{fill:none;stroke:#00557c;}.cls-5,.cls-7{stroke-width:0.85px;}.cls-6,.cls-7{stroke-miterlimit:3.86;}.cls-6,.cls-8{stroke-width:0.23px;}</style></defs><g id="Original"><rect class="cls-1" x="4.06" y="183.01" width="4.74" height="0.71"/><rect class="cls-2" x="4.06" y="182.87" width="4.74" height="1"/><rect class="cls-3" x="4.06" y="182.87" width="4.74" height="1"/><rect class="cls-4" x="4.06" y="182.87" width="4.74" height="1"/><rect class="cls-1" x="4.06" y="183.01" width="4.74" height="0.71"/><rect class="cls-2" x="4.06" y="182.87" width="4.74" height="1"/><rect class="cls-3" x="4.06" y="182.87" width="4.74" height="1"/><rect class="cls-4" x="4.06" y="182.87" width="4.74" height="1"/><rect class="cls-2" x="0.43" y="0.43" width="16.2" height="41.13"/><rect class="cls-5" x="0.43" y="0.43" width="16.2" height="41.13"/><rect class="cls-1" x="1.24" y="1.3" width="4.84" height="1.29"/><rect class="cls-6" x="9.59" y="22.59" width="3.19" height="3.85"/><rect class="cls-6" x="9.59" y="26.98" width="3.19" height="3.85"/><path class="cls-6" d="M401.76,199.39a.31.31,0,0,0,.31-.31V190.4a.31.31,0,0,0-.31-.31h-5.6a.31.31,0,0,0-.31.31v8.68a.31.31,0,0,0,.31.31Z" transform="translate(-387.47 -168.03)"/><rect class="cls-4" x="1.37" y="3.17" width="0.9" height="0.9"/><rect class="cls-4" x="1.37" y="4.84" width="0.9" height="0.9"/><rect class="cls-4" x="1.37" y="6.51" width="0.9" height="0.9"/><rect class="cls-4" x="1.37" y="8.18" width="0.9" height="0.9"/><rect class="cls-4" x="1.37" y="9.85" width="0.9" height="0.9"/><rect class="cls-4" x="1.37" y="11.52" width="0.9" height="0.9"/><rect class="cls-4" x="1.37" y="13.19" width="0.9" height="0.9"/><rect class="cls-4" x="1.37" y="14.86" width="0.9" height="0.9"/><rect class="cls-4" x="4" y="3.17" width="0.9" height="0.9"/><rect class="cls-4" x="4" y="4.84" width="0.9" height="0.9"/><rect class="cls-4" x="4" y="6.51" width="0.9" height="0.9"/><rect class="cls-4" x="4" y="8.18" width="0.9" height="0.9"/><rect class="cls-4" x="4" y="9.85" width="0.9" height="0.9"/><rect class="cls-4" x="4" y="11.52" width="0.9" height="0.9"/><rect class="cls-4" x="4" y="13.19" width="0.9" height="0.9"/><rect class="cls-4" x="4" y="14.86" width="0.9" height="0.9"/><rect class="cls-6" x="1.53" y="17.77" width="2.68" height="2.68"/><polygon class="cls-6" points="5.88 36.96 5.88 36.12 5.32 36.12 5.32 35.02 2.76 35.02 2.76 40.86 5.32 40.86 5.32 39.84 5.88 39.84 5.88 38.99 5.32 38.99 5.32 36.96 5.88 36.96"/><path class="cls-6" d="M391.79,203.92a.42.42,0,0,1-.84,0,.42.42,0,0,1,.84,0Z" transform="translate(-387.47 -168.03)"/><path class="cls-6" d="M391.79,205.31a.42.42,0,1,1-.42-.42A.42.42,0,0,1,391.79,205.31Z" transform="translate(-387.47 -168.03)"/><path class="cls-6" d="M391.79,206.69a.42.42,0,1,1-.42-.42A.42.42,0,0,1,391.79,206.69Z" transform="translate(-387.47 -168.03)"/><path class="cls-6" d="M391.79,208.08a.42.42,0,0,1-.84,0,.42.42,0,0,1,.84,0Z" transform="translate(-387.47 -168.03)"/><line class="cls-6" x1="4.63" y1="35" x2="4.63" y2="40.91"/><path class="cls-6" d="M390.61,203v.34a.93.93,0,0,0,0,1.06v.34a.93.93,0,0,0,0,1.06v.34a.93.93,0,0,0,0,1.06v.33a1,1,0,0,0,0,1.07v.26" transform="translate(-387.47 -168.03)"/><polygon class="cls-6" points="5.88 36.96 5.88 36.12 5.32 36.12 5.32 35.02 2.76 35.02 2.76 40.86 5.32 40.86 5.32 39.84 5.88 39.84 5.88 38.99 5.32 38.99 5.32 36.96 5.88 36.96"/><path class="cls-6" d="M391.79,203.92a.42.42,0,0,1-.84,0,.42.42,0,0,1,.84,0Z" transform="translate(-387.47 -168.03)"/><path class="cls-6" d="M391.79,205.31a.42.42,0,1,1-.42-.42A.42.42,0,0,1,391.79,205.31Z" transform="translate(-387.47 -168.03)"/><path class="cls-6" d="M391.79,206.69a.42.42,0,1,1-.42-.42A.42.42,0,0,1,391.79,206.69Z" transform="translate(-387.47 -168.03)"/><path class="cls-6" d="M391.79,208.08a.42.42,0,0,1-.84,0,.42.42,0,0,1,.84,0Z" transform="translate(-387.47 -168.03)"/><line class="cls-6" x1="4.63" y1="35" x2="4.63" y2="40.91"/><path class="cls-6" d="M390.61,203v.34a.93.93,0,0,0,0,1.06v.34a.93.93,0,0,0,0,1.06v.34a.93.93,0,0,0,0,1.06v.33a1,1,0,0,0,0,1.07v.26" transform="translate(-387.47 -168.03)"/><polygon class="cls-6" points="5.88 33.56 5.88 32.43 5.32 32.43 5.32 31.52 2.76 31.52 2.76 34.64 5.32 34.64 5.32 33.56 5.88 33.56"/><path class="cls-6" d="M391.79,200.42a.42.42,0,1,1-.42-.42A.42.42,0,0,1,391.79,200.42Z" transform="translate(-387.47 -168.03)"/><path class="cls-6" d="M391.79,201.8a.42.42,0,0,1-.84,0,.42.42,0,0,1,.84,0Z" transform="translate(-387.47 -168.03)"/><path class="cls-6" d="M390.61,199.54v.33a1,1,0,0,0,0,1.07v.33a.93.93,0,0,0,0,1.06v.34" transform="translate(-387.47 -168.03)"/><polygon class="cls-6" points="5.88 33.56 5.88 32.43 5.32 32.43 5.32 31.52 2.76 31.52 2.76 34.64 5.32 34.64 5.32 33.56 5.88 33.56"/><path class="cls-6" d="M391.79,200.42a.42.42,0,1,1-.42-.42A.42.42,0,0,1,391.79,200.42Z" transform="translate(-387.47 -168.03)"/><path class="cls-6" d="M391.79,201.8a.42.42,0,0,1-.84,0,.42.42,0,0,1,.84,0Z" transform="translate(-387.47 -168.03)"/><path class="cls-6" d="M390.61,199.54v.33a1,1,0,0,0,0,1.07v.33a.93.93,0,0,0,0,1.06v.34" transform="translate(-387.47 -168.03)"/><polygon class="cls-6" points="5.88 30.07 5.88 28.94 5.32 28.94 5.32 28.03 2.76 28.03 2.76 31.15 5.32 31.15 5.32 30.07 5.88 30.07"/><path class="cls-6" d="M391.79,196.93a.42.42,0,1,1-.42-.42A.42.42,0,0,1,391.79,196.93Z" transform="translate(-387.47 -168.03)"/><path class="cls-6" d="M391.79,198.31a.42.42,0,0,1-.84,0,.42.42,0,0,1,.84,0Z" transform="translate(-387.47 -168.03)"/><path class="cls-6" d="M390.61,196.05v.33a1,1,0,0,0,0,1.07v.33a.93.93,0,0,0,0,1.06v.34" transform="translate(-387.47 -168.03)"/><polygon class="cls-6" points="5.88 30.07 5.88 28.94 5.32 28.94 5.32 28.03 2.76 28.03 2.76 31.15 5.32 31.15 5.32 30.07 5.88 30.07"/><path class="cls-6" d="M391.79,196.93a.42.42,0,1,1-.42-.42A.42.42,0,0,1,391.79,196.93Z" transform="translate(-387.47 -168.03)"/><path class="cls-6" d="M391.79,198.31a.42.42,0,0,1-.84,0,.42.42,0,0,1,.84,0Z" transform="translate(-387.47 -168.03)"/><path class="cls-6" d="M390.61,196.05v.33a1,1,0,0,0,0,1.07v.33a.93.93,0,0,0,0,1.06v.34" transform="translate(-387.47 -168.03)"/><polyline class="cls-7" points="6.98 0.45 6.98 21.36 0.42 21.36 0.42 0.45"/><path class="cls-6" d="M391.69,190.05a.68.68,0,1,1-.68.68A.67.67,0,0,1,391.69,190.05Z" transform="translate(-387.47 -168.03)"/><rect class="cls-6" x="2.61" y="23.71" width="3.54" height="3.96"/><polygon class="cls-6" points="3.69 24.34 3.69 24.93 3.21 24.93 3.21 25.69 3.21 26.46 3.69 26.46 3.69 27.04 5.53 27.04 5.53 25.69 5.53 24.34 3.69 24.34"/><rect class="cls-8" x="9.59" y="3.93" width="3.19" height="3.85"/><rect class="cls-8" x="9.59" y="8.32" width="3.19" height="3.85"/><rect class="cls-8" x="9.59" y="12.7" width="3.19" height="3.85"/><rect class="cls-8" x="9.59" y="17.09" width="3.19" height="3.85"/><path class="cls-8" d="M401.76,189.4a.31.31,0,0,0,.31-.31V171.74a.31.31,0,0,0-.31-.31h-5.6a.31.31,0,0,0-.31.31v17.35a.31.31,0,0,0,.31.31Z" transform="translate(-387.47 -168.03)"/><rect class="cls-6" x="8.54" y="32.18" width="2.56" height="7.18"/><line class="cls-6" x1="8.54" y1="35.77" x2="11.1" y2="35.77"/><polygon class="cls-6" points="11.1 32.68 10.3 32.68 10.54 33.63 11.1 33.63 11.1 32.68"/><polygon class="cls-6" points="11.1 35.28 10.3 35.28 10.54 34.33 11.1 34.33 11.1 35.28"/><polygon class="cls-6" points="11.1 36.27 10.3 36.27 10.54 37.22 11.1 37.22 11.1 36.27"/><polygon class="cls-6" points="11.1 38.87 10.3 38.87 10.54 37.92 11.1 37.92 11.1 38.87"/></g></svg>