<svg xmlns="http://www.w3.org/2000/svg" viewBox="0 0 273.73 50.91"><defs><style>.cls-1{fill:#000028;}.cls-2,.cls-3{fill:none;stroke:#00FFB9;}.cls-2{stroke-width:0.85px;}.cls-3{stroke-width:0.23px;}.cls-4{fill:#00FFB9;}.cls-5{fill:#00CCCC;}.cls-6{fill:#00CCCC;}</style></defs><g id="Original"><polygon class="cls-1" points="258.78 0.4 258.78 0.43 15.04 0.43 15.04 0.4 2.17 0.4 0.47 2.1 0.47 48.75 2.17 50.45 15.04 50.45 15.04 50.37 258.78 50.37 258.78 50.45 271.64 50.45 273.35 48.75 273.35 2.1 271.64 0.4 258.78 0.4"/><line class="cls-2" x1="215.57" y1="0.74" x2="215.57" y2="49.94"/><path class="cls-2" d="M526.63,176.09a2.83,2.83,0,1,0-5.66,0v20a2.83,2.83,0,1,0,5.66,0Z" transform="translate(-259.97 -161.65)"/><path class="cls-2" d="M267,196.11a2.84,2.84,0,1,0,5.67,0v-20a2.84,2.84,0,1,0-5.67,0Z" transform="translate(-259.97 -161.65)"/><line class="cls-3" x1="13.01" y1="50.48" x2="13.01" y2="0.43"/><line class="cls-2" x1="15.48" y1="50.48" x2="15.48" y2="0.43"/><line class="cls-3" x1="261" y1="50.48" x2="261" y2="0.43"/><line class="cls-2" x1="258.53" y1="50.48" x2="258.53" y2="0.43"/><polyline class="cls-2" points="218.76 49.94 218.76 31.75 218.76 0.74"/><path class="cls-3" d="M505,174a3.29,3.29,0,1,0-3.29,3.29A3.28,3.28,0,0,0,505,174Z" transform="translate(-259.97 -161.65)"/><rect class="cls-3" x="241.02" y="10.79" width="1.42" height="4.7"/><path class="cls-2" d="M506.8,174a5.11,5.11,0,1,0-5.11,5.11A5.11,5.11,0,0,0,506.8,174Z" transform="translate(-259.97 -161.65)"/><rect class="cls-4" x="151.92" y="0.74" width="32.48" height="49.66"/><rect class="cls-5" x="155.88" y="9.21" width="24.54" height="6.55"/><polygon class="cls-2" points="258.73 0.42 258.73 0.45 14.99 0.45 14.99 0.42 2.13 0.42 0.42 2.13 0.42 48.78 2.13 50.48 14.99 50.48 14.99 50.4 258.73 50.4 258.73 50.48 271.6 50.48 273.3 48.78 273.3 2.13 271.6 0.42 258.73 0.42"/><polygon class="cls-2" points="104.98 13.76 102.34 12.23 91.22 15.63 91.22 35.5 102.34 38.9 104.98 37.38 104.98 13.76"/><path class="cls-2" d="M303.77,203.56V170.42l0-4.94h0a1.07,1.07,0,0,0-1.07-1.07h-7.32a1.07,1.07,0,0,0-1.06,1.07h0l0,4.94v33.14l0,5.15h0a1.07,1.07,0,0,0,1.06,1.07h7.32a1.07,1.07,0,0,0,1.07-1.07h0Z" transform="translate(-259.97 -161.65)"/><path class="cls-2" d="M322.76,203.56V170.42l-.05-4.94h0a1.07,1.07,0,0,0-1.07-1.07h-7.32a1.06,1.06,0,0,0-1.06,1.07h0l-.05,4.94v33.14l.05,5.15h0a1.06,1.06,0,0,0,1.06,1.07h7.32a1.07,1.07,0,0,0,1.07-1.07h0Z" transform="translate(-259.97 -161.65)"/><path class="cls-2" d="M341.75,203.56V170.42l-.06-4.94h0a1.06,1.06,0,0,0-1.06-1.07h-7.32a1.06,1.06,0,0,0-1.06,1.07h0l-.06,4.94v33.14l.06,5.15h0a1.06,1.06,0,0,0,1.06,1.07h7.32a1.06,1.06,0,0,0,1.06-1.07h0Z" transform="translate(-259.97 -161.65)"/><path class="cls-2" d="M392,206.09v3.69H371.28a1.07,1.07,0,0,1-1.07-1.07h0l0-5.15V170.42l0-4.94h0a1.07,1.07,0,0,1,1.07-1.07H392v3.8" transform="translate(-259.97 -161.65)"/><path class="cls-2" d="M364.94,186.1" transform="translate(-259.97 -161.65)"/><path class="cls-2" d="M360.73,173.05l4.21,2.36V199l-4.21,2.44v2.1l-.05,5.15h0a1.06,1.06,0,0,1-1.06,1.07H352.3a1.06,1.06,0,0,1-1.06-1.07h0l-.06-5.15V170.42l.06-4.94h0a1.06,1.06,0,0,1,1.06-1.07h7.32a1.06,1.06,0,0,1,1.06,1.07h0l.05,4.94Z" transform="translate(-259.97 -161.65)"/><polyline class="cls-3" points="15.48 0.42 26.28 11.22 26.39 39.57 15.48 50.48"/><line class="cls-3" x1="26.28" y1="11.22" x2="123.25" y2="11.22"/><line class="cls-3" x1="26.28" y1="39.69" x2="123.25" y2="39.69"/><polygon class="cls-6" points="123.86 8.3 123.63 8.34 123.43 8.44 123.27 8.6 123.16 8.81 123.12 9.04 123.12 41.97 123.16 42.2 123.27 42.4 123.43 42.56 123.63 42.67 123.86 42.7 144.72 42.7 144.95 42.67 145.15 42.56 145.31 42.4 145.42 42.2 145.46 41.97 145.46 9.04 145.42 8.81 145.31 8.6 145.15 8.44 144.95 8.34 144.72 8.3 123.86 8.3"/><rect class="cls-2" x="123.12" y="6.56" width="24.94" height="37.88" rx="1.9"/></g></svg>